<?xml version="1.0" encoding="utf-8"?>
<!-- Generator: Adobe Illustrator 22.0.0, SVG Export Plug-In . SVG Version: 6.00 Build 0)  -->
<svg version="1.1" id="Capa_1" xmlns="http://www.w3.org/2000/svg" xmlns:xlink="http://www.w3.org/1999/xlink" x="0px" y="0px"
	 viewBox="0 0 1026.1 1026.1" style="enable-background:new 0 0 1026.1 1026.1;" xml:space="preserve">
<style type="text/css">
	.st0{fill:#28A8E0;}
</style>
<g>
	<g>
		<path class="st0" d="M482.4,586.1c-100.8,0-182.5,81.7-182.5,182.5S381.7,951,482.4,951s182.5-81.7,182.5-182.5
			S583.2,586.1,482.4,586.1z"/>
	</g>
	<g>
		<path class="st0" d="M709.4,551.2c54.1,56.5,87.3,133,87.3,217.3c0,106.7-53.4,201-134.7,257.9c150.5-46.4,275-159.6,330.9-296.6
			c77.2-189.5,5.2-332.3-115.1-461.5c3.7,16.8,5.8,34.1,5.8,52C883.3,430,809.8,522.4,709.4,551.2z"/>
	</g>
	<g>
		<path class="st0" d="M503.2,320.3c0,77.2,62.5,139.6,139.6,139.6c77.2,0,139.6-62.5,139.6-139.6S720,180.7,642.9,180.7
			C565.7,180.7,503.2,243.1,503.2,320.3z"/>
	</g>
	<g>
		<path class="st0" d="M242,971c-46-54.8-73.8-125.3-73.8-202.4c0-160.8,120.9-293.4,276.8-312c-26.8-38.8-42.5-85.7-42.5-136.3
			c0-132.8,107.6-240.4,240.4-240.4c11,0,21.7,0.9,32.4,2.3C596.5,14.3,518.1-54.6,456.2-129.9C487.7,199.8,155.9,79.9,33.3,383.6
			C-48.9,587.5,25.3,839.2,242,971z"/>
	</g>
</g>
</svg>
