<svg xmlns="http://www.w3.org/2000/svg" xmlns:xlink="http://www.w3.org/1999/xlink" preserveAspectRatio="xMidYMid" width="60" height="80" viewBox="0 0 60 80">
  <defs>
    <style>
      .cls-1 {
        fill: #393b48;
        filter: url(#color-overlay-1);
        fill-rule: evenodd;
      }
    </style>

    <filter id="color-overlay-1" filterUnits="userSpaceOnUse">
      <feFlood flood-color="#be3272"/>
      <feComposite operator="in" in2="SourceGraphic"/>
      <feBlend in2="SourceGraphic" result="solidFill"/>
    </filter>
  </defs>
  <path d="M30.000,13.897 L40.303,29.375 L46.081,38.105 C48.645,41.585 49.999,45.678 49.999,49.939 C49.999,60.984 41.027,69.970 30.000,69.970 C18.972,69.970 10.000,60.984 10.000,49.939 C10.000,45.678 11.355,41.585 13.918,38.105 L19.697,29.375 L30.000,13.897 M30.000,0.001 C28.383,0.001 26.767,0.698 25.839,2.092 L5.840,32.139 L5.871,32.159 C2.199,37.145 -0.000,43.282 -0.000,49.939 C-0.000,66.508 13.457,79.986 30.000,79.986 C46.543,79.986 60.000,66.508 60.000,49.939 C60.000,43.282 57.801,37.145 54.128,32.159 L54.160,32.139 L34.160,2.092 C33.232,0.698 31.616,0.001 30.000,0.001 L30.000,0.001 Z" class="cls-1"/>
</svg>
