<?xml version="1.0" encoding="utf-8"?>
<!-- Generator: Adobe Illustrator 16.0.0, SVG Export Plug-In . SVG Version: 6.00 Build 0)  -->
<!DOCTYPE svg PUBLIC "-//W3C//DTD SVG 1.1//EN" "http://www.w3.org/Graphics/SVG/1.1/DTD/svg11.dtd">
<svg version="1.1" id="Capa_19" xmlns="http://www.w3.org/2000/svg" xmlns:xlink="http://www.w3.org/1999/xlink" x="0px" y="0px"
	 width="525px" height="73px" viewBox="0 0 525 73" style="enable-background:new 0 0 525 73;" xml:space="preserve">
<style type="text/css">
<![CDATA[
	.st0{fill:#1123C9;}
	.st1{fill:url(#XMLID_3_);}
	.st2{fill:#FFFFFF;}
]]>
</style>
<linearGradient id="XMLID_3_" gradientUnits="userSpaceOnUse" x1="0" y1="37.75" x2="387.5005" y2="37.75" gradientTransform="matrix(1 0 0 -1 0 74.5)">
	<stop  offset="0" style="stop-color:#B9007C"/>
	<stop  offset="1" style="stop-color:#C44732"/>
</linearGradient>
<rect id="XMLID_1124_" class="st1" width="387.5" height="73.5"/>
<rect id="XMLID_603_" x="387.5" class="st2" width="138.199" height="73.5"/>
<g id="XMLID_1123_">
	<path id="XMLID_2_" class="st2" d="M35.2,51.7V23.2h6.7c3.8,0,6.8,1,8.9,3.1C53.6,29,55,32.7,55,37.5c0,4.7-1.2,8.4-3.5,11
		c-2,2.2-5,3.3-9,3.3h-7.3V51.7z M42.9,44.8c2.8-0.1,4.1-2.5,4.1-7.1c0-2.3-0.4-4.1-1.1-5.4c-0.7-1.3-1.7-2-2.8-2h-0.2V44.8z"/>
	<path id="XMLID_5_" class="st2" d="M78.5,51.7h-8.3l-3.8-10.2c0-0.2-0.1-0.4-0.2-0.7c-0.1-0.3-0.2-0.6-0.3-1l0.1,1.9v10h-7.7V23.2
		h7.9c3.5,0,6.1,0.7,7.8,2.1c2.2,1.7,3.3,4.2,3.3,7.5c0,3.4-1.5,5.8-4.4,7.101L78.5,51.7z M65.9,36.4h0.5c0.9,0,1.6-0.3,2.2-1
		c0.6-0.7,0.9-1.5,0.9-2.6c0-2.1-1.1-3.2-3.3-3.2h-0.3V36.4z"/>
	<path id="XMLID_8_" class="st2" d="M92.5,23.2h7.7v20.2c0,1.699-0.3,3.1-0.8,4.1c-0.5,1.1-1.4,2.1-2.6,3c-1.6,1.2-3.6,1.8-5.9,1.8
		c-2.6,0-4.8-0.7-6.6-2c-2.3-1.7-3.4-4.3-3.4-8V23.2h7.7V41.6c0,1.2,0.2,2.101,0.5,2.601c0.3,0.5,0.8,0.8,1.5,0.8
		c0.7,0,1.2-0.2,1.5-0.7c0.3-0.5,0.4-1.399,0.4-2.7V23.2z"/>
	<path id="XMLID_10_" class="st2" d="M111.9,51.7h-7.7V23.2h7.5c3.7,0,6.5,0.8,8.3,2.3c2.1,1.8,3.2,4.3,3.2,7.4c0,3.5-1.1,6-3.4,7.7
		c-1.5,1.101-3.8,1.7-6.6,1.7H112v9.4H111.9z M111.9,35.9h0.4c0.9,0,1.7-0.3,2.2-0.9s0.8-1.4,0.8-2.4s-0.3-1.8-0.8-2.4
		c-0.5-0.6-1.2-0.9-2.1-0.9h-0.5V35.9z"/>
	<path id="XMLID_13_" class="st2" d="M145.1,51.7h-8l-0.6-3.601h-5.2l-0.6,3.601h-8l6.9-28.5h9.4L145.1,51.7z M135.6,41.9
		l-0.5-3.301c0,0,0-0.199-0.1-0.5c0-0.3-0.2-1.3-0.4-3.2c0-0.2-0.1-0.5-0.1-0.9s-0.1-0.8-0.1-1.4l-0.2-2.7c0,0.3-0.1,0.5-0.1,0.9
		c0,0.4-0.1,0.7-0.1,1.1c-0.1,0.8-0.1,1.3-0.2,1.6c0,0.3-0.1,0.5-0.1,0.5l-0.5,3.5l-0.8,4.5h3.2V41.9z"/>
	<path id="XMLID_16_" class="st2" d="M160.8,51.7h-13.5V23.2h7.7v21.7h5.8V51.7z"/>
	<path id="XMLID_18_" class="st2" d="M179,42.9l-0.4,8.199c-1.7,0.7-3.2,1-4.6,1c-3.2,0-5.9-1.199-8.1-3.5
		c-2.4-2.6-3.7-6.3-3.7-11.1c0-4.5,1.1-8.1,3.4-10.8c2.3-2.7,5.4-4.1,9.2-4.1c1.2,0,2.5,0.2,3.8,0.7v8.1c-1.1-1.1-2.3-1.7-3.5-1.7
		c-1.6,0-2.8,0.7-3.7,2c-0.9,1.4-1.3,3.2-1.3,5.6c0,1.2,0.1,2.2,0.3,3.101c0.2,0.899,0.5,1.699,1,2.3c0.4,0.6,0.9,1.1,1.5,1.399
		c0.6,0.301,1.3,0.5,2.1,0.5C176.3,44.8,177.7,44.1,179,42.9z"/>
	<path id="XMLID_20_" class="st2" d="M203,51.7h-8l-0.6-3.601h-5.2l-0.6,3.601h-8l6.9-28.5h9.4L203,51.7z M193.6,41.9l-0.5-3.301
		c0,0,0-0.199-0.1-0.5c0-0.3-0.2-1.3-0.4-3.2c0-0.2-0.1-0.5-0.1-0.9s-0.1-0.8-0.1-1.4l-0.2-2.7c0,0.3-0.1,0.5-0.1,0.9
		c0,0.4-0.1,0.7-0.1,1.1c-0.1,0.8-0.1,1.3-0.2,1.6c0,0.3-0.1,0.5-0.1,0.5l-0.5,3.5l-0.8,4.5h3.2V41.9z"/>
	<path id="XMLID_23_" class="st2" d="M234.6,51.7h-8.1l-0.6-13l-0.2-5.2c-0.1,1-0.2,1.9-0.3,2.9c-0.1,0.9-0.2,1.8-0.4,2.6l-2.4,12.7
		h-6.3l-2-12.7c-0.1-0.7-0.3-2-0.5-3.8c0-0.3-0.1-0.8-0.2-1.7l-0.2,5.3l-0.7,12.9h-8.2l3.3-28.5h9.6l1.6,9.6
		c0.1,0.8,0.3,1.6,0.4,2.6c0.1,0.9,0.2,1.9,0.3,3c0.2-1.8,0.4-3.4,0.7-4.9l2-10.3h9.5L234.6,51.7z"/>
	<path id="XMLID_25_" class="st2" d="M245.7,51.7H238V23.2h7.5c3.7,0,6.5,0.8,8.3,2.3c2.1,1.8,3.2,4.3,3.2,7.4c0,3.5-1.1,6-3.4,7.7
		c-1.5,1.101-3.8,1.7-6.6,1.7h-1.2v9.4H245.7z M245.7,35.9h0.4c0.9,0,1.7-0.3,2.2-0.9s0.8-1.4,0.8-2.4s-0.3-1.8-0.8-2.4
		c-0.5-0.6-1.2-0.9-2.1-0.9h-0.5V35.9L245.7,35.9z"/>
	<path id="XMLID_28_" class="st2" d="M289.9,51.7h-19.601l7.801-10.4c0.9-1.2,1.6-2.2,2.199-3.2c0.601-1,1.101-1.8,1.4-2.5
		c0.7-1.3,1-2.7,1-4.1c0-0.8-0.199-1.4-0.5-1.8c-0.3-0.5-0.8-0.7-1.3-0.7c-1.2,0-1.8,1.2-1.8,3.5c0,0.1,0,0.3,0,0.4
		c0,0.2,0,0.4,0,0.6h-7.5v-1c0-2.9,0.9-5.2,2.699-7.1c1.801-1.8,4.101-2.8,6.9-2.8c2.7,0,4.9,0.9,6.6,2.6
		c1.701,1.7,2.601,3.9,2.601,6.7c0,2.2-0.601,4.4-1.8,6.5c-0.6,1-1.4,2.1-2.301,3.3c-0.899,1.2-2.1,2.399-3.399,3.6
		c1.2-0.1,2.3-0.1,3.5-0.2c1.2,0,2.399-0.1,3.601-0.1v6.7H289.9z"/>
	<path id="XMLID_30_" class="st2" d="M313.2,37.6c0,4.5-0.9,8-2.699,10.601c-1.801,2.6-4.201,3.899-7.101,3.899
		c-3.2,0-5.8-1.3-7.601-4c-1.799-2.6-2.699-6.3-2.699-11c0-4.5,0.9-8,2.699-10.6c1.801-2.6,4.301-3.9,7.4-3.9s5.6,1.3,7.4,4
		C312.401,29.3,313.2,32.9,313.2,37.6z M305.6,37.6c0-5.5-0.801-8.3-2.5-8.3c-1.7,0-2.5,2.5-2.5,7.4c0,5.899,0.8,8.8,2.4,8.8
		c0.899,0,1.5-0.6,1.899-1.9C305.299,42.3,305.6,40.3,305.6,37.6z"/>
	<path id="XMLID_33_" class="st2" d="M328.401,51.7H320.7V29.9h-3.1v-6.7h10.801V51.7L328.401,51.7z"/>
	<path id="XMLID_35_" class="st2" d="M342,51.7H333.7l6.9-15.2c0.5-1.1,1.1-2.2,1.699-3.3c0.602-1.1,1.301-2.2,2-3.3H334.6v-6.7
		h20.199L342,51.7z"/>
</g>
<g id="XMLID_600_">
	<path id="XMLID_50_" class="st0" d="M434.1,45.5h-4.9l-0.4-8l-0.1-3.2c-0.1,0.6-0.1,1.2-0.199,1.7c-0.1,0.6-0.201,1.1-0.201,1.6
		l-1.5,7.801H423L421.7,37.6c-0.1-0.5-0.199-1.2-0.299-2.3c0-0.2,0-0.5-0.102-1l-0.1,3.2l-0.4,7.9h-5l2-17.5h5.9l1,5.9
		c0.1,0.5,0.201,1,0.201,1.6c0.1,0.6,0.1,1.2,0.199,1.8c0.1-1.1,0.199-2.1,0.4-3l1.199-6.3h5.801L434.1,45.5z"/>
	<path id="XMLID_52_" class="st0" d="M448.799,45.5h-4.898l-0.4-2.2h-3.201l-0.398,2.2H435L439.2,28H445L448.799,45.5z M443,39.5
		l-0.301-2c0,0,0-0.1,0-0.3s-0.1-0.8-0.199-2c0-0.1,0-0.3-0.1-0.5c0-0.2-0.102-0.5-0.102-0.8l-0.1-1.7c0,0.2,0,0.3-0.1,0.5
		c-0.1,0.2-0.1,0.4-0.1,0.6c-0.1,0.5-0.1,0.8-0.1,1c0,0.2,0,0.3,0,0.3l-0.301,2.1l-0.5,2.7h1.9V39.5z"/>
	<path id="XMLID_55_" class="st0" d="M450.2,45.5V28h4.1c2.301,0,4.102,0.6,5.4,1.9c1.701,1.6,2.6,3.9,2.6,6.9
		c0,2.9-0.699,5.101-2.199,6.7c-1.199,1.3-3.1,2-5.5,2H450.2z M454.901,41.3c1.699-0.1,2.5-1.5,2.5-4.4c0-1.4-0.201-2.5-0.602-3.3
		c-0.398-0.8-1-1.2-1.699-1.2H455v8.9H454.901z"/>
	<path id="XMLID_58_" class="st0" d="M476.7,45.5h-5.1l-2.301-6.2c0-0.1-0.1-0.2-0.1-0.399c-0.1-0.2-0.1-0.4-0.199-0.601v1.2v6.1
		h-4.701V28h4.801c2.1,0,3.699,0.4,4.801,1.3c1.299,1.1,2,2.6,2,4.6c0,2.1-0.9,3.6-2.701,4.4L476.7,45.5z M469,36.1h0.299
		c0.5,0,1-0.2,1.4-0.6s0.5-0.9,0.5-1.6c0-1.3-0.699-2-2-2H469V36.1z"/>
	<path id="XMLID_61_" class="st0" d="M482.901,45.5H478.2V28h4.701V45.5z"/>
	<path id="XMLID_63_" class="st0" d="M485.401,45.5V28h4.1c2.299,0,4.1,0.6,5.4,1.9c1.699,1.6,2.6,3.9,2.6,6.9
		c0,2.9-0.701,5.101-2.201,6.7c-1.199,1.3-3.1,2-5.5,2H485.401z M490.1,41.3c1.699-0.1,2.5-1.5,2.5-4.4c0-1.4-0.199-2.5-0.6-3.3
		c-0.4-0.8-1-1.2-1.701-1.2h-0.1v8.9H490.1z"/>
</g>
</svg>
