<svg xmlns="http://www.w3.org/2000/svg" xmlns:xlink="http://www.w3.org/1999/xlink" preserveAspectRatio="xMidYMid" width="60" height="80" viewBox="0 0 60 80">
  <defs>
    <style>
      .cls-1 {
        fill: #393b48;
        filter: url(#color-overlay-1);
        fill-rule: evenodd;
      }
    </style>

    <filter id="color-overlay-1" filterUnits="userSpaceOnUse">
      <feFlood flood-color="#452ae2"/>
      <feComposite operator="in" in2="SourceGraphic"/>
      <feBlend in2="SourceGraphic" result="solidFill"/>
    </filter>
  </defs>
  <path d="M40.000,-0.000 L20.000,-0.000 C8.954,-0.000 -0.000,8.953 -0.000,20.000 L-0.000,59.999 C-0.000,71.045 8.954,80.000 20.000,80.000 L40.000,80.000 C51.045,80.000 60.000,71.045 60.000,59.999 L60.000,20.000 C60.000,8.953 51.045,-0.000 40.000,-0.000 ZM50.000,20.000 L50.000,24.999 L35.000,24.999 L35.000,9.999 L40.000,9.999 C45.514,9.999 50.000,14.486 50.000,20.000 ZM20.000,9.999 L25.000,9.999 L25.000,24.999 L10.000,24.999 L10.000,20.000 C10.000,14.486 14.486,9.999 20.000,9.999 ZM40.000,69.999 L20.000,69.999 C14.486,69.999 10.000,65.514 10.000,59.999 L10.000,35.000 L50.000,35.000 L50.000,59.999 C50.000,65.514 45.514,69.999 40.000,69.999 Z" class="cls-1"/>
</svg>
