<?xml version="1.0" encoding="utf-8"?>
<!-- Generator: Adobe Illustrator 19.0.0, SVG Export Plug-In . SVG Version: 6.00 Build 0)  -->
<svg version="1.1" xmlns="http://www.w3.org/2000/svg" xmlns:xlink="http://www.w3.org/1999/xlink" x="0px" y="0px" width="156.2px"
	 height="364.6px" viewBox="0 0 156.2 364.6" style="enable-background:new 0 0 156.2 364.6;" xml:space="preserve">
<style type="text/css">
	.st0{fill:#FFFFFF;}
	.st1{clip-path:url(#XMLID_16_);}
	.st2{fill:#1123C9;}
</style>
<g id="Capa_8">
	<g id="XMLID_1_">
		<g id="XMLID_56_">
			<path id="XMLID_119_" class="st0" d="M72.7,257.2c39.7-24.4,66.1-68.3,66.1-118.3C138.9,62.2,76.7,0,0,0v69.4
				c38.4,0,69.4,31.1,69.4,69.4S38.4,208.3,0,208.3v69.4l69.4,86.8h86.8L72.7,257.2z"/>
		</g>
	</g>
</g>
<g id="Capa_8_copia">
	<g id="XMLID_315_">
		<defs>
			<path id="XMLID_257_" d="M72.7,257.2c39.7-24.4,66.1-68.3,66.1-118.3C138.9,62.2,76.7,0,0,0v69.4c38.4,0,69.4,31.1,69.4,69.4
				S38.4,208.3,0,208.3v69.4l69.4,86.8h86.8L72.7,257.2z"/>
		</defs>
		<clipPath id="XMLID_16_">
			<use xlink:href="#XMLID_257_"  style="overflow:visible;"/>
		</clipPath>
		<g id="XMLID_260_" class="st1">
			<g id="XMLID_369_">
				<polygon id="XMLID_314_" class="st2" points="-158.9,-226.4 -174.6,-192.8 -158.9,-159.2 -174.6,-125.7 -158.9,-92.1 
					-174.6,-58.5 -158.9,-25 -174.6,8.6 -158.9,42.1 -174.6,75.7 -158.9,109.2 -174.6,142.8 -158.9,176.4 -174.6,209.9 
					-158.9,243.5 -174.6,277 -158.9,310.6 -174.6,344.1 -158.9,377.7 -174.6,411.3 -158.9,444.8 -174.6,478.4 -158.9,511.9 
					-174.6,545.5 -158.9,579.1 -174.6,612.6 -158.9,646.2 -174.6,679.7 -158.9,713.3 -174.6,746.9 -158.9,780.4 -174.6,814 
					-158.9,847.5 -175.4,882.9 -183.3,879.2 -168.5,847.5 -184.2,814 -168.5,780.4 -184.2,746.9 -168.5,713.3 -184.2,679.7 
					-168.5,646.2 -184.2,612.6 -168.5,579.1 -184.2,545.5 -168.5,511.9 -184.2,478.4 -168.5,444.8 -184.2,411.3 -168.5,377.7 
					-184.2,344.1 -168.5,310.6 -184.2,277 -168.5,243.5 -184.2,209.9 -168.5,176.4 -184.2,142.8 -168.5,109.2 -184.2,75.7 
					-168.5,42.1 -184.2,8.6 -168.5,-25 -184.2,-58.5 -168.5,-92.1 -184.2,-125.7 -168.5,-159.2 -184.2,-192.8 -168.5,-226.4 
					-184.2,-259.9 -168.5,-293.5 -184.2,-327 -168.5,-360.6 -184.2,-394.2 -167.6,-429.6 -159.8,-425.9 -174.6,-394.2 
					-158.9,-360.6 -174.6,-327 -158.9,-293.5 -174.6,-259.9 				"/>
			</g>
			<g id="XMLID_366_">
				<polygon id="XMLID_312_" class="st2" points="-136.7,176.4 -152.4,209.9 -136.7,243.5 -152.4,277 -136.7,310.6 -152.4,344.1 
					-136.7,377.7 -152.4,411.3 -136.7,444.8 -152.4,478.4 -136.7,511.9 -152.4,545.5 -136.7,579.1 -152.4,612.6 -136.7,646.2 
					-152.4,679.7 -136.7,713.3 -152.4,746.9 -136.7,780.4 -152.4,814 -136.7,847.5 -153.3,882.9 -161.2,879.2 -146.3,847.5 
					-162,814 -146.3,780.4 -162,746.9 -146.3,713.3 -162,679.7 -146.3,646.2 -162,612.6 -146.3,579.1 -162,545.5 -146.3,511.9 
					-162,478.4 -146.3,444.8 -162,411.3 -146.3,377.7 -162,344.1 -146.3,310.6 -162,277 -146.3,243.5 -162,209.9 -146.3,176.4 
					-162,142.8 -146.3,109.2 -162,75.7 -146.3,42.1 -162,8.6 -146.3,-25 -162,-58.5 -146.3,-92.1 -162,-125.7 -146.3,-159.2 
					-162,-192.8 -146.3,-226.4 -162,-259.9 -146.3,-293.5 -162,-327 -146.3,-360.6 -162,-394.2 -145.5,-429.6 -137.6,-425.9 
					-152.4,-394.2 -136.7,-360.6 -152.4,-327 -136.7,-293.5 -152.4,-259.9 -136.7,-226.4 -152.4,-192.8 -136.7,-159.2 
					-152.4,-125.7 -136.7,-92.1 -152.4,-58.5 -136.7,-25 -152.4,8.6 -136.7,42.1 -152.4,75.7 -136.7,109.2 -152.4,142.8 				"/>
			</g>
			<g id="XMLID_363_">
				<polygon id="XMLID_311_" class="st2" points="-114.6,-226.4 -130.3,-192.8 -114.6,-159.2 -130.3,-125.7 -114.6,-92.1 
					-130.3,-58.5 -114.6,-25 -130.3,8.6 -114.6,42.1 -130.3,75.7 -114.6,109.2 -130.3,142.8 -114.6,176.4 -130.3,209.9 
					-114.6,243.5 -130.3,277 -114.6,310.6 -130.3,344.1 -114.6,377.7 -130.3,411.3 -114.6,444.8 -130.3,478.4 -114.6,511.9 
					-130.3,545.5 -114.6,579.1 -130.3,612.6 -114.6,646.2 -130.3,679.7 -114.6,713.3 -130.3,746.9 -114.6,780.4 -130.3,814 
					-114.6,847.5 -131.1,882.9 -139,879.2 -124.2,847.5 -139.9,814 -124.2,780.4 -139.9,746.9 -124.2,713.3 -139.9,679.7 
					-124.2,646.2 -139.9,612.6 -124.2,579.1 -139.9,545.5 -124.2,511.9 -139.9,478.4 -124.2,444.8 -139.9,411.3 -124.2,377.7 
					-139.9,344.1 -124.2,310.6 -139.9,277 -124.2,243.5 -139.9,209.9 -124.2,176.4 -139.9,142.8 -124.2,109.2 -139.9,75.7 
					-124.2,42.1 -139.9,8.6 -124.2,-25 -139.9,-58.5 -124.2,-92.1 -139.9,-125.7 -124.2,-159.2 -139.9,-192.8 -124.2,-226.4 
					-139.9,-259.9 -124.2,-293.5 -139.9,-327 -124.2,-360.6 -139.9,-394.2 -123.3,-429.6 -115.4,-425.9 -130.3,-394.2 
					-114.6,-360.6 -130.3,-327 -114.6,-293.5 -130.3,-259.9 				"/>
			</g>
			<g id="XMLID_360_">
				<polygon id="XMLID_309_" class="st2" points="-92.4,-25 -108.1,8.6 -92.4,42.1 -108.1,75.7 -92.4,109.2 -108.1,142.8 
					-92.4,176.4 -108.1,209.9 -92.4,243.5 -108.1,277 -92.4,310.6 -108.1,344.1 -92.4,377.7 -108.1,411.3 -92.4,444.8 -108.1,478.4 
					-92.4,511.9 -108.1,545.5 -92.4,579.1 -108.1,612.6 -92.4,646.2 -108.1,679.7 -92.4,713.3 -108.1,746.9 -92.4,780.4 -108.1,814 
					-92.4,847.5 -109,882.9 -116.9,879.2 -102,847.5 -117.7,814 -102,780.4 -117.7,746.9 -102,713.3 -117.7,679.7 -102,646.2 
					-117.7,612.6 -102,579.1 -117.7,545.5 -102,511.9 -117.7,478.4 -102,444.8 -117.7,411.3 -102,377.7 -117.7,344.1 -102,310.6 
					-117.7,277 -102,243.5 -117.7,209.9 -102,176.4 -117.7,142.8 -102,109.2 -117.7,75.7 -102,42.1 -117.7,8.6 -102,-25 
					-117.7,-58.5 -102,-92.1 -117.7,-125.7 -102,-159.2 -117.7,-192.8 -102,-226.4 -117.7,-259.9 -102,-293.5 -117.7,-327 
					-102,-360.6 -117.7,-394.2 -101.2,-429.6 -93.3,-425.9 -108.1,-394.2 -92.4,-360.6 -108.1,-327 -92.4,-293.5 -108.1,-259.9 
					-92.4,-226.4 -108.1,-192.8 -92.4,-159.2 -108.1,-125.7 -92.4,-92.1 -108.1,-58.5 				"/>
			</g>
			<g id="XMLID_357_">
				<polygon id="XMLID_308_" class="st2" points="-70.3,176.4 -86,209.9 -70.3,243.5 -86,277 -70.3,310.6 -86,344.1 -70.3,377.7 
					-86,411.3 -70.3,444.8 -86,478.4 -70.3,511.9 -86,545.5 -70.3,579.1 -86,612.6 -70.3,646.2 -86,679.7 -70.3,713.3 -86,746.9 
					-70.3,780.4 -86,814 -70.3,847.5 -86.8,882.9 -94.7,879.2 -79.9,847.5 -95.6,814 -79.9,780.4 -95.6,746.9 -79.9,713.3 
					-95.6,679.7 -79.9,646.2 -95.6,612.6 -79.9,579.1 -95.6,545.5 -79.9,511.9 -95.6,478.4 -79.9,444.8 -95.6,411.3 -79.9,377.7 
					-95.6,344.1 -79.9,310.6 -95.6,277 -79.9,243.5 -95.6,209.9 -79.9,176.4 -95.6,142.8 -79.9,109.2 -95.6,75.7 -79.9,42.1 
					-95.6,8.6 -79.9,-25 -95.6,-58.5 -79.9,-92.1 -95.6,-125.7 -79.9,-159.2 -95.6,-192.8 -79.9,-226.4 -95.6,-259.9 -79.9,-293.5 
					-95.6,-327 -79.9,-360.6 -95.6,-394.2 -79,-429.6 -71.1,-425.9 -86,-394.2 -70.3,-360.6 -86,-327 -70.3,-293.5 -86,-259.9 
					-70.3,-226.4 -86,-192.8 -70.3,-159.2 -86,-125.7 -70.3,-92.1 -86,-58.5 -70.3,-25 -86,8.6 -70.3,42.1 -86,75.7 -70.3,109.2 
					-86,142.8 				"/>
			</g>
			<g id="XMLID_354_">
				<polygon id="XMLID_306_" class="st2" points="-48.1,-226.4 -63.8,-192.8 -48.1,-159.2 -63.8,-125.7 -48.1,-92.1 -63.8,-58.5 
					-48.1,-25 -63.8,8.6 -48.1,42.1 -63.8,75.7 -48.1,109.2 -63.8,142.8 -48.1,176.4 -63.8,209.9 -48.1,243.5 -63.8,277 
					-48.1,310.6 -63.8,344.1 -48.1,377.7 -63.8,411.3 -48.1,444.8 -63.8,478.4 -48.1,511.9 -63.8,545.5 -48.1,579.1 -63.8,612.6 
					-48.1,646.2 -63.8,679.7 -48.1,713.3 -63.8,746.9 -48.1,780.4 -63.8,814 -48.1,847.5 -64.7,882.9 -72.5,879.2 -57.7,847.5 
					-73.4,814 -57.7,780.4 -73.4,746.9 -57.7,713.3 -73.4,679.7 -57.7,646.2 -73.4,612.6 -57.7,579.1 -73.4,545.5 -57.7,511.9 
					-73.4,478.4 -57.7,444.8 -73.4,411.3 -57.7,377.7 -73.4,344.1 -57.7,310.6 -73.4,277 -57.7,243.5 -73.4,209.9 -57.7,176.4 
					-73.4,142.8 -57.7,109.2 -73.4,75.7 -57.7,42.1 -73.4,8.6 -57.7,-25 -73.4,-58.5 -57.7,-92.1 -73.4,-125.7 -57.7,-159.2 
					-73.4,-192.8 -57.7,-226.4 -73.4,-259.9 -57.7,-293.5 -73.4,-327 -57.7,-360.6 -73.4,-394.2 -56.9,-429.6 -49,-425.9 
					-63.8,-394.2 -48.1,-360.6 -63.8,-327 -48.1,-293.5 -63.8,-259.9 				"/>
			</g>
			<g id="XMLID_351_">
				<polygon id="XMLID_305_" class="st2" points="-26,-25 -41.7,8.6 -26,42.1 -41.7,75.7 -26,109.2 -41.7,142.8 -26,176.4 
					-41.7,209.9 -26,243.5 -41.7,277 -26,310.6 -41.7,344.1 -26,377.7 -41.7,411.3 -26,444.8 -41.7,478.4 -26,511.9 -41.7,545.5 
					-26,579.1 -41.7,612.6 -26,646.2 -41.7,679.7 -26,713.3 -41.7,746.9 -26,780.4 -41.7,814 -26,847.5 -42.5,882.9 -50.4,879.2 
					-35.6,847.5 -51.3,814 -35.6,780.4 -51.3,746.9 -35.6,713.3 -51.3,679.7 -35.6,646.2 -51.3,612.6 -35.6,579.1 -51.3,545.5 
					-35.6,511.9 -51.3,478.4 -35.6,444.8 -51.3,411.3 -35.6,377.7 -51.3,344.1 -35.6,310.6 -51.3,277 -35.6,243.5 -51.3,209.9 
					-35.6,176.4 -51.3,142.8 -35.6,109.2 -51.3,75.7 -35.6,42.1 -51.3,8.6 -35.6,-25 -51.3,-58.5 -35.6,-92.1 -51.3,-125.7 
					-35.6,-159.2 -51.3,-192.8 -35.6,-226.4 -51.3,-259.9 -35.6,-293.5 -51.3,-327 -35.6,-360.6 -51.3,-394.2 -34.7,-429.6 
					-26.8,-425.9 -41.7,-394.2 -26,-360.6 -41.7,-327 -26,-293.5 -41.7,-259.9 -26,-226.4 -41.7,-192.8 -26,-159.2 -41.7,-125.7 
					-26,-92.1 -41.7,-58.5 				"/>
			</g>
			<g id="XMLID_348_">
				<polygon id="XMLID_303_" class="st2" points="-3.8,-226.4 -19.5,-192.8 -3.8,-159.2 -19.5,-125.7 -3.8,-92.1 -19.5,-58.5 
					-3.8,-25 -19.5,8.6 -3.8,42.1 -19.5,75.7 -3.8,109.2 -19.5,142.8 -3.8,176.4 -19.5,209.9 -3.8,243.5 -19.5,277 -3.8,310.6 
					-19.5,344.1 -3.8,377.7 -19.5,411.3 -3.8,444.8 -19.5,478.4 -3.8,511.9 -19.5,545.5 -3.8,579.1 -19.5,612.6 -3.8,646.2 
					-19.5,679.7 -3.8,713.3 -19.5,746.9 -3.8,780.4 -19.5,814 -3.8,847.5 -20.4,882.9 -28.2,879.2 -13.4,847.5 -29.1,814 
					-13.4,780.4 -29.1,746.9 -13.4,713.3 -29.1,679.7 -13.4,646.2 -29.1,612.6 -13.4,579.1 -29.1,545.5 -13.4,511.9 -29.1,478.4 
					-13.4,444.8 -29.1,411.3 -13.4,377.7 -29.1,344.1 -13.4,310.6 -29.1,277 -13.4,243.5 -29.1,209.9 -13.4,176.4 -29.1,142.8 
					-13.4,109.2 -29.1,75.7 -13.4,42.1 -29.1,8.6 -13.4,-25 -29.1,-58.5 -13.4,-92.1 -29.1,-125.7 -13.4,-159.2 -29.1,-192.8 
					-13.4,-226.4 -29.1,-259.9 -13.4,-293.5 -29.1,-327 -13.4,-360.6 -29.1,-394.2 -12.6,-429.6 -4.7,-425.9 -19.5,-394.2 
					-3.8,-360.6 -19.5,-327 -3.8,-293.5 -19.5,-259.9 				"/>
			</g>
			<g id="XMLID_345_">
				<polygon id="XMLID_302_" class="st2" points="18.3,176.4 2.6,209.9 18.3,243.5 2.6,277 18.3,310.6 2.6,344.1 18.3,377.7 
					2.6,411.3 18.3,444.8 2.6,478.4 18.3,511.9 2.6,545.5 18.3,579.1 2.6,612.6 18.3,646.2 2.6,679.7 18.3,713.3 2.6,746.9 
					18.3,780.4 2.6,814 18.3,847.5 1.8,882.9 -6.1,879.2 8.7,847.5 -6.9,814 8.7,780.4 -6.9,746.9 8.7,713.3 -6.9,679.7 8.7,646.2 
					-6.9,612.6 8.7,579.1 -6.9,545.5 8.7,511.9 -6.9,478.4 8.7,444.8 -6.9,411.3 8.7,377.7 -6.9,344.1 8.7,310.6 -6.9,277 
					8.7,243.5 -6.9,209.9 8.7,176.4 -6.9,142.8 8.7,109.2 -6.9,75.7 8.7,42.1 -6.9,8.6 8.7,-25 -6.9,-58.5 8.7,-92.1 -6.9,-125.7 
					8.7,-159.2 -6.9,-192.8 8.7,-226.4 -6.9,-259.9 8.7,-293.5 -6.9,-327 8.7,-360.6 -6.9,-394.2 9.6,-429.6 17.5,-425.9 
					2.6,-394.2 18.3,-360.6 2.6,-327 18.3,-293.5 2.6,-259.9 18.3,-226.4 2.6,-192.8 18.3,-159.2 2.6,-125.7 18.3,-92.1 2.6,-58.5 
					18.3,-25 2.6,8.6 18.3,42.1 2.6,75.7 18.3,109.2 2.6,142.8 				"/>
			</g>
			<g id="XMLID_342_">
				<polygon id="XMLID_300_" class="st2" points="40.5,-226.4 24.8,-192.8 40.5,-159.2 24.8,-125.7 40.5,-92.1 24.8,-58.5 40.5,-25 
					24.8,8.6 40.5,42.1 24.8,75.7 40.5,109.2 24.8,142.8 40.5,176.4 24.8,209.9 40.5,243.5 24.8,277 40.5,310.6 24.8,344.1 
					40.5,377.7 24.8,411.3 40.5,444.8 24.8,478.4 40.5,511.9 24.8,545.5 40.5,579.1 24.8,612.6 40.5,646.2 24.8,679.7 40.5,713.3 
					24.8,746.9 40.5,780.4 24.8,814 40.5,847.5 23.9,882.9 16.1,879.2 30.9,847.5 15.2,814 30.9,780.4 15.2,746.9 30.9,713.3 
					15.2,679.7 30.9,646.2 15.2,612.6 30.9,579.1 15.2,545.5 30.9,511.9 15.2,478.4 30.9,444.8 15.2,411.3 30.9,377.7 15.2,344.1 
					30.9,310.6 15.2,277 30.9,243.5 15.2,209.9 30.9,176.4 15.2,142.8 30.9,109.2 15.2,75.7 30.9,42.1 15.2,8.6 30.9,-25 
					15.2,-58.5 30.9,-92.1 15.2,-125.7 30.9,-159.2 15.2,-192.8 30.9,-226.4 15.2,-259.9 30.9,-293.5 15.2,-327 30.9,-360.6 
					15.2,-394.2 31.7,-429.6 39.6,-425.9 24.8,-394.2 40.5,-360.6 24.8,-327 40.5,-293.5 24.8,-259.9 				"/>
			</g>
			<g id="XMLID_339_">
				<polygon id="XMLID_299_" class="st2" points="62.6,-25 47,8.6 62.6,42.1 47,75.7 62.6,109.2 47,142.8 62.6,176.4 47,209.9 
					62.6,243.5 47,277 62.6,310.6 47,344.1 62.6,377.7 47,411.3 62.6,444.8 47,478.4 62.6,511.9 47,545.5 62.6,579.1 47,612.6 
					62.6,646.2 47,679.7 62.6,713.3 47,746.9 62.6,780.4 47,814 62.6,847.5 46.1,882.9 38.2,879.2 53,847.5 37.4,814 53,780.4 
					37.4,746.9 53,713.3 37.4,679.7 53,646.2 37.4,612.6 53,579.1 37.4,545.5 53,511.9 37.4,478.4 53,444.8 37.4,411.3 53,377.7 
					37.4,344.1 53,310.6 37.4,277 53,243.5 37.4,209.9 53,176.4 37.4,142.8 53,109.2 37.4,75.7 53,42.1 37.4,8.6 53,-25 37.4,-58.5 
					53,-92.1 37.4,-125.7 53,-159.2 37.4,-192.8 53,-226.4 37.4,-259.9 53,-293.5 37.4,-327 53,-360.6 37.4,-394.2 53.9,-429.6 
					61.8,-425.9 47,-394.2 62.6,-360.6 47,-327 62.6,-293.5 47,-259.9 62.6,-226.4 47,-192.8 62.6,-159.2 47,-125.7 62.6,-92.1 
					47,-58.5 				"/>
			</g>
			<g id="XMLID_336_">
				<polygon id="XMLID_297_" class="st2" points="84.8,-226.4 69.1,-192.8 84.8,-159.2 69.1,-125.7 84.8,-92.1 69.1,-58.5 84.8,-25 
					69.1,8.6 84.8,42.1 69.1,75.7 84.8,109.2 69.1,142.8 84.8,176.4 69.1,209.9 84.8,243.5 69.1,277 84.8,310.6 69.1,344.1 
					84.8,377.7 69.1,411.3 84.8,444.8 69.1,478.4 84.8,511.9 69.1,545.5 84.8,579.1 69.1,612.6 84.8,646.2 69.1,679.7 84.8,713.3 
					69.1,746.9 84.8,780.4 69.1,814 84.8,847.5 68.2,882.9 60.4,879.2 75.2,847.5 59.5,814 75.2,780.4 59.5,746.9 75.2,713.3 
					59.5,679.7 75.2,646.2 59.5,612.6 75.2,579.1 59.5,545.5 75.2,511.9 59.5,478.4 75.2,444.8 59.5,411.3 75.2,377.7 59.5,344.1 
					75.2,310.6 59.5,277 75.2,243.5 59.5,209.9 75.2,176.4 59.5,142.8 75.2,109.2 59.5,75.7 75.2,42.1 59.5,8.6 75.2,-25 
					59.5,-58.5 75.2,-92.1 59.5,-125.7 75.2,-159.2 59.5,-192.8 75.2,-226.4 59.5,-259.9 75.2,-293.5 59.5,-327 75.2,-360.6 
					59.5,-394.2 76.1,-429.6 83.9,-425.9 69.1,-394.2 84.8,-360.6 69.1,-327 84.8,-293.5 69.1,-259.9 				"/>
			</g>
			<g id="XMLID_328_">
				<polygon id="XMLID_296_" class="st2" points="106.9,176.4 91.3,209.9 106.9,243.5 91.3,277 106.9,310.6 91.3,344.1 106.9,377.7 
					91.3,411.3 106.9,444.8 91.3,478.4 106.9,511.9 91.3,545.5 106.9,579.1 91.3,612.6 106.9,646.2 91.3,679.7 106.9,713.3 
					91.3,746.9 106.9,780.4 91.3,814 106.9,847.5 90.4,882.9 82.5,879.2 97.3,847.5 81.7,814 97.3,780.4 81.7,746.9 97.3,713.3 
					81.7,679.7 97.3,646.2 81.7,612.6 97.3,579.1 81.7,545.5 97.3,511.9 81.7,478.4 97.3,444.8 81.7,411.3 97.3,377.7 81.7,344.1 
					97.3,310.6 81.7,277 97.3,243.5 81.7,209.9 97.3,176.4 81.7,142.8 97.3,109.2 81.7,75.7 97.3,42.1 81.7,8.6 97.3,-25 
					81.7,-58.5 97.3,-92.1 81.7,-125.7 97.3,-159.2 81.7,-192.8 97.3,-226.4 81.7,-259.9 97.3,-293.5 81.7,-327 97.3,-360.6 
					81.7,-394.2 98.2,-429.6 106.1,-425.9 91.3,-394.2 106.9,-360.6 91.3,-327 106.9,-293.5 91.3,-259.9 106.9,-226.4 91.3,-192.8 
					106.9,-159.2 91.3,-125.7 106.9,-92.1 91.3,-58.5 106.9,-25 91.3,8.6 106.9,42.1 91.3,75.7 106.9,109.2 91.3,142.8 				"/>
			</g>
			<g id="XMLID_258_">
				<polygon id="XMLID_294_" class="st2" points="129.1,-25 113.4,8.6 129.1,42.1 113.4,75.7 129.1,109.2 113.4,142.8 129.1,176.4 
					113.4,209.9 129.1,243.5 113.4,277 129.1,310.6 113.4,344.1 129.1,377.7 113.4,411.3 129.1,444.8 113.4,478.4 129.1,511.9 
					113.4,545.5 129.1,579.1 113.4,612.6 129.1,646.2 113.4,679.7 129.1,713.3 113.4,746.9 129.1,780.4 113.4,814 129.1,847.5 
					112.6,882.9 104.7,879.2 119.5,847.5 103.8,814 119.5,780.4 103.8,746.9 119.5,713.3 103.8,679.7 119.5,646.2 103.8,612.6 
					119.5,579.1 103.8,545.5 119.5,511.9 103.8,478.4 119.5,444.8 103.8,411.3 119.5,377.7 103.8,344.1 119.5,310.6 103.8,277 
					119.5,243.5 103.8,209.9 119.5,176.4 103.8,142.8 119.5,109.2 103.8,75.7 119.5,42.1 103.8,8.6 119.5,-25 103.8,-58.5 
					119.5,-92.1 103.8,-125.7 119.5,-159.2 103.8,-192.8 119.5,-226.4 103.8,-259.9 119.5,-293.5 103.8,-327 119.5,-360.6 
					103.8,-394.2 120.4,-429.6 128.2,-425.9 113.4,-394.2 129.1,-360.6 113.4,-327 129.1,-293.5 113.4,-259.9 129.1,-226.4 
					113.4,-192.8 129.1,-159.2 113.4,-125.7 129.1,-92.1 113.4,-58.5 				"/>
			</g>
			<g id="XMLID_259_">
				<polygon id="XMLID_293_" class="st2" points="151.3,-226.4 135.6,-192.8 151.3,-159.2 135.6,-125.7 151.3,-92.1 135.6,-58.5 
					151.3,-25 135.6,8.6 151.3,42.1 135.6,75.7 151.3,109.2 135.6,142.8 151.3,176.4 135.6,209.9 151.3,243.5 135.6,277 
					151.3,310.6 135.6,344.1 151.3,377.7 135.6,411.3 151.3,444.8 135.6,478.4 151.3,511.9 135.6,545.5 151.3,579.1 135.6,612.6 
					151.3,646.2 135.6,679.7 151.3,713.3 135.6,746.9 151.3,780.4 135.6,814 151.3,847.5 134.7,882.9 126.8,879.2 141.7,847.5 
					126,814 141.7,780.4 126,746.9 141.7,713.3 126,679.7 141.7,646.2 126,612.6 141.7,579.1 126,545.5 141.7,511.9 126,478.4 
					141.7,444.8 126,411.3 141.7,377.7 126,344.1 141.7,310.6 126,277 141.7,243.5 126,209.9 141.7,176.4 126,142.8 141.7,109.2 
					126,75.7 141.7,42.1 126,8.6 141.7,-25 126,-58.5 141.7,-92.1 126,-125.7 141.7,-159.2 126,-192.8 141.7,-226.4 126,-259.9 
					141.7,-293.5 126,-327 141.7,-360.6 126,-394.2 142.5,-429.6 150.4,-425.9 135.6,-394.2 151.3,-360.6 135.6,-327 151.3,-293.5 
					135.6,-259.9 				"/>
			</g>
			<g id="XMLID_262_">
				<polygon id="XMLID_291_" class="st2" points="173.4,176.4 157.7,209.9 173.4,243.5 157.7,277 173.4,310.6 157.7,344.1 
					173.4,377.7 157.7,411.3 173.4,444.8 157.7,478.4 173.4,511.9 157.7,545.5 173.4,579.1 157.7,612.6 173.4,646.2 157.7,679.7 
					173.4,713.3 157.7,746.9 173.4,780.4 157.7,814 173.4,847.5 156.9,882.9 149,879.2 163.8,847.5 148.1,814 163.8,780.4 
					148.1,746.9 163.8,713.3 148.1,679.7 163.8,646.2 148.1,612.6 163.8,579.1 148.1,545.5 163.8,511.9 148.1,478.4 163.8,444.8 
					148.1,411.3 163.8,377.7 148.1,344.1 163.8,310.6 148.1,277 163.8,243.5 148.1,209.9 163.8,176.4 148.1,142.8 163.8,109.2 
					148.1,75.7 163.8,42.1 148.1,8.6 163.8,-25 148.1,-58.5 163.8,-92.1 148.1,-125.7 163.8,-159.2 148.1,-192.8 163.8,-226.4 
					148.1,-259.9 163.8,-293.5 148.1,-327 163.8,-360.6 148.1,-394.2 164.7,-429.6 172.5,-425.9 157.7,-394.2 173.4,-360.6 
					157.7,-327 173.4,-293.5 157.7,-259.9 173.4,-226.4 157.7,-192.8 173.4,-159.2 157.7,-125.7 173.4,-92.1 157.7,-58.5 173.4,-25 
					157.7,8.6 173.4,42.1 157.7,75.7 173.4,109.2 157.7,142.8 				"/>
			</g>
			<g id="XMLID_265_">
				<polygon id="XMLID_290_" class="st2" points="195.6,-226.4 179.9,-192.8 195.6,-159.2 179.9,-125.7 195.6,-92.1 179.9,-58.5 
					195.6,-25 179.9,8.6 195.6,42.1 179.9,75.7 195.6,109.2 179.9,142.8 195.6,176.4 179.9,209.9 195.6,243.5 179.9,277 
					195.6,310.6 179.9,344.1 195.6,377.7 179.9,411.3 195.6,444.8 179.9,478.4 195.6,511.9 179.9,545.5 195.6,579.1 179.9,612.6 
					195.6,646.2 179.9,679.7 195.6,713.3 179.9,746.9 195.6,780.4 179.9,814 195.6,847.5 179,882.9 171.1,879.2 186,847.5 
					170.3,814 186,780.4 170.3,746.9 186,713.3 170.3,679.7 186,646.2 170.3,612.6 186,579.1 170.3,545.5 186,511.9 170.3,478.4 
					186,444.8 170.3,411.3 186,377.7 170.3,344.1 186,310.6 170.3,277 186,243.5 170.3,209.9 186,176.4 170.3,142.8 186,109.2 
					170.3,75.7 186,42.1 170.3,8.6 186,-25 170.3,-58.5 186,-92.1 170.3,-125.7 186,-159.2 170.3,-192.8 186,-226.4 170.3,-259.9 
					186,-293.5 170.3,-327 186,-360.6 170.3,-394.2 186.8,-429.6 194.7,-425.9 179.9,-394.2 195.6,-360.6 179.9,-327 195.6,-293.5 
					179.9,-259.9 				"/>
			</g>
			<g id="XMLID_268_">
				<polygon id="XMLID_288_" class="st2" points="217.7,-25 202,8.6 217.7,42.1 202,75.7 217.7,109.2 202,142.8 217.7,176.4 
					202,209.9 217.7,243.5 202,277 217.7,310.6 202,344.1 217.7,377.7 202,411.3 217.7,444.8 202,478.4 217.7,511.9 202,545.5 
					217.7,579.1 202,612.6 217.7,646.2 202,679.7 217.7,713.3 202,746.9 217.7,780.4 202,814 217.7,847.5 201.2,882.9 193.3,879.2 
					208.1,847.5 192.4,814 208.1,780.4 192.4,746.9 208.1,713.3 192.4,679.7 208.1,646.2 192.4,612.6 208.1,579.1 192.4,545.5 
					208.1,511.9 192.4,478.4 208.1,444.8 192.4,411.3 208.1,377.7 192.4,344.1 208.1,310.6 192.4,277 208.1,243.5 192.4,209.9 
					208.1,176.4 192.4,142.8 208.1,109.2 192.4,75.7 208.1,42.1 192.4,8.6 208.1,-25 192.4,-58.5 208.1,-92.1 192.4,-125.7 
					208.1,-159.2 192.4,-192.8 208.1,-226.4 192.4,-259.9 208.1,-293.5 192.4,-327 208.1,-360.6 192.4,-394.2 209,-429.6 
					216.9,-425.9 202,-394.2 217.7,-360.6 202,-327 217.7,-293.5 202,-259.9 217.7,-226.4 202,-192.8 217.7,-159.2 202,-125.7 
					217.7,-92.1 202,-58.5 				"/>
			</g>
			<g id="XMLID_271_">
				<polygon id="XMLID_287_" class="st2" points="239.9,-226.4 224.2,-192.8 239.9,-159.2 224.2,-125.7 239.9,-92.1 224.2,-58.5 
					239.9,-25 224.2,8.6 239.9,42.1 224.2,75.7 239.9,109.2 224.2,142.8 239.9,176.4 224.2,209.9 239.9,243.5 224.2,277 
					239.9,310.6 224.2,344.1 239.9,377.7 224.2,411.3 239.9,444.8 224.2,478.4 239.9,511.9 224.2,545.5 239.9,579.1 224.2,612.6 
					239.9,646.2 224.2,679.7 239.9,713.3 224.2,746.9 239.9,780.4 224.2,814 239.9,847.5 223.3,882.9 215.4,879.2 230.3,847.5 
					214.6,814 230.3,780.4 214.6,746.9 230.3,713.3 214.6,679.7 230.3,646.2 214.6,612.6 230.3,579.1 214.6,545.5 230.3,511.9 
					214.6,478.4 230.3,444.8 214.6,411.3 230.3,377.7 214.6,344.1 230.3,310.6 214.6,277 230.3,243.5 214.6,209.9 230.3,176.4 
					214.6,142.8 230.3,109.2 214.6,75.7 230.3,42.1 214.6,8.6 230.3,-25 214.6,-58.5 230.3,-92.1 214.6,-125.7 230.3,-159.2 
					214.6,-192.8 230.3,-226.4 214.6,-259.9 230.3,-293.5 214.6,-327 230.3,-360.6 214.6,-394.2 231.1,-429.6 239,-425.9 
					224.2,-394.2 239.9,-360.6 224.2,-327 239.9,-293.5 224.2,-259.9 				"/>
			</g>
			<g id="XMLID_274_">
				<polygon id="XMLID_285_" class="st2" points="262,176.4 246.3,209.9 262,243.5 246.3,277 262,310.6 246.3,344.1 262,377.7 
					246.3,411.3 262,444.8 246.3,478.4 262,511.9 246.3,545.5 262,579.1 246.3,612.6 262,646.2 246.3,679.7 262,713.3 246.3,746.9 
					262,780.4 246.3,814 262,847.5 245.5,882.9 237.6,879.2 252.4,847.5 236.7,814 252.4,780.4 236.7,746.9 252.4,713.3 
					236.7,679.7 252.4,646.2 236.7,612.6 252.4,579.1 236.7,545.5 252.4,511.9 236.7,478.4 252.4,444.8 236.7,411.3 252.4,377.7 
					236.7,344.1 252.4,310.6 236.7,277 252.4,243.5 236.7,209.9 252.4,176.4 236.7,142.8 252.4,109.2 236.7,75.7 252.4,42.1 
					236.7,8.6 252.4,-25 236.7,-58.5 252.4,-92.1 236.7,-125.7 252.4,-159.2 236.7,-192.8 252.4,-226.4 236.7,-259.9 252.4,-293.5 
					236.7,-327 252.4,-360.6 236.7,-394.2 253.3,-429.6 261.2,-425.9 246.3,-394.2 262,-360.6 246.3,-327 262,-293.5 246.3,-259.9 
					262,-226.4 246.3,-192.8 262,-159.2 246.3,-125.7 262,-92.1 246.3,-58.5 262,-25 246.3,8.6 262,42.1 246.3,75.7 262,109.2 
					246.3,142.8 				"/>
			</g>
			<g id="XMLID_277_">
				<polygon id="XMLID_284_" class="st2" points="284.2,-25 268.5,8.6 284.2,42.1 268.5,75.7 284.2,109.2 268.5,142.8 284.2,176.4 
					268.5,209.9 284.2,243.5 268.5,277 284.2,310.6 268.5,344.1 284.2,377.7 268.5,411.3 284.2,444.8 268.5,478.4 284.2,511.9 
					268.5,545.5 284.2,579.1 268.5,612.6 284.2,646.2 268.5,679.7 284.2,713.3 268.5,746.9 284.2,780.4 268.5,814 284.2,847.5 
					267.6,882.9 259.8,879.2 274.6,847.5 258.9,814 274.6,780.4 258.9,746.9 274.6,713.3 258.9,679.7 274.6,646.2 258.9,612.6 
					274.6,579.1 258.9,545.5 274.6,511.9 258.9,478.4 274.6,444.8 258.9,411.3 274.6,377.7 258.9,344.1 274.6,310.6 258.9,277 
					274.6,243.5 258.9,209.9 274.6,176.4 258.9,142.8 274.6,109.2 258.9,75.7 274.6,42.1 258.9,8.6 274.6,-25 258.9,-58.5 
					274.6,-92.1 258.9,-125.7 274.6,-159.2 258.9,-192.8 274.6,-226.4 258.9,-259.9 274.6,-293.5 258.9,-327 274.6,-360.6 
					258.9,-394.2 275.4,-429.6 283.3,-425.9 268.5,-394.2 284.2,-360.6 268.5,-327 284.2,-293.5 268.5,-259.9 284.2,-226.4 
					268.5,-192.8 284.2,-159.2 268.5,-125.7 284.2,-92.1 268.5,-58.5 				"/>
			</g>
			<g id="XMLID_280_">
				<polygon id="XMLID_282_" class="st2" points="306.3,-226.4 290.6,-192.8 306.3,-159.2 290.6,-125.7 306.3,-92.1 290.6,-58.5 
					306.3,-25 290.6,8.6 306.3,42.1 290.6,75.7 306.3,109.2 290.6,142.8 306.3,176.4 290.6,209.9 306.3,243.5 290.6,277 
					306.3,310.6 290.6,344.1 306.3,377.7 290.6,411.3 306.3,444.8 290.6,478.4 306.3,511.9 290.6,545.5 306.3,579.1 290.6,612.6 
					306.3,646.2 290.6,679.7 306.3,713.3 290.6,746.9 306.3,780.4 290.6,814 306.3,847.5 289.8,882.9 281.9,879.2 296.7,847.5 
					281,814 296.7,780.4 281,746.9 296.7,713.3 281,679.7 296.7,646.2 281,612.6 296.7,579.1 281,545.5 296.7,511.9 281,478.4 
					296.7,444.8 281,411.3 296.7,377.7 281,344.1 296.7,310.6 281,277 296.7,243.5 281,209.9 296.7,176.4 281,142.8 296.7,109.2 
					281,75.7 296.7,42.1 281,8.6 296.7,-25 281,-58.5 296.7,-92.1 281,-125.7 296.7,-159.2 281,-192.8 296.7,-226.4 281,-259.9 
					296.7,-293.5 281,-327 296.7,-360.6 281,-394.2 297.6,-429.6 305.5,-425.9 290.6,-394.2 306.3,-360.6 290.6,-327 306.3,-293.5 
					290.6,-259.9 				"/>
			</g>
			<g id="XMLID_283_">
				<polygon id="XMLID_281_" class="st2" points="328.5,176.4 312.8,209.9 328.5,243.5 312.8,277 328.5,310.6 312.8,344.1 
					328.5,377.7 312.8,411.3 328.5,444.8 312.8,478.4 328.5,511.9 312.8,545.5 328.5,579.1 312.8,612.6 328.5,646.2 312.8,679.7 
					328.5,713.3 312.8,746.9 328.5,780.4 312.8,814 328.5,847.5 311.9,882.9 304.1,879.2 318.9,847.5 303.2,814 318.9,780.4 
					303.2,746.9 318.9,713.3 303.2,679.7 318.9,646.2 303.2,612.6 318.9,579.1 303.2,545.5 318.9,511.9 303.2,478.4 318.9,444.8 
					303.2,411.3 318.9,377.7 303.2,344.1 318.9,310.6 303.2,277 318.9,243.5 303.2,209.9 318.9,176.4 303.2,142.8 318.9,109.2 
					303.2,75.7 318.9,42.1 303.2,8.6 318.9,-25 303.2,-58.5 318.9,-92.1 303.2,-125.7 318.9,-159.2 303.2,-192.8 318.9,-226.4 
					303.2,-259.9 318.9,-293.5 303.2,-327 318.9,-360.6 303.2,-394.2 319.7,-429.6 327.6,-425.9 312.8,-394.2 328.5,-360.6 
					312.8,-327 328.5,-293.5 312.8,-259.9 328.5,-226.4 312.8,-192.8 328.5,-159.2 312.8,-125.7 328.5,-92.1 312.8,-58.5 328.5,-25 
					312.8,8.6 328.5,42.1 312.8,75.7 328.5,109.2 312.8,142.8 				"/>
			</g>
			<g id="XMLID_286_">
				<polygon id="XMLID_279_" class="st2" points="350.6,-226.4 335,-192.8 350.6,-159.2 335,-125.7 350.6,-92.1 335,-58.5 
					350.6,-25 335,8.6 350.6,42.1 335,75.7 350.6,109.2 335,142.8 350.6,176.4 335,209.9 350.6,243.5 335,277 350.6,310.6 
					335,344.1 350.6,377.7 335,411.3 350.6,444.8 335,478.4 350.6,511.9 335,545.5 350.6,579.1 335,612.6 350.6,646.2 335,679.7 
					350.6,713.3 335,746.9 350.6,780.4 335,814 350.6,847.5 334.1,882.9 326.2,879.2 341,847.5 325.4,814 341,780.4 325.4,746.9 
					341,713.3 325.4,679.7 341,646.2 325.4,612.6 341,579.1 325.4,545.5 341,511.9 325.4,478.4 341,444.8 325.4,411.3 341,377.7 
					325.4,344.1 341,310.6 325.4,277 341,243.5 325.4,209.9 341,176.4 325.4,142.8 341,109.2 325.4,75.7 341,42.1 325.4,8.6 
					341,-25 325.4,-58.5 341,-92.1 325.4,-125.7 341,-159.2 325.4,-192.8 341,-226.4 325.4,-259.9 341,-293.5 325.4,-327 
					341,-360.6 325.4,-394.2 341.9,-429.6 349.8,-425.9 335,-394.2 350.6,-360.6 335,-327 350.6,-293.5 335,-259.9 				"/>
			</g>
			<g id="XMLID_289_">
				<polygon id="XMLID_278_" class="st2" points="372.8,176.4 357.1,209.9 372.8,243.5 357.1,277 372.8,310.6 357.1,344.1 
					372.8,377.7 357.1,411.3 372.8,444.8 357.1,478.4 372.8,511.9 357.1,545.5 372.8,579.1 357.1,612.6 372.8,646.2 357.1,679.7 
					372.8,713.3 357.1,746.9 372.8,780.4 357.1,814 372.8,847.5 356.2,882.9 348.4,879.2 363.2,847.5 347.5,814 363.2,780.4 
					347.5,746.9 363.2,713.3 347.5,679.7 363.2,646.2 347.5,612.6 363.2,579.1 347.5,545.5 363.2,511.9 347.5,478.4 363.2,444.8 
					347.5,411.3 363.2,377.7 347.5,344.1 363.2,310.6 347.5,277 363.2,243.5 347.5,209.9 363.2,176.4 347.5,142.8 363.2,109.2 
					347.5,75.7 363.2,42.1 347.5,8.6 363.2,-25 347.5,-58.5 363.2,-92.1 347.5,-125.7 363.2,-159.2 347.5,-192.8 363.2,-226.4 
					347.5,-259.9 363.2,-293.5 347.5,-327 363.2,-360.6 347.5,-394.2 364.1,-429.6 371.9,-425.9 357.1,-394.2 372.8,-360.6 
					357.1,-327 372.8,-293.5 357.1,-259.9 372.8,-226.4 357.1,-192.8 372.8,-159.2 357.1,-125.7 372.8,-92.1 357.1,-58.5 372.8,-25 
					357.1,8.6 372.8,42.1 357.1,75.7 372.8,109.2 357.1,142.8 				"/>
			</g>
			<g id="XMLID_292_">
				<polygon id="XMLID_276_" class="st2" points="394.9,176.4 379.3,209.9 394.9,243.5 379.3,277 394.9,310.6 379.3,344.1 
					394.9,377.7 379.3,411.3 394.9,444.8 379.3,478.4 394.9,511.9 379.3,545.5 394.9,579.1 379.3,612.6 394.9,646.2 379.3,679.7 
					394.9,713.3 379.3,746.9 394.9,780.4 379.3,814 394.9,847.5 378.4,882.9 370.5,879.2 385.3,847.5 369.7,814 385.3,780.4 
					369.7,746.9 385.3,713.3 369.7,679.7 385.3,646.2 369.7,612.6 385.3,579.1 369.7,545.5 385.3,511.9 369.7,478.4 385.3,444.8 
					369.7,411.3 385.3,377.7 369.7,344.1 385.3,310.6 369.7,277 385.3,243.5 369.7,209.9 385.3,176.4 369.7,142.8 385.3,109.2 
					369.7,75.7 385.3,42.1 369.7,8.6 385.3,-25 369.7,-58.5 385.3,-92.1 369.7,-125.7 385.3,-159.2 369.7,-192.8 385.3,-226.4 
					369.7,-259.9 385.3,-293.5 369.7,-327 385.3,-360.6 369.7,-394.2 386.2,-429.6 394.1,-425.9 379.3,-394.2 394.9,-360.6 
					379.3,-327 394.9,-293.5 379.3,-259.9 394.9,-226.4 379.3,-192.8 394.9,-159.2 379.3,-125.7 394.9,-92.1 379.3,-58.5 394.9,-25 
					379.3,8.6 394.9,42.1 379.3,75.7 394.9,109.2 379.3,142.8 				"/>
			</g>
			<g id="XMLID_295_">
				<polygon id="XMLID_275_" class="st2" points="417.1,-226.4 401.4,-192.8 417.1,-159.2 401.4,-125.7 417.1,-92.1 401.4,-58.5 
					417.1,-25 401.4,8.6 417.1,42.1 401.4,75.7 417.1,109.2 401.4,142.8 417.1,176.4 401.4,209.9 417.1,243.5 401.4,277 
					417.1,310.6 401.4,344.1 417.1,377.7 401.4,411.3 417.1,444.8 401.4,478.4 417.1,511.9 401.4,545.5 417.1,579.1 401.4,612.6 
					417.1,646.2 401.4,679.7 417.1,713.3 401.4,746.9 417.1,780.4 401.4,814 417.1,847.5 400.6,882.9 392.7,879.2 407.5,847.5 
					391.8,814 407.5,780.4 391.8,746.9 407.5,713.3 391.8,679.7 407.5,646.2 391.8,612.6 407.5,579.1 391.8,545.5 407.5,511.9 
					391.8,478.4 407.5,444.8 391.8,411.3 407.5,377.7 391.8,344.1 407.5,310.6 391.8,277 407.5,243.5 391.8,209.9 407.5,176.4 
					391.8,142.8 407.5,109.2 391.8,75.7 407.5,42.1 391.8,8.6 407.5,-25 391.8,-58.5 407.5,-92.1 391.8,-125.7 407.5,-159.2 
					391.8,-192.8 407.5,-226.4 391.8,-259.9 407.5,-293.5 391.8,-327 407.5,-360.6 391.8,-394.2 408.4,-429.6 416.2,-425.9 
					401.4,-394.2 417.1,-360.6 401.4,-327 417.1,-293.5 401.4,-259.9 				"/>
			</g>
			<g id="XMLID_298_">
				<polygon id="XMLID_273_" class="st2" points="439.2,176.4 423.6,209.9 439.2,243.5 423.6,277 439.2,310.6 423.6,344.1 
					439.2,377.7 423.6,411.3 439.2,444.8 423.6,478.4 439.2,511.9 423.6,545.5 439.2,579.1 423.6,612.6 439.2,646.2 423.6,679.7 
					439.2,713.3 423.6,746.9 439.2,780.4 423.6,814 439.2,847.5 422.7,882.9 414.8,879.2 429.7,847.5 414,814 429.7,780.4 
					414,746.9 429.7,713.3 414,679.7 429.7,646.2 414,612.6 429.7,579.1 414,545.5 429.7,511.9 414,478.4 429.7,444.8 414,411.3 
					429.7,377.7 414,344.1 429.7,310.6 414,277 429.7,243.5 414,209.9 429.7,176.4 414,142.8 429.7,109.2 414,75.7 429.7,42.1 
					414,8.6 429.7,-25 414,-58.5 429.7,-92.1 414,-125.7 429.7,-159.2 414,-192.8 429.7,-226.4 414,-259.9 429.7,-293.5 414,-327 
					429.7,-360.6 414,-394.2 430.5,-429.6 438.4,-425.9 423.6,-394.2 439.2,-360.6 423.6,-327 439.2,-293.5 423.6,-259.9 
					439.2,-226.4 423.6,-192.8 439.2,-159.2 423.6,-125.7 439.2,-92.1 423.6,-58.5 439.2,-25 423.6,8.6 439.2,42.1 423.6,75.7 
					439.2,109.2 423.6,142.8 				"/>
			</g>
			<g id="XMLID_301_">
				<polygon id="XMLID_272_" class="st2" points="461.4,176.4 445.7,209.9 461.4,243.5 445.7,277 461.4,310.6 445.7,344.1 
					461.4,377.7 445.7,411.3 461.4,444.8 445.7,478.4 461.4,511.9 445.7,545.5 461.4,579.1 445.7,612.6 461.4,646.2 445.7,679.7 
					461.4,713.3 445.7,746.9 461.4,780.4 445.7,814 461.4,847.5 444.9,882.9 437,879.2 451.8,847.5 436.1,814 451.8,780.4 
					436.1,746.9 451.8,713.3 436.1,679.7 451.8,646.2 436.1,612.6 451.8,579.1 436.1,545.5 451.8,511.9 436.1,478.4 451.8,444.8 
					436.1,411.3 451.8,377.7 436.1,344.1 451.8,310.6 436.1,277 451.8,243.5 436.1,209.9 451.8,176.4 436.1,142.8 451.8,109.2 
					436.1,75.7 451.8,42.1 436.1,8.6 451.8,-25 436.1,-58.5 451.8,-92.1 436.1,-125.7 451.8,-159.2 436.1,-192.8 451.8,-226.4 
					436.1,-259.9 451.8,-293.5 436.1,-327 451.8,-360.6 436.1,-394.2 452.7,-429.6 460.5,-425.9 445.7,-394.2 461.4,-360.6 
					445.7,-327 461.4,-293.5 445.7,-259.9 461.4,-226.4 445.7,-192.8 461.4,-159.2 445.7,-125.7 461.4,-92.1 445.7,-58.5 461.4,-25 
					445.7,8.6 461.4,42.1 445.7,75.7 461.4,109.2 445.7,142.8 				"/>
			</g>
			<g id="XMLID_304_">
				<polygon id="XMLID_270_" class="st2" points="483.6,-226.4 467.9,-192.8 483.6,-159.2 467.9,-125.7 483.6,-92.1 467.9,-58.5 
					483.6,-25 467.9,8.6 483.6,42.1 467.9,75.7 483.6,109.2 467.9,142.8 483.6,176.4 467.9,209.9 483.6,243.5 467.9,277 
					483.6,310.6 467.9,344.1 483.6,377.7 467.9,411.3 483.6,444.8 467.9,478.4 483.6,511.9 467.9,545.5 483.6,579.1 467.9,612.6 
					483.6,646.2 467.9,679.7 483.6,713.3 467.9,746.9 483.6,780.4 467.9,814 483.6,847.5 467,882.9 459.1,879.2 474,847.5 
					458.3,814 474,780.4 458.3,746.9 474,713.3 458.3,679.7 474,646.2 458.3,612.6 474,579.1 458.3,545.5 474,511.9 458.3,478.4 
					474,444.8 458.3,411.3 474,377.7 458.3,344.1 474,310.6 458.3,277 474,243.5 458.3,209.9 474,176.4 458.3,142.8 474,109.2 
					458.3,75.7 474,42.1 458.3,8.6 474,-25 458.3,-58.5 474,-92.1 458.3,-125.7 474,-159.2 458.3,-192.8 474,-226.4 458.3,-259.9 
					474,-293.5 458.3,-327 474,-360.6 458.3,-394.2 474.8,-429.6 482.7,-425.9 467.9,-394.2 483.6,-360.6 467.9,-327 483.6,-293.5 
					467.9,-259.9 				"/>
			</g>
			<g id="XMLID_307_">
				<polygon id="XMLID_269_" class="st2" points="505.7,176.4 490,209.9 505.7,243.5 490,277 505.7,310.6 490,344.1 505.7,377.7 
					490,411.3 505.7,444.8 490,478.4 505.7,511.9 490,545.5 505.7,579.1 490,612.6 505.7,646.2 490,679.7 505.7,713.3 490,746.9 
					505.7,780.4 490,814 505.7,847.5 489.2,882.9 481.3,879.2 496.1,847.5 480.4,814 496.1,780.4 480.4,746.9 496.1,713.3 
					480.4,679.7 496.1,646.2 480.4,612.6 496.1,579.1 480.4,545.5 496.1,511.9 480.4,478.4 496.1,444.8 480.4,411.3 496.1,377.7 
					480.4,344.1 496.1,310.6 480.4,277 496.1,243.5 480.4,209.9 496.1,176.4 480.4,142.8 496.1,109.2 480.4,75.7 496.1,42.1 
					480.4,8.6 496.1,-25 480.4,-58.5 496.1,-92.1 480.4,-125.7 496.1,-159.2 480.4,-192.8 496.1,-226.4 480.4,-259.9 496.1,-293.5 
					480.4,-327 496.1,-360.6 480.4,-394.2 497,-429.6 504.8,-425.9 490,-394.2 505.7,-360.6 490,-327 505.7,-293.5 490,-259.9 
					505.7,-226.4 490,-192.8 505.7,-159.2 490,-125.7 505.7,-92.1 490,-58.5 505.7,-25 490,8.6 505.7,42.1 490,75.7 505.7,109.2 
					490,142.8 				"/>
			</g>
			<g id="XMLID_310_">
				<polygon id="XMLID_267_" class="st2" points="527.9,-226.4 512.2,-192.8 527.9,-159.2 512.2,-125.7 527.9,-92.1 512.2,-58.5 
					527.9,-25 512.2,8.6 527.9,42.1 512.2,75.7 527.9,109.2 512.2,142.8 527.9,176.4 512.2,209.9 527.9,243.5 512.2,277 
					527.9,310.6 512.2,344.1 527.9,377.7 512.2,411.3 527.9,444.8 512.2,478.4 527.9,511.9 512.2,545.5 527.9,579.1 512.2,612.6 
					527.9,646.2 512.2,679.7 527.9,713.3 512.2,746.9 527.9,780.4 512.2,814 527.9,847.5 511.3,882.9 503.4,879.2 518.3,847.5 
					502.6,814 518.3,780.4 502.6,746.9 518.3,713.3 502.6,679.7 518.3,646.2 502.6,612.6 518.3,579.1 502.6,545.5 518.3,511.9 
					502.6,478.4 518.3,444.8 502.6,411.3 518.3,377.7 502.6,344.1 518.3,310.6 502.6,277 518.3,243.5 502.6,209.9 518.3,176.4 
					502.6,142.8 518.3,109.2 502.6,75.7 518.3,42.1 502.6,8.6 518.3,-25 502.6,-58.5 518.3,-92.1 502.6,-125.7 518.3,-159.2 
					502.6,-192.8 518.3,-226.4 502.6,-259.9 518.3,-293.5 502.6,-327 518.3,-360.6 502.6,-394.2 519.1,-429.6 527,-425.9 
					512.2,-394.2 527.9,-360.6 512.2,-327 527.9,-293.5 512.2,-259.9 				"/>
			</g>
			<g id="XMLID_313_">
				<polygon id="XMLID_266_" class="st2" points="550,176.4 534.3,209.9 550,243.5 534.3,277 550,310.6 534.3,344.1 550,377.7 
					534.3,411.3 550,444.8 534.3,478.4 550,511.9 534.3,545.5 550,579.1 534.3,612.6 550,646.2 534.3,679.7 550,713.3 534.3,746.9 
					550,780.4 534.3,814 550,847.5 533.5,882.9 525.6,879.2 540.4,847.5 524.7,814 540.4,780.4 524.7,746.9 540.4,713.3 
					524.7,679.7 540.4,646.2 524.7,612.6 540.4,579.1 524.7,545.5 540.4,511.9 524.7,478.4 540.4,444.8 524.7,411.3 540.4,377.7 
					524.7,344.1 540.4,310.6 524.7,277 540.4,243.5 524.7,209.9 540.4,176.4 524.7,142.8 540.4,109.2 524.7,75.7 540.4,42.1 
					524.7,8.6 540.4,-25 524.7,-58.5 540.4,-92.1 524.7,-125.7 540.4,-159.2 524.7,-192.8 540.4,-226.4 524.7,-259.9 540.4,-293.5 
					524.7,-327 540.4,-360.6 524.7,-394.2 541.3,-429.6 549.2,-425.9 534.3,-394.2 550,-360.6 534.3,-327 550,-293.5 534.3,-259.9 
					550,-226.4 534.3,-192.8 550,-159.2 534.3,-125.7 550,-92.1 534.3,-58.5 550,-25 534.3,8.6 550,42.1 534.3,75.7 550,109.2 
					534.3,142.8 				"/>
			</g>
			<g id="XMLID_316_">
				<polygon id="XMLID_264_" class="st2" points="572.2,176.4 556.5,209.9 572.2,243.5 556.5,277 572.2,310.6 556.5,344.1 
					572.2,377.7 556.5,411.3 572.2,444.8 556.5,478.4 572.2,511.9 556.5,545.5 572.2,579.1 556.5,612.6 572.2,646.2 556.5,679.7 
					572.2,713.3 556.5,746.9 572.2,780.4 556.5,814 572.2,847.5 555.6,882.9 547.8,879.2 562.6,847.5 546.9,814 562.6,780.4 
					546.9,746.9 562.6,713.3 546.9,679.7 562.6,646.2 546.9,612.6 562.6,579.1 546.9,545.5 562.6,511.9 546.9,478.4 562.6,444.8 
					546.9,411.3 562.6,377.7 546.9,344.1 562.6,310.6 546.9,277 562.6,243.5 546.9,209.9 562.6,176.4 546.9,142.8 562.6,109.2 
					546.9,75.7 562.6,42.1 546.9,8.6 562.6,-25 546.9,-58.5 562.6,-92.1 546.9,-125.7 562.6,-159.2 546.9,-192.8 562.6,-226.4 
					546.9,-259.9 562.6,-293.5 546.9,-327 562.6,-360.6 546.9,-394.2 563.4,-429.6 571.3,-425.9 556.5,-394.2 572.2,-360.6 
					556.5,-327 572.2,-293.5 556.5,-259.9 572.2,-226.4 556.5,-192.8 572.2,-159.2 556.5,-125.7 572.2,-92.1 556.5,-58.5 572.2,-25 
					556.5,8.6 572.2,42.1 556.5,75.7 572.2,109.2 556.5,142.8 				"/>
			</g>
			<g id="XMLID_319_">
				<polygon id="XMLID_263_" class="st2" points="594.3,-226.4 578.6,-192.8 594.3,-159.2 578.6,-125.7 594.3,-92.1 578.6,-58.5 
					594.3,-25 578.6,8.6 594.3,42.1 578.6,75.7 594.3,109.2 578.6,142.8 594.3,176.4 578.6,209.9 594.3,243.5 578.6,277 
					594.3,310.6 578.6,344.1 594.3,377.7 578.6,411.3 594.3,444.8 578.6,478.4 594.3,511.9 578.6,545.5 594.3,579.1 578.6,612.6 
					594.3,646.2 578.6,679.7 594.3,713.3 578.6,746.9 594.3,780.4 578.6,814 594.3,847.5 577.8,882.9 569.9,879.2 584.7,847.5 
					569,814 584.7,780.4 569,746.9 584.7,713.3 569,679.7 584.7,646.2 569,612.6 584.7,579.1 569,545.5 584.7,511.9 569,478.4 
					584.7,444.8 569,411.3 584.7,377.7 569,344.1 584.7,310.6 569,277 584.7,243.5 569,209.9 584.7,176.4 569,142.8 584.7,109.2 
					569,75.7 584.7,42.1 569,8.6 584.7,-25 569,-58.5 584.7,-92.1 569,-125.7 584.7,-159.2 569,-192.8 584.7,-226.4 569,-259.9 
					584.7,-293.5 569,-327 584.7,-360.6 569,-394.2 585.6,-429.6 593.5,-425.9 578.6,-394.2 594.3,-360.6 578.6,-327 594.3,-293.5 
					578.6,-259.9 				"/>
			</g>
			<g id="XMLID_322_">
				<polygon id="XMLID_261_" class="st2" points="616.5,176.4 600.8,209.9 616.5,243.5 600.8,277 616.5,310.6 600.8,344.1 
					616.5,377.7 600.8,411.3 616.5,444.8 600.8,478.4 616.5,511.9 600.8,545.5 616.5,579.1 600.8,612.6 616.5,646.2 600.8,679.7 
					616.5,713.3 600.8,746.9 616.5,780.4 600.8,814 616.5,847.5 599.9,882.9 592.1,879.2 606.9,847.5 591.2,814 606.9,780.4 
					591.2,746.9 606.9,713.3 591.2,679.7 606.9,646.2 591.2,612.6 606.9,579.1 591.2,545.5 606.9,511.9 591.2,478.4 606.9,444.8 
					591.2,411.3 606.9,377.7 591.2,344.1 606.9,310.6 591.2,277 606.9,243.5 591.2,209.9 606.9,176.4 591.2,142.8 606.9,109.2 
					591.2,75.7 606.9,42.1 591.2,8.6 606.9,-25 591.2,-58.5 606.9,-92.1 591.2,-125.7 606.9,-159.2 591.2,-192.8 606.9,-226.4 
					591.2,-259.9 606.9,-293.5 591.2,-327 606.9,-360.6 591.2,-394.2 607.7,-429.6 615.6,-425.9 600.8,-394.2 616.5,-360.6 
					600.8,-327 616.5,-293.5 600.8,-259.9 616.5,-226.4 600.8,-192.8 616.5,-159.2 600.8,-125.7 616.5,-92.1 600.8,-58.5 616.5,-25 
					600.8,8.6 616.5,42.1 600.8,75.7 616.5,109.2 600.8,142.8 				"/>
			</g>
		</g>
	</g>
</g>
</svg>
