<svg xmlns="http://www.w3.org/2000/svg" xmlns:xlink="http://www.w3.org/1999/xlink" preserveAspectRatio="xMidYMid" width="80" height="80" viewBox="0 0 80 80">
  <defs>
    <style>
      .cls-1 {
        fill: #393b48;
        filter: url(#color-overlay-1);
        fill-rule: evenodd;
      }
    </style>

    <filter id="color-overlay-1" filterUnits="userSpaceOnUse">
      <feFlood flood-color="#8f2857"/>
      <feComposite operator="in" in2="SourceGraphic"/>
      <feBlend in2="SourceGraphic" result="solidFill"/>
    </filter>
  </defs>
  <path d="M65.000,4.999 C58.478,4.999 52.985,9.187 50.918,14.999 L39.292,14.999 C37.062,6.388 29.308,-0.000 19.999,-0.000 C8.954,-0.000 -0.000,8.954 -0.000,19.999 C-0.000,31.045 8.954,40.000 19.999,40.000 C20.715,40.000 21.392,39.862 22.089,39.789 L32.862,56.248 C31.080,58.716 30.000,61.722 30.000,64.999 C30.000,73.284 36.715,80.000 45.000,80.000 C53.284,80.000 60.000,73.284 60.000,64.999 C60.000,56.715 53.284,50.000 45.000,50.000 C43.643,50.000 42.354,50.238 41.104,50.575 L31.678,36.174 C35.392,33.487 38.110,29.565 39.292,25.000 L50.918,25.000 C52.985,30.812 58.478,35.000 65.000,35.000 C73.284,35.000 80.000,28.284 80.000,19.999 C80.000,11.716 73.284,4.999 65.000,4.999 ZM10.000,19.999 C10.000,14.486 14.486,10.000 19.999,10.000 C25.514,10.000 30.000,14.486 30.000,19.999 C30.000,25.514 25.514,29.999 19.999,29.999 C14.486,29.999 10.000,25.514 10.000,19.999 Z" class="cls-1"/>
</svg>
