<?xml version="1.0" encoding="utf-8"?>
<!-- Generator: Adobe Illustrator 19.0.0, SVG Export Plug-In . SVG Version: 6.00 Build 0)  -->
<svg version="1.1" id="Capa_1" xmlns="http://www.w3.org/2000/svg" xmlns:xlink="http://www.w3.org/1999/xlink" x="0px" y="0px"
	 width="36px" height="36px" viewBox="0 0 36 36" style="enable-background:new 0 0 36 36;" xml:space="preserve">
<style type="text/css">
	.st0{fill:#FFFFFF;}
	.st1{fill:#898989;}
</style>
<path id="XMLID_15_" class="st0" d="M19.1,25h-2.9v-7h-1.5v-2.4h1.5v-1.5c0-2,0.8-3.2,3.2-3.2h1.9v2.4h-1.2c-0.9,0-1,0.3-1,1l0,1.2
	h2.2L21,18h-1.9V25z"/>
<circle id="XMLID_31_" class="st1" cx="18" cy="18" r="18"/>
<path id="XMLID_30_" class="st0" d="M26.3,13.2c-0.6,0.3-1.2,0.4-1.8,0.5c0.7-0.4,1.2-1,1.4-1.8c-0.6,0.4-1.3,0.6-2,0.8
	c-0.6-0.6-1.4-1-2.3-1c-1.7,0-3.2,1.4-3.2,3.2c0,0.2,0,0.5,0.1,0.7c-2.6-0.1-5-1.4-6.5-3.3c-0.3,0.5-0.4,1-0.4,1.6
	c0,1.1,0.6,2.1,1.4,2.6c-0.5,0-1-0.2-1.4-0.4c0,0,0,0,0,0c0,1.5,1.1,2.8,2.5,3.1c-0.3,0.1-0.5,0.1-0.8,0.1c-0.2,0-0.4,0-0.6-0.1
	c0.4,1.3,1.6,2.2,3,2.2c-1.1,0.8-2.4,1.4-3.9,1.4c-0.3,0-0.5,0-0.8,0c1.4,0.9,3.1,1.4,4.9,1.4c5.8,0,9-4.8,9-9c0-0.1,0-0.3,0-0.4
	C25.3,14.4,25.9,13.8,26.3,13.2z"/>
</svg>
