<?xml version="1.0" encoding="utf-8"?>
<!-- Generator: Adobe Illustrator 22.0.0, SVG Export Plug-In . SVG Version: 6.00 Build 0)  -->
<svg version="1.1" id="svg3699" xmlns="http://www.w3.org/2000/svg" xmlns:xlink="http://www.w3.org/1999/xlink" x="0px" y="0px"
	 viewBox="0 0 3656.6 661.7" style="enable-background:new 0 0 3656.6 661.7;" xml:space="preserve">
<style type="text/css">
	.st0{fill:#FFFFFF;}
	.st1{fill:#283F82;}
	.st2{fill:#F7F8F8;}
	.st3{fill:none;}
	.st4{fill:none;stroke:#283F82;stroke-width:6;stroke-miterlimit:10;}
	.st5{enable-background:new    ;}
</style>
<title>Mesa de trabajo 1</title>
<rect y="1.3" class="st0" width="3656.6" height="660.4"/>
<g>
	<path class="st1" d="M1337.1,239c0,26.1-7.4,46.1-22.3,60c-14.9,13.9-36.3,20.8-64.4,20.8h-44.9V161.2h49.8
		c25.9,0,46,6.8,60.3,20.5C1330,195.4,1337.1,214.5,1337.1,239z M1302.2,239.9c0-34.1-15-51.1-45.1-51.1h-17.9V292h14.4
		C1286,292,1302.2,274.6,1302.2,239.9z"/>
	<path class="st1" d="M1403.6,259v60.8H1370V161.2h46.2c21.5,0,37.5,3.9,47.8,11.8c10.3,7.8,15.5,19.8,15.5,35.7
		c0.1,8.9-2.6,17.6-7.7,24.9c-5.1,7.3-12.4,13-21.8,17.1c23.9,35.6,39.4,58.7,46.6,69.1h-37.3l-37.8-60.8H1403.6z M1403.6,231.7
		h10.8c10.6,0,18.5-1.8,23.5-5.3c5.1-3.5,7.6-9.1,7.6-16.7c0-7.5-2.6-12.9-7.8-16c-5.2-3.1-13.2-4.7-24-4.8h-10.2L1403.6,231.7z"/>
	<path class="st1" d="M1645.7,161.2v102.6c0,11.7-2.6,22-7.9,30.8c-5.3,8.9-13.3,16-22.7,20.3c-9.9,4.7-21.6,7.1-35.1,7.1
		c-20.4,0-36.2-5.2-47.5-15.7c-11.3-10.4-16.9-24.7-16.9-42.9V161.2h33.5v97.1c0,12.2,2.5,21.2,7.4,26.9c4.9,5.7,13,8.6,24.4,8.6
		c11,0,19-2.9,23.9-8.6c5-5.7,7.4-14.8,7.4-27.1v-96.9H1645.7z"/>
	<path class="st1" d="M1794.1,210.7c0,17.1-5.3,30.1-16,39.1c-10.7,9-25.8,13.6-45.5,13.6h-14.4v56.4h-33.6V161.2h50.7
		c19.2,0,33.9,4.1,43.9,12.4C1789.1,181.9,1794.1,194.3,1794.1,210.7z M1718.2,235.9h11.1c10.3,0,18.1-2,23.2-6.1
		c5.1-4.1,7.7-10,7.7-17.8c0-7.9-2.2-13.7-6.5-17.5c-4.3-3.8-11-5.6-20.2-5.6h-15.3V235.9z"/>
	<path class="st1" d="M1921.1,319.8l-11.5-37.7h-57.8l-11.5,37.7h-36.2l56-159.2h41.1l56.2,159.2H1921.1z M1901.6,253.9
		c-10.6-34.2-16.6-53.5-17.9-58c-1.3-4.5-2.3-8-2.9-10.6c-2.4,9.3-9.2,32.1-20.5,68.7L1901.6,253.9z"/>
	<path class="st1" d="M1977.3,319.8V161.2h33.6V292h64.3v27.8H1977.3z"/>
</g>
<g>
	<path class="st1" d="M2173,168.9c-19.9,0-35.6,6.4-47,19.1c-11.4,12.7-17.1,30.2-17.1,52.3c0,22.6,5.4,40.2,16.2,52.7
		c10.8,12.5,26.2,18.8,46.2,18.8c12.4,0.1,24.8-1.6,36.7-5.1v9.8c-10.5,3.7-23.6,5.5-39.3,5.5c-22.3,0-39.8-7.2-52.6-21.6
		c-12.8-14.4-19.2-34.5-19.2-60.3c0-16.1,3.1-30.3,9.2-42.6c5.8-11.9,14.9-21.8,26.4-28.5c11.5-6.7,24.8-10,40-10
		c15.5,0,29.3,2.9,41.5,8.7l-4.4,10C2198.1,171.9,2185.7,168.9,2173,168.9z"/>
	<path class="st1" d="M2319.6,263.8h-64.4l-22.1,56h-12.3l63.8-159.2h7l62.5,159.2h-12.5L2319.6,263.8z M2259.2,253.8h56.7
		l-21.6-57.2c-1.8-4.5-4-10.7-6.5-18.7c-1.8,6.4-3.9,12.7-6.4,18.9L2259.2,253.8z"/>
	<path class="st1" d="M2446.3,319.8l-59.1-146.4h-0.9c0.6,9,0.9,18.1,0.9,27.6v118.9h-10.6V161.2h17.1l56.2,139.5h0.6l56.2-139.5
		h16.7v158.6h-11.2V199.6c0-8.4,0.4-17,1.3-26h-0.9l-59.3,146.2H2446.3z"/>
	<path class="st1" d="M2663.6,206.8c0,15.3-5.2,27.1-15.6,35.3c-10.4,8.2-25.2,12.3-44.3,12.3h-24.5v65.5h-11.1V161.2h38.8
		C2644.8,161.2,2663.6,176.4,2663.6,206.8z M2579.3,244.8h21.8c17.9,0,30.8-2.9,38.7-8.8c8-5.9,11.9-15.5,11.9-28.7
		c0-12.2-3.8-21.3-11.3-27.2c-7.5-5.9-19.2-8.8-34.9-8.8h-26.3V244.8z"/>
</g>
<path class="st1" d="M1308.9,485.6c0,14.3-5.2,25.6-15.4,33.8c-10.3,8.2-24.6,12.4-43,12.4c-16.9,0-31.9-3.2-44.9-9.5V491
	c8.8,4.1,17.9,7.4,27.2,10.1c6.6,1.8,13.5,2.8,20.3,2.9c7.4,0,13-1.4,17-4.2s5.9-7,5.9-12.6c0-3-0.9-5.9-2.6-8.3
	c-2.1-2.8-4.7-5.1-7.7-7c-3.3-2.2-10.2-5.8-20.6-10.7c-9.7-4.6-17-8.9-21.8-13.1c-4.8-4.1-8.7-9.1-11.6-14.6
	c-3-6.1-4.5-12.8-4.3-19.5c0-14,4.8-25,14.3-33.1s22.7-12.1,39.4-12c8,0,15.9,1,23.6,2.9c8,2.1,15.9,4.9,23.5,8.2l-10.8,26.1
	c-6.8-2.9-13.8-5.3-21-7.3c-5.3-1.4-10.8-2.1-16.3-2.1c-6.4,0-11.3,1.5-14.7,4.5c-3.4,2.9-5.2,7.2-5.1,11.6
	c-0.1,2.7,0.6,5.4,2.1,7.8c1.7,2.6,4,4.7,6.6,6.4c3,2.1,10.1,5.8,21.3,11.1c14.8,7.1,25,14.2,30.5,21.3S1309,475.3,1308.9,485.6z"/>
<path class="st1" d="M1447.2,420.5c0,17.1-5.3,30.1-16,39.1c-10.7,9-25.8,13.6-45.5,13.6h-14.4v56.4h-33.6V371.1h50.7
	c19.2,0,33.9,4.1,43.9,12.4C1442.2,391.8,1447.2,404.1,1447.2,420.5z M1371.3,445.7h11.1c10.3,0,18.1-2,23.2-6.1s7.7-10,7.7-17.8
	c0-7.9-2.2-13.7-6.4-17.5c-4.3-3.8-11-5.6-20.2-5.6h-15.3V445.7z"/>
<path class="st1" d="M1574.2,529.7l-11.5-37.7h-57.8l-11.5,37.7h-36.2l56-159.2h41.1l56.2,159.2H1574.2z M1554.7,463.7
	c-10.6-34.2-16.6-53.5-18-58c-1.4-4.5-2.3-8-2.9-10.6c-2.4,9.3-9.2,32.1-20.5,68.7L1554.7,463.7z"/>
<path class="st1" d="M1630.4,529.7V371.1h33.6v158.6H1630.4z"/>
<path class="st1" d="M1844.6,529.7h-42.7l-69-120h-1c1.4,21.2,2.1,36.3,2.1,45.3v74.6h-30V371.1h42.4l68.9,118.8h0.8
	c-1.1-20.6-1.6-35.2-1.6-43.7v-75.1h30.3L1844.6,529.7z"/>
<g id="g3717">
	<path id="path3719" class="st2" d="M1103.5,68.6c0.6,0.3,1.5,0.5,1.6,0.9c0.2,1,0.2,1.9,0.1,2.9c0,176.2,0,352.4,0.1,528.6
		c0,3.2-0.7,3.9-3.8,3.8c-345.4-0.1-690.8-0.1-1036.2-0.1c-1.3-0.1-2.6-0.4-3.8-0.8l0.9-0.1c1.5,0,3.1,0.1,4.6,0.1
		c343.8,0,687.7,0,1031.5,0.1c4.1,0,5.3-0.8,5.3-5.1c-0.1-174.9-0.2-349.9-0.1-524.8c0-1.5-0.1-3.1-0.2-4.6
		C1103.5,69.2,1103.5,68.9,1103.5,68.6"/>
</g>
<g id="g3725">
	<path id="path3727" class="st1" d="M596,479.2c-0.1,0.5-0.2,1.1-0.3,1.6c0,30.9,0,61.8-0.1,92.6c0,2.5,0.9,3,3.2,3
		c15.5-0.1,31,0,46.5-0.1c0.5,0,1.1-0.1,1.6-0.3c-8.6-13.1-12.4-21.2-13.8-32.3c-1.1-8.4-1.5-17-2-25.4
		C629.9,498.4,615.7,482.4,596,479.2 M1076.6,479.3c-12.2,3-22.5,8.1-29,19.1c-5.2,8.8-6.8,18.5-6.8,28.5
		c0.1,13.5-2.4,26.3-8.7,38.3c-2,3.7-4.3,7.3-6.7,11.2c16.1,0,31.8-0.1,47.4,0.1c3.3,0,3.8-1,3.8-4c-0.1-28.4-0.1-56.8-0.1-85.2
		L1076.6,479.3z M898.6,97.2c1,1.5,1.7,2.6,2.4,3.7s1.5,2.3,2.3,3.5c7.9,13.2,10.6,27.6,10.7,42.9c0.1,15,4.7,28.4,17.5,37.5
		c13.9,9.9,29.5,12.7,46.2,8.6c13.8-3.4,24.7-10.7,31-23.9c3.8-8,4.6-16.6,4.7-25.3c0.3-14.8,3.5-28.8,11.3-41.5
		c1.1-1.7,2.2-3.4,3.4-5.5H898.6z M710.6,97.2c-20.1,0-40.3,0-60.4,0c-1.3,0.1-2.6,0.3-3.9,0.6c0.5,1.1,1,2.2,1.6,3.3
		c1.1,1.9,2.3,3.8,3.4,5.8c7.4,13.5,8.8,28.2,9.3,43.2c0.4,13.1,4.3,25.1,14.8,33.7c14,11.5,30.2,14.5,47.6,10.2
		c17.8-4.3,30.3-14.7,34.2-33.2c1.7-8,1.5-16.3,2.3-24.5c1.2-13,5.1-25,13.2-35.5c0.7-1,1.3-2.1,1.8-3.2c-1.2-0.3-2.3-0.5-3.5-0.5
		C750.8,97.2,730.7,97.2,710.6,97.2 M900.6,575.4c-0.7-1.1-1.1-1.8-1.5-2.5c-6.5-8.9-10.9-18.8-12.3-29.8
		c-1.1-8.7-1.2-17.5-2.1-26.2c-1.8-16.5-9.5-28.9-25.5-35.2c-14.7-5.8-29.5-5.8-44.5-0.7c-17.7,6-26.5,18.5-28.2,36.6
		c-0.5,5.3-0.6,10.6-0.9,15.9c-0.5,10-2.6,19.6-7.1,28.6c-2.3,4.5-5.1,8.8-7.7,13.4H900.6z M596.9,401.4c0,15.4,0.1,30.8,0,46.1
		c0,2.6,0.7,3.6,3.4,4c3.7,0.7,7.3,1.6,10.9,2.9c27.8,9.7,46.5,31.5,48.8,63.1c0.5,7,0.7,14,1.6,20.9c1.4,10.3,5.8,19.3,14,25.8
		c14.5,11.6,31.1,14.8,48.9,10.2s29.8-15.7,33.4-34.1c1.4-7.3,1.2-15,1.8-22.5c1.7-20.7,9.5-38.5,26.2-51.3
		c23.8-18.1,50.3-21.4,78.4-12.2c19.1,6.3,33.9,17.9,42.6,36.4c5.6,11.8,7.4,24.4,7.4,37.4c0,11.8,2.7,23.1,11.1,32
		c13.9,14.7,31.3,18.6,50.6,14.6c11.5-2.4,21.4-7.9,28.4-17.8c5.6-7.9,7.3-17,8-26.5s0.8-19.1,3.2-28.2
		c7.7-28.6,27.8-44.3,55.9-50.7c3.3-0.8,4.4-1.7,4.4-5.3c-0.2-29.9-0.1-59.8-0.1-89.8c0-0.7,0.3-1.6-0.1-2.1
		c-0.5-0.8-1.6-1.9-2.1-1.7c-8.5,2.2-16.3,5.6-22.4,12.2c-8.3,9-10.7,20.1-11.5,32c-0.6,8.6-0.6,17.5-2.8,25.7
		c-8.1,30.7-29.8,46.9-59.7,53.4c-16,3.5-31.6,1.3-46.7-4.9c-23.8-9.9-38.8-27.1-43.4-52.7c-1.5-8.8-1.5-17.8-2.4-26.6
		c-1.8-17.2-10-29.9-26.4-36.5c-14.1-5.9-29.9-6-44-0.2c-14.7,5.8-24,16.5-26.3,32.4c-0.9,6.3-1.1,12.8-1.5,19.2
		c-0.7,10.5-2.6,20.8-7.4,30.3c-14.1,27.6-38.4,38.8-67.8,40.8c-9.6,0.6-19.1-1.5-28.3-4.7c-20.4-7.1-36-19.6-44.6-40
		c-5.2-12.4-5.9-25.4-6.4-38.6c-0.8-20.9-11.3-34.9-30.7-41.3c-3.3-1.1-4.6-0.8-4.5,3.2c0.2,15,0.1,29.9,0.1,44.9 M597,274.5
		c0,15.4,0,30.8,0,46.1c0,1.8-0.4,3.4,2.4,3.9c32.4,6.3,58.3,29.3,60.6,67.3c0.4,6.5,0.7,13.1,1.5,19.6c1.4,10.3,5.7,19.3,13.8,25.9
		c13.5,11,29,14.1,46,10.7c23-4.5,37.1-21.6,37.6-45.1c0.2-8.5,1.2-17,3-25.3c4.5-20.3,16.4-35.5,34.7-45.2
		c20.7-11,42.6-12.7,64.9-6s38.4,21,46.6,43.3c4.1,11.1,4.3,22.7,4.9,34.2c1,16.7,7.8,30.1,23.1,38.1c14.6,7.6,29.8,8.7,45.4,3.4
		c12.7-4.3,22.5-12.2,26.8-25c2.4-7.3,3.2-15.2,3.7-23c0.7-11.4,2.1-22.6,7-33c10.4-22.4,28.3-35.3,52.2-40.2c3.6-0.7,4.6-2,4.6-5.7
		c-0.2-22.5-0.1-45-0.1-67.5c0-7.8,0-15.7,0-23.5c0-1.5,0.4-3.1-2.3-2.4c-15.1,4.1-26.9,12.2-30.8,28c-2.3,9.2-2.5,19-3.4,28.6
		c-2,22.5-11.2,41.2-30.2,53.8c-26.4,17.4-54.5,19.5-83.2,6c-21.5-10.1-34.7-27.2-38.7-50.8c-1.5-8.8-1.4-17.8-2.4-26.6
		c-1.8-15.7-8.6-28.2-23.7-34.7c-13.8-5.9-27.9-7.1-42.5-2.6c-17.6,5.5-28.2,17-30.9,35.2c-1.3,8.7-0.9,17.6-2.1,26.3
		c-2.5,18.4-10.4,34.2-25.5,45.4c-21.6,15.9-45.6,21.2-71.6,14.1c-23.7-6.4-41.5-20-50.7-43.4c-4.6-11.8-5.2-24.2-5.6-36.6
		c-0.8-20.8-11.6-35.1-30.7-41.2c-3.3-1.1-4.5-1-4.5,3.1C597.1,244.6,597,259.5,597,274.5 M1076.7,98.3
		c-20.2,3.4-33.1,17.4-35.2,38.1c-1,9.3-1,18.7-2.5,27.9c-2.9,17.5-11.5,32.1-25.9,42.4c-24.9,17.9-52,21.8-80.7,10.4
		c-23.6-9.4-38.8-26.3-43.6-51.5c-2-10.2-1.9-20.8-3.3-31.2c-1.5-11.2-6.2-20.9-15.7-27.5c-14.5-10-30.5-12.4-47.5-8.3
		c-19.5,4.7-31.9,16.7-34.3,37.7c-1.1,9.6-1,19.3-2.7,28.7c-7.4,40.4-42.7,57.7-75,58.3c-9,0.2-18.4-2-27-4.8
		c-25-8.3-42-25-47.8-51.2c-2.3-10.5-2.2-21.6-3.5-32.4c-2.2-18.8-13.9-32.6-35.2-36.6v4.2c0,29.8,0.1,59.6-0.1,89.3
		c0,3.7,1.2,4.9,4.7,5.6c32.5,6.9,56.1,30.7,58.4,66.1c0.4,6.8,0.7,13.7,1.6,20.4c1.6,10.6,5.9,19.9,14.6,26.5
		c16.4,12.5,34.6,14.5,53.7,7.6c14.7-5.3,24.5-15.5,27.5-31c1.5-8,1.6-16.3,2.3-24.5c2.1-22.8,11.8-41.7,31.3-54.1
		c23.4-14.9,48.7-17.4,75-8.2c19.5,6.9,33.9,19.6,42,38.8c4.8,11.2,6,23,6.3,35.2c0.3,15.1,5,28.6,18,37.7
		c12.7,9.1,28.6,12.2,43.8,8.6c15.9-3.5,28.6-11.7,33.9-27.8c2.3-7.2,3.4-14.7,3.4-22.2c0.5-38.7,23.8-66.7,60.7-73.5
		c3.2-0.6,2.7-2.5,2.7-4.5c0-30.3,0-60.7,0-91L1076.7,98.3z M322,538.6c23-0.2,38.7-2.5,54.3-6.7c69.6-18.7,125.4-81.7,126.2-162.9
		c0.2-20.2-3.7-39.9-10.8-58.9c-9.8-26.4-26.4-47.9-46.2-67.5c-35.4-34.8-70.4-70-105.5-105c-7.3-7.3-14.4-7.3-21.8,0.1
		c-6.7,6.7-13.5,13.4-20.2,20.1c-31.6,31.6-63.6,62.9-94.8,95c-34.4,35.4-49.9,78.2-46.9,127.5c1.5,25.3,8.3,49.2,21.4,71
		C211.8,508.4,263.2,536.1,322,538.6 M62.3,603.8c0-15,0-29.9,0-44.9c0-161.3,0-322.7-0.1-484.1c0-4,0.6-5.5,5.1-5.5
		c344.5,0.1,689,0.2,1033.6,0.1h2.5c0.1,1.5,0.2,3.1,0.2,4.6c0,174.9,0,349.9,0.1,524.8c0,4.3-1.2,5.1-5.3,5.1
		c-343.8-0.1-687.7-0.1-1031.5-0.1C65.4,603.8,63.9,603.8,62.3,603.8"/>
</g>
<g id="g3729">
	<path id="path3731" class="st0" d="M322,538.6c-58.8-2.6-110.2-30.3-144.3-87.3c-13-21.7-19.8-45.6-21.4-71
		c-3-49.3,12.5-92.1,46.9-127.5c31.2-32.1,63.2-63.3,94.8-95c6.7-6.7,13.4-13.4,20.1-20.1c7.3-7.4,14.5-7.3,21.8-0.1
		c35.1,35.1,70.1,70.3,105.5,105c19.9,19.5,36.4,41.1,46.2,67.5c7.1,19,11,38.7,10.8,58.9c-0.8,81.2-56.5,144.2-126.2,162.9
		C360.7,536.1,344.9,538.4,322,538.6"/>
</g>
<g id="g3733">
	<path id="path3735" class="st0" d="M1076.7,98.3v3.4c0,30.4,0,60.7,0,91c0,2,0.5,3.9-2.7,4.5c-36.9,6.8-60.2,34.8-60.7,73.5
		c0,7.5-1.2,15-3.4,22.2c-5.3,16.1-18.1,24.3-33.9,27.8c-15.2,3.6-31.1,0.5-43.8-8.6c-13.1-9.1-17.8-22.5-18-37.7
		c-0.2-12.1-1.5-24-6.3-35.2c-8.2-19.2-22.5-31.9-42-38.8c-26.2-9.2-51.5-6.7-75,8.2c-19.5,12.4-29.2,31.2-31.3,54.1
		c-0.8,8.2-0.8,16.5-2.3,24.5c-3,15.5-12.8,25.7-27.5,31c-19.2,6.9-37.3,4.9-53.7-7.6c-8.6-6.6-13-15.9-14.5-26.5
		c-1-6.8-1.2-13.6-1.6-20.4c-2.3-35.3-25.9-59.2-58.4-66.1c-3.5-0.7-4.7-1.9-4.7-5.6c0.2-29.8,0.1-59.6,0.1-89.3v-4.2
		c21.3,4,32.9,17.8,35.2,36.6c1.3,10.8,1.2,21.9,3.5,32.4c5.8,26.2,22.8,42.9,47.8,51.2c8.6,2.9,18,5,27,4.8
		c32.3-0.6,67.6-17.9,75-58.3c1.6-9.4,1.5-19.1,2.6-28.7c2.4-20.9,14.8-32.9,34.3-37.7c17-4.1,33-1.8,47.5,8.3
		c9.5,6.6,14.3,16.3,15.7,27.5c1.3,10.4,1.3,20.9,3.3,31.2c4.8,25.1,20,42.1,43.6,51.5c28.7,11.4,55.8,7.5,80.7-10.4
		c14.5-10.4,23-24.9,25.9-42.4c1.5-9.2,1.5-18.6,2.5-27.9C1043.6,115.7,1056.5,101.7,1076.7,98.3"/>
</g>
<g id="g3737">
	<path id="path3739" class="st0" d="M596.9,274.5c0-15,0.1-29.9-0.1-44.9c-0.1-4.1,1.2-4.1,4.5-3.1c19.1,6.1,29.9,20.4,30.7,41.2
		c0.5,12.5,1,24.9,5.6,36.6c9.2,23.4,27,37,50.7,43.4c26.1,7.1,50.1,1.8,71.6-14.1c15.2-11.2,23.1-27,25.5-45.4
		c1.2-8.7,0.8-17.6,2.1-26.3c2.7-18.2,13.3-29.7,30.9-35.2c14.6-4.5,28.7-3.4,42.5,2.6c15.2,6.5,22,19,23.7,34.7
		c1,8.9,0.9,17.9,2.4,26.6c3.9,23.6,17.2,40.6,38.7,50.8c28.7,13.6,56.8,11.4,83.2-6c19.1-12.6,28.2-31.3,30.2-53.8
		c0.8-9.6,1.1-19.3,3.4-28.6c3.9-15.8,15.7-23.9,30.8-28c2.8-0.7,2.3,0.9,2.3,2.4c0,7.8,0,15.7,0,23.5c0,22.5-0.1,45,0.1,67.5
		c0,3.6-1,4.9-4.6,5.7c-23.9,4.9-41.8,17.9-52.2,40.2c-4.8,10.4-6.2,21.6-7,33c-0.5,7.7-1.2,15.7-3.7,23
		c-4.3,12.8-14.1,20.7-26.8,25c-15.6,5.3-30.8,4.3-45.4-3.4c-15.3-8-22.2-21.4-23.1-38.1c-0.7-11.6-0.9-23.2-4.9-34.2
		c-8.2-22.3-24.1-36.5-46.6-43.3s-44.2-5-64.9,6c-18.3,9.7-30.2,24.9-34.7,45.2c-1.8,8.3-2.8,16.7-2.9,25.2
		c-0.5,23.5-14.6,40.6-37.6,45.1c-17,3.3-32.5,0.3-46-10.7c-8.2-6.6-12.4-15.7-13.8-25.9c-0.9-6.5-1.2-13.1-1.5-19.6
		c-2.3-38-28.2-61-60.6-67.3c-2.8-0.5-2.4-2.1-2.4-3.9C596.9,305.2,596.9,289.9,596.9,274.5"/>
</g>
<g id="g3741">
	<path id="path3743" class="st0" d="M596.9,401.4c0-15,0.1-29.9-0.1-44.9c-0.1-4,1.2-4.3,4.5-3.2c19.3,6.4,29.9,20.4,30.7,41.3
		c0.5,13.2,1.2,26.2,6.4,38.6c8.6,20.3,24.2,32.9,44.6,40c9.2,3.2,18.7,5.4,28.3,4.7c29.4-2,53.7-13.2,67.8-40.8
		c4.8-9.5,6.8-19.7,7.4-30.3c0.4-6.4,0.5-12.8,1.5-19.2c2.3-15.9,11.6-26.6,26.3-32.4c14.1-5.8,29.9-5.7,44,0.2
		c16.4,6.7,24.6,19.3,26.4,36.5c0.9,8.9,0.8,17.9,2.4,26.6c4.5,25.6,19.6,42.9,43.4,52.7c15.1,6.3,30.7,8.4,46.7,4.9
		c29.9-6.5,51.6-22.7,59.7-53.4c2.2-8.3,2.2-17.1,2.8-25.7c0.8-11.8,3.2-22.9,11.5-32c6.1-6.6,13.9-10,22.4-12.2
		c0.5-0.1,1.6,1,2.1,1.7c0.3,0.5,0.1,1.4,0.1,2.1c0,29.9-0.1,59.8,0.1,89.8c0,3.6-1.1,4.5-4.4,5.3c-28.1,6.4-48.2,22.1-55.9,50.7
		c-2.4,9-2.6,18.7-3.2,28.2s-2.4,18.5-8,26.5c-7,9.9-16.8,15.4-28.4,17.8c-19.3,4-36.7,0.1-50.6-14.6c-8.4-8.9-11.1-20.2-11.1-32
		c0-13-1.8-25.6-7.4-37.4c-8.7-18.5-23.5-30.2-42.6-36.4c-28.1-9.2-54.7-5.9-78.4,12.2c-16.7,12.7-24.5,30.6-26.2,51.3
		c-0.6,7.5-0.4,15.2-1.8,22.5c-3.6,18.5-15.5,29.6-33.4,34.1s-34.4,1.4-48.9-10.2c-8.2-6.6-12.6-15.6-14-25.8
		c-0.9-6.9-1.1-13.9-1.6-20.8c-2.3-31.6-20.9-53.4-48.8-63.1c-3.5-1.3-7.2-2.3-10.9-2.9c-2.7-0.4-3.4-1.5-3.4-4
		c0.1-15.4,0-30.8,0-46.1"/>
</g>
<g id="g3745">
	<path id="path3747" class="st0" d="M900.6,575.4H770.7c2.7-4.6,5.4-8.8,7.7-13.4c4.5-9,6.6-18.6,7.1-28.6
		c0.3-5.3,0.4-10.6,0.9-15.9c1.8-18,10.6-30.5,28.2-36.5c15-5.1,29.8-5.1,44.5,0.7c16,6.3,23.7,18.7,25.5,35.2
		c1,8.7,1,17.5,2.1,26.2c1.4,11,5.8,20.9,12.3,29.8C899.5,573.6,899.9,574.3,900.6,575.4"/>
</g>
<g id="g3749">
	<path id="path3751" class="st0" d="M710.6,97.2c20.1,0,40.2,0,60.4,0c1.2,0.1,2.3,0.3,3.5,0.5c-0.5,1.1-1.1,2.1-1.8,3.2
		c-8.1,10.4-12,22.5-13.2,35.5c-0.8,8.2-0.6,16.5-2.3,24.5c-3.8,18.5-16.4,28.9-34.2,33.2c-17.4,4.2-33.6,1.3-47.6-10.2
		c-10.5-8.6-14.4-20.6-14.8-33.8c-0.5-15-1.9-29.7-9.3-43.2c-1.1-2-2.3-3.8-3.4-5.8c-0.6-1-1-2.2-1.6-3.3c1.3-0.3,2.6-0.5,3.9-0.6
		C670.3,97.2,690.5,97.2,710.6,97.2"/>
</g>
<g id="g3753">
	<path id="path3755" class="st0" d="M898.7,97.2h129.5c-1.3,2.1-2.4,3.8-3.4,5.5c-7.8,12.7-11.1,26.7-11.3,41.5
		c-0.1,8.7-0.9,17.3-4.7,25.3c-6.3,13.2-17.2,20.5-31,23.9c-16.7,4.2-32.3,1.4-46.2-8.6c-12.7-9.1-17.3-22.5-17.5-37.5
		c-0.1-15.2-2.8-29.7-10.7-42.9c-0.7-1.2-1.5-2.3-2.3-3.5S899.6,98.6,898.7,97.2"/>
</g>
<g id="g3757">
	<path id="path3759" class="st0" d="M1076.7,479.2v8c0,28.4,0,56.8,0.1,85.2c0,3-0.5,4-3.8,4c-15.7-0.2-31.3-0.1-47.4-0.1
		c2.4-3.9,4.7-7.5,6.7-11.2c6.3-12,8.7-24.8,8.7-38.3c0-10,1.6-19.7,6.8-28.5C1054.1,487.3,1064.4,482.2,1076.7,479.2"/>
</g>
<g id="g3761">
	<path id="path3763" class="st0" d="M596,479.2c19.6,3.1,33.9,19.2,35.1,39.2c0.5,8.5,0.8,17,2,25.4c1.5,11,5.3,19.1,13.8,32.3
		c-0.5,0.1-1,0.2-1.6,0.3c-15.5,0-31,0-46.5,0.1c-2.3,0-3.2-0.4-3.2-3c0.1-30.9,0.1-61.8,0.1-92.6
		C595.8,480.2,595.9,479.7,596,479.2"/>
</g>
<polyline class="st3" points="23.1,1.3 23.1,-55.3 1145.6,-55.3 1145.6,738.4 23.1,738.4 23.1,669.3 "/>
<line class="st4" x1="2769.1" y1="158.9" x2="2769.1" y2="531.8"/>
<g>
	<path class="st1" d="M2959.4,367l-31.7-78.6h-0.5c0.3,4.8,0.5,9.7,0.5,14.8V367h-5.7v-85.1h9.2l30.1,74.8h0.4l30.1-74.8h9V367h-6
		v-64.5c0-4.5,0.2-9.2,0.7-14h-0.5l-31.9,78.5H2959.4z"/>
	<path class="st1" d="M3065.7,336.9h-34.6l-11.9,30h-6.6l34.2-85.4h3.8l33.5,85.5h-6.7L3065.7,336.9z M3033.3,331.6h30.4l-11.6-30.7
		c-1-2.4-2.1-5.7-3.5-10c-0.9,3.4-2.1,6.8-3.4,10.1L3033.3,331.6z"/>
	<path class="st1" d="M3115.8,328.4l24.9-46.6h6.4l-28.3,52.2V367h-6.1v-32.5l-28.4-52.7h6.8L3115.8,328.4z"/>
	<path class="st1" d="M3237.9,367h-53.2v-5.1l22.6-23.6c4.8-4.8,9.2-9.8,13.4-15.1c2.3-3.1,4.2-6.4,5.6-10c1.2-3.2,1.8-6.6,1.8-10
		c0.2-4.7-1.6-9.2-5-12.4c-3.3-3.2-7.7-4.8-13-4.8c-7.1,0-13.9,2.6-20.4,7.7l-3.1-4c7.1-6,15-9,23.6-9c7.4,0,13.2,2,17.5,5.9
		s6.4,9.4,6.4,16.4c0,5.7-1.5,11.3-4.3,16.3c-2.9,5.3-8.1,11.8-15.6,19.5l-21.8,22.4v0.2h45.5L3237.9,367z"/>
	<path class="st1" d="M3307.5,324.2c0,14.9-2.3,26-6.8,33.2s-11.5,10.8-20.7,10.8c-8.9,0-15.6-3.7-20.3-11.1s-6.9-18.3-6.9-32.9
		c0-14.8,2.2-25.8,6.7-32.9s11.3-10.7,20.4-10.7c9,0,15.8,3.7,20.5,11.1C3305.2,299,3307.5,309.9,3307.5,324.2z M3259.1,324.2
		c0,13.2,1.7,22.9,5.2,29.2c3.5,6.3,8.7,9.5,15.7,9.5c7.3,0,12.7-3.3,16-9.8c3.3-6.5,5-16.2,5-28.9c0-12.6-1.7-22.1-5-28.6
		c-3.3-6.5-8.7-9.8-16-9.8c-7.3,0-12.6,3.3-15.9,9.8C3260.8,302.1,3259.1,311.6,3259.1,324.2z"/>
	<path class="st1" d="M3353.8,367h-5.7v-62c0-5.6,0.2-11.5,0.7-17.5c-0.6,0.6-1.2,1.1-1.8,1.7s-6.6,5.3-18,14.1l-3.3-4.1l23.1-17.3
		h5L3353.8,367z"/>
	<path class="st1" d="M3416.1,280.4c7.2,0,13,1.8,17.4,5.5s6.6,8.7,6.6,15c0,4.2-1.4,8.3-4.1,11.5c-2.7,3.3-7.2,6.4-13.3,9.3
		c7.5,3.1,12.7,6.4,15.7,10.1c3.1,3.7,4.7,8.4,4.5,13.3c0,7-2.5,12.6-7.4,16.8s-11.5,6.3-19.8,6.3c-8.6,0-15.1-2-19.7-5.9
		s-6.9-9.6-6.9-17.1c-0.1-4.9,1.7-9.7,4.8-13.4c3.2-3.8,8.2-7.1,15-9.8c-6.2-3-10.7-6.1-13.2-9.3c-2.6-3.4-4-7.5-3.8-11.8
		c-0.1-3.8,1-7.6,3.1-10.7c2.1-3.2,5.1-5.6,8.6-7.1C3407.6,281.2,3411.8,280.4,3416.1,280.4z M3395.2,346c0,5.4,1.8,9.5,5.4,12.5
		s8.7,4.4,15.2,4.4s11.5-1.6,15.4-4.7c3.9-3.1,6-7.8,5.8-12.7c0.2-4.4-1.5-8.6-4.6-11.7c-3-3-8.9-6.1-17.6-9.5
		c-7.1,2.8-12.2,5.8-15.2,9.1C3396.6,336.9,3395,341.4,3395.2,346z M3415.9,285.7c-5.5,0-9.9,1.3-13.2,4c-3.3,2.7-5.2,6.8-5,11.1
		c-0.1,2.5,0.6,5,1.8,7.2c1.4,2.2,3.2,4.1,5.3,5.6c3.6,2.4,7.5,4.4,11.6,5.9c6.3-2.4,10.9-5.1,13.6-8.1c2.7-2.9,4.2-6.7,4.1-10.6
		c0.2-4.3-1.6-8.3-4.9-11.1C3426.1,287,3421.6,285.7,3415.9,285.7z"/>
</g>
<path class="st1" d="M2984.7,489.8l-6.2-20.3h-31l-6.2,20.3H2922l30-85.4h22l30.1,85.4H2984.7z M2974.3,454.4
	c-5.7-18.3-8.9-28.7-9.6-31.1s-1.2-4.3-1.6-5.7c-1.3,5-4.9,17.2-11,36.8H2974.3z"/>
<path class="st1" d="M3014.9,489.8v-85.1h18v70.2h34.5v14.9H3014.9z"/>
<path class="st1" d="M3082.2,489.8v-85.1h18v85.1L3082.2,489.8z"/>
<path class="st1" d="M3157.8,418.5c-6.8,0-12,2.5-15.8,7.6c-3.7,5.1-5.6,12.2-5.6,21.3c0,19,7.1,28.5,21.4,28.5
	c6,0,13.2-1.5,21.7-4.5v15.1c-7.4,3-15.4,4.5-23.4,4.4c-12.4,0-21.8-3.8-28.4-11.3c-6.6-7.5-9.8-18.3-9.8-32.3
	c0-8.9,1.6-16.6,4.8-23.3c3-6.4,7.8-11.7,13.9-15.3c6-3.6,13.1-5.3,21.2-5.3c8.7,0.1,17.2,2.1,24.9,6l-5.8,14.7
	c-3.1-1.5-6.3-2.8-9.6-4C3164.2,419.1,3161,418.6,3157.8,418.5z"/>
<path class="st1" d="M3249.7,489.8l-6.2-20.3h-31l-6.2,20.3h-19.4l30-85.4h22l30.1,85.4H3249.7z M3239.2,454.4
	c-5.7-18.3-8.9-28.7-9.6-31.1c-0.7-2.4-1.2-4.3-1.5-5.7c-1.3,5-4.9,17.2-11,36.8H3239.2z"/>
<path class="st1" d="M3355.3,489.8h-22.9l-37-64.4h-0.5c0.7,11.4,1.1,19.5,1.1,24.3v40h-16.1v-85h22.8l36.9,63.7h0.4
	c-0.6-11.1-0.9-18.9-0.9-23.5v-40.3h16.2L3355.3,489.8z"/>
<path class="st1" d="M3409.5,489.8h-18v-70.1h-23.1v-15h64.2v15h-23.1L3409.5,489.8z"/>
<path class="st1" d="M3494.7,489.8h-49v-85.1h49v14.8h-31v18.7h28.8V453h-28.8v21.9h31V489.8z"/>
<g class="st5">
	<path class="st1" d="M2972.9,249.9h-53c0.6-23.9,25.1-29.8,38.7-43.4c4.4-4.5,6.7-8.7,6.7-15.2c0-10.5-8.3-16.4-18-16.4
		c-13.2,0-18.4,10.6-18.2,22.4h-7.2c-0.3-16.5,8.3-28.5,25.7-28.5c14,0,24.9,7.7,24.9,22.6c0,13.4-9.8,21.8-20.2,28.6
		c-7.8,5.3-22.2,12.4-24.1,23.2h44.7V249.9z"/>
	<path class="st1" d="M3030.5,189.8c-1.3-8.8-7.5-14.9-16.8-14.9c-18.7,0-22.2,21.4-22.2,36h0.2c3.8-7.9,12.3-13.3,21.4-13.3
		c16.1,0,26.5,11.1,26.5,26.9c0,15.6-11.4,27.2-27.2,27.2c-19.5,0-28.2-11.4-28.2-42.7c0-9.5,2.4-40.1,28.7-40.1
		c14.1,0,23,7,24.7,21H3030.5z M2993.1,224.8c0,11.4,6.1,20.7,20.1,20.7c11.5,0,19.3-9.5,19.3-20.7c0-11.7-7.1-21.3-19.4-21.3
		C3000.4,203.6,2993.1,213,2993.1,224.8z"/>
	<path class="st1" d="M3050.5,221.6v-6.7h28.7v6.7H3050.5z"/>
	<path class="st1" d="M3143.2,249.9h-53c0.6-23.9,25.1-29.8,38.7-43.4c4.4-4.5,6.7-8.7,6.7-15.2c0-10.5-8.3-16.4-18-16.4
		c-13.2,0-18.4,10.6-18.2,22.4h-7.2c-0.3-16.5,8.3-28.5,25.7-28.5c14,0,24.9,7.7,24.9,22.6c0,13.4-9.8,21.8-20.2,28.6
		c-7.8,5.3-22.2,12.4-24.1,23.2h44.7V249.9z"/>
	<path class="st1" d="M3155.9,170.5h51.7v6.7c-10,10.5-30.7,35.3-32.5,72.7h-7.8c2-27.2,10.8-47.3,33.1-72.7h-44.5V170.5z"/>
</g>
</svg>
