<svg id="svg3699" xmlns="http://www.w3.org/2000/svg" viewBox="0 0 3656.65 661.71"><defs><style>.cls-1{fill:#fff;}.cls-2{isolation:isolate;}.cls-3,.cls-6,.cls-7{fill:#283f82;}.cls-4{fill:#f7f8f8;}.cls-5{fill:none;}.cls-6{stroke:#283f82;stroke-miterlimit:10;stroke-width:6px;}.cls-7{font-size:114.91px;font-family:HelveticaNeueLTStd-Lt, Helvetica Neue LT Std;}</style></defs><title>Mesa de trabajo 1</title><rect class="cls-1" y="1.28" width="3656.65" height="660.43"/><g class="cls-2"><path class="cls-3" d="M1337.14,239q0,39.15-22.29,60t-64.37,20.82h-44.9V161.23h49.78q38.84,0,60.31,20.5T1337.14,239Zm-34.92.87q0-51.09-45.12-51.09h-17.9V292h14.43Q1302.21,292,1302.22,239.87Z"/><path class="cls-3" d="M1403.63,259V319.8H1370V161.23h46.2q32.32,0,47.83,11.77t15.51,35.74a42,42,0,0,1-7.7,24.89q-7.69,10.91-21.8,17.08,35.79,53.47,46.64,69.09h-37.31L1421.53,259Zm0-27.33h10.85q15.94,0,23.53-5.31t7.6-16.71q0-11.28-7.76-16t-24-4.77h-10.2Z"/><path class="cls-3" d="M1645.72,161.23V263.84q0,17.57-7.86,30.8a51.22,51.22,0,0,1-22.73,20.28Q1600.27,322,1580,322q-30.59,0-47.51-15.67t-16.92-42.9V161.23h33.52V258.3q0,18.33,7.37,26.9t24.41,8.57q16.48,0,23.91-8.62t7.43-27.06V161.23Z"/><path class="cls-3" d="M1794.1,210.69q0,25.59-16,39.15t-45.5,13.56h-14.43v56.4h-33.62V161.23h50.65q28.85,0,43.87,12.42T1794.1,210.69Zm-75.93,25.16h11.06q15.51,0,23.22-6.13t7.7-17.84q0-11.82-6.46-17.46t-20.23-5.64h-15.29Z"/><path class="cls-3" d="M1921.11,319.8l-11.5-37.74H1851.8l-11.5,37.74h-36.23l56-159.22h41.11l56.18,159.22Zm-19.53-65.94q-15.94-51.31-17.95-58t-2.87-10.63q-3.59,13.89-20.5,68.66Z"/><path class="cls-3" d="M1977.29,319.8V161.23h33.62V292h64.32V319.8Z"/></g><g class="cls-2"><path class="cls-3" d="M2173,168.93q-29.84,0-47,19.09t-17.13,52.28q0,33.94,16.16,52.71t46.2,18.77a125,125,0,0,0,36.66-5.1v9.76q-15.72,5.54-39.26,5.53-33.4,0-52.61-21.58t-19.19-60.31q0-24.18,9.16-42.62A66.33,66.33,0,0,1,2132.34,169q17.19-10,40-10,23.21,0,41.54,8.68l-4.45,10A80.4,80.4,0,0,0,2173,168.93Z"/><path class="cls-3" d="M2319.6,263.84h-64.43l-22.12,56h-12.26l63.78-159.22h7l62.47,159.22h-12.47Zm-60.41-10h56.72l-21.58-57.16q-2.72-6.73-6.51-18.66a174.32,174.32,0,0,1-6.4,18.87Z"/><path class="cls-3" d="M2446.28,319.8l-59.11-146.42h-.87q.87,13.44.87,27.55V319.8h-10.63V161.23h17.14l56.18,139.48h.65l56.19-139.48h16.7V319.8h-11.17V199.62q0-12.57,1.3-26h-.87L2453.33,319.8Z"/><path class="cls-3" d="M2663.64,206.78q0,23-15.62,35.25t-44.25,12.26h-24.51V319.8H2568.2V161.23H2607Q2663.64,161.23,2663.64,206.78Zm-84.38,38h21.8q26.79,0,38.72-8.84t11.93-28.69q0-18.33-11.28-27.17t-34.92-8.84h-26.25Z"/></g><path class="cls-3" d="M1308.94,485.62q0,21.48-15.45,33.85t-43,12.36q-25.38,0-44.9-9.54V491.05a185.85,185.85,0,0,0,27.17,10.09,80.44,80.44,0,0,0,20.33,2.92q11.07,0,17-4.23t5.91-12.58a14,14,0,0,0-2.6-8.3,29.26,29.26,0,0,0-7.65-7q-5-3.36-20.55-10.74-14.54-6.83-21.8-13.12a49.33,49.33,0,0,1-11.61-14.64,41.84,41.84,0,0,1-4.34-19.53q0-21,14.27-33.08t39.42-12a93.2,93.2,0,0,1,23.59,2.93,161.91,161.91,0,0,1,23.48,8.24l-10.84,26.14a158.14,158.14,0,0,0-21-7.26,67.24,67.24,0,0,0-16.32-2.07q-9.55,0-14.65,4.45a14.66,14.66,0,0,0-5.09,11.61,14.29,14.29,0,0,0,2.06,7.75,22.54,22.54,0,0,0,6.56,6.4q4.5,3.09,21.31,11.12,22.23,10.63,30.48,21.31T1308.94,485.62Z"/><path class="cls-3" d="M1447.23,420.55q0,25.59-16,39.15t-45.51,13.56h-14.42v56.4h-33.63V371.09h50.66q28.85,0,43.87,12.42T1447.23,420.55Zm-75.92,25.16h11.06q15.51,0,23.21-6.13t7.7-17.84q0-11.82-6.45-17.46t-20.23-5.64h-15.29Z"/><path class="cls-3" d="M1574.24,529.66l-11.49-37.74h-57.81l-11.5,37.74h-36.23l56-159.22h41.11l56.18,159.22Zm-19.52-65.94q-15.95-51.32-18-58t-2.87-10.63q-3.59,13.89-20.5,68.66Z"/><path class="cls-3" d="M1630.43,529.66V371.09h33.62V529.66Z"/><path class="cls-3" d="M1844.64,529.66h-42.73l-69-120h-1Q1734,441.49,1734,455v74.62h-30V371.09h42.41l68.88,118.76h.76q-1.63-30.9-1.63-43.7V371.09h30.26Z"/><g id="g3717"><path id="path3719" class="cls-4" d="M1103.51,68.6c.56.28,1.5.46,1.6.86a11.27,11.27,0,0,1,.08,2.91q0,264.3.08,528.58c0,3.15-.71,3.86-3.85,3.85q-518.1-.12-1036.18-.11a18.21,18.21,0,0,1-3.78-.8l.89-.14c1.53,0,3.07.12,4.61.12q515.76,0,1031.53.1c4.09,0,5.26-.78,5.26-5.12q-.2-262.39-.12-524.79c0-1.53-.11-3.07-.17-4.6,0-.29,0-.57,0-.86"/></g><g id="g3725"><path id="path3727" class="cls-3" d="M596.05,479.22a8.84,8.84,0,0,0-.28,1.59c0,30.88,0,61.76-.07,92.63,0,2.52.91,3,3.16,3,15.51-.08,31,0,46.53-.06a10.19,10.19,0,0,0,1.57-.26c-8.56-13.14-12.36-21.24-13.83-32.25-1.13-8.42-1.46-17-2-25.43-1.19-20-15.47-36-35.11-39.18m480.61,0c-12.21,3-22.53,8.13-29,19.08-5.21,8.78-6.84,18.49-6.8,28.49.05,13.45-2.36,26.29-8.65,38.25-2,3.74-4.33,7.27-6.7,11.2,16.13,0,31.78-.11,47.43.09,3.31,0,3.82-1,3.81-4-.11-28.39-.07-56.78-.07-85.16Zm-178-382.06c1,1.49,1.69,2.61,2.42,3.73s1.54,2.32,2.26,3.52c7.91,13.2,10.58,27.64,10.72,42.87.13,15,4.73,28.45,17.46,37.53,13.93,9.92,29.52,12.72,46.18,8.56,13.78-3.45,24.7-10.71,31-23.93,3.82-8,4.56-16.63,4.7-25.33.25-14.79,3.52-28.75,11.34-41.46,1.06-1.73,2.15-3.43,3.44-5.49Zm-188.06,0q-30.2,0-60.37,0a24.42,24.42,0,0,0-3.86.62c.52,1.1,1,2.22,1.57,3.27,1.09,1.94,2.31,3.81,3.38,5.75,7.4,13.48,8.84,28.19,9.29,43.22.39,13.11,4.27,25.12,14.81,33.74,14,11.48,30.19,14.46,47.62,10.23,17.8-4.33,30.35-14.67,34.19-33.17,1.66-8,1.54-16.33,2.3-24.51,1.21-13,5.07-25,13.18-35.47a22.94,22.94,0,0,0,1.76-3.15,22.3,22.3,0,0,0-3.5-.54q-30.18,0-60.37,0m190,478.22c-.69-1.13-1.06-1.85-1.53-2.5-6.52-8.94-10.92-18.84-12.28-29.83-1.08-8.69-1.17-17.51-2.13-26.23-1.82-16.46-9.52-28.91-25.46-35.17-14.72-5.79-29.48-5.8-44.51-.7-17.68,6-26.47,18.52-28.22,36.57-.51,5.28-.59,10.6-.87,15.9-.54,10-2.59,19.64-7.14,28.6-2.3,4.52-5.06,8.79-7.71,13.36Zm-303.7-174c0,15.38.06,30.76,0,46.14,0,2.59.69,3.6,3.37,4a64.83,64.83,0,0,1,10.88,2.94c27.84,9.7,46.5,31.45,48.76,63.06.5,7,.7,14,1.63,20.86,1.39,10.28,5.75,19.28,14,25.85,14.51,11.58,31.08,14.76,48.87,10.2s29.75-15.68,33.36-34.13c1.43-7.35,1.21-15,1.83-22.51,1.69-20.67,9.46-38.52,26.16-51.25,23.76-18.12,50.3-21.42,78.43-12.21,19.1,6.25,33.89,17.93,42.57,36.44,5.56,11.83,7.36,24.42,7.37,37.44,0,11.84,2.73,23.14,11.12,32,13.9,14.68,31.25,18.62,50.6,14.58,11.55-2.42,21.43-7.88,28.39-17.78,5.57-7.92,7.31-17,8-26.45s.82-19.13,3.24-28.16c7.67-28.62,27.8-44.33,55.91-50.73,3.34-.76,4.44-1.7,4.42-5.26-.17-29.92-.1-59.84-.1-89.76,0-.7.26-1.58-.07-2.06-.5-.75-1.57-1.87-2.11-1.73-8.48,2.19-16.33,5.62-22.4,12.21-8.33,9-10.73,20.14-11.49,32-.55,8.62-.59,17.49-2.76,25.74-8.09,30.68-29.83,46.9-59.7,53.39-16,3.48-31.61,1.31-46.67-4.94-23.79-9.87-38.85-27.14-43.36-52.71-1.55-8.75-1.49-17.76-2.4-26.63-1.78-17.2-10-29.87-26.4-36.53a57.36,57.36,0,0,0-44-.21c-14.71,5.81-24,16.46-26.34,32.39-.92,6.33-1.07,12.77-1.46,19.17-.66,10.54-2.58,20.82-7.41,30.27-14.09,27.59-38.38,38.75-67.77,40.76-9.6.65-19.14-1.53-28.3-4.71-20.43-7.08-36-19.63-44.59-39.95-5.24-12.36-5.93-25.41-6.42-38.57-.78-20.88-11.34-34.85-30.65-41.25-3.3-1.09-4.56-.84-4.5,3.2.23,15,.09,29.92.09,44.88m0-126.85q0,23.07,0,46.14c0,1.78-.36,3.36,2.42,3.9,32.39,6.29,58.34,29.27,60.6,67.32.39,6.54.65,13.12,1.55,19.6,1.42,10.26,5.67,19.3,13.84,25.94,13.55,11,29,14.06,46,10.71,23-4.52,37.09-21.64,37.62-45.1a131.9,131.9,0,0,1,2.95-25.29c4.47-20.33,16.37-35.49,34.7-45.22,20.69-11,42.57-12.73,64.88-6s38.38,21,46.56,43.32c4.06,11.07,4.27,22.67,4.93,34.24,1,16.72,7.81,30.07,23.13,38.09,14.6,7.64,29.79,8.66,45.38,3.36,12.67-4.32,22.48-12.23,26.78-25.05,2.43-7.26,3.18-15.24,3.67-22.95.73-11.39,2.12-22.57,7-33,10.42-22.35,28.29-35.34,52.19-40.2,3.62-.74,4.64-2,4.61-5.67-.18-22.51-.09-45-.09-67.53,0-7.83,0-15.66,0-23.49,0-1.48.43-3.15-2.33-2.41-15.12,4.08-26.93,12.24-30.83,28-2.28,9.24-2.52,19-3.37,28.57-2,22.51-11.15,41.22-30.22,53.78-26.41,17.38-54.52,19.55-83.19,6-21.46-10.15-34.72-27.22-38.65-50.81-1.47-8.76-1.4-17.77-2.39-26.62-1.75-15.72-8.57-28.22-23.72-34.74-13.78-5.94-27.87-7.1-42.45-2.56-17.62,5.49-28.2,17-30.93,35.19-1.3,8.67-.91,17.57-2.06,26.27-2.46,18.44-10.36,34.2-25.54,45.38-21.56,15.87-45.56,21.16-71.63,14.09-23.65-6.42-41.49-20-50.71-43.44-4.63-11.78-5.18-24.19-5.64-36.64-.76-20.84-11.57-35.12-30.66-41.22-3.27-1.05-4.55-1-4.49,3.11.23,15,.09,29.91.09,44.87M1076.67,98.3c-20.15,3.42-33.05,17.37-35.24,38.14-1,9.29-1,18.72-2.53,27.9-2.93,17.47-11.46,32.06-25.92,42.42-24.92,17.86-52,21.77-80.73,10.36-23.56-9.36-38.77-26.34-43.58-51.48-2-10.22-1.91-20.8-3.25-31.16-1.45-11.2-6.17-20.88-15.7-27.47-14.49-10-30.5-12.37-47.45-8.26-19.45,4.72-31.92,16.72-34.28,37.66-1.08,9.55-1,19.29-2.67,28.71-7.39,40.37-42.7,57.67-75,58.29-9,.17-18.39-2-27-4.83-25-8.32-42-25-47.83-51.17-2.33-10.53-2.2-21.59-3.48-32.38-2.24-18.84-13.86-32.62-35.17-36.61v4.21c0,29.78.08,59.57-.09,89.35,0,3.72,1.16,4.89,4.66,5.63,32.45,6.85,56.11,30.73,58.4,66.07.44,6.82.66,13.69,1.61,20.44C663,294.68,667.35,304,676,310.6c16.4,12.54,34.56,14.5,53.73,7.63,14.72-5.28,24.5-15.48,27.5-31,1.55-8,1.59-16.33,2.33-24.51,2.1-22.84,11.79-41.66,31.28-54.06,23.4-14.88,48.72-17.35,75-8.16,19.52,6.85,33.86,19.58,42,38.75,4.78,11.2,6,23,6.26,35.16.28,15.15,5,28.62,18,37.69a53.88,53.88,0,0,0,43.78,8.61c15.86-3.49,28.59-11.67,33.92-27.77a74.56,74.56,0,0,0,3.42-22.19c.5-38.73,23.83-66.68,60.72-73.51,3.24-.6,2.71-2.52,2.71-4.54q0-45.51,0-91ZM322,538.6c23-.16,38.72-2.5,54.29-6.68,69.64-18.7,125.37-81.69,126.16-162.9.2-20.19-3.73-39.87-10.79-58.86-9.8-26.35-26.36-47.92-46.24-67.46-35.39-34.78-70.36-70-105.48-105-7.28-7.27-14.44-7.31-21.76.05Q308.07,147.83,298,157.88c-31.63,31.62-63.62,62.89-94.8,95-34.4,35.38-49.88,78.18-46.89,127.51,1.54,25.32,8.33,49.24,21.35,71,34.16,57,85.51,84.67,144.33,87.29M62.35,603.75q0-22.44-.05-44.89,0-242-.07-484.06c0-4,.59-5.48,5.14-5.48q516.79.2,1033.57.12l2.52,0c.06,1.53.17,3.07.17,4.6q0,262.4.12,524.79c0,4.34-1.17,5.12-5.26,5.12q-515.76-.15-1031.54-.1c-1.53,0-3.07-.08-4.6-.12"/></g><g id="g3729"><path id="path3731" class="cls-1" d="M322,538.6c-58.83-2.62-110.17-30.28-144.33-87.29-13-21.73-19.81-45.65-21.35-71-3-49.34,12.49-92.13,46.89-127.51,31.18-32.06,63.17-63.33,94.8-95Q308,147.8,318.13,137.72c7.32-7.36,14.48-7.32,21.76-.05C375,172.72,410,207.92,445.37,242.7c19.88,19.54,36.44,41.11,46.24,67.46,7.06,19,11,38.67,10.79,58.86-.8,81.21-56.52,144.2-126.16,162.9-15.57,4.18-31.3,6.52-54.29,6.68"/></g><g id="g3733"><path id="path3735" class="cls-1" d="M1076.66,98.3v3.36q0,45.53,0,91c0,2,.53,3.94-2.71,4.54-36.89,6.83-60.22,34.78-60.72,73.51a74.56,74.56,0,0,1-3.42,22.19c-5.33,16.1-18.06,24.29-33.92,27.77a53.87,53.87,0,0,1-43.78-8.61c-13.06-9.07-17.76-22.54-18-37.69-.22-12.12-1.48-24-6.26-35.16-8.18-19.17-22.52-31.9-42-38.75-26.23-9.19-51.55-6.72-75,8.16-19.49,12.4-29.19,31.22-31.28,54.06-.75,8.18-.78,16.49-2.33,24.51-3,15.53-12.78,25.73-27.5,31-19.17,6.87-37.33,4.91-53.73-7.63-8.61-6.6-13-15.92-14.51-26.48-1-6.75-1.17-13.62-1.62-20.44-2.28-35.34-25.94-59.22-58.39-66.07-3.5-.74-4.69-1.91-4.67-5.63.18-29.78.1-59.57.1-89.35V98.42c21.31,4,32.93,17.77,35.17,36.61,1.28,10.79,1.15,21.85,3.48,32.38,5.79,26.2,22.85,42.85,47.83,51.17,8.62,2.87,18,5,27,4.83,32.25-.62,67.56-17.92,75-58.29C787,155.7,786.91,146,788,136.41c2.36-20.94,14.83-32.94,34.28-37.66,17-4.11,33-1.76,47.45,8.26,9.53,6.59,14.25,16.27,15.7,27.47,1.34,10.36,1.29,20.94,3.25,31.16,4.81,25.14,20,42.12,43.58,51.48,28.72,11.41,55.81,7.5,80.73-10.36,14.46-10.36,23-24.95,25.92-42.42,1.54-9.18,1.54-18.61,2.52-27.89,2.2-20.78,15.1-34.73,35.24-38.15"/></g><g id="g3737"><path id="path3739" class="cls-1" d="M596.87,274.51c0-15,.14-29.92-.09-44.87-.06-4.08,1.22-4.15,4.49-3.11,19.09,6.1,29.9,20.38,30.66,41.22.46,12.46,1,24.86,5.64,36.64,9.22,23.44,27,37,50.71,43.44,26.07,7.08,50.07,1.78,71.62-14.09,15.19-11.18,23.09-26.95,25.55-45.38,1.15-8.69.76-17.6,2.06-26.27,2.73-18.16,13.31-29.7,30.93-35.19,14.58-4.54,28.67-3.38,42.45,2.56,15.15,6.52,22,19,23.72,34.74,1,8.85.92,17.86,2.39,26.63,3.93,23.58,17.19,40.65,38.65,50.8,28.67,13.58,56.78,11.41,83.19-6,19.07-12.56,28.22-31.27,30.22-53.78.85-9.56,1.09-19.33,3.37-28.57,3.9-15.79,15.71-23.95,30.83-28,2.76-.74,2.33.93,2.33,2.41,0,7.83,0,15.66,0,23.49,0,22.51-.09,45,.09,67.53,0,3.63-1,4.93-4.61,5.67-23.9,4.87-41.77,17.85-52.19,40.2-4.85,10.39-6.24,21.57-7,33-.49,7.71-1.24,15.69-3.67,22.95-4.3,12.82-14.11,20.73-26.78,25.05-15.59,5.31-30.78,4.28-45.38-3.36-15.32-8-22.17-21.37-23.13-38.09-.66-11.57-.87-23.17-4.93-34.24-8.18-22.34-24.13-36.52-46.56-43.32s-44.19-5-64.88,6c-18.33,9.73-30.23,24.89-34.7,45.22A131.9,131.9,0,0,0,758.94,403c-.53,23.46-14.6,40.58-37.62,45.11-17,3.34-32.48.27-46-10.72-8.17-6.64-12.42-15.68-13.84-25.94-.9-6.48-1.16-13.06-1.55-19.6-2.26-38.05-28.21-61-60.6-67.32-2.78-.54-2.42-2.12-2.42-3.9q0-23.07,0-46.14"/></g><g id="g3741"><path id="path3743" class="cls-1" d="M596.87,401.36c0-15,.14-29.92-.09-44.88-.06-4,1.2-4.29,4.5-3.2,19.31,6.4,29.87,20.37,30.65,41.25.49,13.16,1.18,26.21,6.42,38.57,8.62,20.33,24.16,32.87,44.59,39.95,9.16,3.18,18.7,5.36,28.3,4.71,29.39-2,53.68-13.17,67.77-40.76,4.83-9.45,6.75-19.73,7.41-30.27.39-6.4.54-12.84,1.46-19.17,2.32-15.93,11.63-26.58,26.34-32.39a57.36,57.36,0,0,1,44,.21c16.36,6.66,24.62,19.33,26.4,36.53.91,8.87.85,17.88,2.4,26.62,4.51,25.58,19.57,42.85,43.36,52.72,15.06,6.25,30.7,8.42,46.67,4.94,29.87-6.49,51.61-22.71,59.7-53.39,2.17-8.25,2.21-17.12,2.76-25.74.76-11.82,3.16-22.92,11.49-32,6.07-6.59,13.92-10,22.4-12.21.54-.14,1.61,1,2.11,1.73.33.48.07,1.36.07,2.06,0,29.92-.07,59.84.1,89.76,0,3.56-1.08,4.5-4.42,5.26-28.11,6.4-48.24,22.11-55.91,50.73-2.42,9-2.58,18.73-3.24,28.16s-2.41,18.53-8,26.45c-7,9.9-16.84,15.36-28.39,17.78-19.35,4-36.7.11-50.6-14.58-8.39-8.87-11.1-20.17-11.12-32,0-13-1.81-25.61-7.37-37.44-8.68-18.51-23.47-30.18-42.57-36.44-28.13-9.21-54.67-5.91-78.43,12.2-16.7,12.74-24.47,30.59-26.16,51.26-.62,7.51-.4,15.16-1.83,22.51-3.61,18.45-15.52,29.56-33.36,34.13s-34.36,1.38-48.87-10.2c-8.24-6.57-12.6-15.57-14-25.85-.93-6.9-1.13-13.9-1.63-20.85-2.26-31.62-20.92-53.37-48.76-63.07a66.79,66.79,0,0,0-10.88-2.94c-2.68-.43-3.39-1.45-3.37-4,.11-15.38,0-30.76,0-46.14"/></g><g id="g3745"><path id="path3747" class="cls-1" d="M900.57,575.41H770.72c2.66-4.57,5.41-8.84,7.71-13.36,4.55-9,6.6-18.61,7.14-28.6.28-5.3.36-10.62.87-15.9C788.19,499.5,797,487,814.66,481c15-5.1,29.79-5.09,44.5.7,16,6.26,23.66,18.71,25.47,35.17,1,8.72,1,17.54,2.13,26.23,1.36,11,5.76,20.89,12.28,29.84.47.64.84,1.36,1.53,2.49"/></g><g id="g3749"><path id="path3751" class="cls-1" d="M710.59,97.19q30.18,0,60.37,0a22.3,22.3,0,0,1,3.5.54,22.94,22.94,0,0,1-1.76,3.15c-8.11,10.45-12,22.47-13.18,35.47-.76,8.18-.64,16.52-2.3,24.5-3.84,18.52-16.39,28.85-34.19,33.18-17.43,4.24-33.59,1.25-47.62-10.22-10.54-8.63-14.42-20.64-14.81-33.76-.45-15-1.89-29.73-9.29-43.21-1.07-2-2.3-3.81-3.38-5.75-.6-1-1-2.17-1.57-3.26a24.48,24.48,0,0,1,3.86-.64q30.18-.06,60.37,0"/></g><g id="g3753"><path id="path3755" class="cls-1" d="M898.65,97.15h129.51c-1.29,2.06-2.38,3.76-3.44,5.49-7.82,12.71-11.09,26.67-11.34,41.46-.14,8.7-.88,17.3-4.7,25.33-6.29,13.22-17.21,20.48-31,23.93-16.66,4.16-32.25,1.36-46.18-8.56-12.73-9.08-17.33-22.52-17.46-37.53-.14-15.23-2.81-29.67-10.72-42.87-.72-1.2-1.51-2.35-2.26-3.52s-1.46-2.24-2.42-3.73"/></g><g id="g3757"><path id="path3759" class="cls-1" d="M1076.66,479.21v8c0,28.38,0,56.77.07,85.16,0,3-.5,4-3.81,4-15.65-.2-31.3-.09-47.43-.09,2.37-3.93,4.73-7.46,6.7-11.2,6.29-12,8.7-24.8,8.65-38.25,0-10,1.59-19.71,6.8-28.49,6.49-11,16.81-16.09,29-19.08"/></g><g id="g3761"><path id="path3763" class="cls-1" d="M596.05,479.22c19.64,3.14,33.92,19.18,35.11,39.18.51,8.48.84,17,2,25.43,1.47,11,5.27,19.11,13.83,32.25a10.19,10.19,0,0,1-1.57.26c-15.51,0-31,0-46.53.06-2.25,0-3.17-.44-3.16-3,.09-30.87.06-61.75.07-92.63a8.84,8.84,0,0,1,.28-1.59"/></g><polyline class="cls-5" points="23.06 1.28 23.06 -55.3 1145.58 -55.3 1145.58 738.4 23.06 738.4 23.06 669.28"/><line class="cls-6" x1="2769.06" y1="158.95" x2="2769.06" y2="531.83"/><g class="cls-2"><path class="cls-3" d="M2959.36,367l-31.72-78.56h-.46q.46,7.22.46,14.78V367h-5.7V281.87h9.2l30.14,74.84h.35l30.14-74.84h9V367h-6V302.47q0-6.75.7-14H2995L2963.14,367Z"/><path class="cls-3" d="M3065.73,336.92h-34.56l-11.87,30h-6.58l34.22-85.43h3.78L3084.24,367h-6.69Zm-32.41-5.35h30.43l-11.58-30.67q-1.46-3.6-3.49-10a92,92,0,0,1-3.43,10.13Z"/><path class="cls-3" d="M3115.84,328.43l24.9-46.56h6.4l-28.34,52.2V367h-6.11V334.54l-28.45-52.67h6.81Z"/><path class="cls-3" d="M3237.92,367h-53.24v-5.12l22.63-23.63a165,165,0,0,0,13.39-15.13,42.45,42.45,0,0,0,5.64-10,28.08,28.08,0,0,0,1.81-10,16.34,16.34,0,0,0-5-12.4q-5-4.77-13-4.77-10.63,0-20.36,7.74l-3.14-4q10.64-9,23.62-9,11.11,0,17.49,5.94t6.37,16.35a33.84,33.84,0,0,1-4.28,16.32q-4.28,7.89-15.62,19.47l-21.82,22.4v.23h45.5Z"/><path class="cls-3" d="M3307.52,324.18q0,22.41-6.84,33.17T3280,368.11q-13.32,0-20.25-11.08t-6.92-32.85q0-22.23,6.72-32.94T3280,280.53q13.46,0,20.49,11.09T3307.52,324.18Zm-48.42,0q0,19.79,5.18,29.24t15.71,9.46q11,0,16-9.78t5-28.92q0-18.85-5-28.63t-16-9.78q-11,0-15.94,9.78T3259.1,324.18Z"/><path class="cls-3" d="M3353.84,367h-5.7V305q0-8.44.7-17.52c-.59.58-1.19,1.14-1.81,1.69s-6.61,5.25-18,14.14l-3.32-4.13,23.11-17.29h5Z"/><path class="cls-3" d="M3416.05,280.42q10.82,0,17.42,5.53t6.61,14.95a17.65,17.65,0,0,1-4.1,11.52q-4.11,5-13.3,9.26,11.18,4.59,15.71,10.06a20.08,20.08,0,0,1,4.54,13.27q0,10.53-7.36,16.82t-19.76,6.28q-12.86,0-19.72-5.87t-6.87-17.11a20.23,20.23,0,0,1,4.83-13.39q4.83-5.76,15-9.83-9.37-4.43-13.21-9.34a18.52,18.52,0,0,1-3.84-11.78,18.86,18.86,0,0,1,3.08-10.74,19.89,19.89,0,0,1,8.64-7.13A29.75,29.75,0,0,1,3416.05,280.42ZM3395.16,346c0,5.35,1.81,9.51,5.44,12.45s8.7,4.43,15.21,4.43,11.49-1.57,15.37-4.69a15.47,15.47,0,0,0,5.82-12.71,15.79,15.79,0,0,0-4.57-11.73q-4.57-4.5-17.61-9.45-10.7,4.13-15.18,9.13A18.14,18.14,0,0,0,3395.16,346Zm20.77-60.34q-8.2,0-13.18,4a13.51,13.51,0,0,0-5,11.09,13.8,13.8,0,0,0,1.84,7.18,19,19,0,0,0,5.29,5.65,60.71,60.71,0,0,0,11.61,5.9q9.48-3.66,13.62-8.09a15,15,0,0,0,4.13-10.64,13.59,13.59,0,0,0-4.92-11.06Q3424.42,285.65,3415.93,285.66Z"/></g><path class="cls-3" d="M2984.73,489.83l-6.17-20.25h-31l-6.17,20.25h-19.44l30-85.43H2974l30.15,85.43Zm-10.47-35.38q-8.57-27.52-9.63-31.13t-1.55-5.71q-1.92,7.45-11,36.84Z"/><path class="cls-3" d="M3014.87,489.83V404.75h18v70.18h34.51v14.9Z"/><path class="cls-3" d="M3082.2,489.83V404.75h18v85.08Z"/><path class="cls-3" d="M3157.79,418.55q-10.18,0-15.77,7.65t-5.58,21.32q0,28.46,21.35,28.46,9,0,21.71-4.48v15.13a60.25,60.25,0,0,1-23.39,4.36q-18.57,0-28.4-11.26t-9.84-32.32q0-13.28,4.83-23.25a34.93,34.93,0,0,1,13.88-15.3q9-5.33,21.21-5.33a57.19,57.19,0,0,1,24.91,6l-5.82,14.66a98.13,98.13,0,0,0-9.6-4A28.76,28.76,0,0,0,3157.79,418.55Z"/><path class="cls-3" d="M3249.68,489.83l-6.17-20.25h-31l-6.17,20.25h-19.43l30-85.43h22l30.14,85.43Zm-10.48-35.38q-8.55-27.52-9.63-31.13t-1.54-5.71q-1.92,7.45-11,36.84Z"/><path class="cls-3" d="M3355.3,489.83h-22.93l-37-64.36h-.53q1.11,17.05,1.11,24.32v40h-16.12V404.75h22.75l36.95,63.72h.41q-.87-16.58-.87-23.45V404.75h16.24Z"/><path class="cls-3" d="M3409.53,489.83h-18V419.77h-23.1v-15h64.24v15h-23.1Z"/><path class="cls-3" d="M3494.72,489.83h-49V404.75h49v14.78h-31v18.68h28.81V453h-28.81v21.94h31Z"/><text class="cls-7" transform="translate(2915.83 249.88)">26-27</text></svg>