<?xml version="1.0" standalone="no"?>
<!DOCTYPE svg PUBLIC "-//W3C//DTD SVG 20010904//EN"
 "http://www.w3.org/TR/2001/REC-SVG-20010904/DTD/svg10.dtd">
<svg version="1.0" xmlns="http://www.w3.org/2000/svg"
 width="347.000000pt" height="347.000000pt" viewBox="0 0 347.000000 347.000000"
 preserveAspectRatio="xMidYMid meet">
<metadata>
Created by potrace 1.11, written by Peter Selinger 2001-2013
</metadata>
<g transform="translate(0.000000,347.000000) scale(0.100000,-0.100000)"
fill="#000000" stroke="none">
<path d="M1730 2847 c-70 -35 -590 -973 -590 -1064 0 -46 45 -93 89 -93 46 0
82 42 136 160 84 184 386 730 403 730 17 -1 270 -452 379 -677 46 -95 94 -179
106 -188 47 -33 110 -14 133 40 18 43 12 59 -100 284 -106 211 -193 368 -339
610 -92 152 -116 186 -143 197 -40 17 -43 17 -74 1z"/>
<path d="M301 1542 c-62 -61 -24 -142 72 -155 64 -9 90 -24 175 -100 115 -104
221 -140 343 -118 86 15 139 43 221 118 148 136 215 137 369 3 115 -100 170
-124 289 -124 74 0 93 4 150 30 39 19 96 59 143 102 135 123 206 124 343 2
137 -122 247 -158 380 -127 78 18 131 49 221 131 72 64 116 86 176 86 71 0
105 103 51 157 -23 23 -31 25 -92 21 -90 -5 -158 -38 -260 -127 -94 -81 -114
-91 -178 -91 -63 0 -98 18 -184 95 -41 37 -100 79 -130 94 -48 23 -68 26 -155
26 -125 0 -176 -22 -285 -120 -86 -78 -120 -95 -187 -95 -60 0 -84 13 -177 94
-41 36 -99 78 -128 93 -48 26 -62 28 -158 28 -94 0 -111 -3 -160 -27 -31 -15
-88 -57 -128 -92 -90 -81 -118 -96 -182 -96 -65 0 -98 18 -183 96 -88 82 -157
115 -247 122 -66 4 -70 4 -99 -26z"/>
<path d="M1077 1120 c-41 -32 -42 -67 -7 -158 65 -169 197 -311 365 -393 297
-143 637 -89 865 140 105 106 190 253 190 330 0 60 -68 101 -127 76 -24 -10
-39 -32 -77 -110 -103 -212 -286 -329 -516 -329 -161 0 -286 51 -401 164 -54
53 -76 85 -118 172 -29 60 -61 112 -71 118 -30 16 -75 12 -103 -10z"/>
</g>
</svg>
