<?xml version="1.0" encoding="utf-8"?>
<!-- Generator: Adobe Illustrator 21.1.0, SVG Export Plug-In . SVG Version: 6.00 Build 0)  -->
<svg version="1.1" id="svg3699" xmlns="http://www.w3.org/2000/svg" xmlns:xlink="http://www.w3.org/1999/xlink" x="0px" y="0px"
	 viewBox="0 0 3656.6 661.7" style="enable-background:new 0 0 3656.6 661.7;" xml:space="preserve">
<style type="text/css">
	.st0{fill:#435772;}
	.st1{fill:#FFFFFF;}
	.st2{fill:none;stroke:#435772;stroke-width:4;stroke-miterlimit:10;}
	.st3{font-family:'Ubuntu';}
	.st4{font-size:113.5366px;}
	.st5{font-family:'Ubuntu-Bold';}
</style>
<title>Mesa de trabajo 1</title>
<g>
	<path class="st0" d="M1192.8,471.1c0,14.3-5.2,25.6-15.4,33.8c-10.3,8.2-24.6,12.4-43,12.4c-16.9,0-31.9-3.2-44.9-9.5v-31.3
		c8.8,4.1,17.9,7.4,27.2,10.1c6.6,1.8,13.5,2.8,20.3,2.9c7.4,0,13-1.4,17-4.2s5.9-7,5.9-12.6c0-3-0.9-5.9-2.6-8.3
		c-2.1-2.8-4.7-5.1-7.7-7c-3.3-2.2-10.2-5.8-20.6-10.7c-9.7-4.6-17-8.9-21.8-13.1c-4.8-4.1-8.7-9.1-11.6-14.6
		c-3-6.1-4.5-12.8-4.3-19.5c0-14,4.8-25,14.3-33.1s22.7-12.1,39.4-12c8,0,15.9,1,23.6,2.9c8,2.1,15.9,4.9,23.5,8.2l-10.8,26.1
		c-6.8-2.9-13.8-5.3-21-7.3c-5.3-1.4-10.8-2.1-16.3-2.1c-6.4,0-11.3,1.5-14.7,4.5c-3.4,2.9-5.2,7.2-5.1,11.6
		c-0.1,2.7,0.6,5.4,2.1,7.8c1.7,2.6,4,4.7,6.6,6.4c3,2.1,10.1,5.8,21.3,11.1c14.8,7.1,25,14.2,30.5,21.3S1192.9,460.8,1192.8,471.1z
		"/>
	<path class="st0" d="M1331.1,406c0,17.1-5.3,30.1-16,39.1s-25.8,13.6-45.5,13.6h-14.4v56.4h-33.6V356.6h50.7
		c19.2,0,33.9,4.1,43.9,12.4C1326.1,377.2,1331.1,389.6,1331.1,406z M1255.2,431.2h11.1c10.3,0,18.1-2,23.2-6.1s7.7-10,7.7-17.8
		c0-7.9-2.2-13.7-6.4-17.5c-4.3-3.8-11-5.6-20.2-5.6h-15.3L1255.2,431.2L1255.2,431.2z"/>
	<g>
		<g>
			<path class="st0" d="M1221,224.4c0,26.1-7.4,46.1-22.3,60s-36.3,20.8-64.4,20.8h-44.9V146.6h49.8c25.9,0,46,6.8,60.3,20.5
				C1213.9,180.8,1221,199.9,1221,224.4z M1186.1,225.3c0-34.1-15-51.1-45.1-51.1h-17.9v103.2h14.4
				C1169.9,277.5,1186.1,260.1,1186.1,225.3z"/>
			<path class="st0" d="M1287.5,244.4v60.8h-33.6V146.6h46.2c21.5,0,37.5,3.9,47.8,11.8c10.3,7.8,15.5,19.8,15.5,35.7
				c0.1,8.9-2.6,17.6-7.7,24.9c-5.1,7.3-12.4,13-21.8,17.1c23.9,35.6,39.4,58.7,46.6,69.1h-37.3l-37.8-60.8H1287.5z M1287.5,217.1
				h10.8c10.6,0,18.5-1.8,23.5-5.3c5.1-3.5,7.6-9.1,7.6-16.7c0-7.5-2.6-12.9-7.8-16c-5.2-3.1-13.2-4.7-24-4.8h-10.2L1287.5,217.1z"
				/>
			<path class="st0" d="M1529.6,146.6v102.6c0,11.7-2.6,22-7.9,30.8c-5.3,8.9-13.3,16-22.7,20.3c-9.9,4.7-21.6,7.1-35.1,7.1
				c-20.4,0-36.2-5.2-47.5-15.7c-11.3-10.4-16.9-24.7-16.9-42.9V146.6h33.5v97.1c0,12.2,2.5,21.2,7.4,26.9c4.9,5.7,13,8.6,24.4,8.6
				c11,0,19-2.9,23.9-8.6c5-5.7,7.4-14.8,7.4-27.1v-96.9L1529.6,146.6L1529.6,146.6z"/>
			<path class="st0" d="M1678,196.1c0,17.1-5.3,30.1-16,39.1c-10.7,9-25.8,13.6-45.5,13.6h-14.4v56.4h-33.6V146.6h50.7
				c19.2,0,33.9,4.1,43.9,12.4C1673,167.3,1678,179.8,1678,196.1z M1602.1,221.3h11.1c10.3,0,18.1-2,23.2-6.1s7.7-10,7.7-17.8
				c0-7.9-2.2-13.7-6.5-17.5s-11-5.6-20.2-5.6h-15.3L1602.1,221.3L1602.1,221.3z"/>
			<path class="st0" d="M1805,305.2l-11.5-37.7h-57.8l-11.5,37.7H1688l56-159.2h41.1l56.2,159.2H1805z M1785.5,239.3
				c-10.6-34.2-16.6-53.5-17.9-58s-2.3-8-2.9-10.6c-2.4,9.3-9.2,32.1-20.5,68.7L1785.5,239.3z"/>
			<path class="st0" d="M1861.2,305.2V146.6h33.6v130.8h64.3v27.8H1861.2z"/>
		</g>
		<g>
			<path class="st0" d="M2056.9,154.3c-19.9,0-35.6,6.4-47,19.1c-11.4,12.7-17.1,30.2-17.1,52.3c0,22.6,5.4,40.2,16.2,52.7
				s26.2,18.8,46.2,18.8c12.4,0.1,24.8-1.6,36.7-5.1v9.8c-10.5,3.7-23.6,5.5-39.3,5.5c-22.3,0-39.8-7.2-52.6-21.6
				s-19.2-34.5-19.2-60.3c0-16.1,3.1-30.3,9.2-42.6c5.8-11.9,14.9-21.8,26.4-28.5s24.8-10,40-10c15.5,0,29.3,2.9,41.5,8.7l-4.4,10
				C2082,157.3,2069.6,154.3,2056.9,154.3z"/>
			<path class="st0" d="M2203.5,249.2h-64.4l-22.1,56h-12.3l63.8-159.2h7l62.5,159.2h-12.5L2203.5,249.2z M2143.1,239.2h56.7
				l-21.6-57.2c-1.8-4.5-4-10.7-6.5-18.7c-1.8,6.4-3.9,12.7-6.4,18.9L2143.1,239.2z"/>
			<path class="st0" d="M2330.2,305.2l-59.1-146.4h-0.9c0.6,9,0.9,18.1,0.9,27.6v118.9h-10.6V146.6h17.1l56.2,139.5h0.6l56.2-139.5
				h16.7v158.6h-11.2V185.1c0-8.4,0.4-17,1.3-26h-0.9l-59.3,146.2H2330.2z"/>
			<path class="st0" d="M2547.5,192.2c0,15.3-5.2,27.1-15.6,35.3c-10.4,8.2-25.2,12.3-44.3,12.3h-24.5v65.5H2452V146.6h38.8
				C2528.7,146.6,2547.5,161.8,2547.5,192.2z M2463.2,230.2h21.8c17.9,0,30.8-2.9,38.7-8.8c8-5.9,11.9-15.5,11.9-28.7
				c0-12.2-3.8-21.3-11.3-27.2s-19.2-8.8-34.9-8.8h-26.3v73.5H2463.2z"/>
		</g>
		<path class="st0" d="M1458.1,515.2l-11.5-37.7h-57.8l-11.5,37.7h-36.2l56-159.2h41.1l56.2,159.2H1458.1z M1438.6,449.2
			c-10.6-34.2-16.6-53.5-18-58s-2.3-8-2.9-10.6c-2.4,9.3-9.2,32.1-20.5,68.7L1438.6,449.2z"/>
		<path class="st0" d="M1514.3,515.2V356.6h33.6v158.6H1514.3z"/>
		<path class="st0" d="M1728.5,515.2h-42.7l-69-120h-1c1.4,21.2,2.1,36.3,2.1,45.3V515h-30V356.6h42.4l68.9,118.8h0.8
			c-1.1-20.6-1.6-35.2-1.6-43.7v-75.1h30.3L1728.5,515.2z"/>
	</g>
</g>
<g id="g3729">
	<path id="path3731" class="st1" d="M322,538.6c-58.8-2.6-110.2-30.3-144.3-87.3c-13-21.7-19.8-45.6-21.4-71
		c-3-49.3,12.5-92.1,46.9-127.5c31.2-32.1,63.2-63.3,94.8-95c6.7-6.7,13.4-13.4,20.1-20.1c7.3-7.4,14.5-7.3,21.8-0.1
		c35.1,35.1,70.1,70.3,105.5,105c19.9,19.5,36.4,41.1,46.2,67.5c7.1,19,11,38.7,10.8,58.9c-0.8,81.2-56.5,144.2-126.2,162.9
		C360.7,536.1,344.9,538.4,322,538.6"/>
</g>
<g id="g3761">
	<path id="path3763" class="st1" d="M596,479.2c19.6,3.1,33.9,19.2,35.1,39.2c0.5,8.5,0.8,17,2,25.4c1.5,11,5.3,19.1,13.8,32.3
		c-0.5,0.1-1,0.2-1.6,0.3c-15.5,0-31,0-46.5,0.1c-2.3,0-3.2-0.4-3.2-3c0.1-30.9,0.1-61.8,0.1-92.6
		C595.8,480.2,595.9,479.7,596,479.2"/>
</g>
<line class="st2" x1="2642" y1="144.4" x2="2642" y2="517.3"/>
<g>
	<g>
		<path class="st0" d="M669.6,328.2c-1.9,0-3.9-0.4-5.8-1.2c-7.3-3.2-10.6-11.7-7.4-19c30.1-68.8,82.7-151.6,85-155.1
			c2.7-4.2,7.2-6.7,12.2-6.7l0,0c4.9,0,9.5,2.5,12.2,6.7c2.2,3.5,54.2,85.4,84.5,154c3.2,7.3-0.1,15.8-7.4,19
			c-7.3,3.2-15.8-0.1-19-7.4C803.1,271.5,771,216.7,753.6,188c-17.5,28.9-50.1,84.4-70.7,131.5C680.5,325,675.2,328.2,669.6,328.2z"
			/>
	</g>
	<g>
		<path class="st0" d="M753.8,515.5c-52.2,0-97.6-33.5-112.8-83.4c-2.3-7.6,2-15.7,9.6-18c7.6-2.3,15.7,1.9,18,9.6
			c11.5,37.7,45.8,63,85.2,63c38.4,0,72.3-24.4,84.5-60.8c2.5-7.6,10.7-11.6,18.3-9.1c7.6,2.5,11.6,10.7,9.1,18.2
			C849.5,483.2,804.5,515.5,753.8,515.5z"/>
	</g>
	<g>
		<path class="st0" d="M899.4,410.3c-24.1,0-36.5-11.9-46.5-21.5c-8.5-8.1-14.1-13.5-26.6-13.5c-12.5,0-18.1,5.4-26.5,13.5
			c-10,9.6-22.5,21.5-46.5,21.5c-24.1,0-36.5-12-46.5-21.5c-8.5-8.1-14.1-13.5-26.5-13.5c-12.5,0-18.1,5.4-26.5,13.5
			c-10,9.6-22.4,21.6-46.5,21.6c-24.1,0-36.5-12-46.5-21.6c-8.5-8.1-14.1-13.5-26.5-13.5c-8,0-14.4-6.5-14.4-14.4
			c0-8,6.5-14.4,14.4-14.4c24.1,0,36.5,12,46.5,21.6c8.5,8.1,14.1,13.5,26.5,13.5c12.5,0,18.1-5.4,26.5-13.5
			c10-9.6,22.4-21.6,46.5-21.6c24.1,0,36.5,12,46.5,21.6c8.5,8.1,14.1,13.5,26.5,13.5c12.5,0,18-5.4,26.5-13.5
			c10-9.6,22.5-21.6,46.5-21.6c24.1,0,36.5,11.9,46.5,21.6c8.5,8.1,14.1,13.5,26.6,13.5c12.5,0,18.1-5.4,26.6-13.5
			c10-9.6,22.5-21.6,46.5-21.6c8,0,14.4,6.5,14.4,14.4c0,8-6.5,14.4-14.4,14.4c-12.5,0-18.1,5.4-26.6,13.5
			C935.9,398.4,923.5,410.3,899.4,410.3z"/>
	</g>
</g>
<text transform="matrix(1 0 0 1 2763.0488 246.8465)"><tspan x="0" y="0" class="st0 st3 st4">25-26</tspan><tspan x="0" y="119.5" class="st0 st3 st4">MAY 2019</tspan><tspan x="0" y="239" class="st0 st5 st4">CONIL</tspan></text>
</svg>
