<?xml version="1.0" standalone="no"?>
<!DOCTYPE svg PUBLIC "-//W3C//DTD SVG 20010904//EN"
 "http://www.w3.org/TR/2001/REC-SVG-20010904/DTD/svg10.dtd">
<svg version="1.0" xmlns="http://www.w3.org/2000/svg"
 width="700.000000pt" height="700.000000pt" viewBox="0 0 700.000000 700.000000"
 preserveAspectRatio="xMidYMid meet">
<metadata>
Created by potrace 1.11, written by Peter Selinger 2001-2013
</metadata>
<g transform="translate(0.000000,700.000000) scale(0.100000,-0.100000)"
fill="#000000" stroke="none">
<path d="M0 3500 l0 -3500 3500 0 3500 0 0 3500 0 3500 -3500 0 -3500 0 0
-3500z m3630 2453 c95 -42 7 83 1373 -1973 262 -396 370 -747 354 -1154 -13
-334 -97 -625 -260 -896 -281 -471 -753 -792 -1302 -887 -137 -23 -451 -23
-590 1 -387 66 -714 231 -994 501 -539 520 -714 1304 -446 2005 20 52 59 138
86 190 45 84 468 728 1184 1800 144 215 244 355 267 374 85 67 228 84 328 39z"/>
<path d="M2958 4303 c-295 -445 -552 -839 -571 -878 -218 -440 -145 -990 180
-1357 189 -213 414 -343 698 -404 110 -24 360 -24 470 0 256 56 459 165 642
347 372 369 467 950 233 1419 -37 73 -1093 1672 -1108 1678 -5 1 -249 -361
-544 -805z"/>
</g>
</svg>
