<svg width="108" height="43" viewBox="0 0 108 43" fill="none" xmlns="http://www.w3.org/2000/svg">
<path d="M4.92062 41.2533L19.1245 26.0466C24.1973 30.8757 29.9803 34.7802 36.4227 37.6571C44.1841 41.1505 52.5035 42.9486 61.1273 43C61.3302 43 61.4824 43 61.6853 43C70.1569 43 78.3748 41.3047 86.0348 37.9654C93.4918 34.7288 100.137 30.1565 105.768 24.2999L108 21.988L105.768 19.6249C100.137 13.6141 93.4918 8.83632 85.984 5.44564C78.2226 1.95221 69.954 0.102748 61.3302 0C61.178 0 61.0258 0 60.8736 0C52.3513 0 44.1334 1.69534 36.372 5.03465C29.9803 7.80884 24.1465 11.6105 19.0737 16.3369L4.86989 1.07885L0 5.75389L14.356 21.1147L14.4068 21.1661L0.0507273 36.5783L4.92062 41.2533ZM98.5646 21.9367C92.883 27.1768 86.2377 31.0299 79.085 33.4444C77.4617 29.8483 76.5993 25.9438 76.5993 21.988C76.5993 17.8268 77.5632 13.7168 79.3387 10.0179C86.3899 12.5866 92.9338 16.5938 98.5646 21.9367ZM60.8736 6.83274C61.0258 6.83274 61.1273 6.83274 61.2795 6.83274C65.1855 6.88411 69.0409 7.34648 72.744 8.16846C70.8164 12.4839 69.8525 17.2103 69.8525 21.988C69.8525 26.5603 70.7656 31.0299 72.4904 35.1912C68.9394 35.9104 65.3377 36.27 61.6346 36.27C61.4824 36.27 61.2795 36.27 61.1273 36.27C46.9742 36.1673 33.8356 30.8244 23.7914 21.2688C26.3279 18.957 29.0164 16.8507 31.8572 15.1039C40.4302 9.70968 50.4237 6.83274 60.8736 6.83274Z" fill="#323B3E"/>
</svg>
