<?xml version="1.0" encoding="utf-8"?>
<!-- Generator: Adobe Illustrator 22.0.0, SVG Export Plug-In . SVG Version: 6.00 Build 0)  -->
<svg version="1.1" id="Layer_1" xmlns="http://www.w3.org/2000/svg" xmlns:xlink="http://www.w3.org/1999/xlink" x="0px" y="0px"
	 viewBox="0 0 217 103" style="enable-background:new 0 0 217 103;" xml:space="preserve">
<path d="M54.3,18H24.4v0.1l0,0L6.8,43.3c-0.4,0.5-0.8,1-1.1,1.6l-0.2,0.3l0,0c-6.4,10.5-3.1,24.1,7.4,30.5c3.5,2.1,7.5,3.3,11.6,3.3
	h29.9c16.8,0.4,30.8-12.9,31.3-29.7S72.8,18.4,55.9,18C55.4,17.9,54.9,17.9,54.3,18L54.3,18z M24.4,66.8c-5.5,0-10-4.5-10-10
	c0-1.8,0.5-3.6,1.5-5.2l0.1-0.2c0.1-0.2,0.3-0.4,0.5-0.7l0.2-0.2l0.1-0.2l7.6-11l7,10l0.3,0.5l0.4,0.4c0.4,0.5,0.8,1,1.1,1.6
	l0.2,0.3c0.7,1.4,1.1,3,1.1,4.6C34.5,62.3,30,66.8,24.4,66.8C24.5,66.8,24.5,66.8,24.4,66.8z M54.3,66.8h-10c1.6-3.1,2.4-6.5,2.4-10
	c0-0.7,0-1.5-0.1-2.2h7.8c3.4,0,6.1-2.7,6.1-6.1s-2.7-6.1-6.1-6.1h-13l-8.5-12.2h21.5c10.1,0,18.3,8.2,18.3,18.3
	S64.4,66.8,54.3,66.8L54.3,66.8z"/>
<g>
	<path d="M102.5,30.4h-4.7l-1.1,3.4h-2.5l4.7-13.4h2.6l4.7,13.4h-2.5L102.5,30.4z M100.1,22.8c0,0-0.3,1.3-0.6,2.1l-1.2,3.6h3.5
		l-1.2-3.6C100.4,24.1,100.1,22.8,100.1,22.8L100.1,22.8z"/>
	<path d="M108.5,30.4c0.9,0.8,2.1,1.4,3.3,1.4c1,0,1.9-0.5,1.9-1.6c0-2.4-6.3-2-6.3-6.1c0-2.2,1.9-3.9,4.5-3.9
		c1.5-0.1,2.9,0.5,4,1.4l-1.1,2c-0.8-0.7-1.9-1.1-3-1.2c-1.1,0-2,0.7-2,1.6c0,2.4,6.3,1.8,6.3,6.1c0,2.1-1.6,3.9-4.4,3.9
		c-1.7,0-3.4-0.6-4.6-1.8L108.5,30.4z"/>
	<path d="M125,20.2c3.7-0.1,6.8,2.9,6.9,6.6c0,0.1,0,0.1,0,0.2c0,3.8-3.1,6.9-6.9,6.9c-3.8,0-6.9-3.1-6.9-6.9c0,0,0,0,0,0
		c0-3.7,3-6.8,6.7-6.8C124.8,20.2,124.9,20.2,125,20.2z M125,31.8c2.5-0.1,4.5-2.2,4.4-4.7c0,0,0-0.1,0-0.1c0.1-2.4-1.8-4.5-4.2-4.6
		c-2.4-0.1-4.5,1.8-4.6,4.2c0,0.1,0,0.3,0,0.4c-0.1,2.5,1.8,4.6,4.3,4.8C124.9,31.8,124.9,31.8,125,31.8L125,31.8z"/>
	<path d="M140.7,20.2c1.8-0.1,3.6,0.6,4.9,1.8l-1.1,1.8c-1-0.9-2.3-1.4-3.7-1.4c-2.4-0.1-4.4,1.8-4.5,4.2c0,0.1,0,0.3,0,0.4
		c-0.1,2.5,1.8,4.6,4.3,4.8c0.1,0,0.2,0,0.3,0c1.5-0.1,2.9-0.7,3.9-1.7l1.3,1.8c-1.4,1.4-3.3,2.2-5.3,2.2c-3.8,0-6.9-3.1-6.9-6.9
		C133.8,23.3,136.9,20.2,140.7,20.2L140.7,20.2z"/>
	<path d="M148.5,20.4h2.4v13.4h-2.4V20.4z"/>
	<path d="M161.4,30.4h-4.7l-1.1,3.4H153l4.7-13.4h2.5l4.7,13.4h-2.5L161.4,30.4z M159,22.8c0,0-0.3,1.3-0.6,2.1l-1.2,3.6h3.5
		l-1.2-3.6C159.3,24.1,159.1,22.8,159,22.8L159,22.8z"/>
	<path d="M172.9,20.2c1.8-0.1,3.6,0.6,5,1.8l-1.2,1.8c-1-0.9-2.3-1.4-3.7-1.4c-2.4-0.1-4.4,1.8-4.5,4.2c0,0.1,0,0.3,0,0.4
		c-0.1,2.5,1.8,4.6,4.3,4.8c0.1,0,0.2,0,0.3,0c1.5-0.1,2.9-0.7,3.9-1.7l1.3,1.8c-1.4,1.4-3.3,2.2-5.3,2.2c-3.8,0-6.9-3.1-6.9-6.9
		C166.1,23.3,169.2,20.2,172.9,20.2L172.9,20.2z"/>
	<path d="M180.8,20.4h2.4v13.4h-2.4V20.4z"/>
	<path d="M193,20.2c3.7-0.1,6.8,2.9,6.9,6.6c0,0.1,0,0.1,0,0.2c0,3.8-3.1,6.9-6.9,6.9c-3.8,0-6.9-3.1-6.9-6.9c0,0,0,0,0,0
		c0-3.7,3-6.8,6.7-6.8C192.8,20.2,192.9,20.2,193,20.2z M193,31.8c2.5-0.1,4.5-2.2,4.4-4.7c0,0,0-0.1,0-0.1c0.1-2.4-1.8-4.5-4.2-4.6
		c-2.4-0.1-4.5,1.8-4.6,4.2c0,0.1,0,0.3,0,0.4c-0.1,2.5,1.8,4.7,4.3,4.8C192.9,31.8,192.9,31.8,193,31.8L193,31.8z M193.4,17h2.5
		l-2,2.6H192L193.4,17z"/>
	<path d="M202.7,20.4h2.4l5.1,7.7c0.4,0.7,0.8,1.4,1.1,2.1l0,0c0,0-0.1-1.3-0.1-2.1v-7.7h2.4v13.4h-2.4l-5.1-7.7
		c-0.4-0.7-0.8-1.4-1.1-2.1l0,0c0,0,0.1,1.3,0.1,2.1v7.7h-2.4L202.7,20.4z"/>
	<path d="M95.8,43.1h8v2.1h-5.6v3.5h4.5v2.1h-4.5v3.6h5.9v2.1h-8.3L95.8,43.1z"/>
	<path d="M107.3,53c0.9,0.8,2.1,1.3,3.3,1.4c1,0,1.9-0.5,1.9-1.6c0-2.4-6.3-2-6.3-6.1c0-2.2,1.9-3.9,4.5-3.9c1.5-0.1,2.9,0.5,4,1.4
		l-1.1,2c-0.8-0.7-1.9-1.1-3-1.2c-1.1,0-2,0.7-2,1.6c0,2.4,6.3,1.8,6.3,6.1c0,2.1-1.6,3.9-4.4,3.9c-1.7,0-3.4-0.6-4.6-1.8L107.3,53z
		"/>
	<path d="M117.8,43.1h5.2c2.4,0.1,4.3,2.2,4.2,4.6c-0.1,2.3-1.9,4.1-4.2,4.2h-2.7v4.6h-2.4V43.1z M122.5,49.7
		c1.2,0.1,2.2-0.8,2.2-1.9c0-0.1,0-0.2,0-0.4c0.1-1.1-0.7-2.1-1.9-2.3c-0.1,0-0.2,0-0.3,0h-2.3v4.6H122.5z"/>
	<path d="M136,53h-4.7l-1.1,3.4h-2.5l4.7-13.4h2.5l4.7,13.4h-2.5L136,53z M133.6,45.4c0,0-0.3,1.3-0.6,2.1l-1.2,3.6h3.5l-1.2-3.6
		C134,46.7,133.7,45.4,133.6,45.4L133.6,45.4z"/>
	<path d="M141.7,43.1h2.4l5.1,7.7c0.4,0.7,0.8,1.4,1.1,2.1l0,0c0,0-0.1-1.3-0.1-2.1v-7.7h2.4v13.4h-2.4l-5.1-7.7
		c-0.4-0.7-0.8-1.4-1.1-2.1l0,0c0,0,0.1,1.3,0.1,2.1v7.7h-2.4L141.7,43.1z M145.9,39.6c1.3,0,1.6,1.2,2.4,1.2c0.5,0,0.7-0.6,0.7-1.2
		h1.6c0,1.7-0.7,2.6-2.1,2.6c-1.3,0-1.6-1.2-2.4-1.2c-0.5,0-0.7,0.5-0.7,1.2h-1.6C143.7,40.5,144.5,39.6,145.9,39.6L145.9,39.6z"/>
	<path d="M162.4,42.8c3.7-0.1,6.8,2.9,6.9,6.6c0,0.1,0,0.1,0,0.2c0,3.8-3.1,6.9-6.9,6.9s-6.9-3.1-6.9-6.9c0,0,0,0,0,0
		c0-3.7,3-6.8,6.7-6.8C162.2,42.8,162.3,42.8,162.4,42.8z M162.4,54.5c2.5-0.1,4.5-2.1,4.4-4.6c0,0,0-0.1,0-0.1
		c0.1-2.4-1.8-4.5-4.2-4.6c-2.4-0.1-4.5,1.8-4.6,4.2c0,0.1,0,0.3,0,0.4c-0.1,2.5,1.8,4.6,4.3,4.8C162.2,54.5,162.3,54.5,162.4,54.5
		L162.4,54.5z"/>
	<path d="M172.1,43.1h2.4v11.3h5.8v2.1h-8.2V43.1z"/>
	<path d="M189.7,53H185l-1.1,3.4h-2.5l4.7-13.4h2.5l4.7,13.4h-2.5L189.7,53z M187.3,45.4c0,0-0.3,1.3-0.6,2.1l-1.2,3.6h3.5l-1.2-3.6
		C187.6,46.7,187.4,45.4,187.3,45.4L187.3,45.4z"/>
	<path d="M95.8,65.7h4.6c4.1,0,6.8,2.5,6.8,6.7s-2.7,6.7-6.8,6.7h-4.6L95.8,65.7z M100.3,77c2.7,0,4.5-1.6,4.5-4.6s-1.8-4.6-4.5-4.6
		h-2V77H100.3z"/>
	<path d="M110.1,65.7h8v2.1h-5.6v3.5h4.5v2.1h-4.5V77h5.9v2.1h-8.3L110.1,65.7z"/>
	<path d="M126.2,65.7h4.6c4.1,0,6.8,2.5,6.8,6.7s-2.7,6.7-6.8,6.7h-4.6V65.7z M130.6,77c2.7,0,4.5-1.6,4.5-4.6s-1.8-4.6-4.5-4.6h-2
		V77H130.6z"/>
	<path d="M140.5,65.7h4.3c0.9-0.1,1.8,0.1,2.7,0.4c1.4,0.7,2.3,2.1,2.2,3.7c0.1,1.6-0.8,3-2.3,3.7l0,0c0.2,0.2,0.3,0.4,0.5,0.7
		l2.8,5h-2.7l-2.7-5h-2.3v5h-2.4V65.7z M145.1,72c1.1,0.1,2-0.7,2.1-1.8c0-0.1,0-0.2,0-0.4c0-1.3-0.5-2.1-2.5-2.1h-1.9V72L145.1,72z
		"/>
	<path d="M152.9,65.7h2.4v8.6c0.2,1.6,1.8,2.8,3.4,2.5c1.3-0.2,2.4-1.2,2.5-2.5v-8.6h2.4v8.6c0,3-2.2,5-5.4,5s-5.4-2-5.4-5
		L152.9,65.7z"/>
	<path d="M167.3,65.7h5.2c2.3-0.1,4.2,1.7,4.3,3.9c0,0.1,0,0.3,0,0.4c0.1,2.3-1.6,4.3-3.9,4.4c-0.1,0-0.3,0-0.4,0h-2.7v4.6h-2.4
		V65.7z M172,72.4c1.2,0.1,2.2-0.8,2.2-1.9c0-0.1,0-0.2,0-0.4c0.1-1.1-0.7-2.2-1.9-2.3c-0.1,0-0.2,0-0.3,0h-2.3v4.5L172,72.4z"/>
	<path d="M185.5,75.7h-4.7l-1.1,3.4h-2.5l4.7-13.4h2.5l4.7,13.4h-2.5L185.5,75.7z M183.1,68c0,0-0.3,1.3-0.6,2.1l-1.2,3.6h3.5
		l-1.2-3.6C183.4,69.3,183.1,68,183.1,68L183.1,68z"/>
	<path d="M191.2,65.7h2.4V77h5.8v2.1h-8.2V65.7z"/>
</g>
</svg>
