<?xml version="1.0" encoding="utf-8"?>
<!-- Generator: Adobe Illustrator 19.0.0, SVG Export Plug-In . SVG Version: 6.00 Build 0)  -->
<svg version="1.1" xmlns="http://www.w3.org/2000/svg" xmlns:xlink="http://www.w3.org/1999/xlink" x="0px" y="0px" width="347.2px"
	 height="362.1px" viewBox="0 0 347.2 362.1" style="enable-background:new 0 0 347.2 362.1;" xml:space="preserve">
<style type="text/css">
	.st0{fill:#FFFFFF;}
	.st1{clip-path:url(#XMLID_16_);}
	.st2{fill:#1123C9;}
</style>
<g id="Capa_2">
	<g id="XMLID_26_">
		<g id="XMLID_30_">
			<circle id="XMLID_11_" class="st0" cx="138.9" cy="138.9" r="25.9"/>
		</g>
		<g id="XMLID_33_">
			<path id="XMLID_20_" class="st0" d="M277.8,223.2h0.1v-84.3h-0.1C277.8,62.2,215.6,0,138.9,0S0,62.2,0,138.9h69.4
				c0-38.4,31.1-69.4,69.4-69.4s69.4,31.1,69.4,69.4h0v84.3c0,76.7,62.2,138.9,138.9,138.9v-69.4
				C308.8,292.6,277.8,261.5,277.8,223.2z"/>
		</g>
	</g>
</g>
<g id="Capa_2_copia">
	<g id="XMLID_593_">
		<defs>
			<path id="XMLID_741_" d="M164.8,138.9c0,14.3-11.6,25.9-25.9,25.9c-14.3,0-25.9-11.6-25.9-25.9c0-14.3,11.6-25.9,25.9-25.9
				C153.2,113,164.8,124.6,164.8,138.9z M277.8,223.2h0.1v-84.3h-0.1C277.8,62.2,215.6,0,138.9,0S0,62.2,0,138.9h69.4
				c0-38.4,31.1-69.4,69.4-69.4s69.4,31.1,69.4,69.4h0v84.3c0,76.7,62.2,138.9,138.9,138.9v-69.4
				C308.8,292.6,277.8,261.5,277.8,223.2z"/>
		</defs>
		<clipPath id="XMLID_16_">
			<use xlink:href="#XMLID_741_"  style="overflow:visible;"/>
		</clipPath>
		<g id="XMLID_592_" class="st1">
			<g id="XMLID_596_">
				<g id="XMLID_739_">
					
						<rect id="XMLID_740_" x="211.1" y="-1399.7" transform="matrix(0.7072 -0.7071 0.7071 0.7072 589.5383 -65.5466)" class="st2" width="9" height="1310.5"/>
				</g>
				<g id="XMLID_737_">
					
						<rect id="XMLID_738_" x="211.1" y="-1375.8" transform="matrix(0.7072 -0.7071 0.7071 0.7072 572.6333 -58.5449)" class="st2" width="9" height="1310.5"/>
				</g>
				<g id="XMLID_735_">
					
						<rect id="XMLID_736_" x="211.1" y="-1351.9" transform="matrix(0.7072 -0.7071 0.7071 0.7072 555.7289 -51.5435)" class="st2" width="9" height="1310.5"/>
				</g>
				<g id="XMLID_733_">
					
						<rect id="XMLID_734_" x="211.1" y="-1328" transform="matrix(0.7072 -0.7071 0.7071 0.7072 538.8245 -44.5421)" class="st2" width="9" height="1310.5"/>
				</g>
				<g id="XMLID_731_">
					
						<rect id="XMLID_732_" x="211.1" y="-1304.1" transform="matrix(0.7072 -0.7071 0.7071 0.7072 521.9198 -37.5405)" class="st2" width="9" height="1310.5"/>
				</g>
				<g id="XMLID_729_">
					
						<rect id="XMLID_730_" x="211.1" y="-1280.2" transform="matrix(0.7072 -0.7071 0.7071 0.7072 505.0151 -30.539)" class="st2" width="9" height="1310.5"/>
				</g>
				<g id="XMLID_727_">
					
						<rect id="XMLID_728_" x="211.1" y="-1256.3" transform="matrix(0.7072 -0.7071 0.7071 0.7072 488.1107 -23.5376)" class="st2" width="9" height="1310.5"/>
				</g>
				<g id="XMLID_725_">
					
						<rect id="XMLID_726_" x="211.1" y="-1232.4" transform="matrix(0.7072 -0.7071 0.7071 0.7072 471.206 -16.536)" class="st2" width="9" height="1310.5"/>
				</g>
				<g id="XMLID_723_">
					
						<rect id="XMLID_724_" x="211.1" y="-1208.5" transform="matrix(0.7072 -0.7071 0.7071 0.7072 454.3013 -9.5345)" class="st2" width="9" height="1310.5"/>
				</g>
				<g id="XMLID_721_">
					
						<rect id="XMLID_722_" x="211.1" y="-1184.6" transform="matrix(0.7072 -0.7071 0.7071 0.7072 437.3969 -2.5331)" class="st2" width="9" height="1310.5"/>
				</g>
				<g id="XMLID_719_">
					
						<rect id="XMLID_720_" x="211.1" y="-1160.7" transform="matrix(0.7072 -0.7071 0.7071 0.7072 420.4924 4.4683)" class="st2" width="9" height="1310.5"/>
				</g>
				<g id="XMLID_717_">
					
						<rect id="XMLID_718_" x="211.1" y="-1136.8" transform="matrix(0.7072 -0.7071 0.7071 0.7072 403.5874 11.47)" class="st2" width="9" height="1310.5"/>
				</g>
				<g id="XMLID_715_">
					
						<rect id="XMLID_716_" x="211.1" y="-1112.8" transform="matrix(0.7072 -0.7071 0.7071 0.7072 386.683 18.4714)" class="st2" width="9" height="1310.5"/>
				</g>
				<g id="XMLID_713_">
					
						<rect id="XMLID_714_" x="211.1" y="-1088.9" transform="matrix(0.7072 -0.7071 0.7071 0.7072 369.7786 25.4728)" class="st2" width="9" height="1310.5"/>
				</g>
				<g id="XMLID_711_">
					
						<rect id="XMLID_712_" x="211.1" y="-1065" transform="matrix(0.7072 -0.7071 0.7071 0.7072 352.8739 32.4743)" class="st2" width="9" height="1310.5"/>
				</g>
				<g id="XMLID_709_">
					
						<rect id="XMLID_710_" x="211.1" y="-1041.1" transform="matrix(0.7072 -0.7071 0.7071 0.7072 335.9691 39.4759)" class="st2" width="9" height="1310.5"/>
				</g>
				<g id="XMLID_707_">
					
						<rect id="XMLID_708_" x="211.1" y="-1017.2" transform="matrix(0.7072 -0.7071 0.7071 0.7072 319.0646 46.4774)" class="st2" width="9" height="1310.5"/>
				</g>
				<g id="XMLID_705_">
					
						<rect id="XMLID_706_" x="211.1" y="-993.3" transform="matrix(0.7072 -0.7071 0.7071 0.7072 302.1601 53.4788)" class="st2" width="9" height="1310.5"/>
				</g>
				<g id="XMLID_703_">
					
						<rect id="XMLID_704_" x="211.1" y="-969.4" transform="matrix(0.7072 -0.7071 0.7071 0.7072 285.2552 60.4804)" class="st2" width="9" height="1310.5"/>
				</g>
				<g id="XMLID_701_">
					
						<rect id="XMLID_702_" x="211.1" y="-945.5" transform="matrix(0.7072 -0.7071 0.7071 0.7072 268.3508 67.4818)" class="st2" width="9" height="1310.5"/>
				</g>
				<g id="XMLID_699_">
					
						<rect id="XMLID_700_" x="211.1" y="-921.6" transform="matrix(0.7072 -0.7071 0.7071 0.7072 251.4463 74.4833)" class="st2" width="9" height="1310.5"/>
				</g>
				<g id="XMLID_697_">
					
						<rect id="XMLID_698_" x="211.1" y="-897.7" transform="matrix(0.7072 -0.7071 0.7071 0.7072 234.5418 81.4847)" class="st2" width="9" height="1310.5"/>
				</g>
				<g id="XMLID_695_">
					
						<rect id="XMLID_696_" x="211.1" y="-873.8" transform="matrix(0.7072 -0.7071 0.7071 0.7072 217.637 88.4863)" class="st2" width="9" height="1310.5"/>
				</g>
				<g id="XMLID_693_">
					
						<rect id="XMLID_694_" x="211.1" y="-849.9" transform="matrix(0.7072 -0.7071 0.7071 0.7072 200.7324 95.4878)" class="st2" width="9" height="1310.5"/>
				</g>
				<g id="XMLID_691_">
					
						<rect id="XMLID_692_" x="211.1" y="-825.9" transform="matrix(0.7072 -0.7071 0.7071 0.7072 183.828 102.4892)" class="st2" width="9" height="1310.5"/>
				</g>
				<g id="XMLID_689_">
					
						<rect id="XMLID_690_" x="211.1" y="-802" transform="matrix(0.7072 -0.7071 0.7071 0.7072 166.9232 109.4908)" class="st2" width="9" height="1310.5"/>
				</g>
				<g id="XMLID_687_">
					
						<rect id="XMLID_688_" x="211.1" y="-778.1" transform="matrix(0.7072 -0.7071 0.7071 0.7072 150.0188 116.4922)" class="st2" width="9" height="1310.5"/>
				</g>
				<g id="XMLID_685_">
					
						<rect id="XMLID_686_" x="211.1" y="-754.2" transform="matrix(0.7072 -0.7071 0.7071 0.7072 133.1142 123.4937)" class="st2" width="9" height="1310.5"/>
				</g>
				<g id="XMLID_683_">
					
						<rect id="XMLID_684_" x="211.1" y="-730.3" transform="matrix(0.7072 -0.7071 0.7071 0.7072 116.2094 130.4953)" class="st2" width="9" height="1310.5"/>
				</g>
				<g id="XMLID_681_">
					
						<rect id="XMLID_682_" x="211.1" y="-706.4" transform="matrix(0.7072 -0.7071 0.7071 0.7072 99.3049 137.4967)" class="st2" width="9" height="1310.5"/>
				</g>
				<g id="XMLID_679_">
					
						<rect id="XMLID_680_" x="211.1" y="-682.5" transform="matrix(0.7072 -0.7071 0.7071 0.7072 82.4004 144.4982)" class="st2" width="9" height="1310.5"/>
				</g>
				<g id="XMLID_677_">
					
						<rect id="XMLID_678_" x="211.1" y="-658.6" transform="matrix(0.7072 -0.7071 0.7071 0.7072 65.496 151.4996)" class="st2" width="9" height="1310.5"/>
				</g>
				<g id="XMLID_675_">
					
						<rect id="XMLID_676_" x="211.1" y="-634.7" transform="matrix(0.7072 -0.7071 0.7071 0.7072 48.5911 158.5012)" class="st2" width="9" height="1310.5"/>
				</g>
				<g id="XMLID_673_">
					
						<rect id="XMLID_674_" x="211.1" y="-610.8" transform="matrix(0.7072 -0.7071 0.7071 0.7072 31.6867 165.5026)" class="st2" width="9" height="1310.5"/>
				</g>
				<g id="XMLID_671_">
					
						<rect id="XMLID_672_" x="211.1" y="-586.9" transform="matrix(0.7072 -0.7071 0.7071 0.7072 14.7821 172.5041)" class="st2" width="9" height="1310.5"/>
				</g>
				<g id="XMLID_669_">
					
						<rect id="XMLID_670_" x="211.1" y="-563" transform="matrix(0.7072 -0.7071 0.7071 0.7072 -2.1227 179.5057)" class="st2" width="9" height="1310.5"/>
				</g>
				<g id="XMLID_667_">
					
						<rect id="XMLID_668_" x="211.1" y="-539" transform="matrix(0.7072 -0.7071 0.7071 0.7072 -19.0271 186.5071)" class="st2" width="9" height="1310.5"/>
				</g>
				<g id="XMLID_665_">
					
						<rect id="XMLID_666_" x="211.1" y="-515.1" transform="matrix(0.7072 -0.7071 0.7071 0.7072 -35.9317 193.5086)" class="st2" width="9" height="1310.5"/>
				</g>
				<g id="XMLID_663_">
					
						<rect id="XMLID_664_" x="211.1" y="-491.2" transform="matrix(0.7072 -0.7071 0.7071 0.7072 -52.8364 200.5101)" class="st2" width="9" height="1310.5"/>
				</g>
				<g id="XMLID_661_">
					
						<rect id="XMLID_662_" x="211.1" y="-467.3" transform="matrix(0.7072 -0.7071 0.7071 0.7072 -69.7409 207.5116)" class="st2" width="9" height="1310.5"/>
				</g>
				<g id="XMLID_659_">
					
						<rect id="XMLID_660_" x="211.1" y="-443.4" transform="matrix(0.7072 -0.7071 0.7071 0.7072 -86.6455 214.5131)" class="st2" width="9" height="1310.5"/>
				</g>
				<g id="XMLID_657_">
					
						<rect id="XMLID_658_" x="211.1" y="-419.5" transform="matrix(0.7072 -0.7071 0.7071 0.7072 -103.5499 221.5145)" class="st2" width="9" height="1310.5"/>
				</g>
				<g id="XMLID_655_">
					
						<rect id="XMLID_656_" x="211.1" y="-395.6" transform="matrix(0.7072 -0.7071 0.7071 0.7072 -120.4548 228.5161)" class="st2" width="9" height="1310.5"/>
				</g>
				<g id="XMLID_653_">
					
						<rect id="XMLID_654_" x="211.1" y="-371.7" transform="matrix(0.7072 -0.7071 0.7071 0.7072 -137.3592 235.5175)" class="st2" width="9" height="1310.5"/>
				</g>
				<g id="XMLID_651_">
					
						<rect id="XMLID_652_" x="211.1" y="-347.8" transform="matrix(0.7072 -0.7071 0.7071 0.7072 -154.2637 242.519)" class="st2" width="9" height="1310.5"/>
				</g>
				<g id="XMLID_649_">
					
						<rect id="XMLID_650_" x="211.1" y="-323.9" transform="matrix(0.7072 -0.7071 0.7071 0.7072 -171.1686 249.5206)" class="st2" width="9" height="1310.5"/>
				</g>
				<g id="XMLID_647_">
					
						<rect id="XMLID_648_" x="211.1" y="-300" transform="matrix(0.7072 -0.7071 0.7071 0.7072 -188.073 256.522)" class="st2" width="9" height="1310.5"/>
				</g>
				<g id="XMLID_645_">
					
						<rect id="XMLID_646_" x="211.1" y="-276.1" transform="matrix(0.7072 -0.7071 0.7071 0.7072 -204.9776 263.5235)" class="st2" width="9" height="1310.5"/>
				</g>
				<g id="XMLID_643_">
					
						<rect id="XMLID_644_" x="211.1" y="-252.1" transform="matrix(0.7072 -0.7071 0.7071 0.7072 -221.8823 270.525)" class="st2" width="9" height="1310.5"/>
				</g>
				<g id="XMLID_641_">
					
						<rect id="XMLID_642_" x="211.1" y="-228.2" transform="matrix(0.7072 -0.7071 0.7071 0.7072 -238.7868 277.5265)" class="st2" width="9" height="1310.5"/>
				</g>
				<g id="XMLID_639_">
					
						<rect id="XMLID_640_" x="211.1" y="-204.3" transform="matrix(0.7072 -0.7071 0.7071 0.7072 -255.6914 284.528)" class="st2" width="9" height="1310.5"/>
				</g>
				<g id="XMLID_637_">
					
						<rect id="XMLID_638_" x="211.1" y="-180.4" transform="matrix(0.7072 -0.7071 0.7071 0.7072 -272.5958 291.5294)" class="st2" width="9" height="1310.5"/>
				</g>
				<g id="XMLID_634_">
					
						<rect id="XMLID_635_" x="211.1" y="-156.5" transform="matrix(0.7072 -0.7071 0.7071 0.7072 -289.5006 298.531)" class="st2" width="9" height="1310.5"/>
				</g>
				<g id="XMLID_631_">
					
						<rect id="XMLID_632_" x="211.1" y="-132.6" transform="matrix(0.7071 -0.7071 0.7071 0.7071 -306.4185 305.5651)" class="st2" width="9.1" height="1310.5"/>
				</g>
				<g id="XMLID_628_">
					
						<rect id="XMLID_629_" x="211.1" y="-108.7" transform="matrix(0.7071 -0.7071 0.7071 0.7071 -323.3243 312.5677)" class="st2" width="9.1" height="1310.5"/>
				</g>
				<g id="XMLID_625_">
					
						<rect id="XMLID_626_" x="211.1" y="-84.8" transform="matrix(0.7071 -0.7071 0.7071 0.7071 -340.2299 319.5703)" class="st2" width="9.1" height="1310.5"/>
				</g>
				<g id="XMLID_622_">
					
						<rect id="XMLID_623_" x="211.1" y="-60.9" transform="matrix(0.7071 -0.7071 0.7071 0.7071 -357.1356 326.5728)" class="st2" width="9.1" height="1310.5"/>
				</g>
				<g id="XMLID_619_">
					
						<rect id="XMLID_620_" x="211.1" y="-37" transform="matrix(0.7071 -0.7071 0.7071 0.7071 -374.0412 333.5753)" class="st2" width="9.1" height="1310.5"/>
				</g>
				<g id="XMLID_616_">
					
						<rect id="XMLID_617_" x="211.1" y="-13.1" transform="matrix(0.7071 -0.7071 0.7071 0.7071 -390.9468 340.5779)" class="st2" width="9.1" height="1310.5"/>
				</g>
				<g id="XMLID_613_">
					
						<rect id="XMLID_614_" x="211.1" y="10.8" transform="matrix(0.7071 -0.7071 0.7071 0.7071 -407.8526 347.5804)" class="st2" width="9.1" height="1310.5"/>
				</g>
				<g id="XMLID_610_">
					
						<rect id="XMLID_611_" x="211.1" y="34.7" transform="matrix(0.7071 -0.7071 0.7071 0.7071 -424.7582 354.583)" class="st2" width="9.1" height="1310.5"/>
				</g>
				<g id="XMLID_607_">
					
						<rect id="XMLID_608_" x="211.1" y="58.7" transform="matrix(0.7071 -0.7071 0.7071 0.7071 -441.6638 361.5855)" class="st2" width="9.1" height="1310.5"/>
				</g>
				<g id="XMLID_604_">
					
						<rect id="XMLID_605_" x="211.1" y="82.6" transform="matrix(0.7071 -0.7071 0.7071 0.7071 -458.5694 368.5881)" class="st2" width="9.1" height="1310.5"/>
				</g>
				<g id="XMLID_601_">
					
						<rect id="XMLID_602_" x="211.1" y="106.5" transform="matrix(0.7071 -0.7071 0.7071 0.7071 -475.4751 375.5906)" class="st2" width="9.1" height="1310.5"/>
				</g>
				<g id="XMLID_598_">
					
						<rect id="XMLID_599_" x="211.1" y="130.4" transform="matrix(0.7071 -0.7071 0.7071 0.7071 -492.3808 382.5932)" class="st2" width="9.1" height="1310.5"/>
				</g>
			</g>
		</g>
	</g>
</g>
</svg>
