<?xml version="1.0" encoding="utf-8"?>
<!-- Generator: Adobe Illustrator 19.0.0, SVG Export Plug-In . SVG Version: 6.00 Build 0)  -->
<svg version="1.1" id="Capa_1" xmlns="http://www.w3.org/2000/svg" xmlns:xlink="http://www.w3.org/1999/xlink" x="0px" y="0px"
	 width="36px" height="36px" viewBox="-279 402.9 36 36" style="enable-background:new -279 402.9 36 36;" xml:space="preserve">
<style type="text/css">
	.st0{fill:url(#XMLID_2_);}
	.st1{fill:#FFFFFF;}
</style>
<linearGradient id="XMLID_2_" gradientUnits="userSpaceOnUse" x1="-279" y1="420.78" x2="-243" y2="420.78" gradientTransform="matrix(1 0 0 -1 0 841.67)">
	<stop  offset="0" style="stop-color:#BD3273"/>
	<stop  offset="1" style="stop-color:#C34635"/>
</linearGradient>
<circle id="XMLID_39_" class="st0" cx="-261" cy="420.9" r="18"/>
<g>
	<path class="st1" d="M-261,410.5c-5,0-9.1,1.3-9.1,3c0,0.4,1.1,6.8,1.5,9.3c0.2,1.2,3.1,2.8,7.6,2.8c4.5,0,7.4-1.6,7.6-2.8
		c0.4-2.5,1.5-8.9,1.5-9.3C-251.9,411.9-256,410.5-261,410.5z M-261,423.6c-1.6,0-2.9-1.3-2.9-2.9s1.3-2.9,2.9-2.9s2.9,1.3,2.9,2.9
		C-258.1,422.3-259.4,423.6-261,423.6z M-261,414.5c-3.2,0-5.8-0.5-5.8-1.3c0-0.7,2.6-1.3,5.8-1.3s5.8,0.5,5.8,1.3
		C-255.2,413.9-257.8,414.5-261,414.5z"/>
	<path class="st1" d="M-254.4,425.3c-0.2,0-0.3,0.1-0.3,0.1s-2.2,1.8-6.3,1.8c-4,0-6.3-1.8-6.3-1.8s-0.2-0.1-0.3-0.1
		c-0.2,0-0.4,0.1-0.4,0.4v0.1c0.4,1.9,0.6,3.2,0.6,3.4c0.3,1.3,3,2.4,6.2,2.4s5.9-1.1,6.2-2.4c0-0.2,0.3-1.5,0.6-3.4v-0.1
		C-254.1,425.5-254.2,425.3-254.4,425.3L-254.4,425.3z"/>
	<circle class="st1" cx="-261" cy="420.7" r="1.4"/>
</g>
</svg>
