<?xml version="1.0" encoding="utf-8"?>
<!-- Generator: Adobe Illustrator 19.0.0, SVG Export Plug-In . SVG Version: 6.00 Build 0)  -->
<svg version="1.1" id="Capa_1" xmlns="http://www.w3.org/2000/svg" xmlns:xlink="http://www.w3.org/1999/xlink" x="0px" y="0px"
	 width="36px" height="36px" viewBox="-279 402.9 36 36" style="enable-background:new -279 402.9 36 36;" xml:space="preserve">
<style type="text/css">
	.st0{fill:url(#XMLID_2_);}
	.st1{fill-rule:evenodd;clip-rule:evenodd;fill:#FFFFFF;}
</style>
<linearGradient id="XMLID_2_" gradientUnits="userSpaceOnUse" x1="-279" y1="420.78" x2="-243" y2="420.78" gradientTransform="matrix(1 0 0 -1 0 841.67)">
	<stop  offset="0" style="stop-color:#BD3273"/>
	<stop  offset="1" style="stop-color:#C34635"/>
</linearGradient>
<circle id="XMLID_39_" class="st0" cx="-261" cy="420.9" r="18"/>
<g>
	<path class="st1" d="M-257.6,426.6c0-1.2-0.4-2-0.9-2.5c3-0.3,6-1.4,6-6.5c0-1.4-0.5-2.6-1.4-3.6c0.1-0.3,0.6-1.7-0.1-3.5
		c0,0-1.1-0.4-3.6,1.4c-1.1-0.3-2.2-0.4-3.3-0.4c-1.1,0-2.3,0.2-3.3,0.4c-2.5-1.7-3.6-1.4-3.6-1.4c-0.7,1.8-0.3,3.2-0.1,3.5
		c-0.8,0.9-1.4,2.1-1.4,3.6c0,5.1,3.1,6.2,6,6.5c-0.4,0.3-0.7,0.9-0.8,1.8c-0.8,0.3-2.7,0.9-3.9-1.1c0,0-0.7-1.3-2-1.4
		c0,0-1.3,0-0.1,0.8c0,0,0.9,0.4,1.5,1.9c0,0,0.8,2.6,4.5,1.8c0,1.1,0,1.9,0,2.3c0,0.1,0,0.3-0.1,0.4c1.1,0.3,2.2,0.5,3.4,0.5
		c1.2,0,2.3-0.2,3.4-0.5c-0.1-0.1-0.1-0.3-0.1-0.4C-257.6,429.8-257.6,428.4-257.6,426.6z"/>
</g>
</svg>
