<svg version="1.1" xmlns="http://www.w3.org/2000/svg" xmlns:xlink="http://www.w3.org/1999/xlink" x="0px" y="0px" viewBox="0 0 36 36" style="enable-background:new 0 0 36 36;" xml:space="preserve"><g><path fill="#FFFFFF" d="M18,7.6c-5,0-9.1,1.3-9.1,3c0,0.4,1.1,6.8,1.5,9.3c0.2,1.2,3.1,2.8,7.6,2.8s7.4-1.6,7.6-2.8 c0.4-2.5,1.5-8.9,1.5-9.3C27.1,9,23,7.6,18,7.6z M18,20.7c-1.6,0-2.9-1.3-2.9-2.9s1.3-2.9,2.9-2.9s2.9,1.3,2.9,2.9 C20.9,19.4,19.6,20.7,18,20.7z M18,11.6c-3.2,0-5.8-0.5-5.8-1.3C12.2,9.6,14.8,9,18,9s5.8,0.5,5.8,1.3C23.8,11,21.2,11.6,18,11.6z" /><path fill="#FFFFFF" d="M24.6,22.4c-0.2,0-0.3,0.1-0.3,0.1s-2.2,1.8-6.3,1.8c-4,0-6.3-1.8-6.3-1.8s-0.2-0.1-0.3-0.1 c-0.2,0-0.4,0.1-0.4,0.4v0.1c0.4,1.9,0.6,3.2,0.6,3.4c0.3,1.3,3,2.4,6.2,2.4s5.9-1.1,6.2-2.4c0-0.2,0.3-1.5,0.6-3.4v-0.1 C24.9,22.6,24.8,22.4,24.6,22.4L24.6,22.4z"/><circle fill="#FFFFFF" cx="18" cy="17.8" r="1.4"/></g></svg>
