<svg xmlns="http://www.w3.org/2000/svg" xmlns:xlink="http://www.w3.org/1999/xlink" preserveAspectRatio="xMidYMid" width="16" height="14" viewBox="0 0 16 14">
  <defs>
    <style>
      .cls-1 {
        fill: #393b48;
        filter: url(#color-overlay-1);
        fill-rule: evenodd;
      }
    </style>

    <filter id="color-overlay-1" filterUnits="userSpaceOnUse">
      <feFlood flood-color="#fff"/>
      <feComposite operator="in" in2="SourceGraphic"/>
      <feBlend in2="SourceGraphic" result="solidFill"/>
    </filter>
  </defs>
  <path d="M14.176,14.000 L1.824,14.000 C0.817,14.000 -0.000,13.183 -0.000,12.176 C-0.000,10.124 1.191,8.251 2.992,7.439 C1.806,6.744 1.000,5.471 1.000,4.000 C1.000,1.794 2.794,-0.000 5.000,-0.000 C7.206,-0.000 9.000,1.794 9.000,4.000 C9.000,5.465 8.200,6.734 7.023,7.431 C7.885,7.816 8.620,8.437 9.144,9.212 C10.033,8.301 11.346,7.806 12.758,8.071 C14.675,8.430 16.000,10.211 16.000,12.160 L16.000,12.176 C16.000,13.183 15.183,14.000 14.176,14.000 ZM5.000,2.000 C3.897,2.000 3.000,2.897 3.000,4.000 C3.000,5.102 3.897,6.000 5.000,6.000 C6.102,6.000 7.000,5.102 7.000,4.000 C7.000,2.897 6.102,2.000 5.000,2.000 ZM5.000,9.000 C3.346,9.000 2.000,10.346 2.000,12.000 L8.000,12.000 C8.000,10.346 6.654,9.000 5.000,9.000 ZM12.000,10.000 C10.897,10.000 10.000,10.897 10.000,12.000 L14.000,12.000 C14.000,10.897 13.103,10.000 12.000,10.000 ZM12.000,8.000 C10.895,8.000 10.000,7.104 10.000,6.000 C10.000,4.895 10.895,4.000 12.000,4.000 C13.105,4.000 14.000,4.895 14.000,6.000 C14.000,7.104 13.105,8.000 12.000,8.000 Z" class="cls-1"/>
</svg>
