<?xml version="1.0" encoding="utf-8"?>
<!-- Generator: Adobe Illustrator 19.0.0, SVG Export Plug-In . SVG Version: 6.00 Build 0)  -->
<svg version="1.1" id="Capa_1" xmlns="http://www.w3.org/2000/svg" xmlns:xlink="http://www.w3.org/1999/xlink" x="0px" y="0px"
	 width="36px" height="36px" viewBox="0 0 36 36" style="enable-background:new 0 0 36 36;" xml:space="preserve">
<style type="text/css">
	.st0{fill:#898989;}
	.st1{fill:#FFFFFF;}
</style>
<circle id="XMLID_31_" class="st0" cx="18" cy="18" r="18"/>
<path id="XMLID_37_" class="st1" d="M26.3,13.1c0-0.1,0-0.1,0-0.2c0-0.1,0-0.1-0.1-0.2c0,0,0-0.1,0-0.1c0,0,0,0-0.1-0.1
	c0-0.1-0.1-0.1-0.1-0.1c-0.1,0-0.1-0.1-0.2-0.1c-0.1,0-0.1-0.1-0.2-0.1c-0.1,0-0.1,0-0.2,0c0,0-0.1,0-0.1,0H10.7c0,0-0.1,0-0.1,0
	c-0.1,0-0.1,0-0.2,0c-0.1,0-0.1,0-0.2,0.1c-0.1,0-0.1,0.1-0.2,0.1c-0.1,0-0.1,0.1-0.1,0.1c0,0-0.1,0-0.1,0.1c0,0,0,0.1,0,0.1
	c0,0.1-0.1,0.1-0.1,0.2c0,0.1,0,0.1,0,0.2c0,0,0,0.1,0,0.1v9.6c0,0.6,0.4,1,1,1h14.6c0.6,0,1-0.4,1-1L26.3,13.1
	C26.3,13.2,26.3,13.1,26.3,13.1z M22,14.2l-4,2.6l-4-2.6H22z M11.7,21.8v-6.7l5.8,3.8c0.2,0.1,0.4,0.2,0.5,0.2s0.4-0.1,0.5-0.2
	l5.8-3.8v6.7H11.7z"/>
</svg>
