<svg version="1.1" xmlns="http://www.w3.org/2000/svg" xmlns:xlink="http://www.w3.org/1999/xlink" x="0px" y="0px" viewBox="0 0 36 36" style="enable-background:new 0 0 36 36;" xml:space="preserve"><path fill="#FFFFFF" d="M18,12.1l2.1,3.2l1.2,1.8c0.5,0.7,0.8,1.6,0.8,2.4c0,2.3-1.8,4.1-4.1,4.1c-2.3,0-4.1-1.9-4.1-4.1 c0-0.9,0.3-1.7,0.8-2.4l1.2-1.8L18,12.1 M18,9.2c-0.3,0-0.7,0.1-0.9,0.4L13,15.9l0,0c-0.8,1-1.2,2.3-1.2,3.7c0,3.4,2.8,6.2,6.2,6.2 s6.2-2.8,6.2-6.2c0-1.4-0.5-2.6-1.2-3.7l0,0l-4.1-6.2C18.7,9.4,18.3,9.2,18,9.2L18,9.2z"/></svg>
