<svg version="1.1" xmlns="http://www.w3.org/2000/svg" xmlns:xlink="http://www.w3.org/1999/xlink" x="0px" y="0px" viewBox="0 0 36 36" style="enable-background:new 0 0 36 36;" xml:space="preserve">
<g><path fill="#FFFFFF" d="M21.4,23.7c0-1.2-0.4-2-0.9-2.5c3-0.3,6-1.4,6-6.5c0-1.4-0.5-2.6-1.4-3.6c0.1-0.3,0.6-1.7-0.1-3.5 c0,0-1.1-0.4-3.6,1.4c-1.1-0.3-2.2-0.4-3.3-0.4c-1.1,0-2.3,0.2-3.3,0.4c-2.5-1.7-3.6-1.4-3.6-1.4c-0.7,1.8-0.3,3.2-0.1,3.5 c-0.8,0.9-1.4,2.1-1.4,3.6c0,5.1,3.1,6.2,6,6.5c-0.4,0.3-0.7,0.9-0.8,1.8c-0.8,0.3-2.7,0.9-3.9-1.1c0,0-0.7-1.3-2-1.4 c0,0-1.3,0-0.1,0.8c0,0,0.9,0.4,1.5,1.9c0,0,0.8,2.6,4.5,1.8c0,1.1,0,1.9,0,2.3c0,0.1,0,0.3-0.1,0.4c1.1,0.3,2.2,0.5,3.4,0.5 c1.2,0,2.3-0.2,3.4-0.5c-0.1-0.1-0.1-0.3-0.1-0.4C21.4,26.9,21.4,25.5,21.4,23.7z"/></g></svg>
