<?xml version="1.0" encoding="utf-8"?>
<!-- Generator: Adobe Illustrator 19.0.0, SVG Export Plug-In . SVG Version: 6.00 Build 0)  -->
<svg version="1.1" id="Capa_1" xmlns="http://www.w3.org/2000/svg" xmlns:xlink="http://www.w3.org/1999/xlink" x="0px" y="0px"
	 width="36px" height="36px" viewBox="0 0 36 36" style="enable-background:new 0 0 36 36;" xml:space="preserve">
<style type="text/css">
	.st0{fill:url(#XMLID_70_);}
	.st1{fill:#FFFFFF;}
</style>
<linearGradient id="XMLID_70_" gradientUnits="userSpaceOnUse" x1="0" y1="18" x2="36" y2="18">
	<stop  offset="0" style="stop-color:#BD3273"/>
	<stop  offset="1" style="stop-color:#C34635"/>
</linearGradient>
<circle id="XMLID_74_" class="st0" cx="18" cy="18" r="18"/>
<g id="XMLID_85_">
	<path id="XMLID_87_" class="st1" d="M15.3,18.4H21c0,0.1,0,0.2,0,0.2c0,0.1,0,0.2,0,0.4c0,1.9-0.5,3.4-1.6,4.6
		c-1.1,1.2-2.5,1.7-4.1,1.7c-1.9,0-3.5-0.6-4.8-1.9c-1.3-1.2-1.9-2.8-1.9-4.7c0-1.9,0.6-3.5,1.9-4.7s2.9-1.9,4.8-1.9
		c1,0,2,0.2,2.8,0.6c0.8,0.4,1.6,1.1,2.3,1.9l-1.8,1.3c-0.5-0.6-0.9-1-1.4-1.2s-1.1-0.4-1.7-0.4c-1.2,0-2.2,0.4-3,1.2
		c-0.7,0.8-1.1,1.8-1.1,3.1c0,1.3,0.4,2.3,1.1,3.1c0.7,0.8,1.7,1.2,2.9,1.2c0.9,0,1.6-0.2,2.1-0.6c0.5-0.4,0.8-1,0.8-1.6v-0.1h-3
		V18.4z"/>
	<path id="XMLID_89_" class="st1" d="M25.3,13.1h1v2.5h2.5v1h-2.5v2.5h-1v-2.5h-2.5v-1h2.5V13.1z"/>
</g>
</svg>
