<?xml version="1.0" encoding="utf-8"?>
<!-- Generator: Adobe Illustrator 21.1.0, SVG Export Plug-In . SVG Version: 6.00 Build 0)  -->
<svg version="1.1" id="Layer_1" xmlns="http://www.w3.org/2000/svg" xmlns:xlink="http://www.w3.org/1999/xlink" x="0px" y="0px"
	 viewBox="0 0 121 118" style="enable-background:new 0 0 121 118;" xml:space="preserve">
<style type="text/css">
	.st0{fill:#435772;}
</style>
<g id="XMLID_5875_">
	<path id="XMLID_5897_" class="st0" d="M54,44.6c1.1,0,2.1-0.9,2.1-2.1v-7.4c0-1.1-0.9-2.1-2.1-2.1c-1.1,0-2.1,0.9-2.1,2.1v7.4
		C51.9,43.7,52.9,44.6,54,44.6z M53.2,35.2c0-0.5,0.4-0.8,0.8-0.8c0.5,0,0.8,0.4,0.8,0.8v7.4c0,0.5-0.4,0.8-0.8,0.8
		c-0.5,0-0.8-0.4-0.8-0.8V35.2z"/>
	<path id="XMLID_5894_" class="st0" d="M51.9,64.2c0,1.1,0.9,2.1,2.1,2.1c1.1,0,2.1-0.9,2.1-2.1v-7.4c0-1.1-0.9-2.1-2.1-2.1
		c-1.1,0-2.1,0.9-2.1,2.1V64.2z M53.2,56.8c0-0.5,0.4-0.8,0.8-0.8c0.5,0,0.8,0.4,0.8,0.8v7.4c0,0.5-0.4,0.8-0.8,0.8
		c-0.5,0-0.8-0.4-0.8-0.8V56.8z"/>
	<path id="XMLID_5891_" class="st0" d="M64.3,37.4c-0.5,0-1.1,0.2-1.5,0.6l-5.2,5.2c-0.4,0.4-0.6,0.9-0.6,1.5s0.2,1.1,0.6,1.5
		c0.4,0.4,0.9,0.6,1.5,0.6c0.5,0,1.1-0.2,1.5-0.6l5.2-5.2c0.4-0.4,0.6-0.9,0.6-1.5s-0.2-1.1-0.6-1.5C65.3,37.6,64.8,37.4,64.3,37.4z
		 M58.4,45.2c-0.2-0.2-0.2-0.4-0.2-0.6c0-0.2,0.1-0.4,0.2-0.6l5.2-5.2c0.2-0.2,0.4-0.2,0.6-0.2c0.2,0,0.4,0.1,0.6,0.2
		c0.2,0.2,0.2,0.4,0.2,0.6c0,0.2-0.1,0.4-0.2,0.6l-5.2,5.2C59.3,45.6,58.8,45.6,58.4,45.2z"/>
	<path id="XMLID_5888_" class="st0" d="M51,54.7c0-0.5-0.2-1.1-0.6-1.5c-0.8-0.8-2.1-0.8-2.9,0l-5.2,5.2c-0.4,0.4-0.6,0.9-0.6,1.5
		s0.2,1.1,0.6,1.5c0.4,0.4,0.9,0.6,1.5,0.6c0.5,0,1.1-0.2,1.5-0.6l5.2-5.2C50.8,55.8,51,55.3,51,54.7z M49.5,55.3l-5.2,5.2
		c-0.3,0.3-0.9,0.3-1.2,0c-0.2-0.2-0.2-0.4-0.2-0.6c0-0.2,0.1-0.4,0.2-0.6l5.2-5.2c0.2-0.2,0.4-0.2,0.6-0.2c0.2,0,0.4,0.1,0.6,0.2
		c0.2,0.2,0.2,0.4,0.2,0.6S49.7,55.2,49.5,55.3z"/>
	<path id="XMLID_5885_" class="st0" d="M59.1,49.7c0,1.1,0.9,2.1,2.1,2.1h7.4c1.1,0,2.1-0.9,2.1-2.1c0-1.1-0.9-2.1-2.1-2.1h-7.4
		C60,47.6,59.1,48.6,59.1,49.7z M69.3,49.7c0,0.5-0.4,0.8-0.8,0.8h-7.4c-0.5,0-0.8-0.4-0.8-0.8c0-0.5,0.4-0.8,0.8-0.8h7.4
		C69,48.9,69.3,49.2,69.3,49.7z"/>
	<path id="XMLID_5882_" class="st0" d="M39.5,51.8h7.4c1.1,0,2.1-0.9,2.1-2.1c0-1.1-0.9-2.1-2.1-2.1h-7.4c-1.1,0-2.1,0.9-2.1,2.1
		C37.4,50.8,38.3,51.8,39.5,51.8z M39.5,48.9h7.4c0.5,0,0.8,0.4,0.8,0.8c0,0.5-0.4,0.8-0.8,0.8h-7.4c-0.5,0-0.8-0.4-0.8-0.8
		C38.6,49.2,39,48.9,39.5,48.9z"/>
	<path id="XMLID_5879_" class="st0" d="M47.5,46.1c0.4,0.4,0.9,0.6,1.5,0.6c0.5,0,1.1-0.2,1.5-0.6c0.4-0.4,0.6-0.9,0.6-1.5
		s-0.2-1.1-0.6-1.5L45.2,38c-0.8-0.8-2.1-0.8-2.9,0c-0.4,0.4-0.6,0.9-0.6,1.5s0.2,1.1,0.6,1.5L47.5,46.1z M43.1,38.8
		c0.2-0.2,0.4-0.2,0.6-0.2c0.2,0,0.4,0.1,0.6,0.2l5.2,5.2c0.2,0.2,0.2,0.4,0.2,0.6c0,0.2-0.1,0.4-0.2,0.6c-0.3,0.3-0.9,0.3-1.2,0
		L43.1,40c-0.2-0.2-0.2-0.4-0.2-0.6C42.9,39.2,43,39,43.1,38.8z"/>
	<path id="XMLID_5876_" class="st0" d="M83.5,64.3c0-0.3-0.2-0.5-0.5-0.7L58.9,53.2c-0.3-0.1-0.6-0.1-0.8,0.1
		c-0.2,0.2-0.4,0.5-0.3,0.8L61,80.1c0,0.3,0.2,0.5,0.5,0.7c0.3,0.1,0.6,0.1,0.8-0.1l6-4.5l6.3,8.4c0.2,0.2,0.4,0.3,0.7,0.3
		c0.2,0,0.3-0.1,0.5-0.2l7.4-5.6c0.2-0.1,0.3-0.3,0.3-0.5c0-0.2,0-0.4-0.2-0.6l-6.3-8.4l6-4.5C83.4,64.9,83.5,64.6,83.5,64.3z
		 M75.5,68.8c-0.2,0.1-0.3,0.3-0.3,0.5c0,0.2,0,0.4,0.2,0.6l6.3,8.4l-6.1,4.6l-6.3-8.4c-0.2-0.2-0.4-0.3-0.7-0.3
		c-0.2,0-0.3,0.1-0.5,0.2l-5.6,4.2l-2.9-23.2L81,64.6L75.5,68.8z"/>
</g>
</svg>
