<?xml version="1.0" encoding="utf-8"?>
<!-- Generator: Adobe Illustrator 21.1.0, SVG Export Plug-In . SVG Version: 6.00 Build 0)  -->
<svg version="1.1" id="Capa_1" xmlns="http://www.w3.org/2000/svg" xmlns:xlink="http://www.w3.org/1999/xlink" x="0px" y="0px"
	 viewBox="0 0 316.7 377.6" style="enable-background:new 0 0 316.7 377.6;" xml:space="preserve">
<style type="text/css">
	.st0{fill:#435772;}
</style>
<g>
	<g id="In">
		<g>
			<path class="st0" d="M122.7,191.5c0,2.3,0.9,4.3,2.4,5.8l27.4,27.4c1.5,1.5,3.5,2.4,5.8,2.4c2.3,0,4.3-0.9,5.8-2.4l27.4-27.4
				c1.5-1.5,2.4-3.5,2.4-5.8c0-4.5-3.7-8.2-8.2-8.2c-2.3,0-4.3,0.9-5.8,2.4l-13.4,13.4v-89.9c0-4.5-3.7-8.2-8.2-8.2
				s-8.2,3.7-8.2,8.2v89.9l-13.4-13.4c-1.5-1.5-3.5-2.4-5.8-2.4C126.4,183.3,122.7,187,122.7,191.5z M221.4,139.4h-30.2
				c-4.5,0-8.2,3.7-8.2,8.2s3.7,8.2,8.2,8.2h24.7v104.2H100.7V155.9h24.7c4.5,0,8.2-3.7,8.2-8.2s-3.7-8.2-8.2-8.2H95.2
				c-6.1,0-11,4.9-11,11v115.2c0,6,4.9,11,11,11h126.2c6.1,0,11-4.9,11-11V150.4C232.4,144.3,227.5,139.4,221.4,139.4z"/>
		</g>
	</g>
</g>
</svg>
