<svg version="1.1" xmlns="http://www.w3.org/2000/svg" xmlns:xlink="http://www.w3.org/1999/xlink" x="0px" y="0px" viewBox="0 0 36 36" style="enable-background:new 0 0 36 36;" xml:space="preserve"><g><path fill="#FFFFFF" d="M14.1,23.5v-9.3H11v9.3H14.1L14.1,23.5z M12.5,13c1.1,0,1.7-0.7,1.7-1.6c0-0.9-0.7-1.6-1.7-1.6 c-1.1,0-1.7,0.7-1.7,1.6S11.5,13,12.5,13L12.5,13L12.5,13z"/><path fill="#FFFFFF"  d="M15.8,23.5h3.1v-5.2c0-0.3,0-0.6,0.1-0.8c0.2-0.6,0.7-1.1,1.6-1.1c1.1,0,1.6,0.8,1.6,2.1v5h3.1 v-5.3c0-2.8-1.5-4.2-3.5-4.2c-1.7,0-2.4,0.9-2.8,1.6l0,0v-1.3h-3.1C15.8,15.1,15.8,23.5,15.8,23.5L15.8,23.5z"/></g></svg>
