<?xml version="1.0" encoding="utf-8"?>
<!-- Generator: Adobe Illustrator 19.0.0, SVG Export Plug-In . SVG Version: 6.00 Build 0)  -->
<svg version="1.1" id="Слой_1" xmlns="http://www.w3.org/2000/svg" xmlns:xlink="http://www.w3.org/1999/xlink" x="0px" y="0px"
	 width="23.9px" height="20.9px" viewBox="-862.8 220.1 23.9 20.9" style="enable-background:new -862.8 220.1 23.9 20.9;"
	 xml:space="preserve">
<style type="text/css">
	.st0{opacity:0.5;}
	.st1{fill:#FFFFFF;}
</style>
<g id="text" class="st0">
</g>
<g>
	<g>
		<path class="st1" d="M-840.4,229.1h-20.9c-0.9,0-1.5,0.6-1.5,1.5s0.6,1.5,1.5,1.5h20.9c0.9,0,1.5-0.6,1.5-1.5
			S-839.5,229.1-840.4,229.1z"/>
	</g>
	<g>
		<path class="st1" d="M-861.3,223.1h20.9c0.9,0,1.5-0.6,1.5-1.5s-0.6-1.5-1.5-1.5h-20.9c-0.9,0-1.5,0.6-1.5,1.5
			S-862.2,223.1-861.3,223.1z"/>
	</g>
	<g>
		<path class="st1" d="M-840.4,238h-20.9c-0.9,0-1.5,0.6-1.5,1.5s0.6,1.5,1.5,1.5h20.9c0.9,0,1.5-0.6,1.5-1.5S-839.5,238-840.4,238z
			"/>
	</g>
</g>
</svg>
