<?xml version="1.0" encoding="utf-8"?>
<!-- Generator: Adobe Illustrator 19.0.0, SVG Export Plug-In . SVG Version: 6.00 Build 0)  -->
<svg version="1.1" xmlns="http://www.w3.org/2000/svg" xmlns:xlink="http://www.w3.org/1999/xlink" x="0px" y="0px" width="203.2px"
	 height="362.1px" viewBox="0 0 203.2 362.1" style="enable-background:new 0 0 203.2 362.1;" xml:space="preserve">
<style type="text/css">
	.st0{fill:#FFFFFF;}
	.st1{clip-path:url(#XMLID_15_);}
	.st2{fill:#1123C9;}
</style>
<g id="Capa_14_copia">
	<g id="XMLID_532_">
		<path id="XMLID_587_" class="st0" d="M64.3,0v69.4c38.4,0,69.4,31.1,69.4,69.4s-31.1,69.4-69.4,69.4H0v153.7h64.3v-84.3
			c76.7,0,138.9-62.2,138.9-138.9C203.2,62.2,141,0,64.3,0z"/>
	</g>
</g>
<g id="Capa_15">
	<g id="XMLID_590_">
		<defs>
			<path id="XMLID_531_" d="M64.3,0v69.4c38.4,0,69.4,31.1,69.4,69.4s-31.1,69.4-69.4,69.4H0v153.7h64.3v-84.3
				c76.7,0,138.9-62.2,138.9-138.9C203.2,62.2,141,0,64.3,0z"/>
		</defs>
		<clipPath id="XMLID_15_">
			<use xlink:href="#XMLID_531_"  style="overflow:visible;"/>
		</clipPath>
		<g id="XMLID_534_" class="st1">
			<g id="XMLID_777_">
				<path id="XMLID_589_" class="st2" d="M1072.4-320.7c-15.7,0-23.9-4.7-31.2-8.9c-6.9-4-13.4-7.7-26.6-7.7
					c-13.2,0-19.7,3.7-26.6,7.7c-7.3,4.2-15.5,8.9-31.2,8.9s-23.9-4.7-31.2-8.9c-6.9-4-13.4-7.7-26.6-7.7s-19.7,3.7-26.6,7.7
					c-7.3,4.2-15.5,8.9-31.2,8.9c-15.7,0-23.9-4.7-31.2-8.9c-6.9-4-13.4-7.7-26.6-7.7c-13.2,0-19.7,3.7-26.6,7.7
					c-7.3,4.2-15.5,8.9-31.2,8.9c-15.7,0-23.9-4.7-31.2-8.9c-6.9-4-13.4-7.7-26.6-7.7c-13.2,0-19.7,3.7-26.6,7.7
					c-7.3,4.2-15.5,8.9-31.2,8.9c-15.7,0-23.9-4.7-31.2-8.9c-6.9-4-13.4-7.7-26.6-7.7c-13.2,0-19.7,3.7-26.6,7.7
					c-7.3,4.2-15.5,8.9-31.2,8.9c-15.7,0-23.9-4.7-31.2-8.9c-6.9-4-13.4-7.7-26.6-7.7c-13.2,0-19.7,3.7-26.6,7.7
					c-7.3,4.2-15.5,8.9-31.2,8.9c-15.7,0-23.9-4.7-31.2-8.9c-6.9-4-13.4-7.7-26.6-7.7c-13.2,0-19.7,3.7-26.6,7.7
					c-7.3,4.2-15.5,8.9-31.2,8.9s-23.9-4.7-31.2-8.9c-6.9-4-13.4-7.7-26.6-7.7c-13.2,0-19.7,3.7-26.6,7.7
					c-7.3,4.2-15.5,8.9-31.2,8.9c-15.7,0-23.9-4.7-31.2-8.9c-6.9-4-13.4-7.7-26.6-7.7c-13.2,0-19.7,3.7-26.6,7.7
					c-7.3,4.2-15.5,8.9-31.2,8.9c-15.7,0-23.9-4.7-31.2-8.9c-6.9-4-13.4-7.7-26.6-7.7c-13.2,0-19.7,3.7-26.6,7.7
					c-7.3,4.2-15.5,8.9-31.2,8.9c-15.7,0-23.9-4.7-31.2-8.9c-6.9-4-13.4-7.7-26.6-7.7c-13.2,0-19.7,3.7-26.6,7.7
					c-7.3,4.2-15.5,8.9-31.2,8.9c-15.7,0-23.9-4.7-31.2-8.9c-6.9-4-13.4-7.7-26.6-7.7v-9.2c15.7,0,23.9,4.7,31.2,8.9
					c6.9,4,13.4,7.7,26.6,7.7c13.2,0,19.7-3.7,26.6-7.7c7.3-4.2,15.5-8.9,31.2-8.9c15.7,0,23.9,4.7,31.2,8.9
					c6.9,4,13.4,7.7,26.6,7.7c13.2,0,19.7-3.7,26.6-7.7c7.3-4.2,15.5-8.9,31.2-8.9s23.9,4.7,31.2,8.9c6.9,4,13.4,7.7,26.6,7.7
					s19.7-3.7,26.6-7.7c7.3-4.2,15.5-8.9,31.2-8.9c15.7,0,23.9,4.7,31.2,8.9c6.9,4,13.4,7.7,26.6,7.7s19.7-3.7,26.6-7.7
					c7.3-4.2,15.5-8.9,31.2-8.9c15.7,0,23.9,4.7,31.2,8.9c6.9,4,13.4,7.7,26.6,7.7c13.2,0,19.7-3.7,26.6-7.7
					c7.3-4.2,15.5-8.9,31.2-8.9c15.7,0,23.9,4.7,31.2,8.9c6.9,4,13.4,7.7,26.6,7.7c13.2,0,19.7-3.7,26.6-7.7
					c7.3-4.2,15.5-8.9,31.2-8.9s23.9,4.7,31.2,8.9c6.9,4,13.4,7.7,26.6,7.7s19.7-3.7,26.6-7.7c7.3-4.2,15.5-8.9,31.2-8.9
					c15.7,0,23.9,4.7,31.2,8.9c6.9,4,13.4,7.7,26.6,7.7c13.2,0,19.7-3.7,26.6-7.7c7.3-4.2,15.5-8.9,31.2-8.9
					c15.7,0,23.9,4.7,31.2,8.9c6.9,4,13.4,7.7,26.6,7.7c13.2,0,19.7-3.7,26.6-7.7c7.3-4.2,15.5-8.9,31.2-8.9s23.9,4.7,31.2,8.9
					c6.9,4,13.4,7.7,26.6,7.7c13.2,0,19.7-3.7,26.6-7.7c7.3-4.2,15.5-8.9,31.2-8.9s23.9,4.7,31.2,8.9c6.9,4,13.4,7.7,26.6,7.7
					s19.7-3.7,26.6-7.7c7.3-4.2,15.5-8.9,31.2-8.9c15.7,0,23.9,4.7,31.2,8.9c6.9,4,13.4,7.7,26.6,7.7s19.7-3.7,26.6-7.7
					c7.3-4.2,15.5-8.9,31.2-8.9v9.2c-13.2,0-19.7,3.7-26.6,7.7C1096.3-325.4,1088.1-320.7,1072.4-320.7z"/>
			</g>
			<g id="XMLID_774_">
				<path id="XMLID_586_" class="st2" d="M1072.4-297.2c-15.7,0-23.9-4.7-31.2-8.9c-6.9-4-13.4-7.7-26.6-7.7
					c-13.2,0-19.7,3.7-26.6,7.7c-7.3,4.2-15.5,8.9-31.2,8.9s-23.9-4.7-31.2-8.9c-6.9-4-13.4-7.7-26.6-7.7s-19.7,3.7-26.6,7.7
					c-7.3,4.2-15.5,8.9-31.2,8.9c-15.7,0-23.9-4.7-31.2-8.9c-6.9-4-13.4-7.7-26.6-7.7c-13.2,0-19.7,3.7-26.6,7.7
					c-7.3,4.2-15.5,8.9-31.2,8.9c-15.7,0-23.9-4.7-31.2-8.9c-6.9-4-13.4-7.7-26.6-7.7c-13.2,0-19.7,3.7-26.6,7.7
					c-7.3,4.2-15.5,8.9-31.2,8.9c-15.7,0-23.9-4.7-31.2-8.9c-6.9-4-13.4-7.7-26.6-7.7c-13.2,0-19.7,3.7-26.6,7.7
					c-7.3,4.2-15.5,8.9-31.2,8.9c-15.7,0-23.9-4.7-31.2-8.9c-6.9-4-13.4-7.7-26.6-7.7c-13.2,0-19.7,3.7-26.6,7.7
					c-7.3,4.2-15.5,8.9-31.2,8.9c-15.7,0-23.9-4.7-31.2-8.9c-6.9-4-13.4-7.7-26.6-7.7c-13.2,0-19.7,3.7-26.6,7.7
					c-7.3,4.2-15.5,8.9-31.2,8.9s-23.9-4.7-31.2-8.9c-6.9-4-13.4-7.7-26.6-7.7c-13.2,0-19.7,3.7-26.6,7.7
					c-7.3,4.2-15.5,8.9-31.2,8.9c-15.7,0-23.9-4.7-31.2-8.9c-6.9-4-13.4-7.7-26.6-7.7s-19.7,3.7-26.6,7.7
					c-7.3,4.2-15.5,8.9-31.2,8.9c-15.7,0-23.9-4.7-31.2-8.9c-6.9-4-13.4-7.7-26.6-7.7c-13.2,0-19.7,3.7-26.6,7.7
					c-7.3,4.2-15.5,8.9-31.2,8.9c-15.7,0-23.9-4.7-31.2-8.9c-6.9-4-13.4-7.7-26.6-7.7c-13.2,0-19.7,3.7-26.6,7.7
					c-7.3,4.2-15.5,8.9-31.2,8.9s-23.9-4.7-31.2-8.9c-6.9-4-13.4-7.7-26.6-7.7v-9.2c15.7,0,23.9,4.7,31.2,8.9
					c6.9,4,13.4,7.7,26.6,7.7c13.2,0,19.7-3.7,26.6-7.7c7.3-4.2,15.5-8.9,31.2-8.9c15.7,0,23.9,4.7,31.2,8.9
					c6.9,4,13.4,7.7,26.6,7.7c13.2,0,19.7-3.7,26.6-7.7c7.3-4.2,15.5-8.9,31.2-8.9s23.9,4.7,31.2,8.9c6.9,4,13.4,7.7,26.6,7.7
					c13.2,0,19.7-3.7,26.6-7.7c7.3-4.2,15.5-8.9,31.2-8.9c15.7,0,23.9,4.7,31.2,8.9c6.9,4,13.4,7.7,26.6,7.7s19.7-3.7,26.6-7.7
					c7.3-4.2,15.5-8.9,31.2-8.9c15.7,0,23.9,4.7,31.2,8.9c6.9,4,13.4,7.7,26.6,7.7c13.2,0,19.7-3.7,26.6-7.7
					c7.3-4.2,15.5-8.9,31.2-8.9c15.7,0,23.9,4.7,31.2,8.9c6.9,4,13.4,7.7,26.6,7.7c13.2,0,19.7-3.7,26.6-7.7
					c7.3-4.2,15.5-8.9,31.2-8.9s23.9,4.7,31.2,8.9c6.9,4,13.4,7.7,26.6,7.7s19.7-3.7,26.6-7.7c7.3-4.2,15.5-8.9,31.2-8.9
					c15.7,0,23.9,4.7,31.2,8.9c6.9,4,13.4,7.7,26.6,7.7c13.2,0,19.7-3.7,26.6-7.7c7.3-4.2,15.5-8.9,31.2-8.9
					c15.7,0,23.9,4.7,31.2,8.9c6.9,4,13.4,7.7,26.6,7.7c13.2,0,19.7-3.7,26.6-7.7c7.3-4.2,15.5-8.9,31.2-8.9s23.9,4.7,31.2,8.9
					c6.9,4,13.4,7.7,26.6,7.7c13.2,0,19.7-3.7,26.6-7.7c7.3-4.2,15.5-8.9,31.2-8.9s23.9,4.7,31.2,8.9c6.9,4,13.4,7.7,26.6,7.7
					s19.7-3.7,26.6-7.7c7.3-4.2,15.5-8.9,31.2-8.9c15.7,0,23.9,4.7,31.2,8.9c6.9,4,13.4,7.7,26.6,7.7s19.7-3.7,26.6-7.7
					c7.3-4.2,15.5-8.9,31.2-8.9v9.2c-13.2,0-19.7,3.7-26.6,7.7C1096.3-301.9,1088.1-297.2,1072.4-297.2z"/>
			</g>
			<g id="XMLID_771_">
				<path id="XMLID_585_" class="st2" d="M1072.4-273.7c-15.7,0-23.9-4.7-31.2-8.9c-6.9-4-13.4-7.7-26.6-7.7
					c-13.2,0-19.7,3.7-26.6,7.7c-7.3,4.2-15.5,8.9-31.2,8.9s-23.9-4.7-31.2-8.9c-6.9-4-13.4-7.7-26.6-7.7s-19.7,3.7-26.6,7.7
					c-7.3,4.2-15.5,8.9-31.2,8.9c-15.7,0-23.9-4.7-31.2-8.9c-6.9-4-13.4-7.7-26.6-7.7c-13.2,0-19.7,3.7-26.6,7.7
					c-7.3,4.2-15.5,8.9-31.2,8.9c-15.7,0-23.9-4.7-31.2-8.9c-6.9-4-13.4-7.7-26.6-7.7c-13.2,0-19.7,3.7-26.6,7.7
					c-7.3,4.2-15.5,8.9-31.2,8.9c-15.7,0-23.9-4.7-31.2-8.9c-6.9-4-13.4-7.7-26.6-7.7c-13.2,0-19.7,3.7-26.6,7.7
					c-7.3,4.2-15.5,8.9-31.2,8.9c-15.7,0-23.9-4.7-31.2-8.9c-6.9-4-13.4-7.7-26.6-7.7c-13.2,0-19.7,3.7-26.6,7.7
					c-7.3,4.2-15.5,8.9-31.2,8.9c-15.7,0-23.9-4.7-31.2-8.9c-6.9-4-13.4-7.7-26.6-7.7c-13.2,0-19.7,3.7-26.6,7.7
					c-7.3,4.2-15.5,8.9-31.2,8.9s-23.9-4.7-31.2-8.9c-6.9-4-13.4-7.7-26.6-7.7c-13.2,0-19.7,3.7-26.6,7.7
					c-7.3,4.2-15.5,8.9-31.2,8.9c-15.7,0-23.9-4.7-31.2-8.9c-6.9-4-13.4-7.7-26.6-7.7c-13.2,0-19.7,3.7-26.6,7.7
					c-7.3,4.2-15.5,8.9-31.2,8.9c-15.7,0-23.9-4.7-31.2-8.9c-6.9-4-13.4-7.7-26.6-7.7c-13.2,0-19.7,3.7-26.6,7.7
					c-7.3,4.2-15.5,8.9-31.2,8.9c-15.7,0-23.9-4.7-31.2-8.9c-6.9-4-13.4-7.7-26.6-7.7c-13.2,0-19.7,3.7-26.6,7.7
					c-7.3,4.2-15.5,8.9-31.2,8.9c-15.7,0-23.9-4.7-31.2-8.9c-6.9-4-13.4-7.7-26.6-7.7v-9.2c15.7,0,23.9,4.7,31.2,8.9
					c6.9,4,13.4,7.7,26.6,7.7c13.2,0,19.7-3.7,26.6-7.7c7.3-4.2,15.5-8.9,31.2-8.9c15.7,0,23.9,4.7,31.2,8.9
					c6.9,4,13.4,7.7,26.6,7.7c13.2,0,19.7-3.7,26.6-7.7c7.3-4.2,15.5-8.9,31.2-8.9s23.9,4.7,31.2,8.9c6.9,4,13.4,7.7,26.6,7.7
					s19.7-3.7,26.6-7.7c7.3-4.2,15.5-8.9,31.2-8.9c15.7,0,23.9,4.7,31.2,8.9c6.9,4,13.4,7.7,26.6,7.7s19.7-3.7,26.6-7.7
					c7.3-4.2,15.5-8.9,31.2-8.9c15.7,0,23.9,4.7,31.2,8.9c6.9,4,13.4,7.7,26.6,7.7c13.2,0,19.7-3.7,26.6-7.7
					c7.3-4.2,15.5-8.9,31.2-8.9c15.7,0,23.9,4.7,31.2,8.9c6.9,4,13.4,7.7,26.6,7.7c13.2,0,19.7-3.7,26.6-7.7
					c7.3-4.2,15.5-8.9,31.2-8.9s23.9,4.7,31.2,8.9c6.9,4,13.4,7.7,26.6,7.7s19.7-3.7,26.6-7.7c7.3-4.2,15.5-8.9,31.2-8.9
					c15.7,0,23.9,4.7,31.2,8.9c6.9,4,13.4,7.7,26.6,7.7c13.2,0,19.7-3.7,26.6-7.7c7.3-4.2,15.5-8.9,31.2-8.9
					c15.7,0,23.9,4.7,31.2,8.9c6.9,4,13.4,7.7,26.6,7.7c13.2,0,19.7-3.7,26.6-7.7c7.3-4.2,15.5-8.9,31.2-8.9s23.9,4.7,31.2,8.9
					c6.9,4,13.4,7.7,26.6,7.7c13.2,0,19.7-3.7,26.6-7.7c7.3-4.2,15.5-8.9,31.2-8.9s23.9,4.7,31.2,8.9c6.9,4,13.4,7.7,26.6,7.7
					s19.7-3.7,26.6-7.7c7.3-4.2,15.5-8.9,31.2-8.9c15.7,0,23.9,4.7,31.2,8.9c6.9,4,13.4,7.7,26.6,7.7s19.7-3.7,26.6-7.7
					c7.3-4.2,15.5-8.9,31.2-8.9v9.2c-13.2,0-19.7,3.7-26.6,7.7C1096.3-278.5,1088.1-273.7,1072.4-273.7z"/>
			</g>
			<g id="XMLID_768_">
				<path id="XMLID_583_" class="st2" d="M1072.4-250.3c-15.7,0-23.9-4.7-31.2-8.9c-6.9-4-13.4-7.7-26.6-7.7
					c-13.2,0-19.7,3.7-26.6,7.7c-7.3,4.2-15.5,8.9-31.2,8.9s-23.9-4.7-31.2-8.9c-6.9-4-13.4-7.7-26.6-7.7s-19.7,3.7-26.6,7.7
					c-7.3,4.2-15.5,8.9-31.2,8.9c-15.7,0-23.9-4.7-31.2-8.9c-6.9-4-13.4-7.7-26.6-7.7c-13.2,0-19.7,3.7-26.6,7.7
					c-7.3,4.2-15.5,8.9-31.2,8.9c-15.7,0-23.9-4.7-31.2-8.9c-6.9-4-13.4-7.7-26.6-7.7c-13.2,0-19.7,3.7-26.6,7.7
					c-7.3,4.2-15.5,8.9-31.2,8.9c-15.7,0-23.9-4.7-31.2-8.9c-6.9-4-13.4-7.7-26.6-7.7c-13.2,0-19.7,3.7-26.6,7.7
					c-7.3,4.2-15.5,8.9-31.2,8.9c-15.7,0-23.9-4.7-31.2-8.9c-6.9-4-13.4-7.7-26.6-7.7c-13.2,0-19.7,3.7-26.6,7.7
					c-7.3,4.2-15.5,8.9-31.2,8.9c-15.7,0-23.9-4.7-31.2-8.9c-6.9-4-13.4-7.7-26.6-7.7c-13.2,0-19.7,3.7-26.6,7.7
					c-7.3,4.2-15.5,8.9-31.2,8.9s-23.9-4.7-31.2-8.9c-6.9-4-13.4-7.7-26.6-7.7c-13.2,0-19.7,3.7-26.6,7.7
					c-7.3,4.2-15.5,8.9-31.2,8.9c-15.7,0-23.9-4.7-31.2-8.9c-6.9-4-13.4-7.7-26.6-7.7s-19.7,3.7-26.6,7.7
					c-7.3,4.2-15.5,8.9-31.2,8.9c-15.7,0-23.9-4.7-31.2-8.9c-6.9-4-13.4-7.7-26.6-7.7c-13.2,0-19.7,3.7-26.6,7.7
					c-7.3,4.2-15.5,8.9-31.2,8.9c-15.7,0-23.9-4.7-31.2-8.9c-6.9-4-13.4-7.7-26.6-7.7c-13.2,0-19.7,3.7-26.6,7.7
					c-7.3,4.2-15.5,8.9-31.2,8.9s-23.9-4.7-31.2-8.9c-6.9-4-13.4-7.7-26.6-7.7v-9.2c15.7,0,23.9,4.7,31.2,8.9
					c6.9,4,13.4,7.7,26.6,7.7c13.2,0,19.7-3.7,26.6-7.7c7.3-4.2,15.5-8.9,31.2-8.9c15.7,0,23.9,4.7,31.2,8.9
					c6.9,4,13.4,7.7,26.6,7.7c13.2,0,19.7-3.7,26.6-7.7c7.3-4.2,15.5-8.9,31.2-8.9s23.9,4.7,31.2,8.9c6.9,4,13.4,7.7,26.6,7.7
					c13.2,0,19.7-3.7,26.6-7.7c7.3-4.2,15.5-8.9,31.2-8.9c15.7,0,23.9,4.7,31.2,8.9c6.9,4,13.4,7.7,26.6,7.7s19.7-3.7,26.6-7.7
					c7.3-4.2,15.5-8.9,31.2-8.9c15.7,0,23.9,4.7,31.2,8.9c6.9,4,13.4,7.7,26.6,7.7c13.2,0,19.7-3.7,26.6-7.7
					c7.3-4.2,15.5-8.9,31.2-8.9c15.7,0,23.9,4.7,31.2,8.9c6.9,4,13.4,7.7,26.6,7.7c13.2,0,19.7-3.7,26.6-7.7
					c7.3-4.2,15.5-8.9,31.2-8.9s23.9,4.7,31.2,8.9c6.9,4,13.4,7.7,26.6,7.7s19.7-3.7,26.6-7.7c7.3-4.2,15.5-8.9,31.2-8.9
					c15.7,0,23.9,4.7,31.2,8.9c6.9,4,13.4,7.7,26.6,7.7c13.2,0,19.7-3.7,26.6-7.7c7.3-4.2,15.5-8.9,31.2-8.9
					c15.7,0,23.9,4.7,31.2,8.9c6.9,4,13.4,7.7,26.6,7.7c13.2,0,19.7-3.7,26.6-7.7c7.3-4.2,15.5-8.9,31.2-8.9s23.9,4.7,31.2,8.9
					c6.9,4,13.4,7.7,26.6,7.7c13.2,0,19.7-3.7,26.6-7.7c7.3-4.2,15.5-8.9,31.2-8.9s23.9,4.7,31.2,8.9c6.9,4,13.4,7.7,26.6,7.7
					s19.7-3.7,26.6-7.7c7.3-4.2,15.5-8.9,31.2-8.9c15.7,0,23.9,4.7,31.2,8.9c6.9,4,13.4,7.7,26.6,7.7s19.7-3.7,26.6-7.7
					c7.3-4.2,15.5-8.9,31.2-8.9v9.2c-13.2,0-19.7,3.7-26.6,7.7C1096.3-255,1088.1-250.3,1072.4-250.3z"/>
			</g>
			<g id="XMLID_765_">
				<path id="XMLID_582_" class="st2" d="M1072.4-226.8c-15.7,0-23.9-4.7-31.2-8.9c-6.9-4-13.4-7.7-26.6-7.7
					c-13.2,0-19.7,3.7-26.6,7.7c-7.3,4.2-15.5,8.9-31.2,8.9s-23.9-4.7-31.2-8.9c-6.9-4-13.4-7.7-26.6-7.7s-19.7,3.7-26.6,7.7
					c-7.3,4.2-15.5,8.9-31.2,8.9c-15.7,0-23.9-4.7-31.2-8.9c-6.9-4-13.4-7.7-26.6-7.7c-13.2,0-19.7,3.7-26.6,7.7
					c-7.3,4.2-15.5,8.9-31.2,8.9c-15.7,0-23.9-4.7-31.2-8.9c-6.9-4-13.4-7.7-26.6-7.7c-13.2,0-19.7,3.7-26.6,7.7
					c-7.3,4.2-15.5,8.9-31.2,8.9c-15.7,0-23.9-4.7-31.2-8.9c-6.9-4-13.4-7.7-26.6-7.7c-13.2,0-19.7,3.7-26.6,7.7
					c-7.3,4.2-15.5,8.9-31.2,8.9c-15.7,0-23.9-4.7-31.2-8.9c-6.9-4-13.4-7.7-26.6-7.7c-13.2,0-19.7,3.7-26.6,7.7
					c-7.3,4.2-15.5,8.9-31.2,8.9c-15.7,0-23.9-4.7-31.2-8.9c-6.9-4-13.4-7.7-26.6-7.7c-13.2,0-19.7,3.7-26.6,7.7
					c-7.3,4.2-15.5,8.9-31.2,8.9s-23.9-4.7-31.2-8.9c-6.9-4-13.4-7.7-26.6-7.7c-13.2,0-19.7,3.7-26.6,7.7
					c-7.3,4.2-15.5,8.9-31.2,8.9c-15.7,0-23.9-4.7-31.2-8.9c-6.9-4-13.4-7.7-26.6-7.7s-19.7,3.7-26.6,7.7
					c-7.3,4.2-15.5,8.9-31.2,8.9c-15.7,0-23.9-4.7-31.2-8.9c-6.9-4-13.4-7.7-26.6-7.7c-13.2,0-19.7,3.7-26.6,7.7
					c-7.3,4.2-15.5,8.9-31.2,8.9c-15.7,0-23.9-4.7-31.2-8.9c-6.9-4-13.4-7.7-26.6-7.7c-13.2,0-19.7,3.7-26.6,7.7
					c-7.3,4.2-15.5,8.9-31.2,8.9s-23.9-4.7-31.2-8.9c-6.9-4-13.4-7.7-26.6-7.7v-9.2c15.7,0,23.9,4.7,31.2,8.9
					c6.9,4,13.4,7.7,26.6,7.7c13.2,0,19.7-3.7,26.6-7.7c7.3-4.2,15.5-8.9,31.2-8.9c15.7,0,23.9,4.7,31.2,8.9
					c6.9,4,13.4,7.7,26.6,7.7c13.2,0,19.7-3.7,26.6-7.7c7.3-4.2,15.5-8.9,31.2-8.9s23.9,4.7,31.2,8.9c6.9,4,13.4,7.7,26.6,7.7
					c13.2,0,19.7-3.7,26.6-7.7c7.3-4.2,15.5-8.9,31.2-8.9c15.7,0,23.9,4.7,31.2,8.9c6.9,4,13.4,7.7,26.6,7.7s19.7-3.7,26.6-7.7
					c7.3-4.2,15.5-8.9,31.2-8.9c15.7,0,23.9,4.7,31.2,8.9c6.9,4,13.4,7.7,26.6,7.7c13.2,0,19.7-3.7,26.6-7.7
					c7.3-4.2,15.5-8.9,31.2-8.9c15.7,0,23.9,4.7,31.2,8.9c6.9,4,13.4,7.7,26.6,7.7c13.2,0,19.7-3.7,26.6-7.7
					c7.3-4.2,15.5-8.9,31.2-8.9s23.9,4.7,31.2,8.9c6.9,4,13.4,7.7,26.6,7.7s19.7-3.7,26.6-7.7c7.3-4.2,15.5-8.9,31.2-8.9
					c15.7,0,23.9,4.7,31.2,8.9c6.9,4,13.4,7.7,26.6,7.7c13.2,0,19.7-3.7,26.6-7.7c7.3-4.2,15.5-8.9,31.2-8.9
					c15.7,0,23.9,4.7,31.2,8.9c6.9,4,13.4,7.7,26.6,7.7c13.2,0,19.7-3.7,26.6-7.7c7.3-4.2,15.5-8.9,31.2-8.9s23.9,4.7,31.2,8.9
					c6.9,4,13.4,7.7,26.6,7.7c13.2,0,19.7-3.7,26.6-7.7c7.3-4.2,15.5-8.9,31.2-8.9s23.9,4.7,31.2,8.9c6.9,4,13.4,7.7,26.6,7.7
					s19.7-3.7,26.6-7.7c7.3-4.2,15.5-8.9,31.2-8.9c15.7,0,23.9,4.7,31.2,8.9c6.9,4,13.4,7.7,26.6,7.7s19.7-3.7,26.6-7.7
					c7.3-4.2,15.5-8.9,31.2-8.9v9.2c-13.2,0-19.7,3.7-26.6,7.7C1096.3-231.6,1088.1-226.8,1072.4-226.8z"/>
			</g>
			<g id="XMLID_762_">
				<path id="XMLID_580_" class="st2" d="M1072.4-203.4c-15.7,0-23.9-4.7-31.2-8.9c-6.9-4-13.4-7.7-26.6-7.7
					c-13.2,0-19.7,3.7-26.6,7.7c-7.3,4.2-15.5,8.9-31.2,8.9s-23.9-4.7-31.2-8.9c-6.9-4-13.4-7.7-26.6-7.7s-19.7,3.7-26.6,7.7
					c-7.3,4.2-15.5,8.9-31.2,8.9c-15.7,0-23.9-4.7-31.2-8.9c-6.9-4-13.4-7.7-26.6-7.7c-13.2,0-19.7,3.7-26.6,7.7
					c-7.3,4.2-15.5,8.9-31.2,8.9c-15.7,0-23.9-4.7-31.2-8.9c-6.9-4-13.4-7.7-26.6-7.7c-13.2,0-19.7,3.7-26.6,7.7
					c-7.3,4.2-15.5,8.9-31.2,8.9c-15.7,0-23.9-4.7-31.2-8.9c-6.9-4-13.4-7.7-26.6-7.7c-13.2,0-19.7,3.7-26.6,7.7
					c-7.3,4.2-15.5,8.9-31.2,8.9c-15.7,0-23.9-4.7-31.2-8.9c-6.9-4-13.4-7.7-26.6-7.7c-13.2,0-19.7,3.7-26.6,7.7
					c-7.3,4.2-15.5,8.9-31.2,8.9c-15.7,0-23.9-4.7-31.2-8.9c-6.9-4-13.4-7.7-26.6-7.7c-13.2,0-19.7,3.7-26.6,7.7
					c-7.3,4.2-15.5,8.9-31.2,8.9s-23.9-4.7-31.2-8.9c-6.9-4-13.4-7.7-26.6-7.7c-13.2,0-19.7,3.7-26.6,7.7
					c-7.3,4.2-15.5,8.9-31.2,8.9c-15.7,0-23.9-4.7-31.2-8.9c-6.9-4-13.4-7.7-26.6-7.7c-13.2,0-19.7,3.7-26.6,7.7
					c-7.3,4.2-15.5,8.9-31.2,8.9c-15.7,0-23.9-4.7-31.2-8.9c-6.9-4-13.4-7.7-26.6-7.7c-13.2,0-19.7,3.7-26.6,7.7
					c-7.3,4.2-15.5,8.9-31.2,8.9c-15.7,0-23.9-4.7-31.2-8.9c-6.9-4-13.4-7.7-26.6-7.7c-13.2,0-19.7,3.7-26.6,7.7
					c-7.3,4.2-15.5,8.9-31.2,8.9c-15.7,0-23.9-4.7-31.2-8.9c-6.9-4-13.4-7.7-26.6-7.7v-9.2c15.7,0,23.9,4.7,31.2,8.9
					c6.9,4,13.4,7.7,26.6,7.7c13.2,0,19.7-3.7,26.6-7.7c7.3-4.2,15.5-8.9,31.2-8.9c15.7,0,23.9,4.7,31.2,8.9
					c6.9,4,13.4,7.7,26.6,7.7c13.2,0,19.7-3.7,26.6-7.7c7.3-4.2,15.5-8.9,31.2-8.9s23.9,4.7,31.2,8.9c6.9,4,13.4,7.7,26.6,7.7
					s19.7-3.7,26.6-7.7c7.3-4.2,15.5-8.9,31.2-8.9c15.7,0,23.9,4.7,31.2,8.9c6.9,4,13.4,7.7,26.6,7.7s19.7-3.7,26.6-7.7
					c7.3-4.2,15.5-8.9,31.2-8.9c15.7,0,23.9,4.7,31.2,8.9c6.9,4,13.4,7.7,26.6,7.7c13.2,0,19.7-3.7,26.6-7.7
					c7.3-4.2,15.5-8.9,31.2-8.9c15.7,0,23.9,4.7,31.2,8.9c6.9,4,13.4,7.7,26.6,7.7c13.2,0,19.7-3.7,26.6-7.7
					c7.3-4.2,15.5-8.9,31.2-8.9s23.9,4.7,31.2,8.9c6.9,4,13.4,7.7,26.6,7.7s19.7-3.7,26.6-7.7c7.3-4.2,15.5-8.9,31.2-8.9
					c15.7,0,23.9,4.7,31.2,8.9c6.9,4,13.4,7.7,26.6,7.7c13.2,0,19.7-3.7,26.6-7.7c7.3-4.2,15.5-8.9,31.2-8.9
					c15.7,0,23.9,4.7,31.2,8.9c6.9,4,13.4,7.7,26.6,7.7c13.2,0,19.7-3.7,26.6-7.7c7.3-4.2,15.5-8.9,31.2-8.9s23.9,4.7,31.2,8.9
					c6.9,4,13.4,7.7,26.6,7.7c13.2,0,19.7-3.7,26.6-7.7c7.3-4.2,15.5-8.9,31.2-8.9s23.9,4.7,31.2,8.9c6.9,4,13.4,7.7,26.6,7.7
					s19.7-3.7,26.6-7.7c7.3-4.2,15.5-8.9,31.2-8.9c15.7,0,23.9,4.7,31.2,8.9c6.9,4,13.4,7.7,26.6,7.7s19.7-3.7,26.6-7.7
					c7.3-4.2,15.5-8.9,31.2-8.9v9.2c-13.2,0-19.7,3.7-26.6,7.7C1096.3-208.1,1088.1-203.4,1072.4-203.4z"/>
			</g>
			<g id="XMLID_759_">
				<path id="XMLID_579_" class="st2" d="M1072.4-179.9c-15.7,0-23.9-4.7-31.2-8.9c-6.9-4-13.4-7.7-26.6-7.7
					c-13.2,0-19.7,3.7-26.6,7.7c-7.3,4.2-15.5,8.9-31.2,8.9s-23.9-4.7-31.2-8.9c-6.9-4-13.4-7.7-26.6-7.7s-19.7,3.7-26.6,7.7
					c-7.3,4.2-15.5,8.9-31.2,8.9c-15.7,0-23.9-4.7-31.2-8.9c-6.9-4-13.4-7.7-26.6-7.7c-13.2,0-19.7,3.7-26.6,7.7
					c-7.3,4.2-15.5,8.9-31.2,8.9c-15.7,0-23.9-4.7-31.2-8.9c-6.9-4-13.4-7.7-26.6-7.7c-13.2,0-19.7,3.7-26.6,7.7
					c-7.3,4.2-15.5,8.9-31.2,8.9c-15.7,0-23.9-4.7-31.2-8.9c-6.9-4-13.4-7.7-26.6-7.7c-13.2,0-19.7,3.7-26.6,7.7
					c-7.3,4.2-15.5,8.9-31.2,8.9c-15.7,0-23.9-4.7-31.2-8.9c-6.9-4-13.4-7.7-26.6-7.7c-13.2,0-19.7,3.7-26.6,7.7
					c-7.3,4.2-15.5,8.9-31.2,8.9c-15.7,0-23.9-4.7-31.2-8.9c-6.9-4-13.4-7.7-26.6-7.7c-13.2,0-19.7,3.7-26.6,7.7
					c-7.3,4.2-15.5,8.9-31.2,8.9s-23.9-4.7-31.2-8.9c-6.9-4-13.4-7.7-26.6-7.7c-13.2,0-19.7,3.7-26.6,7.7
					c-7.3,4.2-15.5,8.9-31.2,8.9c-15.7,0-23.9-4.7-31.2-8.9c-6.9-4-13.4-7.7-26.6-7.7s-19.7,3.7-26.6,7.7
					c-7.3,4.2-15.5,8.9-31.2,8.9c-15.7,0-23.9-4.7-31.2-8.9c-6.9-4-13.4-7.7-26.6-7.7c-13.2,0-19.7,3.7-26.6,7.7
					c-7.3,4.2-15.5,8.9-31.2,8.9c-15.7,0-23.9-4.7-31.2-8.9c-6.9-4-13.4-7.7-26.6-7.7c-13.2,0-19.7,3.7-26.6,7.7
					c-7.3,4.2-15.5,8.9-31.2,8.9s-23.9-4.7-31.2-8.9c-6.9-4-13.4-7.7-26.6-7.7v-9.2c15.7,0,23.9,4.7,31.2,8.9
					c6.9,4,13.4,7.7,26.6,7.7c13.2,0,19.7-3.7,26.6-7.7c7.3-4.2,15.5-8.9,31.2-8.9c15.7,0,23.9,4.7,31.2,8.9
					c6.9,4,13.4,7.7,26.6,7.7c13.2,0,19.7-3.7,26.6-7.7c7.3-4.2,15.5-8.9,31.2-8.9s23.9,4.7,31.2,8.9c6.9,4,13.4,7.7,26.6,7.7
					c13.2,0,19.7-3.7,26.6-7.7c7.3-4.2,15.5-8.9,31.2-8.9c15.7,0,23.9,4.7,31.2,8.9c6.9,4,13.4,7.7,26.6,7.7s19.7-3.7,26.6-7.7
					c7.3-4.2,15.5-8.9,31.2-8.9c15.7,0,23.9,4.7,31.2,8.9c6.9,4,13.4,7.7,26.6,7.7c13.2,0,19.7-3.7,26.6-7.7
					c7.3-4.2,15.5-8.9,31.2-8.9c15.7,0,23.9,4.7,31.2,8.9c6.9,4,13.4,7.7,26.6,7.7c13.2,0,19.7-3.7,26.6-7.7
					c7.3-4.2,15.5-8.9,31.2-8.9s23.9,4.7,31.2,8.9c6.9,4,13.4,7.7,26.6,7.7s19.7-3.7,26.6-7.7c7.3-4.2,15.5-8.9,31.2-8.9
					c15.7,0,23.9,4.7,31.2,8.9c6.9,4,13.4,7.7,26.6,7.7c13.2,0,19.7-3.7,26.6-7.7c7.3-4.2,15.5-8.9,31.2-8.9
					c15.7,0,23.9,4.7,31.2,8.9c6.9,4,13.4,7.7,26.6,7.7c13.2,0,19.7-3.7,26.6-7.7c7.3-4.2,15.5-8.9,31.2-8.9s23.9,4.7,31.2,8.9
					c6.9,4,13.4,7.7,26.6,7.7c13.2,0,19.7-3.7,26.6-7.7c7.3-4.2,15.5-8.9,31.2-8.9s23.9,4.7,31.2,8.9c6.9,4,13.4,7.7,26.6,7.7
					s19.7-3.7,26.6-7.7c7.3-4.2,15.5-8.9,31.2-8.9c15.7,0,23.9,4.7,31.2,8.9c6.9,4,13.4,7.7,26.6,7.7s19.7-3.7,26.6-7.7
					c7.3-4.2,15.5-8.9,31.2-8.9v9.2c-13.2,0-19.7,3.7-26.6,7.7C1096.3-184.6,1088.1-179.9,1072.4-179.9z"/>
			</g>
			<g id="XMLID_756_">
				<path id="XMLID_577_" class="st2" d="M1072.4-156.4c-15.7,0-23.9-4.7-31.2-8.9c-6.9-4-13.4-7.7-26.6-7.7
					c-13.2,0-19.7,3.7-26.6,7.7c-7.3,4.2-15.5,8.9-31.2,8.9s-23.9-4.7-31.2-8.9c-6.9-4-13.4-7.7-26.6-7.7s-19.7,3.7-26.6,7.7
					c-7.3,4.2-15.5,8.9-31.2,8.9c-15.7,0-23.9-4.7-31.2-8.9c-6.9-4-13.4-7.7-26.6-7.7c-13.2,0-19.7,3.7-26.6,7.7
					c-7.3,4.2-15.5,8.9-31.2,8.9c-15.7,0-23.9-4.7-31.2-8.9c-6.9-4-13.4-7.7-26.6-7.7c-13.2,0-19.7,3.7-26.6,7.7
					c-7.3,4.2-15.5,8.9-31.2,8.9c-15.7,0-23.9-4.7-31.2-8.9c-6.9-4-13.4-7.7-26.6-7.7c-13.2,0-19.7,3.7-26.6,7.7
					c-7.3,4.2-15.5,8.9-31.2,8.9c-15.7,0-23.9-4.7-31.2-8.9c-6.9-4-13.4-7.7-26.6-7.7c-13.2,0-19.7,3.7-26.6,7.7
					c-7.3,4.2-15.5,8.9-31.2,8.9c-15.7,0-23.9-4.7-31.2-8.9c-6.9-4-13.4-7.7-26.6-7.7c-13.2,0-19.7,3.7-26.6,7.7
					c-7.3,4.2-15.5,8.9-31.2,8.9s-23.9-4.7-31.2-8.9c-6.9-4-13.4-7.7-26.6-7.7c-13.2,0-19.7,3.7-26.6,7.7
					c-7.3,4.2-15.5,8.9-31.2,8.9c-15.7,0-23.9-4.7-31.2-8.9c-6.9-4-13.4-7.7-26.6-7.7c-13.2,0-19.7,3.7-26.6,7.7
					c-7.3,4.2-15.5,8.9-31.2,8.9c-15.7,0-23.9-4.7-31.2-8.9c-6.9-4-13.4-7.7-26.6-7.7c-13.2,0-19.7,3.7-26.6,7.7
					c-7.3,4.2-15.5,8.9-31.2,8.9c-15.7,0-23.9-4.7-31.2-8.9c-6.9-4-13.4-7.7-26.6-7.7c-13.2,0-19.7,3.7-26.6,7.7
					c-7.3,4.2-15.5,8.9-31.2,8.9c-15.7,0-23.9-4.7-31.2-8.9c-6.9-4-13.4-7.7-26.6-7.7v-9.2c15.7,0,23.9,4.7,31.2,8.9
					c6.9,4,13.4,7.7,26.6,7.7c13.2,0,19.7-3.7,26.6-7.7c7.3-4.2,15.5-8.9,31.2-8.9c15.7,0,23.9,4.7,31.2,8.9
					c6.9,4,13.4,7.7,26.6,7.7c13.2,0,19.7-3.7,26.6-7.7c7.3-4.2,15.5-8.9,31.2-8.9s23.9,4.7,31.2,8.9c6.9,4,13.4,7.7,26.6,7.7
					s19.7-3.7,26.6-7.7c7.3-4.2,15.5-8.9,31.2-8.9c15.7,0,23.9,4.7,31.2,8.9c6.9,4,13.4,7.7,26.6,7.7s19.7-3.7,26.6-7.7
					c7.3-4.2,15.5-8.9,31.2-8.9c15.7,0,23.9,4.7,31.2,8.9c6.9,4,13.4,7.7,26.6,7.7c13.2,0,19.7-3.7,26.6-7.7
					c7.3-4.2,15.5-8.9,31.2-8.9c15.7,0,23.9,4.7,31.2,8.9c6.9,4,13.4,7.7,26.6,7.7c13.2,0,19.7-3.7,26.6-7.7
					c7.3-4.2,15.5-8.9,31.2-8.9s23.9,4.7,31.2,8.9c6.9,4,13.4,7.7,26.6,7.7s19.7-3.7,26.6-7.7c7.3-4.2,15.5-8.9,31.2-8.9
					c15.7,0,23.9,4.7,31.2,8.9c6.9,4,13.4,7.7,26.6,7.7c13.2,0,19.7-3.7,26.6-7.7c7.3-4.2,15.5-8.9,31.2-8.9
					c15.7,0,23.9,4.7,31.2,8.9c6.9,4,13.4,7.7,26.6,7.7c13.2,0,19.7-3.7,26.6-7.7c7.3-4.2,15.5-8.9,31.2-8.9s23.9,4.7,31.2,8.9
					c6.9,4,13.4,7.7,26.6,7.7c13.2,0,19.7-3.7,26.6-7.7c7.3-4.2,15.5-8.9,31.2-8.9s23.9,4.7,31.2,8.9c6.9,4,13.4,7.7,26.6,7.7
					s19.7-3.7,26.6-7.7c7.3-4.2,15.5-8.9,31.2-8.9c15.7,0,23.9,4.7,31.2,8.9c6.9,4,13.4,7.7,26.6,7.7s19.7-3.7,26.6-7.7
					c7.3-4.2,15.5-8.9,31.2-8.9v9.2c-13.2,0-19.7,3.7-26.6,7.7C1096.3-161.2,1088.1-156.4,1072.4-156.4z"/>
			</g>
			<g id="XMLID_753_">
				<path id="XMLID_576_" class="st2" d="M1072.4-133c-15.7,0-23.9-4.7-31.2-8.9c-6.9-4-13.4-7.7-26.6-7.7
					c-13.2,0-19.7,3.7-26.6,7.7c-7.3,4.2-15.5,8.9-31.2,8.9s-23.9-4.7-31.2-8.9c-6.9-4-13.4-7.7-26.6-7.7s-19.7,3.7-26.6,7.7
					c-7.3,4.2-15.5,8.9-31.2,8.9c-15.7,0-23.9-4.7-31.2-8.9c-6.9-4-13.4-7.7-26.6-7.7c-13.2,0-19.7,3.7-26.6,7.7
					c-7.3,4.2-15.5,8.9-31.2,8.9c-15.7,0-23.9-4.7-31.2-8.9c-6.9-4-13.4-7.7-26.6-7.7c-13.2,0-19.7,3.7-26.6,7.7
					c-7.3,4.2-15.5,8.9-31.2,8.9c-15.7,0-23.9-4.7-31.2-8.9c-6.9-4-13.4-7.7-26.6-7.7c-13.2,0-19.7,3.7-26.6,7.7
					c-7.3,4.2-15.5,8.9-31.2,8.9c-15.7,0-23.9-4.7-31.2-8.9c-6.9-4-13.4-7.7-26.6-7.7c-13.2,0-19.7,3.7-26.6,7.7
					c-7.3,4.2-15.5,8.9-31.2,8.9c-15.7,0-23.9-4.7-31.2-8.9c-6.9-4-13.4-7.7-26.6-7.7c-13.2,0-19.7,3.7-26.6,7.7
					c-7.3,4.2-15.5,8.9-31.2,8.9s-23.9-4.7-31.2-8.9c-6.9-4-13.4-7.7-26.6-7.7c-13.2,0-19.7,3.7-26.6,7.7
					c-7.3,4.2-15.5,8.9-31.2,8.9c-15.7,0-23.9-4.7-31.2-8.9c-6.9-4-13.4-7.7-26.6-7.7s-19.7,3.7-26.6,7.7
					c-7.3,4.2-15.5,8.9-31.2,8.9c-15.7,0-23.9-4.7-31.2-8.9c-6.9-4-13.4-7.7-26.6-7.7c-13.2,0-19.7,3.7-26.6,7.7
					c-7.3,4.2-15.5,8.9-31.2,8.9c-15.7,0-23.9-4.7-31.2-8.9c-6.9-4-13.4-7.7-26.6-7.7c-13.2,0-19.7,3.7-26.6,7.7
					c-7.3,4.2-15.5,8.9-31.2,8.9s-23.9-4.7-31.2-8.9c-6.9-4-13.4-7.7-26.6-7.7v-9.2c15.7,0,23.9,4.7,31.2,8.9
					c6.9,4,13.4,7.7,26.6,7.7c13.2,0,19.7-3.7,26.6-7.7c7.3-4.2,15.5-8.9,31.2-8.9c15.7,0,23.9,4.7,31.2,8.9
					c6.9,4,13.4,7.7,26.6,7.7c13.2,0,19.7-3.7,26.6-7.7c7.3-4.2,15.5-8.9,31.2-8.9s23.9,4.7,31.2,8.9c6.9,4,13.4,7.7,26.6,7.7
					c13.2,0,19.7-3.7,26.6-7.7c7.3-4.2,15.5-8.9,31.2-8.9c15.7,0,23.9,4.7,31.2,8.9c6.9,4,13.4,7.7,26.6,7.7s19.7-3.7,26.6-7.7
					c7.3-4.2,15.5-8.9,31.2-8.9c15.7,0,23.9,4.7,31.2,8.9c6.9,4,13.4,7.7,26.6,7.7c13.2,0,19.7-3.7,26.6-7.7
					c7.3-4.2,15.5-8.9,31.2-8.9c15.7,0,23.9,4.7,31.2,8.9c6.9,4,13.4,7.7,26.6,7.7c13.2,0,19.7-3.7,26.6-7.7
					c7.3-4.2,15.5-8.9,31.2-8.9s23.9,4.7,31.2,8.9c6.9,4,13.4,7.7,26.6,7.7s19.7-3.7,26.6-7.7c7.3-4.2,15.5-8.9,31.2-8.9
					c15.7,0,23.9,4.7,31.2,8.9c6.9,4,13.4,7.7,26.6,7.7c13.2,0,19.7-3.7,26.6-7.7c7.3-4.2,15.5-8.9,31.2-8.9
					c15.7,0,23.9,4.7,31.2,8.9c6.9,4,13.4,7.7,26.6,7.7c13.2,0,19.7-3.7,26.6-7.7c7.3-4.2,15.5-8.9,31.2-8.9s23.9,4.7,31.2,8.9
					c6.9,4,13.4,7.7,26.6,7.7c13.2,0,19.7-3.7,26.6-7.7c7.3-4.2,15.5-8.9,31.2-8.9s23.9,4.7,31.2,8.9c6.9,4,13.4,7.7,26.6,7.7
					s19.7-3.7,26.6-7.7c7.3-4.2,15.5-8.9,31.2-8.9c15.7,0,23.9,4.7,31.2,8.9c6.9,4,13.4,7.7,26.6,7.7s19.7-3.7,26.6-7.7
					c7.3-4.2,15.5-8.9,31.2-8.9v9.2c-13.2,0-19.7,3.7-26.6,7.7C1096.3-137.7,1088.1-133,1072.4-133z"/>
			</g>
			<g id="XMLID_750_">
				<path id="XMLID_574_" class="st2" d="M1072.4-109.5c-15.7,0-23.9-4.7-31.2-8.9c-6.9-4-13.4-7.7-26.6-7.7
					c-13.2,0-19.7,3.7-26.6,7.7c-7.3,4.2-15.5,8.9-31.2,8.9s-23.9-4.7-31.2-8.9c-6.9-4-13.4-7.7-26.6-7.7s-19.7,3.7-26.6,7.7
					c-7.3,4.2-15.5,8.9-31.2,8.9c-15.7,0-23.9-4.7-31.2-8.9c-6.9-4-13.4-7.7-26.6-7.7c-13.2,0-19.7,3.7-26.6,7.7
					c-7.3,4.2-15.5,8.9-31.2,8.9c-15.7,0-23.9-4.7-31.2-8.9c-6.9-4-13.4-7.7-26.6-7.7c-13.2,0-19.7,3.7-26.6,7.7
					c-7.3,4.2-15.5,8.9-31.2,8.9c-15.7,0-23.9-4.7-31.2-8.9c-6.9-4-13.4-7.7-26.6-7.7c-13.2,0-19.7,3.7-26.6,7.7
					c-7.3,4.2-15.5,8.9-31.2,8.9c-15.7,0-23.9-4.7-31.2-8.9c-6.9-4-13.4-7.7-26.6-7.7c-13.2,0-19.7,3.7-26.6,7.7
					c-7.3,4.2-15.5,8.9-31.2,8.9c-15.7,0-23.9-4.7-31.2-8.9c-6.9-4-13.4-7.7-26.6-7.7c-13.2,0-19.7,3.7-26.6,7.7
					c-7.3,4.2-15.5,8.9-31.2,8.9s-23.9-4.7-31.2-8.9c-6.9-4-13.4-7.7-26.6-7.7c-13.2,0-19.7,3.7-26.6,7.7
					c-7.3,4.2-15.5,8.9-31.2,8.9c-15.7,0-23.9-4.7-31.2-8.9c-6.9-4-13.4-7.7-26.6-7.7c-13.2,0-19.7,3.7-26.6,7.7
					c-7.3,4.2-15.5,8.9-31.2,8.9c-15.7,0-23.9-4.7-31.2-8.9c-6.9-4-13.4-7.7-26.6-7.7c-13.2,0-19.7,3.7-26.6,7.7
					c-7.3,4.2-15.5,8.9-31.2,8.9c-15.7,0-23.9-4.7-31.2-8.9c-6.9-4-13.4-7.7-26.6-7.7c-13.2,0-19.7,3.7-26.6,7.7
					c-7.3,4.2-15.5,8.9-31.2,8.9c-15.7,0-23.9-4.7-31.2-8.9c-6.9-4-13.4-7.7-26.6-7.7v-9.2c15.7,0,23.9,4.7,31.2,8.9
					c6.9,4,13.4,7.7,26.6,7.7c13.2,0,19.7-3.7,26.6-7.7c7.3-4.2,15.5-8.9,31.2-8.9c15.7,0,23.9,4.7,31.2,8.9
					c6.9,4,13.4,7.7,26.6,7.7c13.2,0,19.7-3.7,26.6-7.7c7.3-4.2,15.5-8.9,31.2-8.9s23.9,4.7,31.2,8.9c6.9,4,13.4,7.7,26.6,7.7
					s19.7-3.7,26.6-7.7c7.3-4.2,15.5-8.9,31.2-8.9c15.7,0,23.9,4.7,31.2,8.9c6.9,4,13.4,7.7,26.6,7.7s19.7-3.7,26.6-7.7
					c7.3-4.2,15.5-8.9,31.2-8.9c15.7,0,23.9,4.7,31.2,8.9c6.9,4,13.4,7.7,26.6,7.7c13.2,0,19.7-3.7,26.6-7.7
					c7.3-4.2,15.5-8.9,31.2-8.9c15.7,0,23.9,4.7,31.2,8.9c6.9,4,13.4,7.7,26.6,7.7c13.2,0,19.7-3.7,26.6-7.7
					c7.3-4.2,15.5-8.9,31.2-8.9s23.9,4.7,31.2,8.9c6.9,4,13.4,7.7,26.6,7.7s19.7-3.7,26.6-7.7c7.3-4.2,15.5-8.9,31.2-8.9
					c15.7,0,23.9,4.7,31.2,8.9c6.9,4,13.4,7.7,26.6,7.7c13.2,0,19.7-3.7,26.6-7.7c7.3-4.2,15.5-8.9,31.2-8.9
					c15.7,0,23.9,4.7,31.2,8.9c6.9,4,13.4,7.7,26.6,7.7c13.2,0,19.7-3.7,26.6-7.7c7.3-4.2,15.5-8.9,31.2-8.9s23.9,4.7,31.2,8.9
					c6.9,4,13.4,7.7,26.6,7.7c13.2,0,19.7-3.7,26.6-7.7c7.3-4.2,15.5-8.9,31.2-8.9s23.9,4.7,31.2,8.9c6.9,4,13.4,7.7,26.6,7.7
					s19.7-3.7,26.6-7.7c7.3-4.2,15.5-8.9,31.2-8.9c15.7,0,23.9,4.7,31.2,8.9c6.9,4,13.4,7.7,26.6,7.7s19.7-3.7,26.6-7.7
					c7.3-4.2,15.5-8.9,31.2-8.9v9.2c-13.2,0-19.7,3.7-26.6,7.7C1096.3-114.3,1088.1-109.5,1072.4-109.5z"/>
			</g>
			<g id="XMLID_747_">
				<path id="XMLID_573_" class="st2" d="M1072.4-86.1c-15.7,0-23.9-4.7-31.2-8.9c-6.9-4-13.4-7.7-26.6-7.7
					c-13.2,0-19.7,3.7-26.6,7.7c-7.3,4.2-15.5,8.9-31.2,8.9S933-90.8,925.7-95c-6.9-4-13.4-7.7-26.6-7.7s-19.7,3.7-26.6,7.7
					c-7.3,4.2-15.5,8.9-31.2,8.9c-15.7,0-23.9-4.7-31.2-8.9c-6.9-4-13.4-7.7-26.6-7.7c-13.2,0-19.7,3.7-26.6,7.7
					c-7.3,4.2-15.5,8.9-31.2,8.9c-15.7,0-23.9-4.7-31.2-8.9c-6.9-4-13.4-7.7-26.6-7.7c-13.2,0-19.7,3.7-26.6,7.7
					c-7.3,4.2-15.5,8.9-31.2,8.9c-15.7,0-23.9-4.7-31.2-8.9c-6.9-4-13.4-7.7-26.6-7.7c-13.2,0-19.7,3.7-26.6,7.7
					c-7.3,4.2-15.5,8.9-31.2,8.9c-15.7,0-23.9-4.7-31.2-8.9c-6.9-4-13.4-7.7-26.6-7.7c-13.2,0-19.7,3.7-26.6,7.7
					c-7.3,4.2-15.5,8.9-31.2,8.9c-15.7,0-23.9-4.7-31.2-8.9c-6.9-4-13.4-7.7-26.6-7.7c-13.2,0-19.7,3.7-26.6,7.7
					c-7.3,4.2-15.5,8.9-31.2,8.9S240-90.8,232.8-95c-6.9-4-13.4-7.7-26.6-7.7c-13.2,0-19.7,3.7-26.6,7.7c-7.3,4.2-15.5,8.9-31.2,8.9
					c-15.7,0-23.9-4.7-31.2-8.9c-6.9-4-13.4-7.7-26.6-7.7S71-98.9,64.1-95c-7.3,4.2-15.5,8.9-31.2,8.9C17.3-86.1,9-90.8,1.8-95
					c-6.9-4-13.4-7.7-26.6-7.7c-13.2,0-19.7,3.7-26.6,7.7c-7.3,4.2-15.5,8.9-31.2,8.9c-15.7,0-23.9-4.7-31.2-8.9
					c-6.9-4-13.4-7.7-26.6-7.7c-13.2,0-19.7,3.7-26.6,7.7c-7.3,4.2-15.5,8.9-31.2,8.9s-23.9-4.7-31.2-8.9c-6.9-4-13.4-7.7-26.6-7.7
					v-9.2c15.7,0,23.9,4.7,31.2,8.9c6.9,4,13.4,7.7,26.6,7.7c13.2,0,19.7-3.7,26.6-7.7c7.3-4.2,15.5-8.9,31.2-8.9
					c15.7,0,23.9,4.7,31.2,8.9c6.9,4,13.4,7.7,26.6,7.7c13.2,0,19.7-3.7,26.6-7.7c7.3-4.2,15.5-8.9,31.2-8.9s23.9,4.7,31.2,8.9
					c6.9,4,13.4,7.7,26.6,7.7c13.2,0,19.7-3.7,26.6-7.7c7.3-4.2,15.5-8.9,31.2-8.9c15.7,0,23.9,4.7,31.2,8.9
					c6.9,4,13.4,7.7,26.6,7.7S168.1-99,175-103c7.3-4.2,15.5-8.9,31.2-8.9c15.7,0,23.9,4.7,31.2,8.9c6.9,4,13.4,7.7,26.6,7.7
					c13.2,0,19.7-3.7,26.6-7.7c7.3-4.2,15.5-8.9,31.2-8.9c15.7,0,23.9,4.7,31.2,8.9c6.9,4,13.4,7.7,26.6,7.7
					c13.2,0,19.7-3.7,26.6-7.7c7.3-4.2,15.5-8.9,31.2-8.9s23.9,4.7,31.2,8.9c6.9,4,13.4,7.7,26.6,7.7s19.7-3.7,26.6-7.7
					c7.3-4.2,15.5-8.9,31.2-8.9c15.7,0,23.9,4.7,31.2,8.9c6.9,4,13.4,7.7,26.6,7.7c13.2,0,19.7-3.7,26.6-7.7
					c7.3-4.2,15.5-8.9,31.2-8.9c15.7,0,23.9,4.7,31.2,8.9c6.9,4,13.4,7.7,26.6,7.7c13.2,0,19.7-3.7,26.6-7.7
					c7.3-4.2,15.5-8.9,31.2-8.9s23.9,4.7,31.2,8.9c6.9,4,13.4,7.7,26.6,7.7c13.2,0,19.7-3.7,26.6-7.7c7.3-4.2,15.5-8.9,31.2-8.9
					s23.9,4.7,31.2,8.9c6.9,4,13.4,7.7,26.6,7.7s19.7-3.7,26.6-7.7c7.3-4.2,15.5-8.9,31.2-8.9c15.7,0,23.9,4.7,31.2,8.9
					c6.9,4,13.4,7.7,26.6,7.7s19.7-3.7,26.6-7.7c7.3-4.2,15.5-8.9,31.2-8.9v9.2c-13.2,0-19.7,3.7-26.6,7.7
					C1096.3-90.8,1088.1-86.1,1072.4-86.1z"/>
			</g>
			<g id="XMLID_633_">
				<path id="XMLID_571_" class="st2" d="M1072.4-62.6c-15.7,0-23.9-4.7-31.2-8.9c-6.9-4-13.4-7.7-26.6-7.7
					c-13.2,0-19.7,3.7-26.6,7.7c-7.3,4.2-15.5,8.9-31.2,8.9s-23.9-4.7-31.2-8.9c-6.9-4-13.4-7.7-26.6-7.7s-19.7,3.7-26.6,7.7
					c-7.3,4.2-15.5,8.9-31.2,8.9c-15.7,0-23.9-4.7-31.2-8.9c-6.9-4-13.4-7.7-26.6-7.7c-13.2,0-19.7,3.7-26.6,7.7
					c-7.3,4.2-15.5,8.9-31.2,8.9c-15.7,0-23.9-4.7-31.2-8.9c-6.9-4-13.4-7.7-26.6-7.7c-13.2,0-19.7,3.7-26.6,7.7
					c-7.3,4.2-15.5,8.9-31.2,8.9c-15.7,0-23.9-4.7-31.2-8.9c-6.9-4-13.4-7.7-26.6-7.7c-13.2,0-19.7,3.7-26.6,7.7
					c-7.3,4.2-15.5,8.9-31.2,8.9c-15.7,0-23.9-4.7-31.2-8.9c-6.9-4-13.4-7.7-26.6-7.7c-13.2,0-19.7,3.7-26.6,7.7
					c-7.3,4.2-15.5,8.9-31.2,8.9c-15.7,0-23.9-4.7-31.2-8.9c-6.9-4-13.4-7.7-26.6-7.7c-13.2,0-19.7,3.7-26.6,7.7
					c-7.3,4.2-15.5,8.9-31.2,8.9s-23.9-4.7-31.2-8.9c-6.9-4-13.4-7.7-26.6-7.7c-13.2,0-19.7,3.7-26.6,7.7
					c-7.3,4.2-15.5,8.9-31.2,8.9c-15.7,0-23.9-4.7-31.2-8.9c-6.9-4-13.4-7.7-26.6-7.7c-13.2,0-19.7,3.7-26.6,7.7
					c-7.3,4.2-15.5,8.9-31.2,8.9c-15.7,0-23.9-4.7-31.2-8.9c-6.9-4-13.4-7.7-26.6-7.7c-13.2,0-19.7,3.7-26.6,7.7
					c-7.3,4.2-15.5,8.9-31.2,8.9c-15.7,0-23.9-4.7-31.2-8.9c-6.9-4-13.4-7.7-26.6-7.7c-13.2,0-19.7,3.7-26.6,7.7
					c-7.3,4.2-15.5,8.9-31.2,8.9c-15.7,0-23.9-4.7-31.2-8.9c-6.9-4-13.4-7.7-26.6-7.7v-9.2c15.7,0,23.9,4.7,31.2,8.9
					c6.9,4,13.4,7.7,26.6,7.7c13.2,0,19.7-3.7,26.6-7.7c7.3-4.2,15.5-8.9,31.2-8.9c15.7,0,23.9,4.7,31.2,8.9
					c6.9,4,13.4,7.7,26.6,7.7c13.2,0,19.7-3.7,26.6-7.7c7.3-4.2,15.5-8.9,31.2-8.9s23.9,4.7,31.2,8.9c6.9,4,13.4,7.7,26.6,7.7
					s19.7-3.7,26.6-7.7c7.3-4.2,15.5-8.9,31.2-8.9c15.7,0,23.9,4.7,31.2,8.9c6.9,4,13.4,7.7,26.6,7.7s19.7-3.7,26.6-7.7
					c7.3-4.2,15.5-8.9,31.2-8.9c15.7,0,23.9,4.7,31.2,8.9c6.9,4,13.4,7.7,26.6,7.7c13.2,0,19.7-3.7,26.6-7.7
					c7.3-4.2,15.5-8.9,31.2-8.9c15.7,0,23.9,4.7,31.2,8.9c6.9,4,13.4,7.7,26.6,7.7c13.2,0,19.7-3.7,26.6-7.7
					c7.3-4.2,15.5-8.9,31.2-8.9s23.9,4.7,31.2,8.9c6.9,4,13.4,7.7,26.6,7.7s19.7-3.7,26.6-7.7c7.3-4.2,15.5-8.9,31.2-8.9
					c15.7,0,23.9,4.7,31.2,8.9c6.9,4,13.4,7.7,26.6,7.7c13.2,0,19.7-3.7,26.6-7.7c7.3-4.2,15.5-8.9,31.2-8.9
					c15.7,0,23.9,4.7,31.2,8.9c6.9,4,13.4,7.7,26.6,7.7c13.2,0,19.7-3.7,26.6-7.7c7.3-4.2,15.5-8.9,31.2-8.9s23.9,4.7,31.2,8.9
					c6.9,4,13.4,7.7,26.6,7.7c13.2,0,19.7-3.7,26.6-7.7c7.3-4.2,15.5-8.9,31.2-8.9s23.9,4.7,31.2,8.9c6.9,4,13.4,7.7,26.6,7.7
					s19.7-3.7,26.6-7.7c7.3-4.2,15.5-8.9,31.2-8.9c15.7,0,23.9,4.7,31.2,8.9c6.9,4,13.4,7.7,26.6,7.7s19.7-3.7,26.6-7.7
					c7.3-4.2,15.5-8.9,31.2-8.9v9.2c-13.2,0-19.7,3.7-26.6,7.7C1096.3-67.3,1088.1-62.6,1072.4-62.6z"/>
			</g>
			<g id="XMLID_624_">
				<path id="XMLID_570_" class="st2" d="M1072.4-39.1c-15.7,0-23.9-4.7-31.2-8.9c-6.9-4-13.4-7.7-26.6-7.7
					c-13.2,0-19.7,3.7-26.6,7.7c-7.3,4.2-15.5,8.9-31.2,8.9s-23.9-4.7-31.2-8.9c-6.9-4-13.4-7.7-26.6-7.7s-19.7,3.7-26.6,7.7
					c-7.3,4.2-15.5,8.9-31.2,8.9c-15.7,0-23.9-4.7-31.2-8.9c-6.9-4-13.4-7.7-26.6-7.7c-13.2,0-19.7,3.7-26.6,7.7
					c-7.3,4.2-15.5,8.9-31.2,8.9c-15.7,0-23.9-4.7-31.2-8.9c-6.9-4-13.4-7.7-26.6-7.7c-13.2,0-19.7,3.7-26.6,7.7
					c-7.3,4.2-15.5,8.9-31.2,8.9c-15.7,0-23.9-4.7-31.2-8.9c-6.9-4-13.4-7.7-26.6-7.7c-13.2,0-19.7,3.7-26.6,7.7
					c-7.3,4.2-15.5,8.9-31.2,8.9c-15.7,0-23.9-4.7-31.2-8.9c-6.9-4-13.4-7.7-26.6-7.7c-13.2,0-19.7,3.7-26.6,7.7
					c-7.3,4.2-15.5,8.9-31.2,8.9c-15.7,0-23.9-4.7-31.2-8.9c-6.9-4-13.4-7.7-26.6-7.7c-13.2,0-19.7,3.7-26.6,7.7
					c-7.3,4.2-15.5,8.9-31.2,8.9s-23.9-4.7-31.2-8.9c-6.9-4-13.4-7.7-26.6-7.7c-13.2,0-19.7,3.7-26.6,7.7
					c-7.3,4.2-15.5,8.9-31.2,8.9c-15.7,0-23.9-4.7-31.2-8.9c-6.9-4-13.4-7.7-26.6-7.7S71-52,64.1-48.1c-7.3,4.2-15.5,8.9-31.2,8.9
					c-15.7,0-23.9-4.7-31.2-8.9c-6.9-4-13.4-7.7-26.6-7.7c-13.2,0-19.7,3.7-26.6,7.7c-7.3,4.2-15.5,8.9-31.2,8.9
					c-15.7,0-23.9-4.7-31.2-8.9c-6.9-4-13.4-7.7-26.6-7.7c-13.2,0-19.7,3.7-26.6,7.7c-7.3,4.2-15.5,8.9-31.2,8.9s-23.9-4.7-31.2-8.9
					c-6.9-4-13.4-7.7-26.6-7.7V-65c15.7,0,23.9,4.7,31.2,8.9c6.9,4,13.4,7.7,26.6,7.7c13.2,0,19.7-3.7,26.6-7.7
					c7.3-4.2,15.5-8.9,31.2-8.9c15.7,0,23.9,4.7,31.2,8.9c6.9,4,13.4,7.7,26.6,7.7c13.2,0,19.7-3.7,26.6-7.7
					c7.3-4.2,15.5-8.9,31.2-8.9S-0.9-60.2,6.3-56c6.9,4,13.4,7.7,26.6,7.7c13.2,0,19.7-3.7,26.6-7.7C66.8-60.2,75-65,90.7-65
					c15.7,0,23.9,4.7,31.2,8.9c6.9,4,13.4,7.7,26.6,7.7s19.7-3.7,26.6-7.7c7.3-4.2,15.5-8.9,31.2-8.9c15.7,0,23.9,4.7,31.2,8.9
					c6.9,4,13.4,7.7,26.6,7.7c13.2,0,19.7-3.7,26.6-7.7c7.3-4.2,15.5-8.9,31.2-8.9c15.7,0,23.9,4.7,31.2,8.9
					c6.9,4,13.4,7.7,26.6,7.7c13.2,0,19.7-3.7,26.6-7.7c7.3-4.2,15.5-8.9,31.2-8.9s23.9,4.7,31.2,8.9c6.9,4,13.4,7.7,26.6,7.7
					s19.7-3.7,26.6-7.7c7.3-4.2,15.5-8.9,31.2-8.9c15.7,0,23.9,4.7,31.2,8.9c6.9,4,13.4,7.7,26.6,7.7c13.2,0,19.7-3.7,26.6-7.7
					c7.3-4.2,15.5-8.9,31.2-8.9c15.7,0,23.9,4.7,31.2,8.9c6.9,4,13.4,7.7,26.6,7.7c13.2,0,19.7-3.7,26.6-7.7
					c7.3-4.2,15.5-8.9,31.2-8.9s23.9,4.7,31.2,8.9c6.9,4,13.4,7.7,26.6,7.7c13.2,0,19.7-3.7,26.6-7.7c7.3-4.2,15.5-8.9,31.2-8.9
					s23.9,4.7,31.2,8.9c6.9,4,13.4,7.7,26.6,7.7s19.7-3.7,26.6-7.7c7.3-4.2,15.5-8.9,31.2-8.9c15.7,0,23.9,4.7,31.2,8.9
					c6.9,4,13.4,7.7,26.6,7.7s19.7-3.7,26.6-7.7c7.3-4.2,15.5-8.9,31.2-8.9v9.2c-13.2,0-19.7,3.7-26.6,7.7
					C1096.3-43.9,1088.1-39.1,1072.4-39.1z"/>
			</g>
			<g id="XMLID_615_">
				<path id="XMLID_568_" class="st2" d="M1072.4-15.7c-15.7,0-23.9-4.7-31.2-8.9c-6.9-4-13.4-7.7-26.6-7.7
					c-13.2,0-19.7,3.7-26.6,7.7c-7.3,4.2-15.5,8.9-31.2,8.9s-23.9-4.7-31.2-8.9c-6.9-4-13.4-7.7-26.6-7.7s-19.7,3.7-26.6,7.7
					c-7.3,4.2-15.5,8.9-31.2,8.9c-15.7,0-23.9-4.7-31.2-8.9c-6.9-4-13.4-7.7-26.6-7.7c-13.2,0-19.7,3.7-26.6,7.7
					c-7.3,4.2-15.5,8.9-31.2,8.9c-15.7,0-23.9-4.7-31.2-8.9c-6.9-4-13.4-7.7-26.6-7.7c-13.2,0-19.7,3.7-26.6,7.7
					c-7.3,4.2-15.5,8.9-31.2,8.9c-15.7,0-23.9-4.7-31.2-8.9c-6.9-4-13.4-7.7-26.6-7.7c-13.2,0-19.7,3.7-26.6,7.7
					c-7.3,4.2-15.5,8.9-31.2,8.9c-15.7,0-23.9-4.7-31.2-8.9c-6.9-4-13.4-7.7-26.6-7.7c-13.2,0-19.7,3.7-26.6,7.7
					c-7.3,4.2-15.5,8.9-31.2,8.9c-15.7,0-23.9-4.7-31.2-8.9c-6.9-4-13.4-7.7-26.6-7.7c-13.2,0-19.7,3.7-26.6,7.7
					c-7.3,4.2-15.5,8.9-31.2,8.9s-23.9-4.7-31.2-8.9c-6.9-4-13.4-7.7-26.6-7.7c-13.2,0-19.7,3.7-26.6,7.7
					c-7.3,4.2-15.5,8.9-31.2,8.9c-15.7,0-23.9-4.7-31.2-8.9c-6.9-4-13.4-7.7-26.6-7.7c-13.2,0-19.7,3.7-26.6,7.7
					c-7.3,4.2-15.5,8.9-31.2,8.9c-15.7,0-23.9-4.7-31.2-8.9c-6.9-4-13.4-7.7-26.6-7.7c-13.2,0-19.7,3.7-26.6,7.7
					c-7.3,4.2-15.5,8.9-31.2,8.9c-15.7,0-23.9-4.7-31.2-8.9c-6.9-4-13.4-7.7-26.6-7.7c-13.2,0-19.7,3.7-26.6,7.7
					c-7.3,4.2-15.5,8.9-31.2,8.9c-15.7,0-23.9-4.7-31.2-8.9c-6.9-4-13.4-7.7-26.6-7.7v-9.2c15.7,0,23.9,4.7,31.2,8.9
					c6.9,4,13.4,7.7,26.6,7.7c13.2,0,19.7-3.7,26.6-7.7c7.3-4.2,15.5-8.9,31.2-8.9c15.7,0,23.9,4.7,31.2,8.9
					c6.9,4,13.4,7.7,26.6,7.7c13.2,0,19.7-3.7,26.6-7.7c7.3-4.2,15.5-8.9,31.2-8.9s23.9,4.7,31.2,8.9c6.9,4,13.4,7.7,26.6,7.7
					s19.7-3.7,26.6-7.7c7.3-4.2,15.5-8.9,31.2-8.9c15.7,0,23.9,4.7,31.2,8.9c6.9,4,13.4,7.7,26.6,7.7s19.7-3.7,26.6-7.7
					c7.3-4.2,15.5-8.9,31.2-8.9c15.7,0,23.9,4.7,31.2,8.9c6.9,4,13.4,7.7,26.6,7.7c13.2,0,19.7-3.7,26.6-7.7
					c7.3-4.2,15.5-8.9,31.2-8.9c15.7,0,23.9,4.7,31.2,8.9c6.9,4,13.4,7.7,26.6,7.7c13.2,0,19.7-3.7,26.6-7.7
					c7.3-4.2,15.5-8.9,31.2-8.9s23.9,4.7,31.2,8.9c6.9,4,13.4,7.7,26.6,7.7s19.7-3.7,26.6-7.7c7.3-4.2,15.5-8.9,31.2-8.9
					c15.7,0,23.9,4.7,31.2,8.9c6.9,4,13.4,7.7,26.6,7.7c13.2,0,19.7-3.7,26.6-7.7c7.3-4.2,15.5-8.9,31.2-8.9
					c15.7,0,23.9,4.7,31.2,8.9c6.9,4,13.4,7.7,26.6,7.7c13.2,0,19.7-3.7,26.6-7.7c7.3-4.2,15.5-8.9,31.2-8.9s23.9,4.7,31.2,8.9
					c6.9,4,13.4,7.7,26.6,7.7c13.2,0,19.7-3.7,26.6-7.7c7.3-4.2,15.5-8.9,31.2-8.9s23.9,4.7,31.2,8.9c6.9,4,13.4,7.7,26.6,7.7
					s19.7-3.7,26.6-7.7c7.3-4.2,15.5-8.9,31.2-8.9c15.7,0,23.9,4.7,31.2,8.9c6.9,4,13.4,7.7,26.6,7.7s19.7-3.7,26.6-7.7
					c7.3-4.2,15.5-8.9,31.2-8.9v9.2c-13.2,0-19.7,3.7-26.6,7.7C1096.3-20.4,1088.1-15.7,1072.4-15.7z"/>
			</g>
			<g id="XMLID_606_">
				<path id="XMLID_567_" class="st2" d="M1072.4,7.8c-15.7,0-23.9-4.7-31.2-8.9c-6.9-4-13.4-7.7-26.6-7.7
					c-13.2,0-19.7,3.7-26.6,7.7c-7.3,4.2-15.5,8.9-31.2,8.9S933,3,925.7-1.1c-6.9-4-13.4-7.7-26.6-7.7s-19.7,3.7-26.6,7.7
					c-7.3,4.2-15.5,8.9-31.2,8.9c-15.7,0-23.9-4.7-31.2-8.9c-6.9-4-13.4-7.7-26.6-7.7c-13.2,0-19.7,3.7-26.6,7.7
					c-7.3,4.2-15.5,8.9-31.2,8.9c-15.7,0-23.9-4.7-31.2-8.9c-6.9-4-13.4-7.7-26.6-7.7c-13.2,0-19.7,3.7-26.6,7.7
					c-7.3,4.2-15.5,8.9-31.2,8.9c-15.7,0-23.9-4.7-31.2-8.9c-6.9-4-13.4-7.7-26.6-7.7c-13.2,0-19.7,3.7-26.6,7.7
					c-7.3,4.2-15.5,8.9-31.2,8.9c-15.7,0-23.9-4.7-31.2-8.9c-6.9-4-13.4-7.7-26.6-7.7c-13.2,0-19.7,3.7-26.6,7.7
					c-7.3,4.2-15.5,8.9-31.2,8.9c-15.7,0-23.9-4.7-31.2-8.9c-6.9-4-13.4-7.7-26.6-7.7c-13.2,0-19.7,3.7-26.6,7.7
					c-7.3,4.2-15.5,8.9-31.2,8.9S240,3,232.8-1.1c-6.9-4-13.4-7.7-26.6-7.7c-13.2,0-19.7,3.7-26.6,7.7c-7.3,4.2-15.5,8.9-31.2,8.9
					c-15.7,0-23.9-4.7-31.2-8.9c-6.9-4-13.4-7.7-26.6-7.7S71-5.1,64.1-1.1C56.8,3,48.6,7.8,32.9,7.8C17.3,7.8,9,3,1.8-1.1
					c-6.9-4-13.4-7.7-26.6-7.7c-13.2,0-19.7,3.7-26.6,7.7C-58.7,3-66.9,7.8-82.6,7.8c-15.7,0-23.9-4.7-31.2-8.9
					c-6.9-4-13.4-7.7-26.6-7.7c-13.2,0-19.7,3.7-26.6,7.7c-7.3,4.2-15.5,8.9-31.2,8.9S-222,3-229.2-1.1c-6.9-4-13.4-7.7-26.6-7.7
					V-18c15.7,0,23.9,4.7,31.2,8.9c6.9,4,13.4,7.7,26.6,7.7c13.2,0,19.7-3.7,26.6-7.7c7.3-4.2,15.5-8.9,31.2-8.9
					c15.7,0,23.9,4.7,31.2,8.9c6.9,4,13.4,7.7,26.6,7.7c13.2,0,19.7-3.7,26.6-7.7c7.3-4.2,15.5-8.9,31.2-8.9s23.9,4.7,31.2,8.9
					c6.9,4,13.4,7.7,26.6,7.7c13.2,0,19.7-3.7,26.6-7.7C66.8-13.3,75-18,90.7-18c15.7,0,23.9,4.7,31.2,8.9c6.9,4,13.4,7.7,26.6,7.7
					s19.7-3.7,26.6-7.7c7.3-4.2,15.5-8.9,31.2-8.9c15.7,0,23.9,4.7,31.2,8.9c6.9,4,13.4,7.7,26.6,7.7c13.2,0,19.7-3.7,26.6-7.7
					c7.3-4.2,15.5-8.9,31.2-8.9c15.7,0,23.9,4.7,31.2,8.9c6.9,4,13.4,7.7,26.6,7.7c13.2,0,19.7-3.7,26.6-7.7
					c7.3-4.2,15.5-8.9,31.2-8.9s23.9,4.7,31.2,8.9c6.9,4,13.4,7.7,26.6,7.7s19.7-3.7,26.6-7.7c7.3-4.2,15.5-8.9,31.2-8.9
					c15.7,0,23.9,4.7,31.2,8.9c6.9,4,13.4,7.7,26.6,7.7c13.2,0,19.7-3.7,26.6-7.7c7.3-4.2,15.5-8.9,31.2-8.9
					c15.7,0,23.9,4.7,31.2,8.9c6.9,4,13.4,7.7,26.6,7.7c13.2,0,19.7-3.7,26.6-7.7c7.3-4.2,15.5-8.9,31.2-8.9s23.9,4.7,31.2,8.9
					c6.9,4,13.4,7.7,26.6,7.7c13.2,0,19.7-3.7,26.6-7.7c7.3-4.2,15.5-8.9,31.2-8.9s23.9,4.7,31.2,8.9c6.9,4,13.4,7.7,26.6,7.7
					s19.7-3.7,26.6-7.7c7.3-4.2,15.5-8.9,31.2-8.9c15.7,0,23.9,4.7,31.2,8.9c6.9,4,13.4,7.7,26.6,7.7s19.7-3.7,26.6-7.7
					c7.3-4.2,15.5-8.9,31.2-8.9v9.2c-13.2,0-19.7,3.7-26.6,7.7C1096.3,3,1088.1,7.8,1072.4,7.8z"/>
			</g>
			<g id="XMLID_597_">
				<path id="XMLID_565_" class="st2" d="M1072.4,31.2c-15.7,0-23.9-4.7-31.2-8.9c-6.9-4-13.4-7.7-26.6-7.7
					c-13.2,0-19.7,3.7-26.6,7.7c-7.3,4.2-15.5,8.9-31.2,8.9s-23.9-4.7-31.2-8.9c-6.9-4-13.4-7.7-26.6-7.7s-19.7,3.7-26.6,7.7
					c-7.3,4.2-15.5,8.9-31.2,8.9c-15.7,0-23.9-4.7-31.2-8.9c-6.9-4-13.4-7.7-26.6-7.7c-13.2,0-19.7,3.7-26.6,7.7
					c-7.3,4.2-15.5,8.9-31.2,8.9c-15.7,0-23.9-4.7-31.2-8.9c-6.9-4-13.4-7.7-26.6-7.7c-13.2,0-19.7,3.7-26.6,7.7
					c-7.3,4.2-15.5,8.9-31.2,8.9c-15.7,0-23.9-4.7-31.2-8.9c-6.9-4-13.4-7.7-26.6-7.7c-13.2,0-19.7,3.7-26.6,7.7
					c-7.3,4.2-15.5,8.9-31.2,8.9c-15.7,0-23.9-4.7-31.2-8.9c-6.9-4-13.4-7.7-26.6-7.7c-13.2,0-19.7,3.7-26.6,7.7
					c-7.3,4.2-15.5,8.9-31.2,8.9c-15.7,0-23.9-4.7-31.2-8.9c-6.9-4-13.4-7.7-26.6-7.7c-13.2,0-19.7,3.7-26.6,7.7
					c-7.3,4.2-15.5,8.9-31.2,8.9s-23.9-4.7-31.2-8.9c-6.9-4-13.4-7.7-26.6-7.7c-13.2,0-19.7,3.7-26.6,7.7
					c-7.3,4.2-15.5,8.9-31.2,8.9c-15.7,0-23.9-4.7-31.2-8.9c-6.9-4-13.4-7.7-26.6-7.7c-13.2,0-19.7,3.7-26.6,7.7
					c-7.3,4.2-15.5,8.9-31.2,8.9c-15.7,0-23.9-4.7-31.2-8.9c-6.9-4-13.4-7.7-26.6-7.7c-13.2,0-19.7,3.7-26.6,7.7
					c-7.3,4.2-15.5,8.9-31.2,8.9c-15.7,0-23.9-4.7-31.2-8.9c-6.9-4-13.4-7.7-26.6-7.7c-13.2,0-19.7,3.7-26.6,7.7
					c-7.3,4.2-15.5,8.9-31.2,8.9c-15.7,0-23.9-4.7-31.2-8.9c-6.9-4-13.4-7.7-26.6-7.7V5.4c15.7,0,23.9,4.7,31.2,8.9
					c6.9,4,13.4,7.7,26.6,7.7c13.2,0,19.7-3.7,26.6-7.7c7.3-4.2,15.5-8.9,31.2-8.9c15.7,0,23.9,4.7,31.2,8.9
					c6.9,4,13.4,7.7,26.6,7.7c13.2,0,19.7-3.7,26.6-7.7c7.3-4.2,15.5-8.9,31.2-8.9s23.9,4.7,31.2,8.9c6.9,4,13.4,7.7,26.6,7.7
					s19.7-3.7,26.6-7.7c7.3-4.2,15.5-8.9,31.2-8.9c15.7,0,23.9,4.7,31.2,8.9c6.9,4,13.4,7.7,26.6,7.7s19.7-3.7,26.6-7.7
					c7.3-4.2,15.5-8.9,31.2-8.9c15.7,0,23.9,4.7,31.2,8.9c6.9,4,13.4,7.7,26.6,7.7c13.2,0,19.7-3.7,26.6-7.7
					c7.3-4.2,15.5-8.9,31.2-8.9c15.7,0,23.9,4.7,31.2,8.9c6.9,4,13.4,7.7,26.6,7.7c13.2,0,19.7-3.7,26.6-7.7
					c7.3-4.2,15.5-8.9,31.2-8.9s23.9,4.7,31.2,8.9c6.9,4,13.4,7.7,26.6,7.7s19.7-3.7,26.6-7.7c7.3-4.2,15.5-8.9,31.2-8.9
					c15.7,0,23.9,4.7,31.2,8.9c6.9,4,13.4,7.7,26.6,7.7c13.2,0,19.7-3.7,26.6-7.7c7.3-4.2,15.5-8.9,31.2-8.9
					c15.7,0,23.9,4.7,31.2,8.9c6.9,4,13.4,7.7,26.6,7.7c13.2,0,19.7-3.7,26.6-7.7c7.3-4.2,15.5-8.9,31.2-8.9s23.9,4.7,31.2,8.9
					c6.9,4,13.4,7.7,26.6,7.7c13.2,0,19.7-3.7,26.6-7.7c7.3-4.2,15.5-8.9,31.2-8.9s23.9,4.7,31.2,8.9c6.9,4,13.4,7.7,26.6,7.7
					s19.7-3.7,26.6-7.7c7.3-4.2,15.5-8.9,31.2-8.9c15.7,0,23.9,4.7,31.2,8.9c6.9,4,13.4,7.7,26.6,7.7s19.7-3.7,26.6-7.7
					c7.3-4.2,15.5-8.9,31.2-8.9v9.2c-13.2,0-19.7,3.7-26.6,7.7C1096.3,26.5,1088.1,31.2,1072.4,31.2z"/>
			</g>
			<g id="XMLID_591_">
				<path id="XMLID_564_" class="st2" d="M1072.4,54.7c-15.7,0-23.9-4.7-31.2-8.9c-6.9-4-13.4-7.7-26.6-7.7
					c-13.2,0-19.7,3.7-26.6,7.7c-7.3,4.2-15.5,8.9-31.2,8.9S933,50,925.7,45.8c-6.9-4-13.4-7.7-26.6-7.7s-19.7,3.7-26.6,7.7
					c-7.3,4.2-15.5,8.9-31.2,8.9c-15.7,0-23.9-4.7-31.2-8.9c-6.9-4-13.4-7.7-26.6-7.7c-13.2,0-19.7,3.7-26.6,7.7
					c-7.3,4.2-15.5,8.9-31.2,8.9c-15.7,0-23.9-4.7-31.2-8.9c-6.9-4-13.4-7.7-26.6-7.7c-13.2,0-19.7,3.7-26.6,7.7
					c-7.3,4.2-15.5,8.9-31.2,8.9c-15.7,0-23.9-4.7-31.2-8.9c-6.9-4-13.4-7.7-26.6-7.7c-13.2,0-19.7,3.7-26.6,7.7
					c-7.3,4.2-15.5,8.9-31.2,8.9c-15.7,0-23.9-4.7-31.2-8.9c-6.9-4-13.4-7.7-26.6-7.7c-13.2,0-19.7,3.7-26.6,7.7
					c-7.3,4.2-15.5,8.9-31.2,8.9c-15.7,0-23.9-4.7-31.2-8.9c-6.9-4-13.4-7.7-26.6-7.7c-13.2,0-19.7,3.7-26.6,7.7
					c-7.3,4.2-15.5,8.9-31.2,8.9S240,50,232.8,45.8c-6.9-4-13.4-7.7-26.6-7.7c-13.2,0-19.7,3.7-26.6,7.7c-7.3,4.2-15.5,8.9-31.2,8.9
					c-15.7,0-23.9-4.7-31.2-8.9c-6.9-4-13.4-7.7-26.6-7.7c-13.2,0-19.7,3.7-26.6,7.7c-7.3,4.2-15.5,8.9-31.2,8.9
					C17.3,54.7,9,50,1.8,45.8c-6.9-4-13.4-7.7-26.6-7.7c-13.2,0-19.7,3.7-26.6,7.7c-7.3,4.2-15.5,8.9-31.2,8.9
					c-15.7,0-23.9-4.7-31.2-8.9c-6.9-4-13.4-7.7-26.6-7.7c-13.2,0-19.7,3.7-26.6,7.7c-7.3,4.2-15.5,8.9-31.2,8.9
					c-15.7,0-23.9-4.7-31.2-8.9c-6.9-4-13.4-7.7-26.6-7.7v-9.2c15.7,0,23.9,4.7,31.2,8.9c6.9,4,13.4,7.7,26.6,7.7
					c13.2,0,19.7-3.7,26.6-7.7c7.3-4.2,15.5-8.9,31.2-8.9c15.7,0,23.9,4.7,31.2,8.9c6.9,4,13.4,7.7,26.6,7.7
					c13.2,0,19.7-3.7,26.6-7.7c7.3-4.2,15.5-8.9,31.2-8.9s23.9,4.7,31.2,8.9c6.9,4,13.4,7.7,26.6,7.7s19.7-3.7,26.6-7.7
					c7.3-4.2,15.5-8.9,31.2-8.9c15.7,0,23.9,4.7,31.2,8.9c6.9,4,13.4,7.7,26.6,7.7s19.7-3.7,26.6-7.7c7.3-4.2,15.5-8.9,31.2-8.9
					c15.7,0,23.9,4.7,31.2,8.9c6.9,4,13.4,7.7,26.6,7.7c13.2,0,19.7-3.7,26.6-7.7c7.3-4.2,15.5-8.9,31.2-8.9
					c15.7,0,23.9,4.7,31.2,8.9c6.9,4,13.4,7.7,26.6,7.7c13.2,0,19.7-3.7,26.6-7.7c7.3-4.2,15.5-8.9,31.2-8.9s23.9,4.7,31.2,8.9
					c6.9,4,13.4,7.7,26.6,7.7s19.7-3.7,26.6-7.7c7.3-4.2,15.5-8.9,31.2-8.9c15.7,0,23.9,4.7,31.2,8.9c6.9,4,13.4,7.7,26.6,7.7
					c13.2,0,19.7-3.7,26.6-7.7c7.3-4.2,15.5-8.9,31.2-8.9c15.7,0,23.9,4.7,31.2,8.9c6.9,4,13.4,7.7,26.6,7.7
					c13.2,0,19.7-3.7,26.6-7.7c7.3-4.2,15.5-8.9,31.2-8.9s23.9,4.7,31.2,8.9c6.9,4,13.4,7.7,26.6,7.7c13.2,0,19.7-3.7,26.6-7.7
					c7.3-4.2,15.5-8.9,31.2-8.9s23.9,4.7,31.2,8.9c6.9,4,13.4,7.7,26.6,7.7s19.7-3.7,26.6-7.7c7.3-4.2,15.5-8.9,31.2-8.9
					c15.7,0,23.9,4.7,31.2,8.9c6.9,4,13.4,7.7,26.6,7.7s19.7-3.7,26.6-7.7c7.3-4.2,15.5-8.9,31.2-8.9v9.2c-13.2,0-19.7,3.7-26.6,7.7
					C1096.3,50,1088.1,54.7,1072.4,54.7z"/>
			</g>
			<g id="XMLID_588_">
				<path id="XMLID_562_" class="st2" d="M1072.4,78.2c-15.7,0-23.9-4.7-31.2-8.9c-6.9-4-13.4-7.7-26.6-7.7
					c-13.2,0-19.7,3.7-26.6,7.7c-7.3,4.2-15.5,8.9-31.2,8.9s-23.9-4.7-31.2-8.9c-6.9-4-13.4-7.7-26.6-7.7s-19.7,3.7-26.6,7.7
					c-7.3,4.2-15.5,8.9-31.2,8.9c-15.7,0-23.9-4.7-31.2-8.9c-6.9-4-13.4-7.7-26.6-7.7c-13.2,0-19.7,3.7-26.6,7.7
					c-7.3,4.2-15.5,8.9-31.2,8.9c-15.7,0-23.9-4.7-31.2-8.9c-6.9-4-13.4-7.7-26.6-7.7c-13.2,0-19.7,3.7-26.6,7.7
					c-7.3,4.2-15.5,8.9-31.2,8.9c-15.7,0-23.9-4.7-31.2-8.9c-6.9-4-13.4-7.7-26.6-7.7c-13.2,0-19.7,3.7-26.6,7.7
					c-7.3,4.2-15.5,8.9-31.2,8.9c-15.7,0-23.9-4.7-31.2-8.9c-6.9-4-13.4-7.7-26.6-7.7c-13.2,0-19.7,3.7-26.6,7.7
					c-7.3,4.2-15.5,8.9-31.2,8.9c-15.7,0-23.9-4.7-31.2-8.9c-6.9-4-13.4-7.7-26.6-7.7c-13.2,0-19.7,3.7-26.6,7.7
					c-7.3,4.2-15.5,8.9-31.2,8.9s-23.9-4.7-31.2-8.9c-6.9-4-13.4-7.7-26.6-7.7c-13.2,0-19.7,3.7-26.6,7.7
					c-7.3,4.2-15.5,8.9-31.2,8.9c-15.7,0-23.9-4.7-31.2-8.9c-6.9-4-13.4-7.7-26.6-7.7c-13.2,0-19.7,3.7-26.6,7.7
					c-7.3,4.2-15.5,8.9-31.2,8.9c-15.7,0-23.9-4.7-31.2-8.9c-6.9-4-13.4-7.7-26.6-7.7c-13.2,0-19.7,3.7-26.6,7.7
					c-7.3,4.2-15.5,8.9-31.2,8.9c-15.7,0-23.9-4.7-31.2-8.9c-6.9-4-13.4-7.7-26.6-7.7c-13.2,0-19.7,3.7-26.6,7.7
					c-7.3,4.2-15.5,8.9-31.2,8.9c-15.7,0-23.9-4.7-31.2-8.9c-6.9-4-13.4-7.7-26.6-7.7v-9.2c15.7,0,23.9,4.7,31.2,8.9
					c6.9,4,13.4,7.7,26.6,7.7c13.2,0,19.7-3.7,26.6-7.7c7.3-4.2,15.5-8.9,31.2-8.9c15.7,0,23.9,4.7,31.2,8.9
					c6.9,4,13.4,7.7,26.6,7.7c13.2,0,19.7-3.7,26.6-7.7c7.3-4.2,15.5-8.9,31.2-8.9s23.9,4.7,31.2,8.9c6.9,4,13.4,7.7,26.6,7.7
					s19.7-3.7,26.6-7.7c7.3-4.2,15.5-8.9,31.2-8.9c15.7,0,23.9,4.7,31.2,8.9c6.9,4,13.4,7.7,26.6,7.7s19.7-3.7,26.6-7.7
					c7.3-4.2,15.5-8.9,31.2-8.9c15.7,0,23.9,4.7,31.2,8.9c6.9,4,13.4,7.7,26.6,7.7c13.2,0,19.7-3.7,26.6-7.7
					c7.3-4.2,15.5-8.9,31.2-8.9c15.7,0,23.9,4.7,31.2,8.9c6.9,4,13.4,7.7,26.6,7.7c13.2,0,19.7-3.7,26.6-7.7
					c7.3-4.2,15.5-8.9,31.2-8.9s23.9,4.7,31.2,8.9c6.9,4,13.4,7.7,26.6,7.7s19.7-3.7,26.6-7.7c7.3-4.2,15.5-8.9,31.2-8.9
					c15.7,0,23.9,4.7,31.2,8.9c6.9,4,13.4,7.7,26.6,7.7c13.2,0,19.7-3.7,26.6-7.7c7.3-4.2,15.5-8.9,31.2-8.9
					c15.7,0,23.9,4.7,31.2,8.9c6.9,4,13.4,7.7,26.6,7.7c13.2,0,19.7-3.7,26.6-7.7c7.3-4.2,15.5-8.9,31.2-8.9s23.9,4.7,31.2,8.9
					c6.9,4,13.4,7.7,26.6,7.7c13.2,0,19.7-3.7,26.6-7.7c7.3-4.2,15.5-8.9,31.2-8.9s23.9,4.7,31.2,8.9c6.9,4,13.4,7.7,26.6,7.7
					s19.7-3.7,26.6-7.7c7.3-4.2,15.5-8.9,31.2-8.9c15.7,0,23.9,4.7,31.2,8.9c6.9,4,13.4,7.7,26.6,7.7s19.7-3.7,26.6-7.7
					c7.3-4.2,15.5-8.9,31.2-8.9v9.2c-13.2,0-19.7,3.7-26.6,7.7C1096.3,73.4,1088.1,78.2,1072.4,78.2z"/>
			</g>
			<g id="XMLID_584_">
				<path id="XMLID_561_" class="st2" d="M1072.4,101.6c-15.7,0-23.9-4.7-31.2-8.9c-6.9-4-13.4-7.7-26.6-7.7
					c-13.2,0-19.7,3.7-26.6,7.7c-7.3,4.2-15.5,8.9-31.2,8.9s-23.9-4.7-31.2-8.9c-6.9-4-13.4-7.7-26.6-7.7s-19.7,3.7-26.6,7.7
					c-7.3,4.2-15.5,8.9-31.2,8.9c-15.7,0-23.9-4.7-31.2-8.9c-6.9-4-13.4-7.7-26.6-7.7c-13.2,0-19.7,3.7-26.6,7.7
					c-7.3,4.2-15.5,8.9-31.2,8.9c-15.7,0-23.9-4.7-31.2-8.9c-6.9-4-13.4-7.7-26.6-7.7c-13.2,0-19.7,3.7-26.6,7.7
					c-7.3,4.2-15.5,8.9-31.2,8.9c-15.7,0-23.9-4.7-31.2-8.9c-6.9-4-13.4-7.7-26.6-7.7c-13.2,0-19.7,3.7-26.6,7.7
					c-7.3,4.2-15.5,8.9-31.2,8.9c-15.7,0-23.9-4.7-31.2-8.9c-6.9-4-13.4-7.7-26.6-7.7c-13.2,0-19.7,3.7-26.6,7.7
					c-7.3,4.2-15.5,8.9-31.2,8.9c-15.7,0-23.9-4.7-31.2-8.9c-6.9-4-13.4-7.7-26.6-7.7c-13.2,0-19.7,3.7-26.6,7.7
					c-7.3,4.2-15.5,8.9-31.2,8.9s-23.9-4.7-31.2-8.9c-6.9-4-13.4-7.7-26.6-7.7c-13.2,0-19.7,3.7-26.6,7.7
					c-7.3,4.2-15.5,8.9-31.2,8.9c-15.7,0-23.9-4.7-31.2-8.9c-6.9-4-13.4-7.7-26.6-7.7S71,88.8,64.1,92.7c-7.3,4.2-15.5,8.9-31.2,8.9
					c-15.7,0-23.9-4.7-31.2-8.9c-6.9-4-13.4-7.7-26.6-7.7c-13.2,0-19.7,3.7-26.6,7.7c-7.3,4.2-15.5,8.9-31.2,8.9
					c-15.7,0-23.9-4.7-31.2-8.9c-6.9-4-13.4-7.7-26.6-7.7c-13.2,0-19.7,3.7-26.6,7.7c-7.3,4.2-15.5,8.9-31.2,8.9s-23.9-4.7-31.2-8.9
					c-6.9-4-13.4-7.7-26.6-7.7v-9.2c15.7,0,23.9,4.7,31.2,8.9c6.9,4,13.4,7.7,26.6,7.7c13.2,0,19.7-3.7,26.6-7.7
					c7.3-4.2,15.5-8.9,31.2-8.9c15.7,0,23.9,4.7,31.2,8.9c6.9,4,13.4,7.7,26.6,7.7c13.2,0,19.7-3.7,26.6-7.7
					c7.3-4.2,15.5-8.9,31.2-8.9s23.9,4.7,31.2,8.9c6.9,4,13.4,7.7,26.6,7.7c13.2,0,19.7-3.7,26.6-7.7c7.3-4.2,15.5-8.9,31.2-8.9
					c15.7,0,23.9,4.7,31.2,8.9c6.9,4,13.4,7.7,26.6,7.7s19.7-3.7,26.6-7.7c7.3-4.2,15.5-8.9,31.2-8.9c15.7,0,23.9,4.7,31.2,8.9
					c6.9,4,13.4,7.7,26.6,7.7c13.2,0,19.7-3.7,26.6-7.7c7.3-4.2,15.5-8.9,31.2-8.9c15.7,0,23.9,4.7,31.2,8.9
					c6.9,4,13.4,7.7,26.6,7.7c13.2,0,19.7-3.7,26.6-7.7c7.3-4.2,15.5-8.9,31.2-8.9s23.9,4.7,31.2,8.9c6.9,4,13.4,7.7,26.6,7.7
					s19.7-3.7,26.6-7.7c7.3-4.2,15.5-8.9,31.2-8.9c15.7,0,23.9,4.7,31.2,8.9c6.9,4,13.4,7.7,26.6,7.7c13.2,0,19.7-3.7,26.6-7.7
					c7.3-4.2,15.5-8.9,31.2-8.9c15.7,0,23.9,4.7,31.2,8.9c6.9,4,13.4,7.7,26.6,7.7c13.2,0,19.7-3.7,26.6-7.7
					c7.3-4.2,15.5-8.9,31.2-8.9s23.9,4.7,31.2,8.9c6.9,4,13.4,7.7,26.6,7.7c13.2,0,19.7-3.7,26.6-7.7c7.3-4.2,15.5-8.9,31.2-8.9
					s23.9,4.7,31.2,8.9c6.9,4,13.4,7.7,26.6,7.7s19.7-3.7,26.6-7.7c7.3-4.2,15.5-8.9,31.2-8.9c15.7,0,23.9,4.7,31.2,8.9
					c6.9,4,13.4,7.7,26.6,7.7s19.7-3.7,26.6-7.7c7.3-4.2,15.5-8.9,31.2-8.9V85c-13.2,0-19.7,3.7-26.6,7.7
					C1096.3,96.9,1088.1,101.6,1072.4,101.6z"/>
			</g>
			<g id="XMLID_581_">
				<path id="XMLID_559_" class="st2" d="M1072.4,125.1c-15.7,0-23.9-4.7-31.2-8.9c-6.9-4-13.4-7.7-26.6-7.7
					c-13.2,0-19.7,3.7-26.6,7.7c-7.3,4.2-15.5,8.9-31.2,8.9s-23.9-4.7-31.2-8.9c-6.9-4-13.4-7.7-26.6-7.7s-19.7,3.7-26.6,7.7
					c-7.3,4.2-15.5,8.9-31.2,8.9c-15.7,0-23.9-4.7-31.2-8.9c-6.9-4-13.4-7.7-26.6-7.7c-13.2,0-19.7,3.7-26.6,7.7
					c-7.3,4.2-15.5,8.9-31.2,8.9c-15.7,0-23.9-4.7-31.2-8.9c-6.9-4-13.4-7.7-26.6-7.7c-13.2,0-19.7,3.7-26.6,7.7
					c-7.3,4.2-15.5,8.9-31.2,8.9c-15.7,0-23.9-4.7-31.2-8.9c-6.9-4-13.4-7.7-26.6-7.7c-13.2,0-19.7,3.7-26.6,7.7
					c-7.3,4.2-15.5,8.9-31.2,8.9c-15.7,0-23.9-4.7-31.2-8.9c-6.9-4-13.4-7.7-26.6-7.7c-13.2,0-19.7,3.7-26.6,7.7
					c-7.3,4.2-15.5,8.9-31.2,8.9c-15.7,0-23.9-4.7-31.2-8.9c-6.9-4-13.4-7.7-26.6-7.7c-13.2,0-19.7,3.7-26.6,7.7
					c-7.3,4.2-15.5,8.9-31.2,8.9s-23.9-4.7-31.2-8.9c-6.9-4-13.4-7.7-26.6-7.7c-13.2,0-19.7,3.7-26.6,7.7
					c-7.3,4.2-15.5,8.9-31.2,8.9c-15.7,0-23.9-4.7-31.2-8.9c-6.9-4-13.4-7.7-26.6-7.7c-13.2,0-19.7,3.7-26.6,7.7
					c-7.3,4.2-15.5,8.9-31.2,8.9c-15.7,0-23.9-4.7-31.2-8.9c-6.9-4-13.4-7.7-26.6-7.7c-13.2,0-19.7,3.7-26.6,7.7
					c-7.3,4.2-15.5,8.9-31.2,8.9c-15.7,0-23.9-4.7-31.2-8.9c-6.9-4-13.4-7.7-26.6-7.7c-13.2,0-19.7,3.7-26.6,7.7
					c-7.3,4.2-15.5,8.9-31.2,8.9c-15.7,0-23.9-4.7-31.2-8.9c-6.9-4-13.4-7.7-26.6-7.7v-9.2c15.7,0,23.9,4.7,31.2,8.9
					c6.9,4,13.4,7.7,26.6,7.7c13.2,0,19.7-3.7,26.6-7.7c7.3-4.2,15.5-8.9,31.2-8.9c15.7,0,23.9,4.7,31.2,8.9
					c6.9,4,13.4,7.7,26.6,7.7c13.2,0,19.7-3.7,26.6-7.7c7.3-4.2,15.5-8.9,31.2-8.9s23.9,4.7,31.2,8.9c6.9,4,13.4,7.7,26.6,7.7
					s19.7-3.7,26.6-7.7c7.3-4.2,15.5-8.9,31.2-8.9c15.7,0,23.9,4.7,31.2,8.9c6.9,4,13.4,7.7,26.6,7.7s19.7-3.7,26.6-7.7
					c7.3-4.2,15.5-8.9,31.2-8.9c15.7,0,23.9,4.7,31.2,8.9c6.9,4,13.4,7.7,26.6,7.7c13.2,0,19.7-3.7,26.6-7.7
					c7.3-4.2,15.5-8.9,31.2-8.9c15.7,0,23.9,4.7,31.2,8.9c6.9,4,13.4,7.7,26.6,7.7c13.2,0,19.7-3.7,26.6-7.7
					c7.3-4.2,15.5-8.9,31.2-8.9s23.9,4.7,31.2,8.9c6.9,4,13.4,7.7,26.6,7.7s19.7-3.7,26.6-7.7c7.3-4.2,15.5-8.9,31.2-8.9
					c15.7,0,23.9,4.7,31.2,8.9c6.9,4,13.4,7.7,26.6,7.7c13.2,0,19.7-3.7,26.6-7.7c7.3-4.2,15.5-8.9,31.2-8.9
					c15.7,0,23.9,4.7,31.2,8.9c6.9,4,13.4,7.7,26.6,7.7c13.2,0,19.7-3.7,26.6-7.7c7.3-4.2,15.5-8.9,31.2-8.9s23.9,4.7,31.2,8.9
					c6.9,4,13.4,7.7,26.6,7.7c13.2,0,19.7-3.7,26.6-7.7c7.3-4.2,15.5-8.9,31.2-8.9s23.9,4.7,31.2,8.9c6.9,4,13.4,7.7,26.6,7.7
					s19.7-3.7,26.6-7.7c7.3-4.2,15.5-8.9,31.2-8.9c15.7,0,23.9,4.7,31.2,8.9c6.9,4,13.4,7.7,26.6,7.7s19.7-3.7,26.6-7.7
					c7.3-4.2,15.5-8.9,31.2-8.9v9.2c-13.2,0-19.7,3.7-26.6,7.7C1096.3,120.3,1088.1,125.1,1072.4,125.1z"/>
			</g>
			<g id="XMLID_578_">
				<path id="XMLID_558_" class="st2" d="M1072.4,148.5c-15.7,0-23.9-4.7-31.2-8.9c-6.9-4-13.4-7.7-26.6-7.7
					c-13.2,0-19.7,3.7-26.6,7.7c-7.3,4.2-15.5,8.9-31.2,8.9s-23.9-4.7-31.2-8.9c-6.9-4-13.4-7.7-26.6-7.7s-19.7,3.7-26.6,7.7
					c-7.3,4.2-15.5,8.9-31.2,8.9c-15.7,0-23.9-4.7-31.2-8.9c-6.9-4-13.4-7.7-26.6-7.7c-13.2,0-19.7,3.7-26.6,7.7
					c-7.3,4.2-15.5,8.9-31.2,8.9c-15.7,0-23.9-4.7-31.2-8.9c-6.9-4-13.4-7.7-26.6-7.7c-13.2,0-19.7,3.7-26.6,7.7
					c-7.3,4.2-15.5,8.9-31.2,8.9c-15.7,0-23.9-4.7-31.2-8.9c-6.9-4-13.4-7.7-26.6-7.7c-13.2,0-19.7,3.7-26.6,7.7
					c-7.3,4.2-15.5,8.9-31.2,8.9c-15.7,0-23.9-4.7-31.2-8.9c-6.9-4-13.4-7.7-26.6-7.7c-13.2,0-19.7,3.7-26.6,7.7
					c-7.3,4.2-15.5,8.9-31.2,8.9c-15.7,0-23.9-4.7-31.2-8.9c-6.9-4-13.4-7.7-26.6-7.7c-13.2,0-19.7,3.7-26.6,7.7
					c-7.3,4.2-15.5,8.9-31.2,8.9s-23.9-4.7-31.2-8.9c-6.9-4-13.4-7.7-26.6-7.7c-13.2,0-19.7,3.7-26.6,7.7
					c-7.3,4.2-15.5,8.9-31.2,8.9c-15.7,0-23.9-4.7-31.2-8.9c-6.9-4-13.4-7.7-26.6-7.7c-13.2,0-19.7,3.7-26.6,7.7
					c-7.3,4.2-15.5,8.9-31.2,8.9c-15.7,0-23.9-4.7-31.2-8.9c-6.9-4-13.4-7.7-26.6-7.7c-13.2,0-19.7,3.7-26.6,7.7
					c-7.3,4.2-15.5,8.9-31.2,8.9c-15.7,0-23.9-4.7-31.2-8.9c-6.9-4-13.4-7.7-26.6-7.7c-13.2,0-19.7,3.7-26.6,7.7
					c-7.3,4.2-15.5,8.9-31.2,8.9c-15.7,0-23.9-4.7-31.2-8.9c-6.9-4-13.4-7.7-26.6-7.7v-9.2c15.7,0,23.9,4.7,31.2,8.9
					c6.9,4,13.4,7.7,26.6,7.7c13.2,0,19.7-3.7,26.6-7.7c7.3-4.2,15.5-8.9,31.2-8.9c15.7,0,23.9,4.7,31.2,8.9
					c6.9,4,13.4,7.7,26.6,7.7c13.2,0,19.7-3.7,26.6-7.7c7.3-4.2,15.5-8.9,31.2-8.9s23.9,4.7,31.2,8.9c6.9,4,13.4,7.7,26.6,7.7
					s19.7-3.7,26.6-7.7c7.3-4.2,15.5-8.9,31.2-8.9c15.7,0,23.9,4.7,31.2,8.9c6.9,4,13.4,7.7,26.6,7.7s19.7-3.7,26.6-7.7
					c7.3-4.2,15.5-8.9,31.2-8.9c15.7,0,23.9,4.7,31.2,8.9c6.9,4,13.4,7.7,26.6,7.7c13.2,0,19.7-3.7,26.6-7.7
					c7.3-4.2,15.5-8.9,31.2-8.9c15.7,0,23.9,4.7,31.2,8.9c6.9,4,13.4,7.7,26.6,7.7c13.2,0,19.7-3.7,26.6-7.7
					c7.3-4.2,15.5-8.9,31.2-8.9s23.9,4.7,31.2,8.9c6.9,4,13.4,7.7,26.6,7.7s19.7-3.7,26.6-7.7c7.3-4.2,15.5-8.9,31.2-8.9
					c15.7,0,23.9,4.7,31.2,8.9c6.9,4,13.4,7.7,26.6,7.7c13.2,0,19.7-3.7,26.6-7.7c7.3-4.2,15.5-8.9,31.2-8.9
					c15.7,0,23.9,4.7,31.2,8.9c6.9,4,13.4,7.7,26.6,7.7c13.2,0,19.7-3.7,26.6-7.7c7.3-4.2,15.5-8.9,31.2-8.9s23.9,4.7,31.2,8.9
					c6.9,4,13.4,7.7,26.6,7.7c13.2,0,19.7-3.7,26.6-7.7c7.3-4.2,15.5-8.9,31.2-8.9s23.9,4.7,31.2,8.9c6.9,4,13.4,7.7,26.6,7.7
					s19.7-3.7,26.6-7.7c7.3-4.2,15.5-8.9,31.2-8.9c15.7,0,23.9,4.7,31.2,8.9c6.9,4,13.4,7.7,26.6,7.7s19.7-3.7,26.6-7.7
					c7.3-4.2,15.5-8.9,31.2-8.9v9.2c-13.2,0-19.7,3.7-26.6,7.7C1096.3,143.8,1088.1,148.5,1072.4,148.5z"/>
			</g>
			<g id="XMLID_575_">
				<path id="XMLID_556_" class="st2" d="M1072.4,172c-15.7,0-23.9-4.7-31.2-8.9c-6.9-4-13.4-7.7-26.6-7.7
					c-13.2,0-19.7,3.7-26.6,7.7c-7.3,4.2-15.5,8.9-31.2,8.9s-23.9-4.7-31.2-8.9c-6.9-4-13.4-7.7-26.6-7.7s-19.7,3.7-26.6,7.7
					c-7.3,4.2-15.5,8.9-31.2,8.9c-15.7,0-23.9-4.7-31.2-8.9c-6.9-4-13.4-7.7-26.6-7.7c-13.2,0-19.7,3.7-26.6,7.7
					c-7.3,4.2-15.5,8.9-31.2,8.9c-15.7,0-23.9-4.7-31.2-8.9c-6.9-4-13.4-7.7-26.6-7.7c-13.2,0-19.7,3.7-26.6,7.7
					c-7.3,4.2-15.5,8.9-31.2,8.9c-15.7,0-23.9-4.7-31.2-8.9c-6.9-4-13.4-7.7-26.6-7.7c-13.2,0-19.7,3.7-26.6,7.7
					c-7.3,4.2-15.5,8.9-31.2,8.9c-15.7,0-23.9-4.7-31.2-8.9c-6.9-4-13.4-7.7-26.6-7.7c-13.2,0-19.7,3.7-26.6,7.7
					c-7.3,4.2-15.5,8.9-31.2,8.9c-15.7,0-23.9-4.7-31.2-8.9c-6.9-4-13.4-7.7-26.6-7.7c-13.2,0-19.7,3.7-26.6,7.7
					c-7.3,4.2-15.5,8.9-31.2,8.9s-23.9-4.7-31.2-8.9c-6.9-4-13.4-7.7-26.6-7.7c-13.2,0-19.7,3.7-26.6,7.7
					c-7.3,4.2-15.5,8.9-31.2,8.9c-15.7,0-23.9-4.7-31.2-8.9c-6.9-4-13.4-7.7-26.6-7.7s-19.7,3.7-26.6,7.7
					c-7.3,4.2-15.5,8.9-31.2,8.9c-15.7,0-23.9-4.7-31.2-8.9c-6.9-4-13.4-7.7-26.6-7.7c-13.2,0-19.7,3.7-26.6,7.7
					c-7.3,4.2-15.5,8.9-31.2,8.9c-15.7,0-23.9-4.7-31.2-8.9c-6.9-4-13.4-7.7-26.6-7.7c-13.2,0-19.7,3.7-26.6,7.7
					c-7.3,4.2-15.5,8.9-31.2,8.9s-23.9-4.7-31.2-8.9c-6.9-4-13.4-7.7-26.6-7.7v-9.2c15.7,0,23.9,4.7,31.2,8.9
					c6.9,4,13.4,7.7,26.6,7.7c13.2,0,19.7-3.7,26.6-7.7c7.3-4.2,15.5-8.9,31.2-8.9c15.7,0,23.9,4.7,31.2,8.9
					c6.9,4,13.4,7.7,26.6,7.7c13.2,0,19.7-3.7,26.6-7.7c7.3-4.2,15.5-8.9,31.2-8.9s23.9,4.7,31.2,8.9c6.9,4,13.4,7.7,26.6,7.7
					c13.2,0,19.7-3.7,26.6-7.7c7.3-4.2,15.5-8.9,31.2-8.9c15.7,0,23.9,4.7,31.2,8.9c6.9,4,13.4,7.7,26.6,7.7s19.7-3.7,26.6-7.7
					c7.3-4.2,15.5-8.9,31.2-8.9c15.7,0,23.9,4.7,31.2,8.9c6.9,4,13.4,7.7,26.6,7.7c13.2,0,19.7-3.7,26.6-7.7
					c7.3-4.2,15.5-8.9,31.2-8.9c15.7,0,23.9,4.7,31.2,8.9c6.9,4,13.4,7.7,26.6,7.7c13.2,0,19.7-3.7,26.6-7.7
					c7.3-4.2,15.5-8.9,31.2-8.9s23.9,4.7,31.2,8.9c6.9,4,13.4,7.7,26.6,7.7s19.7-3.7,26.6-7.7c7.3-4.2,15.5-8.9,31.2-8.9
					c15.7,0,23.9,4.7,31.2,8.9c6.9,4,13.4,7.7,26.6,7.7c13.2,0,19.7-3.7,26.6-7.7c7.3-4.2,15.5-8.9,31.2-8.9
					c15.7,0,23.9,4.7,31.2,8.9c6.9,4,13.4,7.7,26.6,7.7c13.2,0,19.7-3.7,26.6-7.7c7.3-4.2,15.5-8.9,31.2-8.9s23.9,4.7,31.2,8.9
					c6.9,4,13.4,7.7,26.6,7.7c13.2,0,19.7-3.7,26.6-7.7c7.3-4.2,15.5-8.9,31.2-8.9s23.9,4.7,31.2,8.9c6.9,4,13.4,7.7,26.6,7.7
					s19.7-3.7,26.6-7.7c7.3-4.2,15.5-8.9,31.2-8.9c15.7,0,23.9,4.7,31.2,8.9c6.9,4,13.4,7.7,26.6,7.7s19.7-3.7,26.6-7.7
					c7.3-4.2,15.5-8.9,31.2-8.9v9.2c-13.2,0-19.7,3.7-26.6,7.7C1096.3,167.3,1088.1,172,1072.4,172z"/>
			</g>
			<g id="XMLID_572_">
				<path id="XMLID_555_" class="st2" d="M1072.4,195.5c-15.7,0-23.9-4.7-31.2-8.9c-6.9-4-13.4-7.7-26.6-7.7
					c-13.2,0-19.7,3.7-26.6,7.7c-7.3,4.2-15.5,8.9-31.2,8.9s-23.9-4.7-31.2-8.9c-6.9-4-13.4-7.7-26.6-7.7s-19.7,3.7-26.6,7.7
					c-7.3,4.2-15.5,8.9-31.2,8.9c-15.7,0-23.9-4.7-31.2-8.9c-6.9-4-13.4-7.7-26.6-7.7c-13.2,0-19.7,3.7-26.6,7.7
					c-7.3,4.2-15.5,8.9-31.2,8.9c-15.7,0-23.9-4.7-31.2-8.9c-6.9-4-13.4-7.7-26.6-7.7c-13.2,0-19.7,3.7-26.6,7.7
					c-7.3,4.2-15.5,8.9-31.2,8.9c-15.7,0-23.9-4.7-31.2-8.9c-6.9-4-13.4-7.7-26.6-7.7c-13.2,0-19.7,3.7-26.6,7.7
					c-7.3,4.2-15.5,8.9-31.2,8.9c-15.7,0-23.9-4.7-31.2-8.9c-6.9-4-13.4-7.7-26.6-7.7c-13.2,0-19.7,3.7-26.6,7.7
					c-7.3,4.2-15.5,8.9-31.2,8.9c-15.7,0-23.9-4.7-31.2-8.9c-6.9-4-13.4-7.7-26.6-7.7c-13.2,0-19.7,3.7-26.6,7.7
					c-7.3,4.2-15.5,8.9-31.2,8.9s-23.9-4.7-31.2-8.9c-6.9-4-13.4-7.7-26.6-7.7c-13.2,0-19.7,3.7-26.6,7.7
					c-7.3,4.2-15.5,8.9-31.2,8.9c-15.7,0-23.9-4.7-31.2-8.9c-6.9-4-13.4-7.7-26.6-7.7c-13.2,0-19.7,3.7-26.6,7.7
					c-7.3,4.2-15.5,8.9-31.2,8.9c-15.7,0-23.9-4.7-31.2-8.9c-6.9-4-13.4-7.7-26.6-7.7c-13.2,0-19.7,3.7-26.6,7.7
					c-7.3,4.2-15.5,8.9-31.2,8.9c-15.7,0-23.9-4.7-31.2-8.9c-6.9-4-13.4-7.7-26.6-7.7c-13.2,0-19.7,3.7-26.6,7.7
					c-7.3,4.2-15.5,8.9-31.2,8.9c-15.7,0-23.9-4.7-31.2-8.9c-6.9-4-13.4-7.7-26.6-7.7v-9.2c15.7,0,23.9,4.7,31.2,8.9
					c6.9,4,13.4,7.7,26.6,7.7c13.2,0,19.7-3.7,26.6-7.7c7.3-4.2,15.5-8.9,31.2-8.9c15.7,0,23.9,4.7,31.2,8.9
					c6.9,4,13.4,7.7,26.6,7.7c13.2,0,19.7-3.7,26.6-7.7c7.3-4.2,15.5-8.9,31.2-8.9s23.9,4.7,31.2,8.9c6.9,4,13.4,7.7,26.6,7.7
					s19.7-3.7,26.6-7.7c7.3-4.2,15.5-8.9,31.2-8.9c15.7,0,23.9,4.7,31.2,8.9c6.9,4,13.4,7.7,26.6,7.7s19.7-3.7,26.6-7.7
					c7.3-4.2,15.5-8.9,31.2-8.9c15.7,0,23.9,4.7,31.2,8.9c6.9,4,13.4,7.7,26.6,7.7c13.2,0,19.7-3.7,26.6-7.7
					c7.3-4.2,15.5-8.9,31.2-8.9c15.7,0,23.9,4.7,31.2,8.9c6.9,4,13.4,7.7,26.6,7.7c13.2,0,19.7-3.7,26.6-7.7
					c7.3-4.2,15.5-8.9,31.2-8.9s23.9,4.7,31.2,8.9c6.9,4,13.4,7.7,26.6,7.7s19.7-3.7,26.6-7.7c7.3-4.2,15.5-8.9,31.2-8.9
					c15.7,0,23.9,4.7,31.2,8.9c6.9,4,13.4,7.7,26.6,7.7c13.2,0,19.7-3.7,26.6-7.7c7.3-4.2,15.5-8.9,31.2-8.9
					c15.7,0,23.9,4.7,31.2,8.9c6.9,4,13.4,7.7,26.6,7.7c13.2,0,19.7-3.7,26.6-7.7c7.3-4.2,15.5-8.9,31.2-8.9s23.9,4.7,31.2,8.9
					c6.9,4,13.4,7.7,26.6,7.7c13.2,0,19.7-3.7,26.6-7.7c7.3-4.2,15.5-8.9,31.2-8.9s23.9,4.7,31.2,8.9c6.9,4,13.4,7.7,26.6,7.7
					s19.7-3.7,26.6-7.7c7.3-4.2,15.5-8.9,31.2-8.9c15.7,0,23.9,4.7,31.2,8.9c6.9,4,13.4,7.7,26.6,7.7s19.7-3.7,26.6-7.7
					c7.3-4.2,15.5-8.9,31.2-8.9v9.2c-13.2,0-19.7,3.7-26.6,7.7C1096.3,190.7,1088.1,195.5,1072.4,195.5z"/>
			</g>
			<g id="XMLID_569_">
				<path id="XMLID_553_" class="st2" d="M1072.4,218.9c-15.7,0-23.9-4.7-31.2-8.9c-6.9-4-13.4-7.7-26.6-7.7
					c-13.2,0-19.7,3.7-26.6,7.7c-7.3,4.2-15.5,8.9-31.2,8.9s-23.9-4.7-31.2-8.9c-6.9-4-13.4-7.7-26.6-7.7s-19.7,3.7-26.6,7.7
					c-7.3,4.2-15.5,8.9-31.2,8.9c-15.7,0-23.9-4.7-31.2-8.9c-6.9-4-13.4-7.7-26.6-7.7c-13.2,0-19.7,3.7-26.6,7.7
					c-7.3,4.2-15.5,8.9-31.2,8.9c-15.7,0-23.9-4.7-31.2-8.9c-6.9-4-13.4-7.7-26.6-7.7c-13.2,0-19.7,3.7-26.6,7.7
					c-7.3,4.2-15.5,8.9-31.2,8.9c-15.7,0-23.9-4.7-31.2-8.9c-6.9-4-13.4-7.7-26.6-7.7c-13.2,0-19.7,3.7-26.6,7.7
					c-7.3,4.2-15.5,8.9-31.2,8.9c-15.7,0-23.9-4.7-31.2-8.9c-6.9-4-13.4-7.7-26.6-7.7c-13.2,0-19.7,3.7-26.6,7.7
					c-7.3,4.2-15.5,8.9-31.2,8.9c-15.7,0-23.9-4.7-31.2-8.9c-6.9-4-13.4-7.7-26.6-7.7c-13.2,0-19.7,3.7-26.6,7.7
					c-7.3,4.2-15.5,8.9-31.2,8.9s-23.9-4.7-31.2-8.9c-6.9-4-13.4-7.7-26.6-7.7c-13.2,0-19.7,3.7-26.6,7.7
					c-7.3,4.2-15.5,8.9-31.2,8.9c-15.7,0-23.9-4.7-31.2-8.9c-6.9-4-13.4-7.7-26.6-7.7c-13.2,0-19.7,3.7-26.6,7.7
					c-7.3,4.2-15.5,8.9-31.2,8.9c-15.7,0-23.9-4.7-31.2-8.9c-6.9-4-13.4-7.7-26.6-7.7c-13.2,0-19.7,3.7-26.6,7.7
					c-7.3,4.2-15.5,8.9-31.2,8.9c-15.7,0-23.9-4.7-31.2-8.9c-6.9-4-13.4-7.7-26.6-7.7c-13.2,0-19.7,3.7-26.6,7.7
					c-7.3,4.2-15.5,8.9-31.2,8.9c-15.7,0-23.9-4.7-31.2-8.9c-6.9-4-13.4-7.7-26.6-7.7v-9.2c15.7,0,23.9,4.7,31.2,8.9
					c6.9,4,13.4,7.7,26.6,7.7c13.2,0,19.7-3.7,26.6-7.7c7.3-4.2,15.5-8.9,31.2-8.9c15.7,0,23.9,4.7,31.2,8.9
					c6.9,4,13.4,7.7,26.6,7.7c13.2,0,19.7-3.7,26.6-7.7c7.3-4.2,15.5-8.9,31.2-8.9s23.9,4.7,31.2,8.9c6.9,4,13.4,7.7,26.6,7.7
					s19.7-3.7,26.6-7.7c7.3-4.2,15.5-8.9,31.2-8.9c15.7,0,23.9,4.7,31.2,8.9c6.9,4,13.4,7.7,26.6,7.7s19.7-3.7,26.6-7.7
					c7.3-4.2,15.5-8.9,31.2-8.9c15.7,0,23.9,4.7,31.2,8.9c6.9,4,13.4,7.7,26.6,7.7c13.2,0,19.7-3.7,26.6-7.7
					c7.3-4.2,15.5-8.9,31.2-8.9c15.7,0,23.9,4.7,31.2,8.9c6.9,4,13.4,7.7,26.6,7.7c13.2,0,19.7-3.7,26.6-7.7
					c7.3-4.2,15.5-8.9,31.2-8.9s23.9,4.7,31.2,8.9c6.9,4,13.4,7.7,26.6,7.7s19.7-3.7,26.6-7.7c7.3-4.2,15.5-8.9,31.2-8.9
					c15.7,0,23.9,4.7,31.2,8.9c6.9,4,13.4,7.7,26.6,7.7c13.2,0,19.7-3.7,26.6-7.7c7.3-4.2,15.5-8.9,31.2-8.9
					c15.7,0,23.9,4.7,31.2,8.9c6.9,4,13.4,7.7,26.6,7.7c13.2,0,19.7-3.7,26.6-7.7c7.3-4.2,15.5-8.9,31.2-8.9s23.9,4.7,31.2,8.9
					c6.9,4,13.4,7.7,26.6,7.7c13.2,0,19.7-3.7,26.6-7.7c7.3-4.2,15.5-8.9,31.2-8.9s23.9,4.7,31.2,8.9c6.9,4,13.4,7.7,26.6,7.7
					s19.7-3.7,26.6-7.7c7.3-4.2,15.5-8.9,31.2-8.9c15.7,0,23.9,4.7,31.2,8.9c6.9,4,13.4,7.7,26.6,7.7s19.7-3.7,26.6-7.7
					c7.3-4.2,15.5-8.9,31.2-8.9v9.2c-13.2,0-19.7,3.7-26.6,7.7C1096.3,214.2,1088.1,218.9,1072.4,218.9z"/>
			</g>
			<g id="XMLID_566_">
				<path id="XMLID_552_" class="st2" d="M1072.4,242.4c-15.7,0-23.9-4.7-31.2-8.9c-6.9-4-13.4-7.7-26.6-7.7
					c-13.2,0-19.7,3.7-26.6,7.7c-7.3,4.2-15.5,8.9-31.2,8.9s-23.9-4.7-31.2-8.9c-6.9-4-13.4-7.7-26.6-7.7s-19.7,3.7-26.6,7.7
					c-7.3,4.2-15.5,8.9-31.2,8.9c-15.7,0-23.9-4.7-31.2-8.9c-6.9-4-13.4-7.7-26.6-7.7c-13.2,0-19.7,3.7-26.6,7.7
					c-7.3,4.2-15.5,8.9-31.2,8.9c-15.7,0-23.9-4.7-31.2-8.9c-6.9-4-13.4-7.7-26.6-7.7c-13.2,0-19.7,3.7-26.6,7.7
					c-7.3,4.2-15.5,8.9-31.2,8.9c-15.7,0-23.9-4.7-31.2-8.9c-6.9-4-13.4-7.7-26.6-7.7c-13.2,0-19.7,3.7-26.6,7.7
					c-7.3,4.2-15.5,8.9-31.2,8.9c-15.7,0-23.9-4.7-31.2-8.9c-6.9-4-13.4-7.7-26.6-7.7c-13.2,0-19.7,3.7-26.6,7.7
					c-7.3,4.2-15.5,8.9-31.2,8.9c-15.7,0-23.9-4.7-31.2-8.9c-6.9-4-13.4-7.7-26.6-7.7c-13.2,0-19.7,3.7-26.6,7.7
					c-7.3,4.2-15.5,8.9-31.2,8.9s-23.9-4.7-31.2-8.9c-6.9-4-13.4-7.7-26.6-7.7c-13.2,0-19.7,3.7-26.6,7.7
					c-7.3,4.2-15.5,8.9-31.2,8.9c-15.7,0-23.9-4.7-31.2-8.9c-6.9-4-13.4-7.7-26.6-7.7c-13.2,0-19.7,3.7-26.6,7.7
					c-7.3,4.2-15.5,8.9-31.2,8.9c-15.7,0-23.9-4.7-31.2-8.9c-6.9-4-13.4-7.7-26.6-7.7c-13.2,0-19.7,3.7-26.6,7.7
					c-7.3,4.2-15.5,8.9-31.2,8.9c-15.7,0-23.9-4.7-31.2-8.9c-6.9-4-13.4-7.7-26.6-7.7c-13.2,0-19.7,3.7-26.6,7.7
					c-7.3,4.2-15.5,8.9-31.2,8.9c-15.7,0-23.9-4.7-31.2-8.9c-6.9-4-13.4-7.7-26.6-7.7v-9.2c15.7,0,23.9,4.7,31.2,8.9
					c6.9,4,13.4,7.7,26.6,7.7c13.2,0,19.7-3.7,26.6-7.7c7.3-4.2,15.5-8.9,31.2-8.9c15.7,0,23.9,4.7,31.2,8.9
					c6.9,4,13.4,7.7,26.6,7.7c13.2,0,19.7-3.7,26.6-7.7c7.3-4.2,15.5-8.9,31.2-8.9s23.9,4.7,31.2,8.9c6.9,4,13.4,7.7,26.6,7.7
					s19.7-3.7,26.6-7.7c7.3-4.2,15.5-8.9,31.2-8.9c15.7,0,23.9,4.7,31.2,8.9c6.9,4,13.4,7.7,26.6,7.7s19.7-3.7,26.6-7.7
					c7.3-4.2,15.5-8.9,31.2-8.9c15.7,0,23.9,4.7,31.2,8.9c6.9,4,13.4,7.7,26.6,7.7c13.2,0,19.7-3.7,26.6-7.7
					c7.3-4.2,15.5-8.9,31.2-8.9c15.7,0,23.9,4.7,31.2,8.9c6.9,4,13.4,7.7,26.6,7.7c13.2,0,19.7-3.7,26.6-7.7
					c7.3-4.2,15.5-8.9,31.2-8.9s23.9,4.7,31.2,8.9c6.9,4,13.4,7.7,26.6,7.7s19.7-3.7,26.6-7.7c7.3-4.2,15.5-8.9,31.2-8.9
					c15.7,0,23.9,4.7,31.2,8.9c6.9,4,13.4,7.7,26.6,7.7c13.2,0,19.7-3.7,26.6-7.7c7.3-4.2,15.5-8.9,31.2-8.9
					c15.7,0,23.9,4.7,31.2,8.9c6.9,4,13.4,7.7,26.6,7.7c13.2,0,19.7-3.7,26.6-7.7c7.3-4.2,15.5-8.9,31.2-8.9s23.9,4.7,31.2,8.9
					c6.9,4,13.4,7.7,26.6,7.7c13.2,0,19.7-3.7,26.6-7.7c7.3-4.2,15.5-8.9,31.2-8.9s23.9,4.7,31.2,8.9c6.9,4,13.4,7.7,26.6,7.7
					s19.7-3.7,26.6-7.7c7.3-4.2,15.5-8.9,31.2-8.9c15.7,0,23.9,4.7,31.2,8.9c6.9,4,13.4,7.7,26.6,7.7s19.7-3.7,26.6-7.7
					c7.3-4.2,15.5-8.9,31.2-8.9v9.2c-13.2,0-19.7,3.7-26.6,7.7C1096.3,237.6,1088.1,242.4,1072.4,242.4z"/>
			</g>
			<g id="XMLID_563_">
				<path id="XMLID_550_" class="st2" d="M1072.4,265.8c-15.7,0-23.9-4.7-31.2-8.9c-6.9-4-13.4-7.7-26.6-7.7
					c-13.2,0-19.7,3.7-26.6,7.7c-7.3,4.2-15.5,8.9-31.2,8.9s-23.9-4.7-31.2-8.9c-6.9-4-13.4-7.7-26.6-7.7s-19.7,3.7-26.6,7.7
					c-7.3,4.2-15.5,8.9-31.2,8.9c-15.7,0-23.9-4.7-31.2-8.9c-6.9-4-13.4-7.7-26.6-7.7c-13.2,0-19.7,3.7-26.6,7.7
					c-7.3,4.2-15.5,8.9-31.2,8.9c-15.7,0-23.9-4.7-31.2-8.9c-6.9-4-13.4-7.7-26.6-7.7c-13.2,0-19.7,3.7-26.6,7.7
					c-7.3,4.2-15.5,8.9-31.2,8.9c-15.7,0-23.9-4.7-31.2-8.9c-6.9-4-13.4-7.7-26.6-7.7c-13.2,0-19.7,3.7-26.6,7.7
					c-7.3,4.2-15.5,8.9-31.2,8.9c-15.7,0-23.9-4.7-31.2-8.9c-6.9-4-13.4-7.7-26.6-7.7c-13.2,0-19.7,3.7-26.6,7.7
					c-7.3,4.2-15.5,8.9-31.2,8.9c-15.7,0-23.9-4.7-31.2-8.9c-6.9-4-13.4-7.7-26.6-7.7c-13.2,0-19.7,3.7-26.6,7.7
					c-7.3,4.2-15.5,8.9-31.2,8.9s-23.9-4.7-31.2-8.9c-6.9-4-13.4-7.7-26.6-7.7c-13.2,0-19.7,3.7-26.6,7.7
					c-7.3,4.2-15.5,8.9-31.2,8.9c-15.7,0-23.9-4.7-31.2-8.9c-6.9-4-13.4-7.7-26.6-7.7S71,253,64.1,256.9c-7.3,4.2-15.5,8.9-31.2,8.9
					c-15.7,0-23.9-4.7-31.2-8.9c-6.9-4-13.4-7.7-26.6-7.7c-13.2,0-19.7,3.7-26.6,7.7c-7.3,4.2-15.5,8.9-31.2,8.9
					c-15.7,0-23.9-4.7-31.2-8.9c-6.9-4-13.4-7.7-26.6-7.7c-13.2,0-19.7,3.7-26.6,7.7c-7.3,4.2-15.5,8.9-31.2,8.9s-23.9-4.7-31.2-8.9
					c-6.9-4-13.4-7.7-26.6-7.7V240c15.7,0,23.9,4.7,31.2,8.9c6.9,4,13.4,7.7,26.6,7.7c13.2,0,19.7-3.7,26.6-7.7
					c7.3-4.2,15.5-8.9,31.2-8.9c15.7,0,23.9,4.7,31.2,8.9c6.9,4,13.4,7.7,26.6,7.7c13.2,0,19.7-3.7,26.6-7.7
					c7.3-4.2,15.5-8.9,31.2-8.9s23.9,4.7,31.2,8.9c6.9,4,13.4,7.7,26.6,7.7c13.2,0,19.7-3.7,26.6-7.7c7.3-4.2,15.5-8.9,31.2-8.9
					c15.7,0,23.9,4.7,31.2,8.9c6.9,4,13.4,7.7,26.6,7.7s19.7-3.7,26.6-7.7c7.3-4.2,15.5-8.9,31.2-8.9c15.7,0,23.9,4.7,31.2,8.9
					c6.9,4,13.4,7.7,26.6,7.7c13.2,0,19.7-3.7,26.6-7.7c7.3-4.2,15.5-8.9,31.2-8.9c15.7,0,23.9,4.7,31.2,8.9
					c6.9,4,13.4,7.7,26.6,7.7c13.2,0,19.7-3.7,26.6-7.7c7.3-4.2,15.5-8.9,31.2-8.9s23.9,4.7,31.2,8.9c6.9,4,13.4,7.7,26.6,7.7
					s19.7-3.7,26.6-7.7c7.3-4.2,15.5-8.9,31.2-8.9c15.7,0,23.9,4.7,31.2,8.9c6.9,4,13.4,7.7,26.6,7.7c13.2,0,19.7-3.7,26.6-7.7
					c7.3-4.2,15.5-8.9,31.2-8.9c15.7,0,23.9,4.7,31.2,8.9c6.9,4,13.4,7.7,26.6,7.7c13.2,0,19.7-3.7,26.6-7.7
					c7.3-4.2,15.5-8.9,31.2-8.9s23.9,4.7,31.2,8.9c6.9,4,13.4,7.7,26.6,7.7c13.2,0,19.7-3.7,26.6-7.7c7.3-4.2,15.5-8.9,31.2-8.9
					s23.9,4.7,31.2,8.9c6.9,4,13.4,7.7,26.6,7.7s19.7-3.7,26.6-7.7c7.3-4.2,15.5-8.9,31.2-8.9c15.7,0,23.9,4.7,31.2,8.9
					c6.9,4,13.4,7.7,26.6,7.7s19.7-3.7,26.6-7.7c7.3-4.2,15.5-8.9,31.2-8.9v9.2c-13.2,0-19.7,3.7-26.6,7.7
					C1096.3,261.1,1088.1,265.8,1072.4,265.8z"/>
			</g>
			<g id="XMLID_560_">
				<path id="XMLID_549_" class="st2" d="M1072.4,289.3c-15.7,0-23.9-4.7-31.2-8.9c-6.9-4-13.4-7.7-26.6-7.7
					c-13.2,0-19.7,3.7-26.6,7.7c-7.3,4.2-15.5,8.9-31.2,8.9s-23.9-4.7-31.2-8.9c-6.9-4-13.4-7.7-26.6-7.7s-19.7,3.7-26.6,7.7
					c-7.3,4.2-15.5,8.9-31.2,8.9c-15.7,0-23.9-4.7-31.2-8.9c-6.9-4-13.4-7.7-26.6-7.7c-13.2,0-19.7,3.7-26.6,7.7
					c-7.3,4.2-15.5,8.9-31.2,8.9c-15.7,0-23.9-4.7-31.2-8.9c-6.9-4-13.4-7.7-26.6-7.7c-13.2,0-19.7,3.7-26.6,7.7
					c-7.3,4.2-15.5,8.9-31.2,8.9c-15.7,0-23.9-4.7-31.2-8.9c-6.9-4-13.4-7.7-26.6-7.7c-13.2,0-19.7,3.7-26.6,7.7
					c-7.3,4.2-15.5,8.9-31.2,8.9c-15.7,0-23.9-4.7-31.2-8.9c-6.9-4-13.4-7.7-26.6-7.7c-13.2,0-19.7,3.7-26.6,7.7
					c-7.3,4.2-15.5,8.9-31.2,8.9c-15.7,0-23.9-4.7-31.2-8.9c-6.9-4-13.4-7.7-26.6-7.7c-13.2,0-19.7,3.7-26.6,7.7
					c-7.3,4.2-15.5,8.9-31.2,8.9s-23.9-4.7-31.2-8.9c-6.9-4-13.4-7.7-26.6-7.7c-13.2,0-19.7,3.7-26.6,7.7
					c-7.3,4.2-15.5,8.9-31.2,8.9c-15.7,0-23.9-4.7-31.2-8.9c-6.9-4-13.4-7.7-26.6-7.7c-13.2,0-19.7,3.7-26.6,7.7
					c-7.3,4.2-15.5,8.9-31.2,8.9c-15.7,0-23.9-4.7-31.2-8.9c-6.9-4-13.4-7.7-26.6-7.7c-13.2,0-19.7,3.7-26.6,7.7
					c-7.3,4.2-15.5,8.9-31.2,8.9c-15.7,0-23.9-4.7-31.2-8.9c-6.9-4-13.4-7.7-26.6-7.7c-13.2,0-19.7,3.7-26.6,7.7
					c-7.3,4.2-15.5,8.9-31.2,8.9c-15.7,0-23.9-4.7-31.2-8.9c-6.9-4-13.4-7.7-26.6-7.7v-9.2c15.7,0,23.9,4.7,31.2,8.9
					c6.9,4,13.4,7.7,26.6,7.7c13.2,0,19.7-3.7,26.6-7.7c7.3-4.2,15.5-8.9,31.2-8.9c15.7,0,23.9,4.7,31.2,8.9
					c6.9,4,13.4,7.7,26.6,7.7c13.2,0,19.7-3.7,26.6-7.7c7.3-4.2,15.5-8.9,31.2-8.9s23.9,4.7,31.2,8.9c6.9,4,13.4,7.7,26.6,7.7
					s19.7-3.7,26.6-7.7c7.3-4.2,15.5-8.9,31.2-8.9c15.7,0,23.9,4.7,31.2,8.9c6.9,4,13.4,7.7,26.6,7.7s19.7-3.7,26.6-7.7
					c7.3-4.2,15.5-8.9,31.2-8.9c15.7,0,23.9,4.7,31.2,8.9c6.9,4,13.4,7.7,26.6,7.7c13.2,0,19.7-3.7,26.6-7.7
					c7.3-4.2,15.5-8.9,31.2-8.9c15.7,0,23.9,4.7,31.2,8.9c6.9,4,13.4,7.7,26.6,7.7c13.2,0,19.7-3.7,26.6-7.7
					c7.3-4.2,15.5-8.9,31.2-8.9s23.9,4.7,31.2,8.9c6.9,4,13.4,7.7,26.6,7.7s19.7-3.7,26.6-7.7c7.3-4.2,15.5-8.9,31.2-8.9
					c15.7,0,23.9,4.7,31.2,8.9c6.9,4,13.4,7.7,26.6,7.7c13.2,0,19.7-3.7,26.6-7.7c7.3-4.2,15.5-8.9,31.2-8.9
					c15.7,0,23.9,4.7,31.2,8.9c6.9,4,13.4,7.7,26.6,7.7c13.2,0,19.7-3.7,26.6-7.7c7.3-4.2,15.5-8.9,31.2-8.9s23.9,4.7,31.2,8.9
					c6.9,4,13.4,7.7,26.6,7.7c13.2,0,19.7-3.7,26.6-7.7c7.3-4.2,15.5-8.9,31.2-8.9s23.9,4.7,31.2,8.9c6.9,4,13.4,7.7,26.6,7.7
					s19.7-3.7,26.6-7.7c7.3-4.2,15.5-8.9,31.2-8.9c15.7,0,23.9,4.7,31.2,8.9c6.9,4,13.4,7.7,26.6,7.7s19.7-3.7,26.6-7.7
					c7.3-4.2,15.5-8.9,31.2-8.9v9.2c-13.2,0-19.7,3.7-26.6,7.7C1096.3,284.6,1088.1,289.3,1072.4,289.3z"/>
			</g>
			<g id="XMLID_557_">
				<path id="XMLID_547_" class="st2" d="M1072.4,312.8c-15.7,0-23.9-4.7-31.2-8.9c-6.9-4-13.4-7.7-26.6-7.7
					c-13.2,0-19.7,3.7-26.6,7.7c-7.3,4.2-15.5,8.9-31.2,8.9s-23.9-4.7-31.2-8.9c-6.9-4-13.4-7.7-26.6-7.7s-19.7,3.7-26.6,7.7
					c-7.3,4.2-15.5,8.9-31.2,8.9c-15.7,0-23.9-4.7-31.2-8.9c-6.9-4-13.4-7.7-26.6-7.7c-13.2,0-19.7,3.7-26.6,7.7
					c-7.3,4.2-15.5,8.9-31.2,8.9c-15.7,0-23.9-4.7-31.2-8.9c-6.9-4-13.4-7.7-26.6-7.7c-13.2,0-19.7,3.7-26.6,7.7
					c-7.3,4.2-15.5,8.9-31.2,8.9c-15.7,0-23.9-4.7-31.2-8.9c-6.9-4-13.4-7.7-26.6-7.7c-13.2,0-19.7,3.7-26.6,7.7
					c-7.3,4.2-15.5,8.9-31.2,8.9c-15.7,0-23.9-4.7-31.2-8.9c-6.9-4-13.4-7.7-26.6-7.7c-13.2,0-19.7,3.7-26.6,7.7
					c-7.3,4.2-15.5,8.9-31.2,8.9c-15.7,0-23.9-4.7-31.2-8.9c-6.9-4-13.4-7.7-26.6-7.7c-13.2,0-19.7,3.7-26.6,7.7
					c-7.3,4.2-15.5,8.9-31.2,8.9s-23.9-4.7-31.2-8.9c-6.9-4-13.4-7.7-26.6-7.7c-13.2,0-19.7,3.7-26.6,7.7
					c-7.3,4.2-15.5,8.9-31.2,8.9c-15.7,0-23.9-4.7-31.2-8.9c-6.9-4-13.4-7.7-26.6-7.7c-13.2,0-19.7,3.7-26.6,7.7
					c-7.3,4.2-15.5,8.9-31.2,8.9c-15.7,0-23.9-4.7-31.2-8.9c-6.9-4-13.4-7.7-26.6-7.7c-13.2,0-19.7,3.7-26.6,7.7
					c-7.3,4.2-15.5,8.9-31.2,8.9c-15.7,0-23.9-4.7-31.2-8.9c-6.9-4-13.4-7.7-26.6-7.7c-13.2,0-19.7,3.7-26.6,7.7
					c-7.3,4.2-15.5,8.9-31.2,8.9c-15.7,0-23.9-4.7-31.2-8.9c-6.9-4-13.4-7.7-26.6-7.7v-9.2c15.7,0,23.9,4.7,31.2,8.9
					c6.9,4,13.4,7.7,26.6,7.7c13.2,0,19.7-3.7,26.6-7.7c7.3-4.2,15.5-8.9,31.2-8.9c15.7,0,23.9,4.7,31.2,8.9
					c6.9,4,13.4,7.7,26.6,7.7c13.2,0,19.7-3.7,26.6-7.7c7.3-4.2,15.5-8.9,31.2-8.9s23.9,4.7,31.2,8.9c6.9,4,13.4,7.7,26.6,7.7
					s19.7-3.7,26.6-7.7c7.3-4.2,15.5-8.9,31.2-8.9c15.7,0,23.9,4.7,31.2,8.9c6.9,4,13.4,7.7,26.6,7.7s19.7-3.7,26.6-7.7
					c7.3-4.2,15.5-8.9,31.2-8.9c15.7,0,23.9,4.7,31.2,8.9c6.9,4,13.4,7.7,26.6,7.7c13.2,0,19.7-3.7,26.6-7.7
					c7.3-4.2,15.5-8.9,31.2-8.9c15.7,0,23.9,4.7,31.2,8.9c6.9,4,13.4,7.7,26.6,7.7c13.2,0,19.7-3.7,26.6-7.7
					c7.3-4.2,15.5-8.9,31.2-8.9s23.9,4.7,31.2,8.9c6.9,4,13.4,7.7,26.6,7.7s19.7-3.7,26.6-7.7c7.3-4.2,15.5-8.9,31.2-8.9
					c15.7,0,23.9,4.7,31.2,8.9c6.9,4,13.4,7.7,26.6,7.7c13.2,0,19.7-3.7,26.6-7.7c7.3-4.2,15.5-8.9,31.2-8.9
					c15.7,0,23.9,4.7,31.2,8.9c6.9,4,13.4,7.7,26.6,7.7c13.2,0,19.7-3.7,26.6-7.7c7.3-4.2,15.5-8.9,31.2-8.9s23.9,4.7,31.2,8.9
					c6.9,4,13.4,7.7,26.6,7.7c13.2,0,19.7-3.7,26.6-7.7c7.3-4.2,15.5-8.9,31.2-8.9s23.9,4.7,31.2,8.9c6.9,4,13.4,7.7,26.6,7.7
					s19.7-3.7,26.6-7.7c7.3-4.2,15.5-8.9,31.2-8.9c15.7,0,23.9,4.7,31.2,8.9c6.9,4,13.4,7.7,26.6,7.7s19.7-3.7,26.6-7.7
					c7.3-4.2,15.5-8.9,31.2-8.9v9.2c-13.2,0-19.7,3.7-26.6,7.7C1096.3,308,1088.1,312.8,1072.4,312.8z"/>
			</g>
			<g id="XMLID_554_">
				<path id="XMLID_546_" class="st2" d="M1072.4,336.2c-15.7,0-23.9-4.7-31.2-8.9c-6.9-4-13.4-7.7-26.6-7.7
					c-13.2,0-19.7,3.7-26.6,7.7c-7.3,4.2-15.5,8.9-31.2,8.9s-23.9-4.7-31.2-8.9c-6.9-4-13.4-7.7-26.6-7.7s-19.7,3.7-26.6,7.7
					c-7.3,4.2-15.5,8.9-31.2,8.9c-15.7,0-23.9-4.7-31.2-8.9c-6.9-4-13.4-7.7-26.6-7.7c-13.2,0-19.7,3.7-26.6,7.7
					c-7.3,4.2-15.5,8.9-31.2,8.9c-15.7,0-23.9-4.7-31.2-8.9c-6.9-4-13.4-7.7-26.6-7.7c-13.2,0-19.7,3.7-26.6,7.7
					c-7.3,4.2-15.5,8.9-31.2,8.9c-15.7,0-23.9-4.7-31.2-8.9c-6.9-4-13.4-7.7-26.6-7.7c-13.2,0-19.7,3.7-26.6,7.7
					c-7.3,4.2-15.5,8.9-31.2,8.9c-15.7,0-23.9-4.7-31.2-8.9c-6.9-4-13.4-7.7-26.6-7.7c-13.2,0-19.7,3.7-26.6,7.7
					c-7.3,4.2-15.5,8.9-31.2,8.9c-15.7,0-23.9-4.7-31.2-8.9c-6.9-4-13.4-7.7-26.6-7.7c-13.2,0-19.7,3.7-26.6,7.7
					c-7.3,4.2-15.5,8.9-31.2,8.9s-23.9-4.7-31.2-8.9c-6.9-4-13.4-7.7-26.6-7.7c-13.2,0-19.7,3.7-26.6,7.7
					c-7.3,4.2-15.5,8.9-31.2,8.9c-15.7,0-23.9-4.7-31.2-8.9c-6.9-4-13.4-7.7-26.6-7.7s-19.7,3.7-26.6,7.7
					c-7.3,4.2-15.5,8.9-31.2,8.9c-15.7,0-23.9-4.7-31.2-8.9c-6.9-4-13.4-7.7-26.6-7.7c-13.2,0-19.7,3.7-26.6,7.7
					c-7.3,4.2-15.5,8.9-31.2,8.9c-15.7,0-23.9-4.7-31.2-8.9c-6.9-4-13.4-7.7-26.6-7.7c-13.2,0-19.7,3.7-26.6,7.7
					c-7.3,4.2-15.5,8.9-31.2,8.9s-23.9-4.7-31.2-8.9c-6.9-4-13.4-7.7-26.6-7.7v-9.2c15.7,0,23.9,4.7,31.2,8.9
					c6.9,4,13.4,7.7,26.6,7.7c13.2,0,19.7-3.7,26.6-7.7c7.3-4.2,15.5-8.9,31.2-8.9c15.7,0,23.9,4.7,31.2,8.9
					c6.9,4,13.4,7.7,26.6,7.7c13.2,0,19.7-3.7,26.6-7.7c7.3-4.2,15.5-8.9,31.2-8.9s23.9,4.7,31.2,8.9c6.9,4,13.4,7.7,26.6,7.7
					c13.2,0,19.7-3.7,26.6-7.7c7.3-4.2,15.5-8.9,31.2-8.9c15.7,0,23.9,4.7,31.2,8.9c6.9,4,13.4,7.7,26.6,7.7s19.7-3.7,26.6-7.7
					c7.3-4.2,15.5-8.9,31.2-8.9c15.7,0,23.9,4.7,31.2,8.9c6.9,4,13.4,7.7,26.6,7.7c13.2,0,19.7-3.7,26.6-7.7
					c7.3-4.2,15.5-8.9,31.2-8.9c15.7,0,23.9,4.7,31.2,8.9c6.9,4,13.4,7.7,26.6,7.7c13.2,0,19.7-3.7,26.6-7.7
					c7.3-4.2,15.5-8.9,31.2-8.9s23.9,4.7,31.2,8.9c6.9,4,13.4,7.7,26.6,7.7s19.7-3.7,26.6-7.7c7.3-4.2,15.5-8.9,31.2-8.9
					c15.7,0,23.9,4.7,31.2,8.9c6.9,4,13.4,7.7,26.6,7.7c13.2,0,19.7-3.7,26.6-7.7c7.3-4.2,15.5-8.9,31.2-8.9
					c15.7,0,23.9,4.7,31.2,8.9c6.9,4,13.4,7.7,26.6,7.7c13.2,0,19.7-3.7,26.6-7.7c7.3-4.2,15.5-8.9,31.2-8.9s23.9,4.7,31.2,8.9
					c6.9,4,13.4,7.7,26.6,7.7c13.2,0,19.7-3.7,26.6-7.7c7.3-4.2,15.5-8.9,31.2-8.9s23.9,4.7,31.2,8.9c6.9,4,13.4,7.7,26.6,7.7
					s19.7-3.7,26.6-7.7c7.3-4.2,15.5-8.9,31.2-8.9c15.7,0,23.9,4.7,31.2,8.9c6.9,4,13.4,7.7,26.6,7.7s19.7-3.7,26.6-7.7
					c7.3-4.2,15.5-8.9,31.2-8.9v9.2c-13.2,0-19.7,3.7-26.6,7.7C1096.3,331.5,1088.1,336.2,1072.4,336.2z"/>
			</g>
			<g id="XMLID_551_">
				<path id="XMLID_544_" class="st2" d="M1072.4,359.7c-15.7,0-23.9-4.7-31.2-8.9c-6.9-4-13.4-7.7-26.6-7.7
					c-13.2,0-19.7,3.7-26.6,7.7c-7.3,4.2-15.5,8.9-31.2,8.9s-23.9-4.7-31.2-8.9c-6.9-4-13.4-7.7-26.6-7.7s-19.7,3.7-26.6,7.7
					c-7.3,4.2-15.5,8.9-31.2,8.9c-15.7,0-23.9-4.7-31.2-8.9c-6.9-4-13.4-7.7-26.6-7.7c-13.2,0-19.7,3.7-26.6,7.7
					c-7.3,4.2-15.5,8.9-31.2,8.9c-15.7,0-23.9-4.7-31.2-8.9c-6.9-4-13.4-7.7-26.6-7.7c-13.2,0-19.7,3.7-26.6,7.7
					c-7.3,4.2-15.5,8.9-31.2,8.9c-15.7,0-23.9-4.7-31.2-8.9c-6.9-4-13.4-7.7-26.6-7.7c-13.2,0-19.7,3.7-26.6,7.7
					c-7.3,4.2-15.5,8.9-31.2,8.9c-15.7,0-23.9-4.7-31.2-8.9c-6.9-4-13.4-7.7-26.6-7.7c-13.2,0-19.7,3.7-26.6,7.7
					c-7.3,4.2-15.5,8.9-31.2,8.9c-15.7,0-23.9-4.7-31.2-8.9c-6.9-4-13.4-7.7-26.6-7.7c-13.2,0-19.7,3.7-26.6,7.7
					c-7.3,4.2-15.5,8.9-31.2,8.9s-23.9-4.7-31.2-8.9c-6.9-4-13.4-7.7-26.6-7.7c-13.2,0-19.7,3.7-26.6,7.7
					c-7.3,4.2-15.5,8.9-31.2,8.9c-15.7,0-23.9-4.7-31.2-8.9c-6.9-4-13.4-7.7-26.6-7.7c-13.2,0-19.7,3.7-26.6,7.7
					c-7.3,4.2-15.5,8.9-31.2,8.9c-15.7,0-23.9-4.7-31.2-8.9c-6.9-4-13.4-7.7-26.6-7.7c-13.2,0-19.7,3.7-26.6,7.7
					c-7.3,4.2-15.5,8.9-31.2,8.9c-15.7,0-23.9-4.7-31.2-8.9c-6.9-4-13.4-7.7-26.6-7.7c-13.2,0-19.7,3.7-26.6,7.7
					c-7.3,4.2-15.5,8.9-31.2,8.9c-15.7,0-23.9-4.7-31.2-8.9c-6.9-4-13.4-7.7-26.6-7.7v-9.2c15.7,0,23.9,4.7,31.2,8.9
					c6.9,4,13.4,7.7,26.6,7.7c13.2,0,19.7-3.7,26.6-7.7c7.3-4.2,15.5-8.9,31.2-8.9c15.7,0,23.9,4.7,31.2,8.9
					c6.9,4,13.4,7.7,26.6,7.7c13.2,0,19.7-3.7,26.6-7.7c7.3-4.2,15.5-8.9,31.2-8.9s23.9,4.7,31.2,8.9c6.9,4,13.4,7.7,26.6,7.7
					s19.7-3.7,26.6-7.7c7.3-4.2,15.5-8.9,31.2-8.9c15.7,0,23.9,4.7,31.2,8.9c6.9,4,13.4,7.7,26.6,7.7s19.7-3.7,26.6-7.7
					c7.3-4.2,15.5-8.9,31.2-8.9c15.7,0,23.9,4.7,31.2,8.9c6.9,4,13.4,7.7,26.6,7.7c13.2,0,19.7-3.7,26.6-7.7
					c7.3-4.2,15.5-8.9,31.2-8.9c15.7,0,23.9,4.7,31.2,8.9c6.9,4,13.4,7.7,26.6,7.7c13.2,0,19.7-3.7,26.6-7.7
					c7.3-4.2,15.5-8.9,31.2-8.9s23.9,4.7,31.2,8.9c6.9,4,13.4,7.7,26.6,7.7s19.7-3.7,26.6-7.7c7.3-4.2,15.5-8.9,31.2-8.9
					c15.7,0,23.9,4.7,31.2,8.9c6.9,4,13.4,7.7,26.6,7.7c13.2,0,19.7-3.7,26.6-7.7c7.3-4.2,15.5-8.9,31.2-8.9
					c15.7,0,23.9,4.7,31.2,8.9c6.9,4,13.4,7.7,26.6,7.7c13.2,0,19.7-3.7,26.6-7.7c7.3-4.2,15.5-8.9,31.2-8.9s23.9,4.7,31.2,8.9
					c6.9,4,13.4,7.7,26.6,7.7c13.2,0,19.7-3.7,26.6-7.7c7.3-4.2,15.5-8.9,31.2-8.9s23.9,4.7,31.2,8.9c6.9,4,13.4,7.7,26.6,7.7
					s19.7-3.7,26.6-7.7c7.3-4.2,15.5-8.9,31.2-8.9c15.7,0,23.9,4.7,31.2,8.9c6.9,4,13.4,7.7,26.6,7.7s19.7-3.7,26.6-7.7
					c7.3-4.2,15.5-8.9,31.2-8.9v9.2c-13.2,0-19.7,3.7-26.6,7.7C1096.3,354.9,1088.1,359.7,1072.4,359.7z"/>
			</g>
			<g id="XMLID_548_">
				<path id="XMLID_543_" class="st2" d="M1072.4,383.1c-15.7,0-23.9-4.7-31.2-8.9c-6.9-4-13.4-7.7-26.6-7.7
					c-13.2,0-19.7,3.7-26.6,7.7c-7.3,4.2-15.5,8.9-31.2,8.9s-23.9-4.7-31.2-8.9c-6.9-4-13.4-7.7-26.6-7.7s-19.7,3.7-26.6,7.7
					c-7.3,4.2-15.5,8.9-31.2,8.9c-15.7,0-23.9-4.7-31.2-8.9c-6.9-4-13.4-7.7-26.6-7.7c-13.2,0-19.7,3.7-26.6,7.7
					c-7.3,4.2-15.5,8.9-31.2,8.9c-15.7,0-23.9-4.7-31.2-8.9c-6.9-4-13.4-7.7-26.6-7.7c-13.2,0-19.7,3.7-26.6,7.7
					c-7.3,4.2-15.5,8.9-31.2,8.9c-15.7,0-23.9-4.7-31.2-8.9c-6.9-4-13.4-7.7-26.6-7.7c-13.2,0-19.7,3.7-26.6,7.7
					c-7.3,4.2-15.5,8.9-31.2,8.9c-15.7,0-23.9-4.7-31.2-8.9c-6.9-4-13.4-7.7-26.6-7.7c-13.2,0-19.7,3.7-26.6,7.7
					c-7.3,4.2-15.5,8.9-31.2,8.9c-15.7,0-23.9-4.7-31.2-8.9c-6.9-4-13.4-7.7-26.6-7.7c-13.2,0-19.7,3.7-26.6,7.7
					c-7.3,4.2-15.5,8.9-31.2,8.9s-23.9-4.7-31.2-8.9c-6.9-4-13.4-7.7-26.6-7.7c-13.2,0-19.7,3.7-26.6,7.7
					c-7.3,4.2-15.5,8.9-31.2,8.9c-15.7,0-23.9-4.7-31.2-8.9c-6.9-4-13.4-7.7-26.6-7.7c-13.2,0-19.7,3.7-26.6,7.7
					c-7.3,4.2-15.5,8.9-31.2,8.9c-15.7,0-23.9-4.7-31.2-8.9c-6.9-4-13.4-7.7-26.6-7.7c-13.2,0-19.7,3.7-26.6,7.7
					c-7.3,4.2-15.5,8.9-31.2,8.9c-15.7,0-23.9-4.7-31.2-8.9c-6.9-4-13.4-7.7-26.6-7.7c-13.2,0-19.7,3.7-26.6,7.7
					c-7.3,4.2-15.5,8.9-31.2,8.9c-15.7,0-23.9-4.7-31.2-8.9c-6.9-4-13.4-7.7-26.6-7.7v-9.2c15.7,0,23.9,4.7,31.2,8.9
					c6.9,4,13.4,7.7,26.6,7.7c13.2,0,19.7-3.7,26.6-7.7c7.3-4.2,15.5-8.9,31.2-8.9c15.7,0,23.9,4.7,31.2,8.9
					c6.9,4,13.4,7.7,26.6,7.7c13.2,0,19.7-3.7,26.6-7.7c7.3-4.2,15.5-8.9,31.2-8.9s23.9,4.7,31.2,8.9c6.9,4,13.4,7.7,26.6,7.7
					s19.7-3.7,26.6-7.7c7.3-4.2,15.5-8.9,31.2-8.9c15.7,0,23.9,4.7,31.2,8.9c6.9,4,13.4,7.7,26.6,7.7s19.7-3.7,26.6-7.7
					c7.3-4.2,15.5-8.9,31.2-8.9c15.7,0,23.9,4.7,31.2,8.9c6.9,4,13.4,7.7,26.6,7.7c13.2,0,19.7-3.7,26.6-7.7
					c7.3-4.2,15.5-8.9,31.2-8.9c15.7,0,23.9,4.7,31.2,8.9c6.9,4,13.4,7.7,26.6,7.7c13.2,0,19.7-3.7,26.6-7.7
					c7.3-4.2,15.5-8.9,31.2-8.9s23.9,4.7,31.2,8.9c6.9,4,13.4,7.7,26.6,7.7s19.7-3.7,26.6-7.7c7.3-4.2,15.5-8.9,31.2-8.9
					c15.7,0,23.9,4.7,31.2,8.9c6.9,4,13.4,7.7,26.6,7.7c13.2,0,19.7-3.7,26.6-7.7c7.3-4.2,15.5-8.9,31.2-8.9
					c15.7,0,23.9,4.7,31.2,8.9c6.9,4,13.4,7.7,26.6,7.7c13.2,0,19.7-3.7,26.6-7.7c7.3-4.2,15.5-8.9,31.2-8.9s23.9,4.7,31.2,8.9
					c6.9,4,13.4,7.7,26.6,7.7c13.2,0,19.7-3.7,26.6-7.7c7.3-4.2,15.5-8.9,31.2-8.9s23.9,4.7,31.2,8.9c6.9,4,13.4,7.7,26.6,7.7
					s19.7-3.7,26.6-7.7c7.3-4.2,15.5-8.9,31.2-8.9c15.7,0,23.9,4.7,31.2,8.9c6.9,4,13.4,7.7,26.6,7.7s19.7-3.7,26.6-7.7
					c7.3-4.2,15.5-8.9,31.2-8.9v9.2c-13.2,0-19.7,3.7-26.6,7.7C1096.3,378.4,1088.1,383.1,1072.4,383.1z"/>
			</g>
			<g id="XMLID_545_">
				<path id="XMLID_541_" class="st2" d="M1072.4,406.6c-15.7,0-23.9-4.7-31.2-8.9c-6.9-4-13.4-7.7-26.6-7.7
					c-13.2,0-19.7,3.7-26.6,7.7c-7.3,4.2-15.5,8.9-31.2,8.9s-23.9-4.7-31.2-8.9c-6.9-4-13.4-7.7-26.6-7.7s-19.7,3.7-26.6,7.7
					c-7.3,4.2-15.5,8.9-31.2,8.9c-15.7,0-23.9-4.7-31.2-8.9c-6.9-4-13.4-7.7-26.6-7.7c-13.2,0-19.7,3.7-26.6,7.7
					c-7.3,4.2-15.5,8.9-31.2,8.9c-15.7,0-23.9-4.7-31.2-8.9c-6.9-4-13.4-7.7-26.6-7.7c-13.2,0-19.7,3.7-26.6,7.7
					c-7.3,4.2-15.5,8.9-31.2,8.9c-15.7,0-23.9-4.7-31.2-8.9c-6.9-4-13.4-7.7-26.6-7.7c-13.2,0-19.7,3.7-26.6,7.7
					c-7.3,4.2-15.5,8.9-31.2,8.9c-15.7,0-23.9-4.7-31.2-8.9c-6.9-4-13.4-7.7-26.6-7.7c-13.2,0-19.7,3.7-26.6,7.7
					c-7.3,4.2-15.5,8.9-31.2,8.9c-15.7,0-23.9-4.7-31.2-8.9c-6.9-4-13.4-7.7-26.6-7.7c-13.2,0-19.7,3.7-26.6,7.7
					c-7.3,4.2-15.5,8.9-31.2,8.9s-23.9-4.7-31.2-8.9c-6.9-4-13.4-7.7-26.6-7.7c-13.2,0-19.7,3.7-26.6,7.7
					c-7.3,4.2-15.5,8.9-31.2,8.9c-15.7,0-23.9-4.7-31.2-8.9c-6.9-4-13.4-7.7-26.6-7.7c-13.2,0-19.7,3.7-26.6,7.7
					c-7.3,4.2-15.5,8.9-31.2,8.9c-15.7,0-23.9-4.7-31.2-8.9c-6.9-4-13.4-7.7-26.6-7.7c-13.2,0-19.7,3.7-26.6,7.7
					c-7.3,4.2-15.5,8.9-31.2,8.9c-15.7,0-23.9-4.7-31.2-8.9c-6.9-4-13.4-7.7-26.6-7.7c-13.2,0-19.7,3.7-26.6,7.7
					c-7.3,4.2-15.5,8.9-31.2,8.9c-15.7,0-23.9-4.7-31.2-8.9c-6.9-4-13.4-7.7-26.6-7.7v-9.2c15.7,0,23.9,4.7,31.2,8.9
					c6.9,4,13.4,7.7,26.6,7.7c13.2,0,19.7-3.7,26.6-7.7c7.3-4.2,15.5-8.9,31.2-8.9c15.7,0,23.9,4.7,31.2,8.9
					c6.9,4,13.4,7.7,26.6,7.7c13.2,0,19.7-3.7,26.6-7.7c7.3-4.2,15.5-8.9,31.2-8.9s23.9,4.7,31.2,8.9c6.9,4,13.4,7.7,26.6,7.7
					s19.7-3.7,26.6-7.7c7.3-4.2,15.5-8.9,31.2-8.9c15.7,0,23.9,4.7,31.2,8.9c6.9,4,13.4,7.7,26.6,7.7s19.7-3.7,26.6-7.7
					c7.3-4.2,15.5-8.9,31.2-8.9c15.7,0,23.9,4.7,31.2,8.9c6.9,4,13.4,7.7,26.6,7.7c13.2,0,19.7-3.7,26.6-7.7
					c7.3-4.2,15.5-8.9,31.2-8.9c15.7,0,23.9,4.7,31.2,8.9c6.9,4,13.4,7.7,26.6,7.7c13.2,0,19.7-3.7,26.6-7.7
					c7.3-4.2,15.5-8.9,31.2-8.9s23.9,4.7,31.2,8.9c6.9,4,13.4,7.7,26.6,7.7s19.7-3.7,26.6-7.7c7.3-4.2,15.5-8.9,31.2-8.9
					c15.7,0,23.9,4.7,31.2,8.9c6.9,4,13.4,7.7,26.6,7.7c13.2,0,19.7-3.7,26.6-7.7c7.3-4.2,15.5-8.9,31.2-8.9
					c15.7,0,23.9,4.7,31.2,8.9c6.9,4,13.4,7.7,26.6,7.7c13.2,0,19.7-3.7,26.6-7.7c7.3-4.2,15.5-8.9,31.2-8.9s23.9,4.7,31.2,8.9
					c6.9,4,13.4,7.7,26.6,7.7c13.2,0,19.7-3.7,26.6-7.7c7.3-4.2,15.5-8.9,31.2-8.9s23.9,4.7,31.2,8.9c6.9,4,13.4,7.7,26.6,7.7
					s19.7-3.7,26.6-7.7c7.3-4.2,15.5-8.9,31.2-8.9c15.7,0,23.9,4.7,31.2,8.9c6.9,4,13.4,7.7,26.6,7.7s19.7-3.7,26.6-7.7
					c7.3-4.2,15.5-8.9,31.2-8.9v9.2c-13.2,0-19.7,3.7-26.6,7.7C1096.3,401.9,1088.1,406.6,1072.4,406.6z"/>
			</g>
			<g id="XMLID_542_">
				<path id="XMLID_540_" class="st2" d="M1072.4,430.1c-15.7,0-23.9-4.7-31.2-8.9c-6.9-4-13.4-7.7-26.6-7.7
					c-13.2,0-19.7,3.7-26.6,7.7c-7.3,4.2-15.5,8.9-31.2,8.9s-23.9-4.7-31.2-8.9c-6.9-4-13.4-7.7-26.6-7.7s-19.7,3.7-26.6,7.7
					c-7.3,4.2-15.5,8.9-31.2,8.9c-15.7,0-23.9-4.7-31.2-8.9c-6.9-4-13.4-7.7-26.6-7.7c-13.2,0-19.7,3.7-26.6,7.7
					c-7.3,4.2-15.5,8.9-31.2,8.9c-15.7,0-23.9-4.7-31.2-8.9c-6.9-4-13.4-7.7-26.6-7.7c-13.2,0-19.7,3.7-26.6,7.7
					c-7.3,4.2-15.5,8.9-31.2,8.9c-15.7,0-23.9-4.7-31.2-8.9c-6.9-4-13.4-7.7-26.6-7.7c-13.2,0-19.7,3.7-26.6,7.7
					c-7.3,4.2-15.5,8.9-31.2,8.9c-15.7,0-23.9-4.7-31.2-8.9c-6.9-4-13.4-7.7-26.6-7.7c-13.2,0-19.7,3.7-26.6,7.7
					c-7.3,4.2-15.5,8.9-31.2,8.9c-15.7,0-23.9-4.7-31.2-8.9c-6.9-4-13.4-7.7-26.6-7.7c-13.2,0-19.7,3.7-26.6,7.7
					c-7.3,4.2-15.5,8.9-31.2,8.9s-23.9-4.7-31.2-8.9c-6.9-4-13.4-7.7-26.6-7.7c-13.2,0-19.7,3.7-26.6,7.7
					c-7.3,4.2-15.5,8.9-31.2,8.9c-15.7,0-23.9-4.7-31.2-8.9c-6.9-4-13.4-7.7-26.6-7.7s-19.7,3.7-26.6,7.7
					c-7.3,4.2-15.5,8.9-31.2,8.9c-15.7,0-23.9-4.7-31.2-8.9c-6.9-4-13.4-7.7-26.6-7.7c-13.2,0-19.7,3.7-26.6,7.7
					c-7.3,4.2-15.5,8.9-31.2,8.9c-15.7,0-23.9-4.7-31.2-8.9c-6.9-4-13.4-7.7-26.6-7.7c-13.2,0-19.7,3.7-26.6,7.7
					c-7.3,4.2-15.5,8.9-31.2,8.9s-23.9-4.7-31.2-8.9c-6.9-4-13.4-7.7-26.6-7.7v-9.2c15.7,0,23.9,4.7,31.2,8.9
					c6.9,4,13.4,7.7,26.6,7.7c13.2,0,19.7-3.7,26.6-7.7c7.3-4.2,15.5-8.9,31.2-8.9c15.7,0,23.9,4.7,31.2,8.9
					c6.9,4,13.4,7.7,26.6,7.7c13.2,0,19.7-3.7,26.6-7.7c7.3-4.2,15.5-8.9,31.2-8.9s23.9,4.7,31.2,8.9c6.9,4,13.4,7.7,26.6,7.7
					c13.2,0,19.7-3.7,26.6-7.7c7.3-4.2,15.5-8.9,31.2-8.9c15.7,0,23.9,4.7,31.2,8.9c6.9,4,13.4,7.7,26.6,7.7s19.7-3.7,26.6-7.7
					c7.3-4.2,15.5-8.9,31.2-8.9c15.7,0,23.9,4.7,31.2,8.9c6.9,4,13.4,7.7,26.6,7.7c13.2,0,19.7-3.7,26.6-7.7
					c7.3-4.2,15.5-8.9,31.2-8.9c15.7,0,23.9,4.7,31.2,8.9c6.9,4,13.4,7.7,26.6,7.7c13.2,0,19.7-3.7,26.6-7.7
					c7.3-4.2,15.5-8.9,31.2-8.9s23.9,4.7,31.2,8.9c6.9,4,13.4,7.7,26.6,7.7s19.7-3.7,26.6-7.7c7.3-4.2,15.5-8.9,31.2-8.9
					c15.7,0,23.9,4.7,31.2,8.9c6.9,4,13.4,7.7,26.6,7.7c13.2,0,19.7-3.7,26.6-7.7c7.3-4.2,15.5-8.9,31.2-8.9
					c15.7,0,23.9,4.7,31.2,8.9c6.9,4,13.4,7.7,26.6,7.7c13.2,0,19.7-3.7,26.6-7.7c7.3-4.2,15.5-8.9,31.2-8.9s23.9,4.7,31.2,8.9
					c6.9,4,13.4,7.7,26.6,7.7c13.2,0,19.7-3.7,26.6-7.7c7.3-4.2,15.5-8.9,31.2-8.9s23.9,4.7,31.2,8.9c6.9,4,13.4,7.7,26.6,7.7
					s19.7-3.7,26.6-7.7c7.3-4.2,15.5-8.9,31.2-8.9c15.7,0,23.9,4.7,31.2,8.9c6.9,4,13.4,7.7,26.6,7.7s19.7-3.7,26.6-7.7
					c7.3-4.2,15.5-8.9,31.2-8.9v9.2c-13.2,0-19.7,3.7-26.6,7.7C1096.3,425.3,1088.1,430.1,1072.4,430.1z"/>
			</g>
			<g id="XMLID_539_">
				<path id="XMLID_538_" class="st2" d="M1072.4,453.5c-15.7,0-23.9-4.7-31.2-8.9c-6.9-4-13.4-7.7-26.6-7.7
					c-13.2,0-19.7,3.7-26.6,7.7c-7.3,4.2-15.5,8.9-31.2,8.9s-23.9-4.7-31.2-8.9c-6.9-4-13.4-7.7-26.6-7.7s-19.7,3.7-26.6,7.7
					c-7.3,4.2-15.5,8.9-31.2,8.9c-15.7,0-23.9-4.7-31.2-8.9c-6.9-4-13.4-7.7-26.6-7.7c-13.2,0-19.7,3.7-26.6,7.7
					c-7.3,4.2-15.5,8.9-31.2,8.9c-15.7,0-23.9-4.7-31.2-8.9c-6.9-4-13.4-7.7-26.6-7.7c-13.2,0-19.7,3.7-26.6,7.7
					c-7.3,4.2-15.5,8.9-31.2,8.9c-15.7,0-23.9-4.7-31.2-8.9c-6.9-4-13.4-7.7-26.6-7.7c-13.2,0-19.7,3.7-26.6,7.7
					c-7.3,4.2-15.5,8.9-31.2,8.9c-15.7,0-23.9-4.7-31.2-8.9c-6.9-4-13.4-7.7-26.6-7.7c-13.2,0-19.7,3.7-26.6,7.7
					c-7.3,4.2-15.5,8.9-31.2,8.9c-15.7,0-23.9-4.7-31.2-8.9c-6.9-4-13.4-7.7-26.6-7.7c-13.2,0-19.7,3.7-26.6,7.7
					c-7.3,4.2-15.5,8.9-31.2,8.9s-23.9-4.7-31.2-8.9c-6.9-4-13.4-7.7-26.6-7.7c-13.2,0-19.7,3.7-26.6,7.7
					c-7.3,4.2-15.5,8.9-31.2,8.9c-15.7,0-23.9-4.7-31.2-8.9c-6.9-4-13.4-7.7-26.6-7.7c-13.2,0-19.7,3.7-26.6,7.7
					c-7.3,4.2-15.5,8.9-31.2,8.9c-15.7,0-23.9-4.7-31.2-8.9c-6.9-4-13.4-7.7-26.6-7.7c-13.2,0-19.7,3.7-26.6,7.7
					c-7.3,4.2-15.5,8.9-31.2,8.9c-15.7,0-23.9-4.7-31.2-8.9c-6.9-4-13.4-7.7-26.6-7.7c-13.2,0-19.7,3.7-26.6,7.7
					c-7.3,4.2-15.5,8.9-31.2,8.9c-15.7,0-23.9-4.7-31.2-8.9c-6.9-4-13.4-7.7-26.6-7.7v-9.2c15.7,0,23.9,4.7,31.2,8.9
					c6.9,4,13.4,7.7,26.6,7.7c13.2,0,19.7-3.7,26.6-7.7c7.3-4.2,15.5-8.9,31.2-8.9c15.7,0,23.9,4.7,31.2,8.9
					c6.9,4,13.4,7.7,26.6,7.7c13.2,0,19.7-3.7,26.6-7.7c7.3-4.2,15.5-8.9,31.2-8.9s23.9,4.7,31.2,8.9c6.9,4,13.4,7.7,26.6,7.7
					s19.7-3.7,26.6-7.7c7.3-4.2,15.5-8.9,31.2-8.9c15.7,0,23.9,4.7,31.2,8.9c6.9,4,13.4,7.7,26.6,7.7s19.7-3.7,26.6-7.7
					c7.3-4.2,15.5-8.9,31.2-8.9c15.7,0,23.9,4.7,31.2,8.9c6.9,4,13.4,7.7,26.6,7.7c13.2,0,19.7-3.7,26.6-7.7
					c7.3-4.2,15.5-8.9,31.2-8.9c15.7,0,23.9,4.7,31.2,8.9c6.9,4,13.4,7.7,26.6,7.7c13.2,0,19.7-3.7,26.6-7.7
					c7.3-4.2,15.5-8.9,31.2-8.9s23.9,4.7,31.2,8.9c6.9,4,13.4,7.7,26.6,7.7s19.7-3.7,26.6-7.7c7.3-4.2,15.5-8.9,31.2-8.9
					c15.7,0,23.9,4.7,31.2,8.9c6.9,4,13.4,7.7,26.6,7.7c13.2,0,19.7-3.7,26.6-7.7c7.3-4.2,15.5-8.9,31.2-8.9
					c15.7,0,23.9,4.7,31.2,8.9c6.9,4,13.4,7.7,26.6,7.7c13.2,0,19.7-3.7,26.6-7.7c7.3-4.2,15.5-8.9,31.2-8.9s23.9,4.7,31.2,8.9
					c6.9,4,13.4,7.7,26.6,7.7c13.2,0,19.7-3.7,26.6-7.7c7.3-4.2,15.5-8.9,31.2-8.9s23.9,4.7,31.2,8.9c6.9,4,13.4,7.7,26.6,7.7
					s19.7-3.7,26.6-7.7c7.3-4.2,15.5-8.9,31.2-8.9c15.7,0,23.9,4.7,31.2,8.9c6.9,4,13.4,7.7,26.6,7.7s19.7-3.7,26.6-7.7
					c7.3-4.2,15.5-8.9,31.2-8.9v9.2c-13.2,0-19.7,3.7-26.6,7.7C1096.3,448.8,1088.1,453.5,1072.4,453.5z"/>
			</g>
			<g id="XMLID_536_">
				<path id="XMLID_537_" class="st2" d="M1072.4,477c-15.7,0-23.9-4.7-31.2-8.9c-6.9-4-13.4-7.7-26.6-7.7
					c-13.2,0-19.7,3.7-26.6,7.7c-7.3,4.2-15.5,8.9-31.2,8.9s-23.9-4.7-31.2-8.9c-6.9-4-13.4-7.7-26.6-7.7s-19.7,3.7-26.6,7.7
					c-7.3,4.2-15.5,8.9-31.2,8.9c-15.7,0-23.9-4.7-31.2-8.9c-6.9-4-13.4-7.7-26.6-7.7c-13.2,0-19.7,3.7-26.6,7.7
					c-7.3,4.2-15.5,8.9-31.2,8.9c-15.7,0-23.9-4.7-31.2-8.9c-6.9-4-13.4-7.7-26.6-7.7c-13.2,0-19.7,3.7-26.6,7.7
					c-7.3,4.2-15.5,8.9-31.2,8.9c-15.7,0-23.9-4.7-31.2-8.9c-6.9-4-13.4-7.7-26.6-7.7c-13.2,0-19.7,3.7-26.6,7.7
					c-7.3,4.2-15.5,8.9-31.2,8.9c-15.7,0-23.9-4.7-31.2-8.9c-6.9-4-13.4-7.7-26.6-7.7c-13.2,0-19.7,3.7-26.6,7.7
					c-7.3,4.2-15.5,8.9-31.2,8.9c-15.7,0-23.9-4.7-31.2-8.9c-6.9-4-13.4-7.7-26.6-7.7c-13.2,0-19.7,3.7-26.6,7.7
					c-7.3,4.2-15.5,8.9-31.2,8.9s-23.9-4.7-31.2-8.9c-6.9-4-13.4-7.7-26.6-7.7c-13.2,0-19.7,3.7-26.6,7.7
					c-7.3,4.2-15.5,8.9-31.2,8.9c-15.7,0-23.9-4.7-31.2-8.9c-6.9-4-13.4-7.7-26.6-7.7c-13.2,0-19.7,3.7-26.6,7.7
					c-7.3,4.2-15.5,8.9-31.2,8.9c-15.7,0-23.9-4.7-31.2-8.9c-6.9-4-13.4-7.7-26.6-7.7c-13.2,0-19.7,3.7-26.6,7.7
					c-7.3,4.2-15.5,8.9-31.2,8.9c-15.7,0-23.9-4.7-31.2-8.9c-6.9-4-13.4-7.7-26.6-7.7c-13.2,0-19.7,3.7-26.6,7.7
					c-7.3,4.2-15.5,8.9-31.2,8.9c-15.7,0-23.9-4.7-31.2-8.9c-6.9-4-13.4-7.7-26.6-7.7v-9.2c15.7,0,23.9,4.7,31.2,8.9
					c6.9,4,13.4,7.7,26.6,7.7c13.2,0,19.7-3.7,26.6-7.7c7.3-4.2,15.5-8.9,31.2-8.9c15.7,0,23.9,4.7,31.2,8.9
					c6.9,4,13.4,7.7,26.6,7.7c13.2,0,19.7-3.7,26.6-7.7c7.3-4.2,15.5-8.9,31.2-8.9s23.9,4.7,31.2,8.9c6.9,4,13.4,7.7,26.6,7.7
					s19.7-3.7,26.6-7.7c7.3-4.2,15.5-8.9,31.2-8.9c15.7,0,23.9,4.7,31.2,8.9c6.9,4,13.4,7.7,26.6,7.7s19.7-3.7,26.6-7.7
					c7.3-4.2,15.5-8.9,31.2-8.9c15.7,0,23.9,4.7,31.2,8.9c6.9,4,13.4,7.7,26.6,7.7c13.2,0,19.7-3.7,26.6-7.7
					c7.3-4.2,15.5-8.9,31.2-8.9c15.7,0,23.9,4.7,31.2,8.9c6.9,4,13.4,7.7,26.6,7.7c13.2,0,19.7-3.7,26.6-7.7
					c7.3-4.2,15.5-8.9,31.2-8.9s23.9,4.7,31.2,8.9c6.9,4,13.4,7.7,26.6,7.7s19.7-3.7,26.6-7.7c7.3-4.2,15.5-8.9,31.2-8.9
					c15.7,0,23.9,4.7,31.2,8.9c6.9,4,13.4,7.7,26.6,7.7c13.2,0,19.7-3.7,26.6-7.7c7.3-4.2,15.5-8.9,31.2-8.9
					c15.7,0,23.9,4.7,31.2,8.9c6.9,4,13.4,7.7,26.6,7.7c13.2,0,19.7-3.7,26.6-7.7c7.3-4.2,15.5-8.9,31.2-8.9s23.9,4.7,31.2,8.9
					c6.9,4,13.4,7.7,26.6,7.7c13.2,0,19.7-3.7,26.6-7.7c7.3-4.2,15.5-8.9,31.2-8.9s23.9,4.7,31.2,8.9c6.9,4,13.4,7.7,26.6,7.7
					s19.7-3.7,26.6-7.7c7.3-4.2,15.5-8.9,31.2-8.9c15.7,0,23.9,4.7,31.2,8.9c6.9,4,13.4,7.7,26.6,7.7s19.7-3.7,26.6-7.7
					c7.3-4.2,15.5-8.9,31.2-8.9v9.2c-13.2,0-19.7,3.7-26.6,7.7C1096.3,472.2,1088.1,477,1072.4,477z"/>
			</g>
			<g id="XMLID_533_">
				<path id="XMLID_535_" class="st2" d="M1072.4,500.4c-15.7,0-23.9-4.7-31.2-8.9c-6.9-4-13.4-7.7-26.6-7.7
					c-13.2,0-19.7,3.7-26.6,7.7c-7.3,4.2-15.5,8.9-31.2,8.9s-23.9-4.7-31.2-8.9c-6.9-4-13.4-7.7-26.6-7.7s-19.7,3.7-26.6,7.7
					c-7.3,4.2-15.5,8.9-31.2,8.9c-15.7,0-23.9-4.7-31.2-8.9c-6.9-4-13.4-7.7-26.6-7.7c-13.2,0-19.7,3.7-26.6,7.7
					c-7.3,4.2-15.5,8.9-31.2,8.9c-15.7,0-23.9-4.7-31.2-8.9c-6.9-4-13.4-7.7-26.6-7.7c-13.2,0-19.7,3.7-26.6,7.7
					c-7.3,4.2-15.5,8.9-31.2,8.9c-15.7,0-23.9-4.7-31.2-8.9c-6.9-4-13.4-7.7-26.6-7.7c-13.2,0-19.7,3.7-26.6,7.7
					c-7.3,4.2-15.5,8.9-31.2,8.9c-15.7,0-23.9-4.7-31.2-8.9c-6.9-4-13.4-7.7-26.6-7.7c-13.2,0-19.7,3.7-26.6,7.7
					c-7.3,4.2-15.5,8.9-31.2,8.9c-15.7,0-23.9-4.7-31.2-8.9c-6.9-4-13.4-7.7-26.6-7.7c-13.2,0-19.7,3.7-26.6,7.7
					c-7.3,4.2-15.5,8.9-31.2,8.9s-23.9-4.7-31.2-8.9c-6.9-4-13.4-7.7-26.6-7.7c-13.2,0-19.7,3.7-26.6,7.7
					c-7.3,4.2-15.5,8.9-31.2,8.9c-15.7,0-23.9-4.7-31.2-8.9c-6.9-4-13.4-7.7-26.6-7.7c-13.2,0-19.7,3.7-26.6,7.7
					c-7.3,4.2-15.5,8.9-31.2,8.9c-15.7,0-23.9-4.7-31.2-8.9c-6.9-4-13.4-7.7-26.6-7.7c-13.2,0-19.7,3.7-26.6,7.7
					c-7.3,4.2-15.5,8.9-31.2,8.9c-15.7,0-23.9-4.7-31.2-8.9c-6.9-4-13.4-7.7-26.6-7.7c-13.2,0-19.7,3.7-26.6,7.7
					c-7.3,4.2-15.5,8.9-31.2,8.9c-15.7,0-23.9-4.7-31.2-8.9c-6.9-4-13.4-7.7-26.6-7.7v-9.2c15.7,0,23.9,4.7,31.2,8.9
					c6.9,4,13.4,7.7,26.6,7.7c13.2,0,19.7-3.7,26.6-7.7c7.3-4.2,15.5-8.9,31.2-8.9c15.7,0,23.9,4.7,31.2,8.9
					c6.9,4,13.4,7.7,26.6,7.7c13.2,0,19.7-3.7,26.6-7.7c7.3-4.2,15.5-8.9,31.2-8.9s23.9,4.7,31.2,8.9c6.9,4,13.4,7.7,26.6,7.7
					s19.7-3.7,26.6-7.7c7.3-4.2,15.5-8.9,31.2-8.9c15.7,0,23.9,4.7,31.2,8.9c6.9,4,13.4,7.7,26.6,7.7s19.7-3.7,26.6-7.7
					c7.3-4.2,15.5-8.9,31.2-8.9c15.7,0,23.9,4.7,31.2,8.9c6.9,4,13.4,7.7,26.6,7.7c13.2,0,19.7-3.7,26.6-7.7
					c7.3-4.2,15.5-8.9,31.2-8.9c15.7,0,23.9,4.7,31.2,8.9c6.9,4,13.4,7.7,26.6,7.7c13.2,0,19.7-3.7,26.6-7.7
					c7.3-4.2,15.5-8.9,31.2-8.9s23.9,4.7,31.2,8.9c6.9,4,13.4,7.7,26.6,7.7s19.7-3.7,26.6-7.7c7.3-4.2,15.5-8.9,31.2-8.9
					c15.7,0,23.9,4.7,31.2,8.9c6.9,4,13.4,7.7,26.6,7.7c13.2,0,19.7-3.7,26.6-7.7c7.3-4.2,15.5-8.9,31.2-8.9
					c15.7,0,23.9,4.7,31.2,8.9c6.9,4,13.4,7.7,26.6,7.7c13.2,0,19.7-3.7,26.6-7.7c7.3-4.2,15.5-8.9,31.2-8.9s23.9,4.7,31.2,8.9
					c6.9,4,13.4,7.7,26.6,7.7c13.2,0,19.7-3.7,26.6-7.7c7.3-4.2,15.5-8.9,31.2-8.9s23.9,4.7,31.2,8.9c6.9,4,13.4,7.7,26.6,7.7
					s19.7-3.7,26.6-7.7c7.3-4.2,15.5-8.9,31.2-8.9c15.7,0,23.9,4.7,31.2,8.9c6.9,4,13.4,7.7,26.6,7.7s19.7-3.7,26.6-7.7
					c7.3-4.2,15.5-8.9,31.2-8.9v9.2c-13.2,0-19.7,3.7-26.6,7.7C1096.3,495.7,1088.1,500.4,1072.4,500.4z"/>
			</g>
		</g>
	</g>
</g>
</svg>
