<?xml version="1.0" encoding="utf-8"?>
<!-- Generator: Adobe Illustrator 19.0.0, SVG Export Plug-In . SVG Version: 6.00 Build 0)  -->
<svg version="1.1" id="Слой_1" xmlns="http://www.w3.org/2000/svg" xmlns:xlink="http://www.w3.org/1999/xlink" x="0px" y="0px"
	 width="45.9px" height="91.8px" viewBox="-727.4 185 45.9 91.8" style="enable-background:new -727.4 185 45.9 91.8;"
	 xml:space="preserve">
<style type="text/css">
	.st0{opacity:0.5;}
	.st1{fill:url(#SVGID_1_);}
	.st2{fill:#FFFFFF;}
</style>
<g id="text" class="st0">
</g>
<linearGradient id="SVGID_1_" gradientUnits="userSpaceOnUse" x1="-727.375" y1="230.875" x2="-681.5" y2="230.875" gradientTransform="matrix(-1 0 0 -1 -1408.875 461.75)">
	<stop  offset="0" style="stop-color:#DD2E76"/>
	<stop  offset="1" style="stop-color:#E24431"/>
</linearGradient>
<path class="st1" d="M-681.5,276.8V185c-25.3,0-45.9,20.5-45.9,45.9S-706.8,276.8-681.5,276.8z"/>
<path class="st2" d="M-693.9,230.8c0,0.5-0.2,0.9-0.5,1.3l-9.1,9.1c-0.7,0.7-1.8,0.7-2.5,0s-0.7-1.8,0-2.5l7.8-7.8l-7.8-7.8
	c-0.7-0.7-0.7-1.8,0-2.5s1.8-0.7,2.5,0l9.1,9.1C-694.1,229.8-693.9,230.2-693.9,230.8z"/>
</svg>
