<svg xmlns="http://www.w3.org/2000/svg" xmlns:xlink="http://www.w3.org/1999/xlink" preserveAspectRatio="xMidYMid" width="59.56" height="80" viewBox="0 0 59.56 80">
  <defs>
    <style>
      .cls-1 {
        fill: #393b48;
        filter: url(#color-overlay-1);
        fill-rule: evenodd;
      }
    </style>

    <filter id="color-overlay-1" filterUnits="userSpaceOnUse">
      <feFlood flood-color="#be3272"/>
      <feComposite operator="in" in2="SourceGraphic"/>
      <feBlend in2="SourceGraphic" result="solidFill"/>
    </filter>
  </defs>
  <path d="M24.796,80.000 C24.384,80.000 23.967,79.948 23.550,79.842 C21.358,79.268 19.831,77.278 19.831,74.999 L19.831,50.000 L4.935,50.000 C3.306,50.000 1.783,49.197 0.852,47.848 C-0.074,46.499 -0.288,44.780 0.285,43.244 L9.900,3.244 C10.628,1.293 12.480,-0.000 14.550,-0.000 L44.670,-0.000 C46.318,-0.000 47.855,0.822 48.781,2.198 C49.703,3.572 49.892,5.317 49.281,6.857 L42.058,25.000 L54.588,25.000 C56.349,25.000 57.978,25.937 58.870,27.463 C59.762,28.991 59.781,30.878 58.929,32.428 L29.136,77.429 C28.244,79.042 26.566,80.000 24.796,80.000 ZM12.102,40.000 L24.796,40.000 C27.541,40.000 29.762,42.239 29.762,44.999 L29.762,55.705 L46.151,35.000 L34.727,35.000 C33.078,35.000 31.541,34.177 30.615,32.802 C29.694,31.428 29.504,29.682 30.115,28.142 L37.338,10.000 L17.993,10.000 L12.102,40.000 Z" class="cls-1"/>
</svg>
