<?xml version="1.0" encoding="utf-8"?>
<!-- Generator: Adobe Illustrator 19.0.0, SVG Export Plug-In . SVG Version: 6.00 Build 0)  -->
<svg version="1.1" xmlns="http://www.w3.org/2000/svg" xmlns:xlink="http://www.w3.org/1999/xlink" x="0px" y="0px" width="277.8px"
	 height="430.7px" viewBox="0 0 277.8 430.7" style="enable-background:new 0 0 277.8 430.7;" xml:space="preserve">
<style type="text/css">
	.st0{fill:#FFFFFF;}
	.st1{clip-path:url(#XMLID_16_);fill:#1123C9;}
</style>
<g id="Capa_11_copia">
	<g id="XMLID_317_">
		<g id="XMLID_321_">
			<path id="XMLID_323_" class="st0" d="M208.2,0v291.9h0.1c0,38.4-31.1,69.4-69.4,69.4s-69.4-31.1-69.4-69.4h0.1V0H0v291.9
				c0,76.7,62.2,138.9,138.9,138.9c76.7,0,138.9-62.2,138.9-138.9V0H208.2z"/>
		</g>
		<g id="XMLID_318_">
			<circle id="XMLID_320_" class="st0" cx="138.9" cy="291.9" r="25.9"/>
		</g>
	</g>
</g>
<g id="Capa_11">
	<g id="XMLID_325_">
		<defs>
			<path id="XMLID_2_" d="M277.8,0v291.9c0,76.7-62.2,138.9-138.9,138.9C62.2,430.7,0,368.6,0,291.9V0h69.6v291.9h-0.1
				c0,38.4,31.1,69.4,69.4,69.4s69.4-31.1,69.4-69.4h-0.1V0H277.8z M138.9,317.8c14.3,0,25.9-11.6,25.9-25.9
				c0-14.3-11.6-25.9-25.9-25.9S113,277.6,113,291.9C113,306.2,124.6,317.8,138.9,317.8z"/>
		</defs>
		<clipPath id="XMLID_16_">
			<use xlink:href="#XMLID_2_"  style="overflow:visible;"/>
		</clipPath>
		<path id="XMLID_324_" class="st1" d="M138.9,314.5c-12.4,0-22.5-10.1-22.5-22.5s10.1-22.5,22.5-22.5c12.4,0,22.5,10.1,22.5,22.5
			S151.3,314.5,138.9,314.5z M138.9,278.5c-7.4,0-13.5,6.1-13.5,13.5s6.1,13.5,13.5,13.5c7.4,0,13.5-6.1,13.5-13.5
			S146.3,278.5,138.9,278.5z M138.9,330.3c-21.1,0-38.3-17.2-38.3-38.3s17.2-38.3,38.3-38.3s38.3,17.2,38.3,38.3
			S160,330.3,138.9,330.3z M138.9,262.7c-16.2,0-29.3,13.2-29.3,29.3s13.2,29.3,29.3,29.3s29.3-13.2,29.3-29.3
			S155,262.7,138.9,262.7z M138.9,346.2c-29.8,0-54.1-24.3-54.1-54.1s24.3-54.1,54.1-54.1c29.8,0,54.1,24.3,54.1,54.1
			S168.7,346.2,138.9,346.2z M138.9,246.9c-24.9,0-45.1,20.2-45.1,45.1s20.2,45.1,45.1,45.1c24.9,0,45.1-20.2,45.1-45.1
			S163.8,246.9,138.9,246.9z M138.9,362c-38.6,0-70-31.4-70-70s31.4-70,70-70c38.6,0,70,31.4,70,70S177.5,362,138.9,362z
			 M138.9,231.1c-33.6,0-61,27.3-61,61s27.3,61,61,61c33.6,0,61-27.3,61-61S172.5,231.1,138.9,231.1z M138.9,377.8
			c-47.3,0-85.8-38.5-85.8-85.8s38.5-85.8,85.8-85.8s85.8,38.5,85.8,85.8S186.2,377.8,138.9,377.8z M138.9,215.2
			c-42.3,0-76.8,34.4-76.8,76.8s34.4,76.8,76.8,76.8s76.8-34.4,76.8-76.8S181.2,215.2,138.9,215.2z M138.9,393.6
			c-56,0-101.6-45.6-101.6-101.6s45.6-101.6,101.6-101.6c56,0,101.6,45.6,101.6,101.6S194.9,393.6,138.9,393.6z M138.9,199.4
			c-51.1,0-92.6,41.5-92.6,92.6s41.5,92.6,92.6,92.6s92.6-41.5,92.6-92.6S189.9,199.4,138.9,199.4z M138.9,409.5
			c-64.8,0-117.4-52.7-117.4-117.4s52.7-117.4,117.4-117.4S256.3,227.3,256.3,292S203.6,409.5,138.9,409.5z M138.9,183.6
			c-59.8,0-108.4,48.6-108.4,108.4s48.6,108.4,108.4,108.4S247.3,351.8,247.3,292S198.7,183.6,138.9,183.6z M138.9,425.3
			C65.4,425.3,5.6,365.5,5.6,292c0-73.5,59.8-133.3,133.3-133.3c73.5,0,133.3,59.8,133.3,133.3C272.1,365.5,212.4,425.3,138.9,425.3
			z M138.9,167.8c-68.5,0-124.3,55.7-124.3,124.3c0,68.5,55.7,124.3,124.3,124.3c68.5,0,124.3-55.7,124.3-124.3
			C263.1,223.5,207.4,167.8,138.9,167.8z M138.9,441.1c-82.2,0-149.1-66.9-149.1-149.1S56.7,143,138.9,143S288,209.8,288,292
			S221.1,441.1,138.9,441.1z M138.9,152C61.6,152-1.2,214.8-1.2,292s62.8,140.1,140.1,140.1S279,369.3,279,292S216.1,152,138.9,152z
			 M138.9,456.9C48,456.9-26,383-26,292c0-90.9,74-164.9,164.9-164.9c90.9,0,164.9,74,164.9,164.9
			C303.8,383,229.8,456.9,138.9,456.9z M138.9,136.1C52.9,136.1-17,206.1-17,292c0,86,69.9,155.9,155.9,155.9
			c86,0,155.9-69.9,155.9-155.9C294.8,206.1,224.8,136.1,138.9,136.1z M138.9,472.8c-48.3,0-93.7-18.8-127.8-52.9
			C-23,385.7-41.8,340.3-41.8,292s18.8-93.7,52.9-127.8s79.5-52.9,127.8-52.9s93.7,18.8,127.8,52.9c34.1,34.1,52.9,79.5,52.9,127.8
			s-18.8,93.7-52.9,127.8C232.5,454,187.2,472.8,138.9,472.8z M138.9,120.3c-94.7,0-171.7,77-171.7,171.7s77,171.7,171.7,171.7
			c94.7,0,171.7-77,171.7-171.7S233.6,120.3,138.9,120.3z M138.9,488.6c-52.5,0-101.9-20.4-139-57.6s-57.6-86.5-57.6-139
			s20.4-101.9,57.6-139s86.5-57.6,139-57.6s101.9,20.4,139,57.6s57.6,86.5,57.6,139S315,393.9,277.9,431S191.4,488.6,138.9,488.6z
			 M138.9,104.5c-50.1,0-97.2,19.5-132.6,54.9S-48.7,241.9-48.7,292s19.5,97.2,54.9,132.6c35.4,35.4,82.5,54.9,132.6,54.9
			c50.1,0,97.2-19.5,132.6-54.9c35.4-35.4,54.9-82.5,54.9-132.6s-19.5-97.2-54.9-132.6C236.1,124,189,104.5,138.9,104.5z
			 M138.9,504.4c-56.7,0-110.1-22.1-150.2-62.2S-73.5,348.8-73.5,292S-51.4,182-11.3,141.9s93.4-62.2,150.2-62.2
			s110.1,22.1,150.2,62.2s62.2,93.4,62.2,150.2s-22.1,110.1-62.2,150.2S195.6,504.4,138.9,504.4z M138.9,88.7
			c-54.3,0-105.4,21.2-143.8,59.6c-38.4,38.4-59.6,89.5-59.6,143.8s21.2,105.4,59.6,143.8c38.4,38.4,89.5,59.6,143.8,59.6
			c54.3,0,105.4-21.2,143.8-59.6s59.6-89.5,59.6-143.8s-21.2-105.4-59.6-143.8C244.3,109.8,193.2,88.7,138.9,88.7z M138.9,520.2
			c-61,0-118.3-23.7-161.4-66.8C-65.6,410.3-89.3,353-89.3,292s23.7-118.3,66.8-161.4C20.6,87.6,77.9,63.8,138.9,63.8
			s118.3,23.7,161.4,66.8c43.1,43.1,66.8,100.4,66.8,161.4s-23.7,118.3-66.8,161.4C257.1,496.5,199.8,520.2,138.9,520.2z
			 M138.9,72.8c-58.6,0-113.6,22.8-155,64.2s-64.2,96.4-64.2,155s22.8,113.6,64.2,155c41.4,41.4,96.4,64.2,155,64.2
			c58.6,0,113.6-22.8,155-64.2c41.4-41.4,64.2-96.5,64.2-155s-22.8-113.6-64.2-155C252.5,95.6,197.4,72.8,138.9,72.8z M138.9,536.1
			c-65.2,0-126.5-25.4-172.6-71.5s-71.5-107.4-71.5-172.6s25.4-126.5,71.5-172.6S73.7,48,138.9,48s126.5,25.4,172.6,71.5
			s71.5,107.4,71.5,172.6s-25.4,126.5-71.5,172.6S204.1,536.1,138.9,536.1z M138.9,57C76.1,57,17.1,81.5-27.3,125.8
			S-96.2,229.3-96.2,292s24.4,121.8,68.8,166.2c44.4,44.4,103.4,68.8,166.2,68.8c62.8,0,121.8-24.4,166.2-68.8
			c44.4-44.4,68.8-103.4,68.8-166.2s-24.4-121.8-68.8-166.2C260.7,81.5,201.7,57,138.9,57z M138.9,551.9
			c-69.4,0-134.7-27-183.7-76.1S-121,361.4-121,292s27-134.7,76.1-183.7S69.5,32.2,138.9,32.2s134.7,27,183.7,76.1
			s76.1,114.3,76.1,183.7s-27,134.7-76.1,183.7S208.3,551.9,138.9,551.9z M138.9,41.2c-67,0-130,26.1-177.4,73.5S-112,225-112,292
			s26.1,130,73.5,177.4s110.4,73.5,177.4,73.5c67,0,130-26.1,177.4-73.5S389.7,359,389.7,292s-26.1-130-73.5-177.4
			S205.9,41.2,138.9,41.2z M138.9,567.7C65.2,567.7-4,539-56.1,487s-80.7-121.3-80.7-194.9s28.7-142.9,80.7-194.9
			C-4,45,65.2,16.4,138.9,16.4S281.7,45,333.8,97.1c52.1,52.1,80.7,121.3,80.7,194.9S385.9,434.9,333.8,487S212.5,567.7,138.9,567.7
			z M138.9,25.4c-71.2,0-138.2,27.7-188.6,78.1c-50.4,50.4-78.1,117.3-78.1,188.6c0,71.2,27.7,138.2,78.1,188.6
			C0.7,531,67.6,558.7,138.9,558.7c71.2,0,138.2-27.7,188.6-78.1s78.1-117.3,78.1-188.6c0-71.2-27.7-138.2-78.1-188.6
			S210.1,25.4,138.9,25.4z M138.9,583.5c-39.3,0-77.5-7.7-113.5-22.9c-34.7-14.7-65.9-35.7-92.7-62.5
			c-26.8-26.8-47.8-57.9-62.5-92.7c-15.2-35.9-22.9-74.1-22.9-113.5c0-39.3,7.7-77.5,22.9-113.5c14.7-34.7,35.7-65.9,62.5-92.7
			c26.8-26.8,57.9-47.8,92.7-62.5C61.4,8.2,99.5,0.5,138.9,0.5s77.5,7.7,113.5,22.9c34.7,14.7,65.9,35.7,92.7,62.5
			c26.8,26.8,47.8,57.9,62.5,92.7c15.2,35.9,22.9,74.1,22.9,113.5c0,39.4-7.7,77.5-22.9,113.5c-14.7,34.7-35.7,65.9-62.5,92.7
			c-26.8,26.8-57.9,47.8-92.7,62.5C216.4,575.8,178.2,583.5,138.9,583.5z M138.9,9.5C63.4,9.5-7.5,38.9-60.9,92.3
			c-53.4,53.4-82.7,124.3-82.7,199.8s29.4,146.4,82.7,199.8c53.4,53.4,124.3,82.7,199.8,82.7s146.4-29.4,199.8-82.7
			c53.4-53.4,82.7-124.3,82.7-199.8c0-75.5-29.4-146.4-82.7-199.8C285.3,38.9,214.3,9.5,138.9,9.5z M138.9,599.4
			c-41.5,0-81.7-8.1-119.6-24.2c-36.6-15.5-69.5-37.6-97.7-65.9c-28.2-28.2-50.4-61.1-65.9-97.7c-16-37.9-24.2-78.1-24.2-119.6
			s8.1-81.7,24.2-119.6c15.5-36.6,37.6-69.5,65.9-97.7s61.1-50.4,97.7-65.9c37.9-16,78.1-24.2,119.6-24.2s81.7,8.1,119.6,24.2
			c36.6,15.5,69.5,37.6,97.7,65.9c28.2,28.2,50.4,61.1,65.9,97.7c16,37.9,24.2,78.1,24.2,119.6s-8.1,81.7-24.2,119.6
			c-15.5,36.6-37.6,69.5-65.9,97.7c-28.2,28.2-61.1,50.4-97.7,65.9C220.6,591.2,180.4,599.4,138.9,599.4z M138.9-6.3
			c-40.3,0-79.3,7.9-116.1,23.4c-35.5,15-67.4,36.5-94.8,63.9s-48.9,59.3-63.9,94.8c-15.6,36.8-23.4,75.8-23.4,116.1
			c0,40.3,7.9,79.3,23.4,116.1c15,35.5,36.5,67.4,63.9,94.8c27.4,27.4,59.3,48.9,94.8,63.9c36.8,15.6,75.8,23.4,116.1,23.4
			s79.3-7.9,116.1-23.4c35.5-15,67.4-36.5,94.8-63.9c27.4-27.4,48.9-59.3,63.9-94.8c15.6-36.8,23.4-75.8,23.4-116.1
			c0-40.3-7.9-79.3-23.4-116.1c-15-35.5-36.5-67.4-63.9-94.8c-27.4-27.4-59.3-48.9-94.8-63.9C218.2,1.6,179.2-6.3,138.9-6.3z
			 M138.9,615.2c-43.6,0-85.9-8.5-125.8-25.4c-38.5-16.3-73-39.6-102.7-69.3c-29.7-29.7-53-64.2-69.3-102.7
			c-16.9-39.8-25.4-82.2-25.4-125.8s8.5-85.9,25.4-125.8c16.3-38.5,39.6-73,69.3-102.7c29.7-29.7,64.2-53,102.7-69.3
			c39.8-16.9,82.2-25.4,125.8-25.4c43.6,0,85.9,8.5,125.8,25.4c38.5,16.3,73,39.6,102.7,69.3c29.7,29.7,53,64.2,69.3,102.7
			C453.5,206.1,462,248.4,462,292s-8.5,85.9-25.4,125.8c-16.3,38.5-39.6,73-69.3,102.7c-29.7,29.7-64.2,53-102.7,69.3
			C224.8,606.6,182.5,615.2,138.9,615.2z M138.9-22.1c-42.4,0-83.6,8.3-122.3,24.7c-37.4,15.8-71,38.5-99.9,67.3
			c-28.9,28.9-51.5,62.5-67.3,99.9c-16.4,38.7-24.7,79.9-24.7,122.3c0,42.4,8.3,83.6,24.7,122.3c15.8,37.4,38.5,71,67.3,99.9
			s62.4,51.5,99.9,67.3c38.7,16.4,79.9,24.7,122.3,24.7s83.6-8.3,122.3-24.7c37.4-15.8,71-38.5,99.9-67.3
			c28.9-28.9,51.5-62.4,67.3-99.9C444.7,375.6,453,334.4,453,292c0-42.4-8.3-83.6-24.7-122.3c-15.8-37.4-38.5-71-67.3-99.9
			C332.2,41,298.6,18.4,261.2,2.6C222.4-13.8,181.3-22.1,138.9-22.1z M138.9,631c-45.8,0-90.2-9-131.9-26.6
			c-40.4-17.1-76.6-41.5-107.7-72.6c-31.1-31.1-55.6-67.4-72.6-107.7c-17.7-41.8-26.6-86.2-26.6-131.9s9-90.2,26.6-131.9
			c17.1-40.4,41.5-76.6,72.6-107.7C-69.7,21.2-33.4-3.2,6.9-20.3C48.7-38,93.1-46.9,138.9-46.9s90.2,9,131.9,26.6
			c40.4,17.1,76.6,41.5,107.7,72.6c31.1,31.1,55.6,67.4,72.6,107.7c17.7,41.8,26.6,86.2,26.6,131.9s-9,90.2-26.6,131.9
			c-17.1,40.4-41.5,76.6-72.6,107.7s-67.4,55.6-107.7,72.6C229,622,184.6,631,138.9,631z M138.9-37.9c-44.5,0-87.8,8.7-128.4,25.9
			C-28.9,4.6-64.1,28.4-94.4,58.7c-30.3,30.3-54.1,65.6-70.7,104.9c-17.2,40.7-25.9,83.9-25.9,128.4c0,44.5,8.7,87.8,25.9,128.4
			c16.6,39.3,40.4,74.6,70.7,104.9c30.3,30.3,65.6,54.1,104.9,70.7C51.1,613.3,94.3,622,138.9,622c44.5,0,87.8-8.7,128.4-25.9
			c39.3-16.6,74.6-40.4,104.9-70.7c30.3-30.3,54.1-65.6,70.7-104.9c17.2-40.7,25.9-83.9,25.9-128.4c0-44.5-8.7-87.8-25.9-128.4
			c-16.6-39.3-40.4-74.6-70.7-104.9C341.9,28.4,306.6,4.6,267.3-12C226.6-29.2,183.4-37.9,138.9-37.9z M138.9,646.8
			c-47.9,0-94.4-9.4-138.1-27.9c-42.2-17.9-80.2-43.5-112.8-76s-58.2-70.5-76-112.8c-18.5-43.7-27.9-90.2-27.9-138.1
			s9.4-94.4,27.9-138.1c17.9-42.2,43.5-80.2,76-112.8S-41.5-17,0.8-34.9C44.5-53.4,91-62.8,138.9-62.8c47.9,0,94.4,9.4,138.1,27.9
			c42.2,17.9,80.2,43.5,112.8,76s58.2,70.5,76,112.8c18.5,43.7,27.9,90.2,27.9,138.1s-9.4,94.4-27.9,138.1
			c-17.9,42.2-43.5,80.2-76,112.8s-70.5,58.2-112.8,76C233.2,637.4,186.8,646.8,138.9,646.8z M138.9-53.8c-46.7,0-92,9.1-134.6,27.2
			C-36.9-9.2-73.9,15.8-105.6,47.5c-31.8,31.8-56.7,68.7-74.1,109.9c-18,42.6-27.2,87.9-27.2,134.6s9.1,92,27.2,134.6
			c17.4,41.2,42.4,78.2,74.1,109.9c31.8,31.8,68.7,56.7,109.9,74.1c42.6,18,87.9,27.2,134.6,27.2s92-9.1,134.6-27.2
			c41.2-17.4,78.2-42.4,109.9-74.1s56.7-68.7,74.1-109.9c18-42.6,27.2-87.9,27.2-134.6s-9.1-92-27.2-134.6
			c-17.4-41.2-42.4-78.2-74.1-109.9c-31.8-31.8-68.7-56.7-109.9-74.1C230.9-44.6,185.6-53.8,138.9-53.8z M138.9,662.7
			c-50,0-98.6-9.8-144.3-29.1c-44.1-18.7-83.8-45.4-117.8-79.4c-34-34-60.8-73.7-79.4-117.8c-19.3-45.7-29.1-94.2-29.1-144.3
			c0-50,9.8-98.6,29.1-144.3c18.7-44.1,45.4-83.8,79.4-117.8c34-34,73.7-60.8,117.8-79.4c45.7-19.3,94.2-29.1,144.3-29.1
			c50,0,98.6,9.8,144.3,29.1C327.3-30.8,366.9-4.1,400.9,30c34,34,60.8,73.7,79.4,117.8c19.3,45.7,29.1,94.2,29.1,144.3
			c0,50-9.8,98.6-29.1,144.3c-18.7,44.1-45.4,83.8-79.4,117.8s-73.7,60.8-117.8,79.4C237.4,652.9,188.9,662.7,138.9,662.7z
			 M138.9-69.6C90.1-69.6,42.7-60-1.9-41.2C-44.9-23-83.6,3.1-116.8,36.3c-33.2,33.2-59.3,71.9-77.5,114.9
			c-18.9,44.6-28.4,91.9-28.4,140.8s9.6,96.2,28.4,140.8c18.2,43.1,44.3,81.7,77.5,114.9C-83.6,581-44.9,607-1.9,625.2
			c44.6,18.9,91.9,28.4,140.8,28.4c48.8,0,96.2-9.6,140.8-28.4c43.1-18.2,81.7-44.3,114.9-77.5c33.2-33.2,59.3-71.9,77.5-114.9
			c18.9-44.6,28.4-91.9,28.4-140.8s-9.6-96.2-28.4-140.8c-18.2-43.1-44.3-81.7-77.5-114.9C361.4,3.1,322.7-23,279.6-41.2
			C235.1-60,187.7-69.6,138.9-69.6z M138.9,678.5c-52.2,0-102.8-10.2-150.4-30.4c-46-19.5-87.3-47.3-122.8-82.8
			c-35.5-35.5-63.4-76.8-82.8-122.8c-20.2-47.6-30.4-98.3-30.4-150.4s10.2-102.8,30.4-150.4c19.5-46,47.3-87.3,82.8-122.8
			C-98.9-16.7-57.6-44.6-11.5-64c47.6-20.2,98.3-30.4,150.4-30.4S241.7-84.2,289.3-64c46,19.5,87.3,47.3,122.8,82.8
			c35.5,35.5,63.4,76.8,82.8,122.8c20.2,47.6,30.4,98.3,30.4,150.4S515.1,394.8,495,442.5c-19.5,46-47.3,87.3-82.8,122.8
			c-35.5,35.5-76.8,63.4-122.8,82.8C241.7,668.3,191,678.5,138.9,678.5z M138.9-85.4c-51,0-100.4,10-146.9,29.7
			C-53-36.7-93.4-9.5-128,25.1s-61.9,75-80.9,120c-19.7,46.5-29.7,96-29.7,146.9s10,100.4,29.7,146.9c19,44.9,46.2,85.3,80.9,120
			c34.7,34.7,75,61.9,120,80.9c46.5,19.7,96,29.7,146.9,29.7s100.4-10,146.9-29.7c44.9-19,85.3-46.2,120-80.9
			c34.7-34.7,61.9-75,80.9-120c19.7-46.5,29.7-96,29.7-146.9s-10-100.4-29.7-146.9c-19-44.9-46.2-85.3-80.9-120
			c-34.7-34.7-75-61.9-120-80.9C239.3-75.4,189.8-85.4,138.9-85.4z M138.9,694.3c-54.3,0-107-10.6-156.6-31.6
			c-47.9-20.3-90.9-49.3-127.9-86.2c-36.9-36.9-65.9-80-86.2-127.9c-21-49.6-31.6-102.3-31.6-156.6s10.6-107,31.6-156.6
			c20.3-47.9,49.3-90.9,86.2-127.9s80-65.9,127.9-86.2c49.6-21,102.3-31.6,156.6-31.6c54.3,0,107,10.6,156.6,31.6
			c47.9,20.3,90.9,49.3,127.9,86.2c36.9,36.9,65.9,80,86.2,127.9c21,49.6,31.6,102.3,31.6,156.6s-10.6,107-31.6,156.6
			c-20.3,47.9-49.3,90.9-86.2,127.9c-36.9,36.9-80,65.9-127.9,86.2C245.9,683.7,193.2,694.3,138.9,694.3z M138.9-101.2
			c-53.1,0-104.6,10.4-153.1,30.9C-61-50.5-103.1-22.2-139.2,14c-36.1,36.1-64.5,78.2-84.3,125c-20.5,48.5-30.9,100-30.9,153.1
			s10.4,104.6,30.9,153.1c19.8,46.8,48.2,88.9,84.3,125c36.1,36.1,78.2,64.5,125,84.3c48.5,20.5,100,30.9,153.1,30.9
			c53.1,0,104.6-10.4,153.1-30.9c46.8-19.8,88.9-48.2,125-84.3c36.1-36.1,64.5-78.2,84.3-125c20.5-48.5,30.9-100,30.9-153.1
			S521.8,187.4,501.2,139C481.4,92.1,453.1,50.1,417,14c-36.1-36.1-78.2-64.5-125-84.3C243.5-90.8,192-101.2,138.9-101.2z
			 M138.9,710.1c-56.4,0-111.2-11.1-162.7-32.9c-49.8-21.1-94.5-51.2-132.9-89.6c-38.4-38.4-68.5-83.1-89.6-132.9
			c-21.8-51.5-32.9-106.3-32.9-162.7s11.1-111.2,32.9-162.7c21.1-49.8,51.2-94.5,89.6-132.9C-118.4-42-73.6-72.1-23.9-93.2
			c51.5-21.8,106.3-32.9,162.7-32.9S250.1-115,301.6-93.2C351.4-72.1,396.1-42,434.5-3.6c38.4,38.4,68.5,83.1,89.6,132.9
			C545.9,180.8,557,235.6,557,292s-11.1,111.2-32.9,162.7c-21.1,49.8-51.2,94.5-89.6,132.9s-83.1,68.5-132.9,89.6
			C250.1,699.1,195.3,710.1,138.9,710.1z M138.9-117.1c-55.2,0-108.8,10.8-159.2,32.1c-48.7,20.6-92.5,50.1-130,87.7
			c-37.6,37.6-67.1,81.3-87.7,130c-21.3,50.4-32.1,104-32.1,159.2s10.8,108.8,32.1,159.2c20.6,48.7,50.1,92.5,87.7,130
			c37.6,37.6,81.3,67.1,130,87.7c50.4,21.3,104,32.1,159.2,32.1s108.8-10.8,159.2-32.1c48.7-20.6,92.5-50.1,130-87.7
			c37.6-37.6,67.1-81.3,87.7-130c21.3-50.4,32.1-104,32.1-159.2s-10.8-108.8-32.1-159.2c-20.6-48.7-50.1-92.5-87.7-130
			c-37.6-37.6-81.3-67.1-130-87.7C247.7-106.2,194.1-117.1,138.9-117.1z M138.9,726C80.3,726,23.5,714.5-30,691.9
			c-51.7-21.9-98.1-53.1-137.9-93c-39.8-39.8-71.1-86.3-93-137.9C-283.6,407.4-295,350.6-295,292s11.5-115.4,34.1-168.9
			c21.9-51.7,53.1-98.1,93-137.9s86.3-71.1,137.9-93c53.5-22.6,110.3-34.1,168.9-34.1c58.6,0,115.4,11.5,168.9,34.1
			c51.7,21.9,98.1,53.1,137.9,93c39.8,39.8,71.1,86.3,93,137.9c22.6,53.5,34.1,110.3,34.1,168.9s-11.5,115.4-34.1,168.9
			c-21.9,51.7-53.1,98.1-93,137.9c-39.8,39.8-86.3,71.1-137.9,93C254.3,714.5,197.5,726,138.9,726z M138.9-132.9
			c-57.4,0-113,11.2-165.4,33.4c-50.6,21.4-96,52-135.1,91.1c-39,39-69.7,84.5-91.1,135.1C-274.8,179-286,234.7-286,292
			s11.2,113,33.4,165.4c21.4,50.6,52,96,91.1,135.1c39,39,84.5,69.7,135.1,91.1c52.4,22.2,108,33.4,165.4,33.4s113-11.2,165.4-33.4
			c50.6-21.4,96-52,135.1-91.1c39-39,69.7-84.5,91.1-135.1c22.2-52.4,33.4-108,33.4-165.4s-11.2-113-33.4-165.4
			c-21.4-50.6-52-96-91.1-135.1s-84.5-69.7-135.1-91.1C251.9-121.7,196.2-132.9,138.9-132.9z M138.9,741.8
			c-60.7,0-119.6-11.9-175.1-35.3c-53.6-22.7-101.7-55.1-143-96.4s-73.7-89.4-96.4-143c-23.5-55.4-35.3-114.3-35.3-175.1
			S-299,172.4-275.5,117c22.7-53.6,55.1-101.7,96.4-143s89.4-73.7,143-96.4c55.4-23.5,114.3-35.3,175.1-35.3s119.6,11.9,175.1,35.3
			c53.6,22.7,101.7,55.1,143,96.4s73.7,89.4,96.4,143c23.5,55.4,35.3,114.3,35.3,175.1s-11.9,119.6-35.3,175.1
			c-22.7,53.6-55.1,101.7-96.4,143s-89.4,73.7-143,96.4C258.5,729.9,199.6,741.8,138.9,741.8z M138.9-148.7
			c-59.5,0-117.2,11.7-171.6,34.6c-52.5,22.2-99.6,54-140.1,94.5C-213.3,20.9-245,68-267.2,120.5c-23,54.3-34.6,112.1-34.6,171.6
			s11.7,117.2,34.6,171.6c22.2,52.5,54,99.6,94.5,140.1c40.5,40.5,87.6,72.3,140.1,94.5c54.3,23,112.1,34.6,171.6,34.6
			c59.5,0,117.2-11.7,171.6-34.6c52.5-22.2,99.6-54,140.1-94.5c40.5-40.5,72.3-87.6,94.5-140.1c23-54.3,34.6-112.1,34.6-171.6
			S568,174.8,545,120.5C522.8,68,491,20.9,450.5-19.6c-40.5-40.5-87.6-72.3-140.1-94.5C256.1-137.1,198.4-148.7,138.9-148.7z
			 M138.9,757.6C76,757.6,15.1,745.3-42.3,721c-55.4-23.4-105.2-57-148-99.8c-42.8-42.8-76.3-92.5-99.8-148
			c-24.3-57.4-36.6-118.4-36.6-181.2s12.3-123.8,36.6-181.2c23.4-55.4,57-105.2,99.8-148c42.8-42.8,92.5-76.3,148-99.8
			c57.4-24.3,118.4-36.6,181.2-36.6s123.8,12.3,181.2,36.6c55.4,23.4,105.2,57,148,99.8c42.8,42.8,76.3,92.5,99.8,148
			c24.3,57.4,36.6,118.4,36.6,181.2s-12.3,123.8-36.6,181.2c-23.4,55.4-57,105.2-99.8,148c-42.8,42.8-92.5,76.3-148,99.8
			C262.7,745.3,201.7,757.6,138.9,757.6z M138.9-164.5c-61.6,0-121.4,12.1-177.7,35.9C-93.2-105.7-142-72.7-184-30.8
			s-74.9,90.8-97.8,145.1c-23.8,56.3-35.9,116.1-35.9,177.7s12.1,121.4,35.9,177.7c23,54.4,55.9,103.2,97.8,145.1
			c41.9,41.9,90.8,74.9,145.1,97.8c56.3,23.8,116.1,35.9,177.7,35.9s121.4-12.1,177.7-35.9c54.4-23,103.2-55.9,145.1-97.8
			c41.9-41.9,74.9-90.8,97.8-145.1c23.8-56.3,35.9-116.1,35.9-177.7s-12.1-121.4-35.9-177.7c-23-54.4-55.9-103.2-97.8-145.1
			c-41.9-41.9-90.8-74.9-145.1-97.8C260.3-152.5,200.5-164.5,138.9-164.5z M138.9,773.4c-65,0-128-12.7-187.4-37.8
			c-57.3-24.2-108.8-59-153-103.2c-44.2-44.2-78.9-95.7-103.2-153c-25.1-59.4-37.8-122.4-37.8-187.4s12.7-128,37.8-187.4
			c24.2-57.3,59-108.8,103.2-153s95.7-78.9,153-103.2c59.4-25.1,122.4-37.8,187.4-37.8c65,0,128,12.7,187.4,37.8
			c57.3,24.2,108.8,59,153,103.2c44.2,44.2,78.9,95.7,103.2,153c25.1,59.4,37.8,122.4,37.8,187.4s-12.7,128-37.8,187.4
			c-24.2,57.3-59,108.8-103.2,153c-44.2,44.2-95.7,78.9-153,103.2C266.9,760.7,203.9,773.4,138.9,773.4z M138.9-180.4
			c-63.8,0-125.6,12.5-183.9,37.1C-101.2-119.4-151.8-85.4-195.2-42s-77.4,93.9-101.2,150.2c-24.6,58.2-37.1,120.1-37.1,183.9
			s12.5,125.6,37.1,183.9c23.8,56.3,57.9,106.8,101.2,150.2c43.4,43.4,93.9,77.4,150.2,101.2c58.2,24.6,120.1,37.1,183.9,37.1
			s125.6-12.5,183.9-37.1c56.3-23.8,106.8-57.9,150.2-101.2c43.4-43.4,77.4-93.9,101.2-150.2c24.6-58.2,37.1-120.1,37.1-183.9
			s-12.5-125.6-37.1-183.9C550.4,51.9,516.3,1.4,472.9-42c-43.4-43.4-93.9-77.4-150.2-101.2C264.5-167.9,202.7-180.4,138.9-180.4z
			 M138.9,789.2c-67.1,0-132.2-13.1-193.5-39.1c-59.2-25-112.4-60.9-158-106.6c-45.7-45.7-81.5-98.8-106.6-158
			c-25.9-61.3-39.1-126.4-39.1-193.5s13.1-132.2,39.1-193.5c25-59.2,60.9-112.4,106.6-158c45.7-45.7,98.8-81.5,158-106.6
			C6.6-192,71.8-205.2,138.9-205.2s132.2,13.1,193.5,39.1c59.2,25,112.4,60.9,158,106.6C536.1-13.9,572,39.3,597,98.5
			c25.9,61.3,39.1,126.4,39.1,193.5S622.9,424.3,597,485.6c-25,59.2-60.9,112.4-106.6,158c-45.7,45.7-98.8,81.5-158,106.6
			C271.1,776.1,206,789.2,138.9,789.2z M138.9-196.2c-65.9,0-129.8,12.9-190,38.4C-109.3-133.2-161.5-98-206.3-53.2
			C-251.2-8.3-286.4,43.9-311,102c-25.5,60.2-38.4,124.1-38.4,190s12.9,129.8,38.4,190c24.6,58.1,59.8,110.3,104.6,155.2
			c44.8,44.8,97.1,80,155.2,104.6C9,767.3,73,780.3,138.9,780.3c65.9,0,129.8-12.9,190-38.4c58.1-24.6,110.3-59.8,155.2-104.6
			c44.8-44.8,80-97.1,104.6-155.2c25.5-60.2,38.4-124.1,38.4-190s-12.9-129.8-38.4-190C564.1,43.9,528.9-8.3,484.1-53.2
			c-44.8-44.8-97.1-80-155.2-104.6C268.7-183.3,204.8-196.2,138.9-196.2z M138.9,805.1c-69.3,0-136.4-13.6-199.7-40.3
			c-61.1-25.8-116-62.8-163.1-109.9c-47.1-47.1-84.1-102-109.9-163.1c-26.8-63.3-40.3-130.4-40.3-199.7s13.6-136.4,40.3-199.7
			C-308,31.2-271-23.6-223.9-70.7c47.1-47.1,102-84.1,163.1-109.9C2.4-207.4,69.6-221,138.9-221c69.3,0,136.4,13.6,199.7,40.3
			c61.1,25.8,116,62.8,163.1,109.9c47.1,47.1,84.1,102,109.9,163.1c26.8,63.3,40.3,130.4,40.3,199.7s-13.6,136.4-40.3,199.7
			c-25.8,61.1-62.8,116-109.9,163.1c-47.1,47.1-102,84.1-163.1,109.9C275.3,791.5,208.1,805.1,138.9,805.1z M138.9-212
			c-68,0-134.1,13.3-196.2,39.6c-60,25.4-113.9,61.7-160.2,108s-82.6,100.2-108,160.2C-351.8,158-365.2,224-365.2,292
			s13.3,134.1,39.6,196.2c25.4,60,61.7,113.9,108,160.2c46.3,46.3,100.2,82.6,160.2,108c62.1,26.3,128.1,39.6,196.2,39.6
			s134.1-13.3,196.2-39.6c60-25.4,113.9-61.7,160.2-108c46.3-46.3,82.6-100.2,108-160.2c26.3-62.1,39.6-128.1,39.6-196.2
			S629.6,158,603.3,95.8c-25.4-60-61.7-113.9-108-160.2s-100.2-82.6-160.2-108C272.9-198.7,206.9-212,138.9-212z"/>
	</g>
</g>
</svg>
