<?xml version="1.0" encoding="utf-8"?>
<!-- Generator: Adobe Illustrator 19.0.0, SVG Export Plug-In . SVG Version: 6.00 Build 0)  -->
<svg version="1.1" xmlns="http://www.w3.org/2000/svg" xmlns:xlink="http://www.w3.org/1999/xlink" x="0px" y="0px" width="138.9px"
	 height="277.8px" viewBox="0 0 138.9 277.8" style="enable-background:new 0 0 138.9 277.8;" xml:space="preserve">
<style type="text/css">
	.st0{fill:#FFFFFF;}
	.st1{clip-path:url(#XMLID_15_);}
	.st2{fill:#1123C9;}
</style>
<g id="Capa_4">
	<g id="XMLID_120_">
		<path id="XMLID_907_" class="st0" d="M0,0v69.4c38.4,0,69.4,31.1,69.4,69.4S38.4,208.3,0,208.3v69.4
			c76.7,0,138.9-62.2,138.9-138.9C138.9,62.2,76.7,0,0,0z"/>
	</g>
</g>
<g id="Capa_4_copia">
	<g id="XMLID_121_">
		<defs>
			<path id="XMLID_595_" d="M0,0v69.4c38.4,0,69.4,31.1,69.4,69.4S38.4,208.3,0,208.3v69.4c76.7,0,138.9-62.2,138.9-138.9
				C138.9,62.2,76.7,0,0,0z"/>
		</defs>
		<clipPath id="XMLID_15_">
			<use xlink:href="#XMLID_595_"  style="overflow:visible;"/>
		</clipPath>
		<g id="XMLID_122_" class="st1">
			<g id="XMLID_123_">
				<g id="XMLID_124_">
					<g id="XMLID_253_">
						
							<rect id="XMLID_254_" x="-231.1" y="-1137.6" transform="matrix(0.7072 -0.7071 0.7071 0.7072 274.6438 -301.4733)" class="st2" width="9" height="1310.5"/>
					</g>
					<g id="XMLID_251_">
						
							<rect id="XMLID_252_" x="-231.1" y="-1113.7" transform="matrix(0.7072 -0.7071 0.7071 0.7072 257.7388 -294.4716)" class="st2" width="9" height="1310.5"/>
					</g>
					<g id="XMLID_249_">
						
							<rect id="XMLID_250_" x="-231.1" y="-1089.7" transform="matrix(0.7072 -0.7071 0.7071 0.7072 240.8344 -287.4702)" class="st2" width="9" height="1310.5"/>
					</g>
					<g id="XMLID_247_">
						
							<rect id="XMLID_248_" x="-231.1" y="-1065.8" transform="matrix(0.7072 -0.7071 0.7071 0.7072 223.93 -280.4688)" class="st2" width="9" height="1310.5"/>
					</g>
					<g id="XMLID_245_">
						
							<rect id="XMLID_246_" x="-231.1" y="-1041.9" transform="matrix(0.7072 -0.7071 0.7071 0.7072 207.0253 -273.4673)" class="st2" width="9" height="1310.5"/>
					</g>
					<g id="XMLID_243_">
						
							<rect id="XMLID_244_" x="-231.1" y="-1018" transform="matrix(0.7072 -0.7071 0.7071 0.7072 190.1206 -266.4657)" class="st2" width="9" height="1310.5"/>
					</g>
					<g id="XMLID_241_">
						
							<rect id="XMLID_242_" x="-231.1" y="-994.1" transform="matrix(0.7072 -0.7071 0.7071 0.7072 173.2162 -259.4643)" class="st2" width="9" height="1310.5"/>
					</g>
					<g id="XMLID_239_">
						
							<rect id="XMLID_240_" x="-231.1" y="-970.2" transform="matrix(0.7072 -0.7071 0.7071 0.7072 156.3115 -252.4628)" class="st2" width="9" height="1310.5"/>
					</g>
					<g id="XMLID_237_">
						
							<rect id="XMLID_238_" x="-231.1" y="-946.3" transform="matrix(0.7072 -0.7071 0.7071 0.7072 139.4068 -245.4613)" class="st2" width="9" height="1310.5"/>
					</g>
					<g id="XMLID_235_">
						
							<rect id="XMLID_236_" x="-231.1" y="-922.4" transform="matrix(0.7072 -0.7071 0.7071 0.7072 122.5023 -238.4598)" class="st2" width="9" height="1310.5"/>
					</g>
					<g id="XMLID_233_">
						
							<rect id="XMLID_234_" x="-231.1" y="-898.5" transform="matrix(0.7072 -0.7071 0.7071 0.7072 105.5979 -231.4584)" class="st2" width="9" height="1310.5"/>
					</g>
					<g id="XMLID_231_">
						
							<rect id="XMLID_232_" x="-231.1" y="-874.6" transform="matrix(0.7072 -0.7071 0.7071 0.7072 88.6929 -224.4568)" class="st2" width="9" height="1310.5"/>
					</g>
					<g id="XMLID_229_">
						
							<rect id="XMLID_230_" x="-231.1" y="-850.7" transform="matrix(0.7072 -0.7071 0.7071 0.7072 71.7885 -217.4554)" class="st2" width="9" height="1310.5"/>
					</g>
					<g id="XMLID_227_">
						
							<rect id="XMLID_228_" x="-231.1" y="-826.8" transform="matrix(0.7072 -0.7071 0.7071 0.7072 54.8841 -210.4539)" class="st2" width="9" height="1310.5"/>
					</g>
					<g id="XMLID_225_">
						
							<rect id="XMLID_226_" x="-231.1" y="-802.8" transform="matrix(0.7072 -0.7071 0.7071 0.7072 37.9794 -203.4524)" class="st2" width="9" height="1310.5"/>
					</g>
					<g id="XMLID_223_">
						
							<rect id="XMLID_224_" x="-231.1" y="-778.9" transform="matrix(0.7072 -0.7071 0.7071 0.7072 21.0746 -196.4508)" class="st2" width="9" height="1310.5"/>
					</g>
					<g id="XMLID_221_">
						
							<rect id="XMLID_222_" x="-231.1" y="-755" transform="matrix(0.7072 -0.7071 0.7071 0.7072 4.1701 -189.4494)" class="st2" width="9" height="1310.5"/>
					</g>
					<g id="XMLID_219_">
						
							<rect id="XMLID_220_" x="-231.1" y="-731.1" transform="matrix(0.7072 -0.7071 0.7071 0.7072 -12.7344 -182.4479)" class="st2" width="9" height="1310.5"/>
					</g>
					<g id="XMLID_217_">
						
							<rect id="XMLID_218_" x="-231.1" y="-707.2" transform="matrix(0.7072 -0.7071 0.7071 0.7072 -29.6393 -175.4463)" class="st2" width="9" height="1310.5"/>
					</g>
					<g id="XMLID_215_">
						
							<rect id="XMLID_216_" x="-231.1" y="-683.3" transform="matrix(0.7072 -0.7071 0.7071 0.7072 -46.5437 -168.4449)" class="st2" width="9" height="1310.5"/>
					</g>
					<g id="XMLID_213_">
						
							<rect id="XMLID_214_" x="-231.1" y="-659.4" transform="matrix(0.7072 -0.7071 0.7071 0.7072 -63.4482 -161.4434)" class="st2" width="9" height="1310.5"/>
					</g>
					<g id="XMLID_211_">
						
							<rect id="XMLID_212_" x="-231.1" y="-635.5" transform="matrix(0.7072 -0.7071 0.7071 0.7072 -80.3527 -154.442)" class="st2" width="9" height="1310.5"/>
					</g>
					<g id="XMLID_209_">
						
							<rect id="XMLID_210_" x="-231.1" y="-611.6" transform="matrix(0.7072 -0.7071 0.7071 0.7072 -97.2575 -147.4404)" class="st2" width="9" height="1310.5"/>
					</g>
					<g id="XMLID_207_">
						
							<rect id="XMLID_208_" x="-231.1" y="-587.7" transform="matrix(0.7072 -0.7071 0.7071 0.7072 -114.1621 -140.4389)" class="st2" width="9" height="1310.5"/>
					</g>
					<g id="XMLID_205_">
						
							<rect id="XMLID_206_" x="-231.1" y="-563.8" transform="matrix(0.7072 -0.7071 0.7071 0.7072 -131.0665 -133.4375)" class="st2" width="9" height="1310.5"/>
					</g>
					<g id="XMLID_203_">
						
							<rect id="XMLID_204_" x="-231.1" y="-539.9" transform="matrix(0.7072 -0.7071 0.7071 0.7072 -147.9713 -126.4359)" class="st2" width="9" height="1310.5"/>
					</g>
					<g id="XMLID_201_">
						
							<rect id="XMLID_202_" x="-231.1" y="-515.9" transform="matrix(0.7072 -0.7071 0.7071 0.7072 -164.8757 -119.4345)" class="st2" width="9" height="1310.5"/>
					</g>
					<g id="XMLID_199_">
						
							<rect id="XMLID_200_" x="-231.1" y="-492" transform="matrix(0.7072 -0.7071 0.7071 0.7072 -181.7803 -112.433)" class="st2" width="9" height="1310.5"/>
					</g>
					<g id="XMLID_197_">
						
							<rect id="XMLID_198_" x="-231.1" y="-468.1" transform="matrix(0.7072 -0.7071 0.7071 0.7072 -198.6852 -105.4314)" class="st2" width="9" height="1310.5"/>
					</g>
					<g id="XMLID_195_">
						
							<rect id="XMLID_196_" x="-231.1" y="-444.2" transform="matrix(0.7072 -0.7071 0.7071 0.7072 -215.5896 -98.43)" class="st2" width="9" height="1310.5"/>
					</g>
					<g id="XMLID_193_">
						
							<rect id="XMLID_194_" x="-231.1" y="-420.3" transform="matrix(0.7072 -0.7071 0.7071 0.7072 -232.4941 -91.4285)" class="st2" width="9" height="1310.5"/>
					</g>
					<g id="XMLID_191_">
						
							<rect id="XMLID_192_" x="-231.1" y="-396.4" transform="matrix(0.7072 -0.7071 0.7071 0.7072 -249.3985 -84.4271)" class="st2" width="9" height="1310.5"/>
					</g>
					<g id="XMLID_189_">
						
							<rect id="XMLID_190_" x="-231.1" y="-372.5" transform="matrix(0.7072 -0.7071 0.7071 0.7072 -266.3034 -77.4255)" class="st2" width="9" height="1310.5"/>
					</g>
					<g id="XMLID_187_">
						
							<rect id="XMLID_188_" x="-231.1" y="-348.6" transform="matrix(0.7072 -0.7071 0.7071 0.7072 -283.2078 -70.4241)" class="st2" width="9" height="1310.5"/>
					</g>
					<g id="XMLID_184_">
						
							<rect id="XMLID_185_" x="-231.1" y="-324.7" transform="matrix(0.7072 -0.7071 0.7071 0.7072 -300.1124 -63.4226)" class="st2" width="9" height="1310.5"/>
					</g>
					<g id="XMLID_182_">
						
							<rect id="XMLID_183_" x="-231.1" y="-300.8" transform="matrix(0.7072 -0.7071 0.7071 0.7072 -317.0172 -56.421)" class="st2" width="9" height="1310.5"/>
					</g>
					<g id="XMLID_180_">
						
							<rect id="XMLID_181_" x="-231.1" y="-276.9" transform="matrix(0.7072 -0.7071 0.7071 0.7072 -333.9216 -49.4196)" class="st2" width="9" height="1310.5"/>
					</g>
					<g id="XMLID_178_">
						
							<rect id="XMLID_179_" x="-231.1" y="-253" transform="matrix(0.7072 -0.7071 0.7071 0.7072 -350.8262 -42.4181)" class="st2" width="9" height="1310.5"/>
					</g>
					<g id="XMLID_176_">
						
							<rect id="XMLID_177_" x="-231.1" y="-229.1" transform="matrix(0.7072 -0.7071 0.7071 0.7072 -367.7309 -35.4166)" class="st2" width="9" height="1310.5"/>
					</g>
					<g id="XMLID_174_">
						
							<rect id="XMLID_175_" x="-231.1" y="-205.1" transform="matrix(0.7072 -0.7071 0.7071 0.7072 -384.6355 -28.4151)" class="st2" width="9" height="1310.5"/>
					</g>
					<g id="XMLID_172_">
						
							<rect id="XMLID_173_" x="-231.1" y="-181.2" transform="matrix(0.7072 -0.7071 0.7071 0.7072 -401.54 -21.4137)" class="st2" width="9" height="1310.5"/>
					</g>
					<g id="XMLID_170_">
						
							<rect id="XMLID_171_" x="-231.1" y="-157.3" transform="matrix(0.7072 -0.7071 0.7071 0.7072 -418.4444 -14.4122)" class="st2" width="9" height="1310.5"/>
					</g>
					<g id="XMLID_168_">
						
							<rect id="XMLID_169_" x="-231.1" y="-133.4" transform="matrix(0.7072 -0.7071 0.7071 0.7072 -435.3493 -7.4106)" class="st2" width="9" height="1310.5"/>
					</g>
					<g id="XMLID_166_">
						
							<rect id="XMLID_167_" x="-231.1" y="-109.5" transform="matrix(0.7072 -0.7071 0.7071 0.7072 -452.2537 -0.4092)" class="st2" width="9" height="1310.5"/>
					</g>
					<g id="XMLID_164_">
						
							<rect id="XMLID_165_" x="-231.1" y="-85.6" transform="matrix(0.7072 -0.7071 0.7071 0.7072 -469.1583 6.5922)" class="st2" width="9" height="1310.5"/>
					</g>
					<g id="XMLID_162_">
						
							<rect id="XMLID_163_" x="-231.1" y="-61.7" transform="matrix(0.7072 -0.7071 0.7071 0.7072 -486.0631 13.5938)" class="st2" width="9" height="1310.5"/>
					</g>
					<g id="XMLID_160_">
						
							<rect id="XMLID_161_" x="-231.1" y="-37.8" transform="matrix(0.7072 -0.7071 0.7071 0.7072 -502.9675 20.5953)" class="st2" width="9" height="1310.5"/>
					</g>
					<g id="XMLID_158_">
						
							<rect id="XMLID_159_" x="-231.1" y="-13.9" transform="matrix(0.7072 -0.7071 0.7071 0.7072 -519.8721 27.5967)" class="st2" width="9" height="1310.5"/>
					</g>
					<g id="XMLID_156_">
						
							<rect id="XMLID_157_" x="-231.1" y="10" transform="matrix(0.7072 -0.7071 0.7071 0.7072 -536.7768 34.5983)" class="st2" width="9" height="1310.5"/>
					</g>
					<g id="XMLID_154_">
						
							<rect id="XMLID_155_" x="-231.1" y="33.9" transform="matrix(0.7072 -0.7071 0.7071 0.7072 -553.6813 41.5997)" class="st2" width="9" height="1310.5"/>
					</g>
					<g id="XMLID_151_">
						
							<rect id="XMLID_153_" x="-231.1" y="57.8" transform="matrix(0.7072 -0.7071 0.7071 0.7072 -570.5859 48.6012)" class="st2" width="9" height="1310.5"/>
					</g>
					<g id="XMLID_149_">
						
							<rect id="XMLID_150_" x="-231.1" y="81.8" transform="matrix(0.7072 -0.7071 0.7071 0.7072 -587.4903 55.6026)" class="st2" width="9" height="1310.5"/>
					</g>
					<g id="XMLID_147_">
						
							<rect id="XMLID_148_" x="-231.1" y="105.7" transform="matrix(0.7072 -0.7071 0.7071 0.7072 -604.3951 62.6042)" class="st2" width="9" height="1310.5"/>
					</g>
					<g id="XMLID_145_">
						
							<rect id="XMLID_146_" x="-231.1" y="129.6" transform="matrix(0.7071 -0.7071 0.7071 0.7071 -621.3444 69.6304)" class="st2" width="9.1" height="1310.5"/>
					</g>
					<g id="XMLID_143_">
						
							<rect id="XMLID_144_" x="-231.1" y="153.5" transform="matrix(0.7071 -0.7071 0.7071 0.7071 -638.2501 76.633)" class="st2" width="9.1" height="1310.5"/>
					</g>
					<g id="XMLID_141_">
						
							<rect id="XMLID_142_" x="-231.1" y="177.4" transform="matrix(0.7071 -0.7071 0.7071 0.7071 -655.1557 83.6355)" class="st2" width="9.1" height="1310.5"/>
					</g>
					<g id="XMLID_139_">
						
							<rect id="XMLID_140_" x="-231.1" y="201.3" transform="matrix(0.7071 -0.7071 0.7071 0.7071 -672.0613 90.638)" class="st2" width="9.1" height="1310.5"/>
					</g>
					<g id="XMLID_137_">
						
							<rect id="XMLID_138_" x="-231.1" y="225.2" transform="matrix(0.7071 -0.7071 0.7071 0.7071 -688.967 97.6406)" class="st2" width="9.1" height="1310.5"/>
					</g>
					<g id="XMLID_135_">
						
							<rect id="XMLID_136_" x="-231.1" y="249.1" transform="matrix(0.7071 -0.7071 0.7071 0.7071 -705.8726 104.6431)" class="st2" width="9.1" height="1310.5"/>
					</g>
					<g id="XMLID_133_">
						
							<rect id="XMLID_134_" x="-231.1" y="273" transform="matrix(0.7071 -0.7071 0.7071 0.7071 -722.7783 111.6457)" class="st2" width="9.1" height="1310.5"/>
					</g>
					<g id="XMLID_131_">
						
							<rect id="XMLID_132_" x="-231.1" y="296.9" transform="matrix(0.7071 -0.7071 0.7071 0.7071 -739.684 118.6483)" class="st2" width="9.1" height="1310.5"/>
					</g>
					<g id="XMLID_129_">
						
							<rect id="XMLID_130_" x="-231.1" y="320.8" transform="matrix(0.7071 -0.7071 0.7071 0.7071 -756.5896 125.6508)" class="st2" width="9.1" height="1310.5"/>
					</g>
					<g id="XMLID_127_">
						
							<rect id="XMLID_128_" x="-231.1" y="344.7" transform="matrix(0.7071 -0.7071 0.7071 0.7071 -773.4952 132.6533)" class="st2" width="9.1" height="1310.5"/>
					</g>
					<g id="XMLID_125_">
						
							<rect id="XMLID_126_" x="-231.1" y="368.7" transform="matrix(0.7071 -0.7071 0.7071 0.7071 -790.4008 139.6559)" class="st2" width="9.1" height="1310.5"/>
					</g>
					<g id="XMLID_152_">
						
							<rect id="XMLID_186_" x="-231.1" y="392.6" transform="matrix(0.7071 -0.7071 0.7071 0.7071 -807.3066 146.6585)" class="st2" width="9.1" height="1310.5"/>
					</g>
				</g>
			</g>
		</g>
	</g>
</g>
</svg>
