<?xml version="1.0" encoding="utf-8"?>
<!-- Generator: Adobe Illustrator 21.1.0, SVG Export Plug-In . SVG Version: 6.00 Build 0)  -->
<svg version="1.1" id="Capa_1" xmlns="http://www.w3.org/2000/svg" xmlns:xlink="http://www.w3.org/1999/xlink" x="0px" y="0px"
	 viewBox="0 0 841.9 595.3" style="enable-background:new 0 0 841.9 595.3;" xml:space="preserve">
<style type="text/css">
	.st0{fill:#435772;}
</style>
<g>
	<path class="st0" d="M567,301.1v-180c0-3.7-3-6.8-6.8-6.8H290.2c-3.7,0-6.7,3-6.7,6.8v180c0,3.7,3,6.8,6.7,6.8h270
		C564,307.9,567,304.8,567,301.1z M553.5,294.4H296.9V127.8h256.5V294.4z M635.2,389.1l-45.8-68.6V121.1c0-16.1-13.1-29.3-29.3-29.3
		h-270c-16.1,0-29.3,13.1-29.3,29.3v201.6l-44.3,66.4v2c0,0.2,0,0.4,0,0.7c0,0.1,0,0.2,0,0.3v21.5c0,3,0.5,5.9,1.3,8.6l-10,10
		c-1.8,1.8-1.8,4.6,0,6.4c0.9,0.9,2,1.3,3.2,1.3c1.1,0,2.3-0.4,3.2-1.3l7.9-7.9c1.4,1.9,2.9,3.6,4.7,5.1L208,454.7
		c-1.8,1.8-1.8,4.6,0,6.4c0.9,0.9,2,1.3,3.2,1.3c1.1,0,2.3-0.4,3.2-1.3l20.4-20.4c2.4,1,5,1.7,7.8,2l-12,12c-1.8,1.8-1.8,4.6,0,6.4
		c0.9,0.9,2,1.3,3.2,1.3c1.1,0,2.3-0.4,3.2-1.3l18.2-18.2h9.8L253,454.7c-1.8,1.8-1.8,4.6,0,6.4c0.9,0.9,2,1.3,3.2,1.3
		c1.2,0,2.3-0.4,3.2-1.3l18.2-18.2h9.8l-11.8,11.8c-1.8,1.8-1.8,4.6,0,6.4c0.9,0.9,2,1.3,3.2,1.3c1.2,0,2.3-0.4,3.2-1.3l18.2-18.2
		h9.8L298,454.7c-1.8,1.8-1.8,4.6,0,6.4c0.9,0.9,2,1.3,3.2,1.3c1.2,0,2.3-0.4,3.2-1.3l18.2-18.2h9.8l-11.8,11.8
		c-1.8,1.8-1.8,4.6,0,6.4c0.9,0.9,2,1.3,3.2,1.3c1.2,0,2.3-0.4,3.2-1.3l18.2-18.2h9.8L343,454.7c-1.8,1.8-1.8,4.6,0,6.4
		c0.9,0.9,2,1.3,3.2,1.3c1.1,0,2.3-0.4,3.2-1.3l18.2-18.2h9.8l-11.8,11.8c-1.8,1.8-1.8,4.6,0,6.4c0.9,0.9,2,1.3,3.2,1.3
		c1.1,0,2.3-0.4,3.2-1.3l18.2-18.2h9.8L388,454.7c-1.8,1.8-1.8,4.6,0,6.4c0.9,0.9,2,1.3,3.2,1.3c1.2,0,2.3-0.4,3.2-1.3l18.2-18.2
		h9.8l-11.8,11.8c-1.8,1.8-1.8,4.6,0,6.4c0.9,0.9,2,1.3,3.2,1.3c1.2,0,2.3-0.4,3.2-1.3l18.2-18.2h9.8L433,454.7
		c-1.8,1.8-1.8,4.6,0,6.4c0.9,0.9,2,1.3,3.2,1.3c1.2,0,2.3-0.4,3.2-1.3l18.2-18.2h9.8l-11.8,11.8c-1.8,1.8-1.8,4.6,0,6.4
		c0.9,0.9,2,1.3,3.2,1.3c1.2,0,2.3-0.4,3.2-1.3l18.2-18.2h9.8L478,454.7c-1.8,1.8-1.8,4.6,0,6.4c0.9,0.9,2,1.3,3.2,1.3
		c1.1,0,2.3-0.4,3.2-1.3l18.2-18.2h9.8l-11.8,11.8c-1.8,1.8-1.8,4.6,0,6.4c0.9,0.9,2,1.3,3.2,1.3c1.1,0,2.3-0.4,3.2-1.3l18.2-18.2
		h9.8L523,454.7c-1.8,1.8-1.8,4.6,0,6.4c0.9,0.9,2,1.3,3.2,1.3c1.2,0,2.3-0.4,3.2-1.3l18.2-18.2h9.8l-11.8,11.8
		c-1.8,1.8-1.8,4.6,0,6.4c0.9,0.9,2,1.3,3.2,1.3c1.2,0,2.3-0.4,3.2-1.3l18.2-18.2h9.8L568,454.7c-1.8,1.8-1.8,4.6,0,6.4
		c0.9,0.9,2,1.3,3.2,1.3c1.2,0,2.3-0.4,3.2-1.3l18.2-18.2h9.8l-11.8,11.8c-1.8,1.8-1.8,4.6,0,6.4c0.9,0.9,2,1.3,3.2,1.3
		c1.2,0,2.3-0.4,3.2-1.3l20.5-20.5c10.5-4.5,17.9-14.9,17.9-26.9v-21.5c0-0.1,0-0.2,0-0.3c0-0.2,0-0.4,0-0.7V389.1z M606,429.4
		H245.9c-7.9,0-14.4-5.9-15.5-13.5c4.5,2.8,9.8,4.5,15.5,4.5H606c5.7,0,11-1.7,15.5-4.5C620.4,423.5,613.9,429.4,606,429.4z
		 M274.4,121.1c0-8.7,7.1-15.7,15.8-15.7h270c8.7,0,15.8,7.1,15.8,15.7v195.8h-37.5h-225h-39V121.1z M474.4,361.9l-1.9-11.2h32.7
		l3.8,11.2h-8.8H474.4z M342.9,361.9l3.8-11.2h32.7l-1.9,11.2h-25.8H342.9z M498.5,330.4l3.8,11.3H471l-1.9-11.3H498.5z M460,330.4
		l1.9,11.3h-31.4v-11.3H460z M386.7,361.9l1.9-11.2h32.9v11.2H386.7z M430.5,350.6h32.9l1.9,11.2h-34.8V350.6z M421.5,341.6H390
		l1.9-11.3h29.6V341.6z M380.9,341.6h-31.2l3.7-11.3h29.3L380.9,341.6z M340.2,341.6H312l5.6-11.3H344L340.2,341.6z M307.5,350.6
		h29.7l-3.7,11.2h-31.6L307.5,350.6z M485.2,375.4c-2.5,5.3-8,9-14.2,9h-90c-6.3,0-11.7-3.7-14.2-9H485.2z M518.5,361.9l-3.8-11.2
		h29.7l5.6,11.2H518.5z M511.7,341.6l-3.8-11.3h26.3l5.6,11.3H511.7z M272.1,330.4h30.5l-17.6,35.2c-1,2.1-0.9,4.6,0.3,6.6
		c1.2,2,3.4,3.2,5.7,3.2h61.6c3.1,12.9,14.6,22.5,28.4,22.5h90c13.8,0,25.4-9.6,28.4-22.5H561c0,0,0.1,0,0.1,0c3.7,0,6.8-3,6.8-6.8
		c0-1.5-0.5-2.8-1.3-3.9l-17.2-34.3h30.5l41.8,62.6c-0.9,7.8-7.6,13.9-15.6,13.9H245.9c-8,0-14.7-6.1-15.6-13.9L272.1,330.4z
		 M309.5,156.3l4.8-4.8l-4.8-4.8c-1.8-1.8-1.8-4.6,0-6.4c1.8-1.8,4.6-1.8,6.4,0l4.8,4.8l4.8-4.8c1.8-1.8,4.6-1.8,6.4,0
		c1.8,1.8,1.8,4.6,0,6.4l-4.8,4.8l4.8,4.8c1.8,1.8,1.8,4.6,0,6.4c-0.9,0.9-2,1.3-3.2,1.3c-1.2,0-2.3-0.4-3.2-1.3l-4.8-4.8l-4.8,4.8
		c-0.9,0.9-2,1.3-3.2,1.3c-1.1,0-2.3-0.4-3.2-1.3C307.8,160.9,307.8,158.1,309.5,156.3z M353.2,274.1c0-2.5,2-4.5,4.5-4.5h90
		c2.5,0,4.5,2,4.5,4.5c0,2.5-2,4.5-4.5,4.5h-90C355.2,278.6,353.2,276.6,353.2,274.1z M497.2,274.1c0,2.5-2,4.5-4.5,4.5h-22.5
		c-2.5,0-4.5-2-4.5-4.5c0-2.5,2-4.5,4.5-4.5h22.5C495.2,269.6,497.2,271.6,497.2,274.1z M357.7,256.1h135c2.5,0,4.5-2,4.5-4.5v-90
		c0-2.5-2-4.5-4.5-4.5h-1.3H357.7c-2.5,0-4.5,2-4.5,4.5v90C353.2,254.1,355.2,256.1,357.7,256.1z M488.2,247.1h-11.6l11.6-11.6
		V247.1z M488.2,222.7l-24.4,24.4h-11.7l36.1-36.1V222.7z M488.2,198.3l-48.8,48.8h-11.7l60.5-60.5L488.2,198.3L488.2,198.3z
		 M488.2,166.1v7.8L415,247.1h-11.7l81-81L488.2,166.1L488.2,166.1z M471.6,166.1l-81,81h-11.7l81-81L471.6,166.1L471.6,166.1z
		 M362.2,166.1h11.6l-11.6,11.6V166.1z M362.2,190.5l24.4-24.4h11.7l-36.1,36.1L362.2,190.5L362.2,190.5z M362.2,214.9l48.8-48.8
		h11.7l-60.5,60.5V214.9z M362.2,239.3l73.2-73.2h11.7l-81,81h-3.9V239.3L362.2,239.3z"/>
</g>
</svg>
