<?xml version="1.0" encoding="utf-8"?>
<!-- Generator: Adobe Illustrator 19.0.0, SVG Export Plug-In . SVG Version: 6.00 Build 0)  -->
<svg version="1.1" id="Capa_19_copia" xmlns="http://www.w3.org/2000/svg" xmlns:xlink="http://www.w3.org/1999/xlink" x="0px"
	 y="0px" width="390.9px" height="57.4px" viewBox="0 0 390.9 57.4" style="enable-background:new 0 0 390.9 57.4;"
	 xml:space="preserve">
<style type="text/css">
	.st0{clip-path:url(#XMLID_156_);fill:#BE3176;}
	.st1{clip-path:url(#XMLID_156_);fill:#BE3175;}
	.st2{clip-path:url(#XMLID_156_);fill:#BE3274;}
	.st3{clip-path:url(#XMLID_156_);fill:#BE3273;}
	.st4{clip-path:url(#XMLID_156_);fill:#BE3272;}
	.st5{clip-path:url(#XMLID_156_);fill:#BE3371;}
	.st6{clip-path:url(#XMLID_156_);fill:#BF3370;}
	.st7{clip-path:url(#XMLID_156_);fill:#BF336F;}
	.st8{clip-path:url(#XMLID_156_);fill:#BF346E;}
	.st9{clip-path:url(#XMLID_156_);fill:#BF346D;}
	.st10{clip-path:url(#XMLID_156_);fill:#BF346C;}
	.st11{clip-path:url(#XMLID_156_);fill:#BF356B;}
	.st12{clip-path:url(#XMLID_156_);fill:#BF356A;}
	.st13{clip-path:url(#XMLID_156_);fill:#BF3569;}
	.st14{clip-path:url(#XMLID_156_);fill:#BF3668;}
	.st15{clip-path:url(#XMLID_156_);fill:#BF3667;}
	.st16{clip-path:url(#XMLID_156_);fill:#BF3666;}
	.st17{clip-path:url(#XMLID_156_);fill:#C03765;}
	.st18{clip-path:url(#XMLID_156_);fill:#C03764;}
	.st19{clip-path:url(#XMLID_156_);fill:#C03763;}
	.st20{clip-path:url(#XMLID_156_);fill:#C03862;}
	.st21{clip-path:url(#XMLID_156_);fill:#C03861;}
	.st22{clip-path:url(#XMLID_156_);fill:#C03860;}
	.st23{clip-path:url(#XMLID_156_);fill:#C0395F;}
	.st24{clip-path:url(#XMLID_156_);fill:#C0395E;}
	.st25{clip-path:url(#XMLID_156_);fill:#C0395D;}
	.st26{clip-path:url(#XMLID_156_);fill:#C03A5C;}
	.st27{clip-path:url(#XMLID_156_);fill:#C03A5B;}
	.st28{clip-path:url(#XMLID_156_);fill:#C13A5A;}
	.st29{clip-path:url(#XMLID_156_);fill:#C13B59;}
	.st30{clip-path:url(#XMLID_156_);fill:#C13B58;}
	.st31{clip-path:url(#XMLID_156_);fill:#C13B57;}
	.st32{clip-path:url(#XMLID_156_);fill:#C13C56;}
	.st33{clip-path:url(#XMLID_156_);fill:#C13C55;}
	.st34{clip-path:url(#XMLID_156_);fill:#C13C53;}
	.st35{clip-path:url(#XMLID_156_);fill:#C13C52;}
	.st36{clip-path:url(#XMLID_156_);fill:#C13D51;}
	.st37{clip-path:url(#XMLID_156_);fill:#C13D50;}
	.st38{clip-path:url(#XMLID_156_);fill:#C13D4F;}
	.st39{clip-path:url(#XMLID_156_);fill:#C13E4E;}
	.st40{clip-path:url(#XMLID_156_);fill:#C23E4D;}
	.st41{clip-path:url(#XMLID_156_);fill:#C23E4C;}
	.st42{clip-path:url(#XMLID_156_);fill:#C23F4B;}
	.st43{clip-path:url(#XMLID_156_);fill:#C23F4A;}
	.st44{clip-path:url(#XMLID_156_);fill:#C23F49;}
	.st45{clip-path:url(#XMLID_156_);fill:#C24048;}
	.st46{clip-path:url(#XMLID_156_);fill:#C24047;}
	.st47{clip-path:url(#XMLID_156_);fill:#C24046;}
	.st48{clip-path:url(#XMLID_156_);fill:#C24145;}
	.st49{clip-path:url(#XMLID_156_);fill:#C24144;}
	.st50{clip-path:url(#XMLID_156_);fill:#C24143;}
	.st51{clip-path:url(#XMLID_156_);fill:#C34242;}
	.st52{clip-path:url(#XMLID_156_);fill:#C34241;}
	.st53{clip-path:url(#XMLID_156_);fill:#C34240;}
	.st54{clip-path:url(#XMLID_156_);fill:#C3433F;}
	.st55{clip-path:url(#XMLID_156_);fill:#C3433E;}
	.st56{clip-path:url(#XMLID_156_);fill:#C3433D;}
	.st57{clip-path:url(#XMLID_156_);fill:#C3443C;}
	.st58{clip-path:url(#XMLID_156_);fill:#C3443B;}
	.st59{clip-path:url(#XMLID_156_);fill:#C3443A;}
	.st60{clip-path:url(#XMLID_156_);fill:#C34539;}
	.st61{clip-path:url(#XMLID_156_);fill:#C34538;}
	.st62{clip-path:url(#XMLID_156_);fill:#C44537;}
	.st63{clip-path:url(#XMLID_156_);fill:#C44636;}
	.st64{clip-path:url(#XMLID_156_);fill:#C44635;}
	.st65{clip-path:url(#XMLID_156_);fill:#C44634;}
	.st66{clip-path:url(#XMLID_156_);fill:#C44733;}
	.st67{clip-path:url(#XMLID_156_);fill:#C44732;}
	.st68{fill:#FFFFFF;}
	.st69{fill:#4123E1;}
</style>
<g id="XMLID_1113_">
	<g id="XMLID_70_">
		<defs>
			<rect id="XMLID_71_" y="0" width="302.5" height="57.4"/>
		</defs>
		<clipPath id="XMLID_156_">
			<use xlink:href="#XMLID_71_"  style="overflow:visible;"/>
		</clipPath>
		<path id="XMLID_72_" class="st0" d="M0,0v57.4V0z"/>
		<rect id="XMLID_73_" y="0" class="st0" width="4.4" height="57.4"/>
		<rect id="XMLID_74_" x="4.4" y="0" class="st1" width="4.4" height="57.4"/>
		<rect id="XMLID_75_" x="8.9" y="0" class="st2" width="4.4" height="57.4"/>
		<rect id="XMLID_76_" x="13.3" y="0" class="st3" width="4.4" height="57.4"/>
		<rect id="XMLID_77_" x="17.8" y="0" class="st4" width="4.4" height="57.4"/>
		<rect id="XMLID_78_" x="22.2" y="0" class="st5" width="4.4" height="57.4"/>
		<rect id="XMLID_79_" x="26.7" y="0" class="st6" width="4.4" height="57.4"/>
		<rect id="XMLID_80_" x="31.1" y="0" class="st7" width="4.4" height="57.4"/>
		<rect id="XMLID_81_" x="35.6" y="0" class="st8" width="4.4" height="57.4"/>
		<rect id="XMLID_82_" x="40" y="0" class="st9" width="4.4" height="57.4"/>
		<rect id="XMLID_83_" x="44.5" y="0" class="st10" width="4.4" height="57.4"/>
		<rect id="XMLID_84_" x="48.9" y="0" class="st11" width="4.4" height="57.4"/>
		<rect id="XMLID_85_" x="53.4" y="0" class="st12" width="4.4" height="57.4"/>
		<rect id="XMLID_86_" x="57.8" y="0" class="st13" width="4.4" height="57.4"/>
		<rect id="XMLID_87_" x="62.3" y="0" class="st14" width="4.4" height="57.4"/>
		<rect id="XMLID_88_" x="66.7" y="0" class="st15" width="4.4" height="57.4"/>
		<rect id="XMLID_89_" x="71.2" y="0" class="st16" width="4.4" height="57.4"/>
		<rect id="XMLID_90_" x="75.6" y="0" class="st17" width="4.4" height="57.4"/>
		<rect id="XMLID_91_" x="80.1" y="0" class="st18" width="4.4" height="57.4"/>
		<rect id="XMLID_92_" x="84.5" y="0" class="st19" width="4.4" height="57.4"/>
		<rect id="XMLID_93_" x="89" y="0" class="st20" width="4.4" height="57.4"/>
		<rect id="XMLID_94_" x="93.4" y="0" class="st21" width="4.4" height="57.4"/>
		<rect id="XMLID_95_" x="97.9" y="0" class="st22" width="4.4" height="57.4"/>
		<rect id="XMLID_96_" x="102.3" y="0" class="st23" width="4.4" height="57.4"/>
		<rect id="XMLID_97_" x="106.8" y="0" class="st24" width="4.4" height="57.4"/>
		<rect id="XMLID_98_" x="111.2" y="0" class="st25" width="4.4" height="57.4"/>
		<rect id="XMLID_99_" x="115.7" y="0" class="st26" width="4.4" height="57.4"/>
		<rect id="XMLID_100_" x="120.1" y="0" class="st27" width="4.4" height="57.4"/>
		<rect id="XMLID_101_" x="124.6" y="0" class="st28" width="4.4" height="57.4"/>
		<rect id="XMLID_102_" x="129" y="0" class="st29" width="4.4" height="57.4"/>
		<rect id="XMLID_103_" x="133.5" y="0" class="st30" width="4.4" height="57.4"/>
		<rect id="XMLID_104_" x="137.9" y="0" class="st31" width="4.4" height="57.4"/>
		<rect id="XMLID_105_" x="142.4" y="0" class="st32" width="4.4" height="57.4"/>
		<rect id="XMLID_106_" x="146.8" y="0" class="st33" width="4.4" height="57.4"/>
		<rect id="XMLID_107_" x="151.3" y="0" class="st34" width="4.4" height="57.4"/>
		<rect id="XMLID_108_" x="155.7" y="0" class="st35" width="4.4" height="57.4"/>
		<rect id="XMLID_109_" x="160.2" y="0" class="st36" width="4.4" height="57.4"/>
		<rect id="XMLID_110_" x="164.6" y="0" class="st37" width="4.4" height="57.4"/>
		<rect id="XMLID_111_" x="169.1" y="0" class="st38" width="4.4" height="57.4"/>
		<rect id="XMLID_112_" x="173.5" y="0" class="st39" width="4.4" height="57.4"/>
		<rect id="XMLID_113_" x="178" y="0" class="st40" width="4.4" height="57.4"/>
		<rect id="XMLID_114_" x="182.4" y="0" class="st41" width="4.4" height="57.4"/>
		<rect id="XMLID_115_" x="186.9" y="0" class="st42" width="4.4" height="57.4"/>
		<rect id="XMLID_116_" x="191.3" y="0" class="st43" width="4.4" height="57.4"/>
		<rect id="XMLID_117_" x="195.8" y="0" class="st44" width="4.4" height="57.4"/>
		<rect id="XMLID_118_" x="200.2" y="0" class="st45" width="4.4" height="57.4"/>
		<rect id="XMLID_119_" x="204.6" y="0" class="st46" width="4.4" height="57.4"/>
		<rect id="XMLID_120_" x="209.1" y="0" class="st47" width="4.4" height="57.4"/>
		<rect id="XMLID_121_" x="213.5" y="0" class="st48" width="4.4" height="57.4"/>
		<rect id="XMLID_122_" x="218" y="0" class="st49" width="4.4" height="57.4"/>
		<rect id="XMLID_123_" x="222.4" y="0" class="st50" width="4.4" height="57.4"/>
		<rect id="XMLID_124_" x="226.9" y="0" class="st51" width="4.4" height="57.4"/>
		<rect id="XMLID_125_" x="231.3" y="0" class="st52" width="4.4" height="57.4"/>
		<rect id="XMLID_126_" x="235.8" y="0" class="st53" width="4.4" height="57.4"/>
		<rect id="XMLID_127_" x="240.2" y="0" class="st54" width="4.4" height="57.4"/>
		<rect id="XMLID_128_" x="244.7" y="0" class="st55" width="4.4" height="57.4"/>
		<rect id="XMLID_129_" x="249.1" y="0" class="st56" width="4.4" height="57.4"/>
		<rect id="XMLID_130_" x="253.6" y="0" class="st57" width="4.4" height="57.4"/>
		<rect id="XMLID_131_" x="258" y="0" class="st58" width="4.4" height="57.4"/>
		<rect id="XMLID_132_" x="262.5" y="0" class="st59" width="4.4" height="57.4"/>
		<rect id="XMLID_133_" x="266.9" y="0" class="st60" width="4.4" height="57.4"/>
		<rect id="XMLID_134_" x="271.4" y="0" class="st61" width="4.4" height="57.4"/>
		<rect id="XMLID_135_" x="275.8" y="0" class="st62" width="4.4" height="57.4"/>
		<rect id="XMLID_136_" x="280.3" y="0" class="st63" width="4.4" height="57.4"/>
		<rect id="XMLID_137_" x="284.7" y="0" class="st64" width="4.4" height="57.4"/>
		<rect id="XMLID_138_" x="289.2" y="0" class="st65" width="4.4" height="57.4"/>
		<rect id="XMLID_139_" x="293.6" y="0" class="st66" width="4.4" height="57.4"/>
		<rect id="XMLID_140_" x="298.1" y="0" class="st67" width="4.4" height="57.4"/>
		<path id="XMLID_141_" class="st67" d="M302.5,57.4V0V57.4z"/>
	</g>
</g>
<g id="XMLID_1114_">
	<path id="XMLID_35_" class="st68" d="M29.8,40.4V18.1H35c3,0,5.3,0.8,6.9,2.4c2.2,2.1,3.3,5,3.3,8.8c0,3.7-0.9,6.5-2.8,8.6
		c-1.6,1.7-3.9,2.6-7,2.6H29.8z M35.8,35c2.2-0.1,3.2-2,3.2-5.6c0-1.8-0.3-3.2-0.8-4.2c-0.5-1-1.3-1.6-2.2-1.6h-0.2V35z"/>
	<path id="XMLID_38_" class="st68" d="M63.6,40.4h-6.5l-3-7.9c0-0.1-0.1-0.3-0.2-0.5c-0.1-0.2-0.2-0.5-0.3-0.8l0,1.5v7.8h-6V18.1
		h6.2c2.7,0,4.7,0.5,6.1,1.6c1.7,1.4,2.6,3.3,2.6,5.8c0,2.7-1.1,4.6-3.4,5.6L63.6,40.4z M53.8,28.4h0.4c0.7,0,1.3-0.3,1.7-0.8
		c0.5-0.5,0.7-1.2,0.7-2c0-1.7-0.9-2.5-2.6-2.5h-0.2V28.4z"/>
	<path id="XMLID_41_" class="st68" d="M74.5,18.1h6v15.7c0,1.3-0.2,2.4-0.6,3.2c-0.4,0.9-1.1,1.6-2,2.3c-1.3,0.9-2.8,1.4-4.6,1.4
		c-2.1,0-3.8-0.5-5.2-1.5c-1.8-1.3-2.7-3.4-2.7-6.2V18.1h6v14.4c0,1,0.1,1.7,0.4,2.1c0.2,0.4,0.6,0.6,1.2,0.6c0.6,0,1-0.2,1.2-0.6
		c0.2-0.4,0.3-1.1,0.3-2.1V18.1z"/>
	<path id="XMLID_43_" class="st68" d="M89.7,40.4h-6V18.1h5.8c2.9,0,5.1,0.6,6.5,1.8c1.7,1.4,2.5,3.3,2.5,5.8c0,2.7-0.9,4.7-2.6,6
		c-1.2,0.9-2.9,1.3-5.2,1.3h-0.9V40.4z M89.7,28l0.3,0c0.7,0,1.3-0.2,1.7-0.7c0.4-0.4,0.6-1.1,0.6-1.8c0-0.8-0.2-1.4-0.6-1.9
		c-0.4-0.5-1-0.7-1.6-0.7h-0.4V28z"/>
	<path id="XMLID_46_" class="st68" d="M115.6,40.4h-6.2l-0.4-2.8h-4.1l-0.5,2.8h-6.2l5.4-22.3h7.4L115.6,40.4z M108.2,32.7l-0.4-2.6
		c0,0,0-0.1-0.1-0.4c0-0.2-0.1-1-0.3-2.5c0-0.2,0-0.4-0.1-0.7c0-0.3-0.1-0.6-0.1-1.1l-0.2-2.1c0,0.2,0,0.4-0.1,0.7
		c0,0.3-0.1,0.5-0.1,0.8c-0.1,0.6-0.1,1-0.1,1.2c0,0.2,0,0.4-0.1,0.4l-0.4,2.7l-0.6,3.5H108.2z"/>
	<path id="XMLID_49_" class="st68" d="M127.9,40.4h-10.5V18.1h6V35h4.5V40.4z"/>
	<path id="XMLID_51_" class="st68" d="M142.1,33.5l-0.3,6.4c-1.3,0.5-2.5,0.8-3.6,0.8c-2.5,0-4.6-0.9-6.3-2.7
		c-1.9-2-2.9-4.9-2.9-8.7c0-3.5,0.9-6.3,2.7-8.5c1.8-2.1,4.2-3.2,7.2-3.2c1,0,2,0.2,3,0.5v6.4c-0.9-0.9-1.8-1.3-2.8-1.3
		c-1.2,0-2.2,0.5-2.9,1.6c-0.7,1.1-1,2.5-1,4.4c0,0.9,0.1,1.7,0.3,2.4c0.2,0.7,0.4,1.3,0.7,1.8c0.3,0.5,0.7,0.9,1.2,1.1
		c0.5,0.3,1,0.4,1.6,0.4C140,34.9,141.1,34.5,142.1,33.5z"/>
	<path id="XMLID_53_" class="st68" d="M160.8,40.4h-6.2l-0.4-2.8h-4.1l-0.5,2.8h-6.2l5.4-22.3h7.4L160.8,40.4z M153.5,32.7l-0.4-2.6
		c0,0,0-0.1-0.1-0.4c0-0.2-0.1-1-0.3-2.5c0-0.2,0-0.4-0.1-0.7c0-0.3-0.1-0.6-0.1-1.1l-0.2-2.1c0,0.2,0,0.4-0.1,0.7
		c0,0.3-0.1,0.5-0.1,0.8c-0.1,0.6-0.1,1-0.1,1.2c0,0.2,0,0.4-0.1,0.4l-0.4,2.7l-0.6,3.5H153.5z"/>
	<path id="XMLID_56_" class="st68" d="M185.5,40.4h-6.3l-0.4-10.2l-0.2-4.1c-0.1,0.8-0.1,1.5-0.2,2.2c-0.1,0.7-0.2,1.4-0.3,2.1
		l-1.9,9.9h-4.9l-1.6-9.9c-0.1-0.6-0.2-1.6-0.4-3c0-0.2-0.1-0.6-0.1-1.3l-0.1,4.1l-0.5,10.1H162l2.6-22.3h7.5l1.3,7.5
		c0.1,0.6,0.2,1.3,0.3,2c0.1,0.7,0.2,1.5,0.2,2.4c0.1-1.4,0.3-2.7,0.5-3.8l1.5-8.1h7.4L185.5,40.4z"/>
	<path id="XMLID_58_" class="st68" d="M194.2,40.4h-6V18.1h5.8c2.9,0,5.1,0.6,6.5,1.8c1.7,1.4,2.5,3.3,2.5,5.8c0,2.7-0.9,4.7-2.6,6
		c-1.2,0.9-2.9,1.3-5.2,1.3h-0.9V40.4z M194.2,28l0.3,0c0.7,0,1.3-0.2,1.7-0.7c0.4-0.4,0.6-1.1,0.6-1.8c0-0.8-0.2-1.4-0.6-1.9
		c-0.4-0.5-1-0.7-1.6-0.7h-0.4V28z"/>
	<path id="XMLID_61_" class="st68" d="M228.6,40.4h-15.3l6.1-8.1c0.7-0.9,1.3-1.7,1.7-2.5c0.5-0.7,0.8-1.4,1.1-1.9
		c0.5-1,0.8-2.1,0.8-3.2c0-0.6-0.1-1.1-0.4-1.4c-0.3-0.4-0.6-0.5-1-0.5c-1,0-1.4,0.9-1.4,2.7c0,0.1,0,0.2,0,0.3c0,0.1,0,0.3,0,0.5
		h-5.8l0-0.8c0-2.2,0.7-4.1,2.1-5.5c1.4-1.4,3.2-2.2,5.4-2.2c2.1,0,3.8,0.7,5.1,2c1.3,1.3,2,3.1,2,5.2c0,1.7-0.5,3.4-1.4,5
		c-0.5,0.8-1.1,1.7-1.8,2.6c-0.7,0.9-1.6,1.8-2.7,2.8c0.9-0.1,1.8-0.1,2.7-0.1c0.9,0,1.9,0,2.8,0V40.4z"/>
	<path id="XMLID_63_" class="st68" d="M246.9,29.4c0,3.5-0.7,6.3-2.1,8.3c-1.4,2-3.2,3.1-5.6,3.1c-2.5,0-4.5-1-5.9-3.1
		c-1.4-2.1-2.1-4.9-2.1-8.6c0-3.5,0.7-6.2,2.1-8.3c1.4-2,3.4-3.1,5.8-3.1c2.5,0,4.4,1,5.7,3.1C246.2,22.8,246.9,25.7,246.9,29.4z
		 M240.9,29.3c0-4.3-0.6-6.4-1.9-6.4c-1.3,0-1.9,1.9-1.9,5.8c0,4.6,0.6,6.9,1.9,6.9c0.7,0,1.2-0.5,1.5-1.5S240.9,31.5,240.9,29.3z"
		/>
	<path id="XMLID_66_" class="st68" d="M258.7,40.4h-6v-17h-2.4v-5.2h8.4V40.4z"/>
	<path id="XMLID_68_" class="st68" d="M269.3,40.4h-6.5l5.4-11.9c0.4-0.9,0.8-1.7,1.3-2.6c0.5-0.9,1-1.7,1.6-2.6h-7.5v-5.2h15.8
		L269.3,40.4z"/>
</g>
<g id="XMLID_1116_">
	<rect id="XMLID_142_" x="302.2" class="st68" width="88.7" height="57.4"/>
</g>
<g id="XMLID_1117_">
	<path id="XMLID_2_" class="st69" d="M330.1,27.6h-2.7l-0.2-4.4l-0.1-1.8c0,0.3-0.1,0.7-0.1,1s-0.1,0.6-0.1,0.9l-0.8,4.3h-2.1
		l-0.7-4.3c0-0.3-0.1-0.7-0.2-1.3c0-0.1,0-0.3-0.1-0.6l-0.1,1.8l-0.2,4.4h-2.8l1.1-9.7h3.2l0.5,3.3c0,0.3,0.1,0.6,0.1,0.9
		c0,0.3,0.1,0.7,0.1,1c0.1-0.6,0.1-1.2,0.2-1.6l0.7-3.5h3.2L330.1,27.6z"/>
	<path id="XMLID_4_" class="st69" d="M338.2,27.6h-2.7l-0.2-1.2h-1.8l-0.2,1.2h-2.7l2.3-9.7h3.2L338.2,27.6z M335,24.3l-0.2-1.1
		c0,0,0-0.1,0-0.2c0-0.1-0.1-0.5-0.1-1.1c0-0.1,0-0.2,0-0.3c0-0.1,0-0.3,0-0.5l-0.1-0.9c0,0.1,0,0.2,0,0.3c0,0.1,0,0.2,0,0.4
		c0,0.3,0,0.4-0.1,0.5c0,0.1,0,0.2,0,0.2l-0.2,1.2l-0.3,1.5H335z"/>
	<path id="XMLID_7_" class="st69" d="M339,27.6v-9.7h2.3c1.3,0,2.3,0.3,3,1c0.9,0.9,1.4,2.2,1.4,3.8c0,1.6-0.4,2.8-1.2,3.7
		c-0.7,0.7-1.7,1.1-3,1.1H339z M341.6,25.3c0.9,0,1.4-0.9,1.4-2.4c0-0.8-0.1-1.4-0.4-1.8c-0.2-0.5-0.6-0.7-1-0.7h-0.1V25.3z"/>
	<path id="XMLID_10_" class="st69" d="M353.6,27.6h-2.8l-1.3-3.4c0-0.1,0-0.1-0.1-0.2c0-0.1-0.1-0.2-0.1-0.3l0,0.6v3.4h-2.6v-9.7
		h2.7c1.2,0,2.1,0.2,2.6,0.7c0.7,0.6,1.1,1.4,1.1,2.5c0,1.2-0.5,2-1.5,2.4L353.6,27.6z M349.4,22.4h0.2c0.3,0,0.6-0.1,0.8-0.3
		c0.2-0.2,0.3-0.5,0.3-0.9c0-0.7-0.4-1.1-1.1-1.1h-0.1V22.4z"/>
	<path id="XMLID_13_" class="st69" d="M357.1,27.6h-2.6v-9.7h2.6V27.6z"/>
	<path id="XMLID_15_" class="st69" d="M358.4,27.6v-9.7h2.3c1.3,0,2.3,0.3,3,1c0.9,0.9,1.4,2.2,1.4,3.8c0,1.6-0.4,2.8-1.2,3.7
		c-0.7,0.7-1.7,1.1-3,1.1H358.4z M361.1,25.3c0.9,0,1.4-0.9,1.4-2.4c0-0.8-0.1-1.4-0.4-1.8c-0.2-0.5-0.6-0.7-1-0.7h-0.1V25.3z"/>
	<path id="XMLID_18_" class="st69" d="M320.2,39.8l0.3-2.3c0.8,0.4,1.5,0.7,2.1,0.7c0.4,0,0.7-0.1,1-0.3c0.3-0.2,0.4-0.5,0.4-0.8
		c0-0.3-0.1-0.6-0.4-0.8c-0.3-0.2-0.7-0.3-1.1-0.3c-0.5,0-1.1,0.1-1.7,0.3l0.8-5.6h4.8V33h-2.8l-0.2,1.1c0.2,0,0.3,0,0.4,0
		c0.8,0,1.5,0.3,2,0.9c0.5,0.6,0.8,1.3,0.8,2.1c0,1-0.4,1.8-1.1,2.5c-0.7,0.7-1.6,1-2.6,1C321.9,40.6,321,40.3,320.2,39.8z"/>
	<path id="XMLID_20_" class="st69" d="M330.3,37.9h-3.1V36h3.1V37.9z"/>
	<path id="XMLID_22_" class="st69" d="M336.2,30.8l-1.5,2.7c-0.1,0.1-0.1,0.2-0.2,0.3c-0.1,0.1-0.2,0.3-0.3,0.4
		c0.3-0.2,0.7-0.3,0.9-0.3c0.7,0,1.2,0.3,1.7,0.9c0.5,0.6,0.7,1.3,0.7,2.2c0,1-0.3,1.9-0.9,2.5c-0.6,0.6-1.4,1-2.4,1
		c-0.9,0-1.7-0.3-2.3-1c-0.6-0.6-0.9-1.5-0.9-2.5c0-1.1,0.5-2.7,1.6-4.6l0.9-1.7H336.2z M335,37.1c0-0.9-0.2-1.3-0.7-1.3
		c-0.5,0-0.7,0.4-0.7,1.3c0,0.9,0.2,1.3,0.7,1.3C334.7,38.5,335,38,335,37.1z"/>
	<path id="XMLID_25_" class="st69" d="M352.5,40.4h-2.7l-0.2-4.4l-0.1-1.8c0,0.3-0.1,0.7-0.1,1s-0.1,0.6-0.1,0.9l-0.8,4.3h-2.1
		l-0.7-4.3c0-0.3-0.1-0.7-0.2-1.3c0-0.1,0-0.3-0.1-0.6l-0.1,1.8l-0.2,4.4h-2.8l1.1-9.7h3.2l0.5,3.3c0,0.3,0.1,0.6,0.1,0.9
		c0,0.3,0.1,0.7,0.1,1c0.1-0.6,0.1-1.2,0.2-1.6l0.7-3.5h3.2L352.5,40.4z"/>
	<path id="XMLID_27_" class="st69" d="M360.6,40.4h-2.7l-0.2-1.2H356l-0.2,1.2h-2.7l2.3-9.7h3.2L360.6,40.4z M357.4,37.1l-0.2-1.1
		c0,0,0-0.1,0-0.2c0-0.1-0.1-0.5-0.1-1.1c0-0.1,0-0.2,0-0.3c0-0.1,0-0.3,0-0.5l-0.1-0.9c0,0.1,0,0.2,0,0.3c0,0.1,0,0.2,0,0.4
		c0,0.3,0,0.4-0.1,0.5c0,0.1,0,0.2,0,0.2l-0.2,1.2l-0.3,1.5H357.4z"/>
	<path id="XMLID_30_" class="st69" d="M365.7,40.4h-2.6v-4.1l-2.4-5.6h2.7l0.5,1.4c0.1,0.3,0.2,0.5,0.2,0.8c0.1,0.3,0.1,0.5,0.2,0.7
		c0.1-0.4,0.2-0.7,0.3-0.9c0.1-0.3,0.1-0.5,0.2-0.6l0.5-1.4h2.7l-2.2,5.6V40.4z"/>
	<path id="XMLID_32_" class="st69" d="M375.3,35.6c0,1.5-0.3,2.7-1,3.6c-0.7,0.9-1.5,1.4-2.6,1.4c-1,0-1.8-0.4-2.4-1.1
		c-0.9-0.9-1.3-2.2-1.3-4c0-1.7,0.4-3,1.3-3.9c0.7-0.7,1.4-1,2.4-1c1.1,0,2,0.5,2.7,1.4C375,32.9,375.3,34.1,375.3,35.6z
		 M372.6,35.6c0-1.7-0.3-2.6-0.9-2.6c-0.3,0-0.6,0.2-0.7,0.7c-0.2,0.4-0.3,1.1-0.3,1.9c0,0.8,0.1,1.4,0.3,1.9
		c0.2,0.4,0.4,0.7,0.7,0.7c0.3,0,0.5-0.2,0.7-0.7C372.5,37,372.6,36.4,372.6,35.6z"/>
</g>
</svg>
