<?xml version="1.0" encoding="utf-8"?>
<!-- Generator: Adobe Illustrator 19.0.0, SVG Export Plug-In . SVG Version: 6.00 Build 0)  -->
<svg version="1.1" id="Capa_1" xmlns="http://www.w3.org/2000/svg" xmlns:xlink="http://www.w3.org/1999/xlink" x="0px" y="0px"
	 width="36px" height="36px" viewBox="-881 213 36 36" style="enable-background:new -881 213 36 36;" xml:space="preserve">
<style type="text/css">
	.st0{fill:#FFFFFF;}
	.st1{fill:url(#XMLID_2_);}
</style>
<circle id="XMLID_39_" class="st0" cx="-863" cy="231" r="18"/>
<linearGradient id="XMLID_2_" gradientUnits="userSpaceOnUse" x1="-870" y1="230.95" x2="-854.7" y2="230.95">
	<stop  offset="0" style="stop-color:#BD3273"/>
	<stop  offset="1" style="stop-color:#C34635"/>
</linearGradient>
<path id="XMLID_38_" class="st1" d="M-854.7,226.2c-0.6,0.3-1.2,0.4-1.8,0.5c0.7-0.4,1.2-1,1.4-1.8c-0.6,0.4-1.3,0.6-2,0.8
	c-0.6-0.6-1.4-1-2.3-1c-1.7,0-3.2,1.4-3.2,3.2c0,0.2,0,0.5,0.1,0.7c-2.6-0.1-5-1.4-6.5-3.3c-0.3,0.5-0.4,1-0.4,1.6
	c0,1.1,0.6,2.1,1.4,2.6c-0.5,0-1-0.2-1.4-0.4l0,0c0,1.5,1.1,2.8,2.5,3.1c-0.3,0.1-0.5,0.1-0.8,0.1c-0.2,0-0.4,0-0.6-0.1
	c0.4,1.3,1.6,2.2,3,2.2c-1.1,0.8-2.4,1.4-3.9,1.4c-0.3,0-0.5,0-0.8,0c1.4,0.9,3.1,1.4,4.9,1.4c5.8,0,9-4.8,9-9c0-0.1,0-0.3,0-0.4
	C-855.7,227.4-855.1,226.8-854.7,226.2z"/>
</svg>
