<?xml version="1.0" encoding="utf-8"?>
<!-- Generator: Adobe Illustrator 16.0.4, SVG Export Plug-In . SVG Version: 6.00 Build 0)  -->
<!DOCTYPE svg PUBLIC "-//W3C//DTD SVG 1.1//EN" "http://www.w3.org/Graphics/SVG/1.1/DTD/svg11.dtd">
<svg version="1.1" id="arrow-icon" xmlns="http://www.w3.org/2000/svg" xmlns:xlink="http://www.w3.org/1999/xlink" x="0px" y="0px"
	 width="62px" height="62px" viewBox="0 0 62 62" enable-background="new 0 0 62 62" xml:space="preserve">
<path fill="#B1356C" d="M31,0C13.879,0,0,13.879,0,31s13.879,31,31,31s31-13.879,31-31S48.121,0,31,0z M31,55C17.7,55,7,44.3,7,31
	S17.7,7,31,7s24,10.8,24,24S44.3,55,31,55z M31,13c-9.9,0-18,8.1-18,18c0,9.9,8.1,18,18,18c9.9,0,18-8.1,18-18
	C49,21.1,40.9,13,31,13z M42,30.4l-9,9.2c-0.6,0.601-1.3,0.9-2.1,0.9c-0.8,0-1.5-0.3-2.1-0.9L19.9,30.7c-1.2-1.2-1.2-3.1,0-4.2
	c1.2-1.2,3.1-1.2,4.2,0l6.7,6.7l7-7C39,25,40.9,25,42,26.2C43.2,27.4,43.2,29.3,42,30.4z"/>
</svg>
