<?xml version="1.0" encoding="utf-8"?>
<!-- Generator: Adobe Illustrator 19.0.0, SVG Export Plug-In . SVG Version: 6.00 Build 0)  -->
<svg version="1.1" id="Capa_1" xmlns="http://www.w3.org/2000/svg" xmlns:xlink="http://www.w3.org/1999/xlink" x="0px" y="0px"
	 width="26px" height="26px" viewBox="0 0 26 26" style="enable-background:new 0 0 26 26;" xml:space="preserve">
<style type="text/css">
	.st0{fill:url(#XMLID_24_);}
	.st1{fill:#FFFFFF;}
</style>
<linearGradient id="XMLID_24_" gradientUnits="userSpaceOnUse" x1="0" y1="13" x2="26" y2="13">
	<stop  offset="0" style="stop-color:#A23571"/>
	<stop  offset="1" style="stop-color:#A94839"/>
</linearGradient>
<circle id="XMLID_20_" class="st0" cx="13" cy="13" r="13"/>
<g id="XMLID_58_">
	<path id="XMLID_60_" class="st1" d="M20.9,17.6l-2.3-4.4c0.3-0.7,0.4-1.4,0.4-2.2c0-3.3-2.7-6-6-6s-6,2.7-6,6
		c0,0.8,0.1,1.5,0.4,2.1l-2.3,4.4c-0.2,0.3-0.1,0.7,0,1C5.3,18.8,5.7,19,6,19h2.6l1.7,1.7c0.2,0.2,0.4,0.3,0.7,0.3
		c0.1,0,0.1,0,0.2,0c0.3-0.1,0.6-0.3,0.7-0.5l1.1-2.3l1.1,2.2c0.1,0.3,0.4,0.5,0.7,0.5c0.1,0,0.1,0,0.2,0c0.3,0,0.5-0.1,0.7-0.3
		l1.7-1.7H20c0.3,0,0.7-0.2,0.9-0.5C21,18.2,21,17.9,20.9,17.6z M10.7,18.3l-1-1C9.5,17.1,9.3,17,9,17H7.6l0.9-2
		c0.8,0.9,1.8,1.5,2.9,1.8L10.7,18.3z M13,15c-2.2,0-4-1.8-4-4s1.8-4,4-4s4,1.8,4,4S15.2,15,13,15z M17,17c-0.3,0-0.5,0.1-0.7,0.3
		l-1,1l-0.8-1.5c1.2-0.3,2.2-0.9,2.9-1.8l0.9,2H17z"/>
	<path id="XMLID_59_" class="st1" d="M13,9c-0.5,0-1,0.5-1,1v2c0,0.5,0.5,1,1,1s1-0.5,1-1v-2C14,9.5,13.5,9,13,9z"/>
</g>
</svg>
