<?xml version="1.0" encoding="utf-8"?>
<!-- Generator: Adobe Illustrator 19.0.0, SVG Export Plug-In . SVG Version: 6.00 Build 0)  -->
<svg version="1.1" id="Capa_1" xmlns="http://www.w3.org/2000/svg" xmlns:xlink="http://www.w3.org/1999/xlink" x="0px" y="0px"
	 width="26px" height="26px" viewBox="0 0 26 26" style="enable-background:new 0 0 26 26;" xml:space="preserve">
<style type="text/css">
	.st0{fill:#BE3272;}
</style>
<g id="XMLID_20_">
	<path id="XMLID_82_" class="st0" d="M13,2c6.1,0,11,4.9,11,11s-4.9,11-11,11S2,19.1,2,13S6.9,2,13,2 M13,0C5.8,0,0,5.8,0,13
		c0,7.2,5.8,13,13,13c7.2,0,13-5.8,13-13C26,5.8,20.2,0,13,0L13,0z"/>
</g>
<g id="Слой_1">
	<path id="XMLID_58_" class="st0" d="M12,21c-0.1,0-0.2,0-0.3,0c-0.4-0.1-0.7-0.5-0.7-1v-5H8c-0.3,0-0.6-0.2-0.8-0.4
		c-0.2-0.3-0.3-0.6-0.1-1l1.9-8C9.1,5.3,9.5,5,9.9,5H16c0.3,0,0.6,0.2,0.8,0.4C17,5.7,17,6,16.9,6.3L15.5,10H18
		c0.4,0,0.7,0.2,0.9,0.5c0.2,0.3,0.2,0.7,0,1l-6,9C12.7,20.8,12.4,21,12,21z M9.4,13H12c0.6,0,1,0.4,1,1v2.1l3.3-4.1H14
		c-0.3,0-0.6-0.2-0.8-0.4c-0.2-0.3-0.3-0.7-0.1-1L14.5,7h-3.9L9.4,13z"/>
</g>
</svg>
