<?xml version="1.0" encoding="utf-8"?>
<!-- Generator: Adobe Illustrator 19.0.0, SVG Export Plug-In . SVG Version: 6.00 Build 0)  -->
<svg version="1.1" id="Capa_1" xmlns="http://www.w3.org/2000/svg" xmlns:xlink="http://www.w3.org/1999/xlink" x="0px" y="0px"
	 width="26px" height="26px" viewBox="0 0 26 26" style="enable-background:new 0 0 26 26;" xml:space="preserve">
<style type="text/css">
	.st0{fill:#452AE2;}
	.st1{fill:#FFFFFF;}
</style>
<circle id="XMLID_20_" class="st0" cx="13" cy="13" r="13"/>
<path id="XMLID_26_" class="st1" d="M13,7.8l2.1,3.1l1.2,1.7c0.5,0.7,0.8,1.5,0.8,2.4c0,2.2-1.8,4-4,4c-2.2,0-4-1.8-4-4
	c0-0.9,0.3-1.7,0.8-2.4l1.2-1.7L13,7.8 M13,5c-0.3,0-0.6,0.1-0.8,0.4l-4,6l0,0C7.4,12.4,7,13.7,7,15c0,3.3,2.7,6,6,6s6-2.7,6-6
	c0-1.3-0.4-2.6-1.2-3.6l0,0l-4-6C13.6,5.1,13.3,5,13,5L13,5z"/>
</svg>
