<?xml version="1.0" encoding="utf-8"?>
<!-- Generator: Adobe Illustrator 19.0.0, SVG Export Plug-In . SVG Version: 6.00 Build 0)  -->
<svg version="1.1" id="Capa_1" xmlns="http://www.w3.org/2000/svg" xmlns:xlink="http://www.w3.org/1999/xlink" x="0px" y="0px"
	 width="26px" height="26px" viewBox="0 0 26 26" style="enable-background:new 0 0 26 26;" xml:space="preserve">
<style type="text/css">
	.st0{fill:url(#XMLID_58_);}
	.st1{fill:#FFFFFF;}
</style>
<linearGradient id="XMLID_58_" gradientUnits="userSpaceOnUse" x1="0" y1="13" x2="26" y2="13">
	<stop  offset="0" style="stop-color:#A23571"/>
	<stop  offset="1" style="stop-color:#A94839"/>
</linearGradient>
<circle id="XMLID_20_" class="st0" cx="13" cy="13" r="13"/>
<path id="XMLID_24_" class="st1" d="M17.3,19.8c-0.2,0-0.4-0.1-0.6-0.2L13,16.8l-3.7,2.7c-0.4,0.3-0.8,0.3-1.2,0
	c-0.3-0.3-0.5-0.7-0.3-1.1l1.4-4l-3.7-2.5c-0.4-0.2-0.6-0.7-0.5-1.1c0.2-0.4,0.6-0.7,1-0.7h4.6L12,5.7C12.1,5.3,12.5,5,13,5
	s0.8,0.3,1,0.7l1.4,4.4H20c0.4,0,0.8,0.3,1,0.7c0.1,0.4,0,0.9-0.4,1.1l-3.7,2.4l1.4,4.2c0.1,0.4,0,0.9-0.4,1.1
	C17.7,19.7,17.5,19.8,17.3,19.8z M13,14.6c0.2,0,0.4,0.1,0.6,0.2l1.8,1.3l-0.6-1.9c-0.1-0.4,0-0.9,0.4-1.2l1.4-0.9h-1.9
	c-0.4,0-0.8-0.3-1-0.7L13,9.3l-0.7,2.1c-0.1,0.4-0.5,0.7-1,0.7h-2l1.5,1c0.4,0.3,0.6,0.7,0.4,1.2l-0.6,1.8l1.8-1.3
	C12.6,14.6,12.8,14.6,13,14.6z"/>
</svg>
