<?xml version="1.0" encoding="utf-8"?>
<!-- Generator: Adobe Illustrator 22.0.0, SVG Export Plug-In . SVG Version: 6.00 Build 0)  -->
<svg version="1.1" id="Capa_1" xmlns="http://www.w3.org/2000/svg" xmlns:xlink="http://www.w3.org/1999/xlink" x="0px" y="0px"
	 viewBox="0 0 80 60" style="enable-background:new 0 0 80 60;" xml:space="preserve">
<style type="text/css">
	.st0{fill:#393B48;}
</style>
<path class="st0" d="M30,10c8.5,0,16.1,5.4,18.9,13.4c1.4,4,5.2,6.7,9.4,6.7c0.3,0,0.6,0,0.8,0c0.3,0,0.7-0.1,1.1-0.1
	c5.4,0.2,9.7,4.6,9.7,10c0,5.5-4.5,10-10,10H30c-11,0-20-9-20-20C10,19,19,10,30,10 M30,0C13.4,0,0,13.4,0,30c0,16.6,13.4,30,30,30
	h30c11,0,20-9,20-20c0-11-9-20-20-20c-0.6,0-1.1,0.1-1.7,0.2C54.2,8.4,43.1,0,30,0L30,0z"/>
</svg>
