<svg xmlns="http://www.w3.org/2000/svg" xmlns:xlink="http://www.w3.org/1999/xlink" preserveAspectRatio="xMidYMid" width="79.13" height="79.38" viewBox="0 0 79.13 79.38">
  <defs>
    <style>
      .cls-1 {
        fill: #393b48;
        filter: url(#color-overlay-1);
        fill-rule: evenodd;
      }
    </style>

    <filter id="color-overlay-1" filterUnits="userSpaceOnUse">
      <feFlood flood-color="#fff"/>
      <feComposite operator="in" in2="SourceGraphic"/>
      <feBlend in2="SourceGraphic" result="solidFill"/>
    </filter>
  </defs>
  <path d="M77.673,43.260 L63.682,57.540 C61.758,59.504 58.610,59.504 56.686,57.540 C54.763,55.577 54.763,52.363 56.686,50.400 L67.179,39.690 L56.686,28.981 C54.763,27.017 54.763,23.804 56.686,21.840 C58.610,19.877 61.758,19.877 63.682,21.840 L77.673,36.120 C79.596,38.084 79.596,41.297 77.673,43.260 ZM39.424,75.139 C39.040,77.815 36.559,79.689 33.912,79.300 L33.749,79.276 C31.100,78.888 29.249,76.381 29.632,73.703 L39.595,4.241 C39.979,1.564 42.459,-0.308 45.107,0.080 L45.270,0.104 C47.918,0.492 49.770,3.000 49.386,5.677 L39.424,75.139 ZM22.400,57.540 C20.476,59.504 17.328,59.504 15.404,57.540 L1.413,43.260 C-0.510,41.297 -0.510,38.084 1.413,36.120 L15.404,21.840 C17.328,19.877 20.476,19.877 22.400,21.840 C24.323,23.804 24.323,27.017 22.400,28.980 L11.907,39.690 L22.400,50.400 C24.323,52.363 24.323,55.576 22.400,57.540 Z" class="cls-1"/>
</svg>
