<svg xmlns="http://www.w3.org/2000/svg" xmlns:xlink="http://www.w3.org/1999/xlink" preserveAspectRatio="xMidYMid" width="74.785" height="72.9" viewBox="0 0 74.785 72.9">
  <defs>
    <style>
      .cls-1 {
        fill: #393b48;
        filter: url(#color-overlay-1);
        fill-rule: evenodd;
      }
    </style>

    <filter id="color-overlay-1" filterUnits="userSpaceOnUse">
      <feFlood flood-color="#765fff"/>
      <feComposite operator="in" in2="SourceGraphic"/>
      <feBlend in2="SourceGraphic" result="solidFill"/>
    </filter>
  </defs>
  <path d="M67.386,42.463 C67.793,40.521 68.007,38.512 68.007,36.453 C68.007,19.961 54.296,6.591 37.384,6.591 C35.287,6.591 33.239,6.799 31.261,7.190 C18.464,-0.657 8.481,-2.134 3.153,3.072 C-2.784,8.861 0.241,19.445 7.374,30.497 C6.974,32.422 6.761,34.413 6.761,36.453 C6.761,52.947 20.472,66.316 37.384,66.316 C39.486,66.316 41.539,66.108 43.522,65.714 C50.674,70.099 57.636,72.912 63.287,72.912 C66.581,72.912 69.433,71.964 71.615,69.835 C77.008,64.575 75.440,54.924 67.386,42.463 ZM57.799,36.453 C57.799,44.712 52.613,51.805 45.253,54.816 C40.833,51.788 35.964,47.939 30.785,42.889 C25.605,37.838 21.658,33.092 18.552,28.784 C21.639,21.604 28.914,16.545 37.384,16.545 C48.641,16.545 57.799,25.476 57.799,36.453 ZM10.350,10.127 C10.832,9.806 13.715,9.565 19.540,12.218 C16.858,14.099 14.507,16.388 12.571,19.000 C10.341,14.374 9.678,11.111 10.350,10.127 ZM64.418,62.780 C63.399,63.452 60.044,62.812 55.293,60.642 C57.958,58.762 60.296,56.480 62.219,53.878 C64.702,59.090 64.861,62.127 64.418,62.780 Z" class="cls-1"/>
</svg>
